<?xml version="1.0" encoding="utf-8" standalone="no"?>
<!DOCTYPE svg PUBLIC "-//W3C//DTD SVG 1.1//EN"
  "http://www.w3.org/Graphics/SVG/1.1/DTD/svg11.dtd">
<svg xmlns:xlink="http://www.w3.org/1999/xlink" width="720pt" height="720pt" viewBox="0 0 720 720" xmlns="http://www.w3.org/2000/svg" version="1.1">
 <metadata>
  <rdf:RDF xmlns:dc="http://purl.org/dc/elements/1.1/" xmlns:cc="http://creativecommons.org/ns#" xmlns:rdf="http://www.w3.org/1999/02/22-rdf-syntax-ns#">
   <cc:Work>
    <dc:type rdf:resource="http://purl.org/dc/dcmitype/StillImage"/>
    <dc:date>2025-06-14T20:56:09.064361</dc:date>
    <dc:format>image/svg+xml</dc:format>
    <dc:creator>
     <cc:Agent>
      <dc:title>Matplotlib v3.9.2, https://matplotlib.org/</dc:title>
     </cc:Agent>
    </dc:creator>
   </cc:Work>
  </rdf:RDF>
 </metadata>
 <defs>
  <style type="text/css">*{stroke-linejoin: round; stroke-linecap: butt}</style>
 </defs>
 <g id="figure_1">
  <g id="patch_1">
   <path d="M 0 720 
L 720 720 
L 720 0 
L 0 0 
z
" style="fill: #24273a"/>
  </g>
  <g id="axes_1">
   <g id="patch_2">
    <path d="M 90 640.8 
L 648 640.8 
L 648 86.4 
L 90 86.4 
z
" style="fill: #24273a"/>
   </g>
   <g id="matplotlib.axis_1">
    <g id="xtick_1">
     <g id="line2d_1">
      <path d="M 108.957798 640.8 
L 108.957798 86.4 
" clip-path="url(#p5d803c2984)" style="fill: none; stroke: #cad3f5; stroke-width: 0.5; stroke-linecap: square"/>
     </g>
     <g id="line2d_2">
      <defs>
       <path id="m7184f13fb8" d="M 0 0 
L 0 3.5 
" style="stroke: #cad3f5; stroke-width: 0.8"/>
      </defs>
      <g>
       <use xlink:href="#m7184f13fb8" x="108.957798" y="640.8" style="fill: #cad3f5; stroke: #cad3f5; stroke-width: 0.8"/>
      </g>
     </g>
     <g id="text_1">
      <!-- −0.3 -->
      <g style="fill: #cad3f5" transform="translate(96.816391 655.398438) scale(0.1 -0.1)">
       <defs>
        <path id="DejaVuSans-2212" d="M 678 2272 
L 4684 2272 
L 4684 1741 
L 678 1741 
L 678 2272 
z
" transform="scale(0.015625)"/>
        <path id="DejaVuSans-30" d="M 2034 4250 
Q 1547 4250 1301 3770 
Q 1056 3291 1056 2328 
Q 1056 1369 1301 889 
Q 1547 409 2034 409 
Q 2525 409 2770 889 
Q 3016 1369 3016 2328 
Q 3016 3291 2770 3770 
Q 2525 4250 2034 4250 
z
M 2034 4750 
Q 2819 4750 3233 4129 
Q 3647 3509 3647 2328 
Q 3647 1150 3233 529 
Q 2819 -91 2034 -91 
Q 1250 -91 836 529 
Q 422 1150 422 2328 
Q 422 3509 836 4129 
Q 1250 4750 2034 4750 
z
" transform="scale(0.015625)"/>
        <path id="DejaVuSans-2e" d="M 684 794 
L 1344 794 
L 1344 0 
L 684 0 
L 684 794 
z
" transform="scale(0.015625)"/>
        <path id="DejaVuSans-33" d="M 2597 2516 
Q 3050 2419 3304 2112 
Q 3559 1806 3559 1356 
Q 3559 666 3084 287 
Q 2609 -91 1734 -91 
Q 1441 -91 1130 -33 
Q 819 25 488 141 
L 488 750 
Q 750 597 1062 519 
Q 1375 441 1716 441 
Q 2309 441 2620 675 
Q 2931 909 2931 1356 
Q 2931 1769 2642 2001 
Q 2353 2234 1838 2234 
L 1294 2234 
L 1294 2753 
L 1863 2753 
Q 2328 2753 2575 2939 
Q 2822 3125 2822 3475 
Q 2822 3834 2567 4026 
Q 2313 4219 1838 4219 
Q 1578 4219 1281 4162 
Q 984 4106 628 3988 
L 628 4550 
Q 988 4650 1302 4700 
Q 1616 4750 1894 4750 
Q 2613 4750 3031 4423 
Q 3450 4097 3450 3541 
Q 3450 3153 3228 2886 
Q 3006 2619 2597 2516 
z
" transform="scale(0.015625)"/>
       </defs>
       <use xlink:href="#DejaVuSans-2212"/>
       <use xlink:href="#DejaVuSans-30" x="83.789062"/>
       <use xlink:href="#DejaVuSans-2e" x="147.412109"/>
       <use xlink:href="#DejaVuSans-33" x="179.199219"/>
      </g>
     </g>
    </g>
    <g id="xtick_2">
     <g id="line2d_3">
      <path d="M 172.295444 640.8 
L 172.295444 86.4 
" clip-path="url(#p5d803c2984)" style="fill: none; stroke: #cad3f5; stroke-width: 0.5; stroke-linecap: square"/>
     </g>
     <g id="line2d_4">
      <g>
       <use xlink:href="#m7184f13fb8" x="172.295444" y="640.8" style="fill: #cad3f5; stroke: #cad3f5; stroke-width: 0.8"/>
      </g>
     </g>
     <g id="text_2">
      <!-- −0.2 -->
      <g style="fill: #cad3f5" transform="translate(160.154038 655.398438) scale(0.1 -0.1)">
       <defs>
        <path id="DejaVuSans-32" d="M 1228 531 
L 3431 531 
L 3431 0 
L 469 0 
L 469 531 
Q 828 903 1448 1529 
Q 2069 2156 2228 2338 
Q 2531 2678 2651 2914 
Q 2772 3150 2772 3378 
Q 2772 3750 2511 3984 
Q 2250 4219 1831 4219 
Q 1534 4219 1204 4116 
Q 875 4013 500 3803 
L 500 4441 
Q 881 4594 1212 4672 
Q 1544 4750 1819 4750 
Q 2544 4750 2975 4387 
Q 3406 4025 3406 3419 
Q 3406 3131 3298 2873 
Q 3191 2616 2906 2266 
Q 2828 2175 2409 1742 
Q 1991 1309 1228 531 
z
" transform="scale(0.015625)"/>
       </defs>
       <use xlink:href="#DejaVuSans-2212"/>
       <use xlink:href="#DejaVuSans-30" x="83.789062"/>
       <use xlink:href="#DejaVuSans-2e" x="147.412109"/>
       <use xlink:href="#DejaVuSans-32" x="179.199219"/>
      </g>
     </g>
    </g>
    <g id="xtick_3">
     <g id="line2d_5">
      <path d="M 235.63309 640.8 
L 235.63309 86.4 
" clip-path="url(#p5d803c2984)" style="fill: none; stroke: #cad3f5; stroke-width: 0.5; stroke-linecap: square"/>
     </g>
     <g id="line2d_6">
      <g>
       <use xlink:href="#m7184f13fb8" x="235.63309" y="640.8" style="fill: #cad3f5; stroke: #cad3f5; stroke-width: 0.8"/>
      </g>
     </g>
     <g id="text_3">
      <!-- −0.1 -->
      <g style="fill: #cad3f5" transform="translate(223.491684 655.398438) scale(0.1 -0.1)">
       <defs>
        <path id="DejaVuSans-31" d="M 794 531 
L 1825 531 
L 1825 4091 
L 703 3866 
L 703 4441 
L 1819 4666 
L 2450 4666 
L 2450 531 
L 3481 531 
L 3481 0 
L 794 0 
L 794 531 
z
" transform="scale(0.015625)"/>
       </defs>
       <use xlink:href="#DejaVuSans-2212"/>
       <use xlink:href="#DejaVuSans-30" x="83.789062"/>
       <use xlink:href="#DejaVuSans-2e" x="147.412109"/>
       <use xlink:href="#DejaVuSans-31" x="179.199219"/>
      </g>
     </g>
    </g>
    <g id="xtick_4">
     <g id="line2d_7">
      <path d="M 298.970737 640.8 
L 298.970737 86.4 
" clip-path="url(#p5d803c2984)" style="fill: none; stroke: #cad3f5; stroke-width: 0.5; stroke-linecap: square"/>
     </g>
     <g id="line2d_8">
      <g>
       <use xlink:href="#m7184f13fb8" x="298.970737" y="640.8" style="fill: #cad3f5; stroke: #cad3f5; stroke-width: 0.8"/>
      </g>
     </g>
     <g id="text_4">
      <!-- 0.0 -->
      <g style="fill: #cad3f5" transform="translate(291.019174 655.398438) scale(0.1 -0.1)">
       <use xlink:href="#DejaVuSans-30"/>
       <use xlink:href="#DejaVuSans-2e" x="63.623047"/>
       <use xlink:href="#DejaVuSans-30" x="95.410156"/>
      </g>
     </g>
    </g>
    <g id="xtick_5">
     <g id="line2d_9">
      <path d="M 362.308383 640.8 
L 362.308383 86.4 
" clip-path="url(#p5d803c2984)" style="fill: none; stroke: #cad3f5; stroke-width: 0.5; stroke-linecap: square"/>
     </g>
     <g id="line2d_10">
      <g>
       <use xlink:href="#m7184f13fb8" x="362.308383" y="640.8" style="fill: #cad3f5; stroke: #cad3f5; stroke-width: 0.8"/>
      </g>
     </g>
     <g id="text_5">
      <!-- 0.1 -->
      <g style="fill: #cad3f5" transform="translate(354.35682 655.398438) scale(0.1 -0.1)">
       <use xlink:href="#DejaVuSans-30"/>
       <use xlink:href="#DejaVuSans-2e" x="63.623047"/>
       <use xlink:href="#DejaVuSans-31" x="95.410156"/>
      </g>
     </g>
    </g>
    <g id="xtick_6">
     <g id="line2d_11">
      <path d="M 425.646029 640.8 
L 425.646029 86.4 
" clip-path="url(#p5d803c2984)" style="fill: none; stroke: #cad3f5; stroke-width: 0.5; stroke-linecap: square"/>
     </g>
     <g id="line2d_12">
      <g>
       <use xlink:href="#m7184f13fb8" x="425.646029" y="640.8" style="fill: #cad3f5; stroke: #cad3f5; stroke-width: 0.8"/>
      </g>
     </g>
     <g id="text_6">
      <!-- 0.2 -->
      <g style="fill: #cad3f5" transform="translate(417.694467 655.398438) scale(0.1 -0.1)">
       <use xlink:href="#DejaVuSans-30"/>
       <use xlink:href="#DejaVuSans-2e" x="63.623047"/>
       <use xlink:href="#DejaVuSans-32" x="95.410156"/>
      </g>
     </g>
    </g>
    <g id="xtick_7">
     <g id="line2d_13">
      <path d="M 488.983675 640.8 
L 488.983675 86.4 
" clip-path="url(#p5d803c2984)" style="fill: none; stroke: #cad3f5; stroke-width: 0.5; stroke-linecap: square"/>
     </g>
     <g id="line2d_14">
      <g>
       <use xlink:href="#m7184f13fb8" x="488.983675" y="640.8" style="fill: #cad3f5; stroke: #cad3f5; stroke-width: 0.8"/>
      </g>
     </g>
     <g id="text_7">
      <!-- 0.3 -->
      <g style="fill: #cad3f5" transform="translate(481.032113 655.398438) scale(0.1 -0.1)">
       <use xlink:href="#DejaVuSans-30"/>
       <use xlink:href="#DejaVuSans-2e" x="63.623047"/>
       <use xlink:href="#DejaVuSans-33" x="95.410156"/>
      </g>
     </g>
    </g>
    <g id="xtick_8">
     <g id="line2d_15">
      <path d="M 552.321322 640.8 
L 552.321322 86.4 
" clip-path="url(#p5d803c2984)" style="fill: none; stroke: #cad3f5; stroke-width: 0.5; stroke-linecap: square"/>
     </g>
     <g id="line2d_16">
      <g>
       <use xlink:href="#m7184f13fb8" x="552.321322" y="640.8" style="fill: #cad3f5; stroke: #cad3f5; stroke-width: 0.8"/>
      </g>
     </g>
     <g id="text_8">
      <!-- 0.4 -->
      <g style="fill: #cad3f5" transform="translate(544.369759 655.398438) scale(0.1 -0.1)">
       <defs>
        <path id="DejaVuSans-34" d="M 2419 4116 
L 825 1625 
L 2419 1625 
L 2419 4116 
z
M 2253 4666 
L 3047 4666 
L 3047 1625 
L 3713 1625 
L 3713 1100 
L 3047 1100 
L 3047 0 
L 2419 0 
L 2419 1100 
L 313 1100 
L 313 1709 
L 2253 4666 
z
" transform="scale(0.015625)"/>
       </defs>
       <use xlink:href="#DejaVuSans-30"/>
       <use xlink:href="#DejaVuSans-2e" x="63.623047"/>
       <use xlink:href="#DejaVuSans-34" x="95.410156"/>
      </g>
     </g>
    </g>
    <g id="xtick_9">
     <g id="line2d_17">
      <path d="M 615.658968 640.8 
L 615.658968 86.4 
" clip-path="url(#p5d803c2984)" style="fill: none; stroke: #cad3f5; stroke-width: 0.5; stroke-linecap: square"/>
     </g>
     <g id="line2d_18">
      <g>
       <use xlink:href="#m7184f13fb8" x="615.658968" y="640.8" style="fill: #cad3f5; stroke: #cad3f5; stroke-width: 0.8"/>
      </g>
     </g>
     <g id="text_9">
      <!-- 0.5 -->
      <g style="fill: #cad3f5" transform="translate(607.707406 655.398438) scale(0.1 -0.1)">
       <defs>
        <path id="DejaVuSans-35" d="M 691 4666 
L 3169 4666 
L 3169 4134 
L 1269 4134 
L 1269 2991 
Q 1406 3038 1543 3061 
Q 1681 3084 1819 3084 
Q 2600 3084 3056 2656 
Q 3513 2228 3513 1497 
Q 3513 744 3044 326 
Q 2575 -91 1722 -91 
Q 1428 -91 1123 -41 
Q 819 9 494 109 
L 494 744 
Q 775 591 1075 516 
Q 1375 441 1709 441 
Q 2250 441 2565 725 
Q 2881 1009 2881 1497 
Q 2881 1984 2565 2268 
Q 2250 2553 1709 2553 
Q 1456 2553 1204 2497 
Q 953 2441 691 2322 
L 691 4666 
z
" transform="scale(0.015625)"/>
       </defs>
       <use xlink:href="#DejaVuSans-30"/>
       <use xlink:href="#DejaVuSans-2e" x="63.623047"/>
       <use xlink:href="#DejaVuSans-35" x="95.410156"/>
      </g>
     </g>
    </g>
    <g id="text_10">
     <!-- y [m] -->
     <g style="fill: #cad3f5" transform="translate(345.023438 675.155313) scale(0.18 -0.18)">
      <defs>
       <path id="DejaVuSans-79" d="M 2059 -325 
Q 1816 -950 1584 -1140 
Q 1353 -1331 966 -1331 
L 506 -1331 
L 506 -850 
L 844 -850 
Q 1081 -850 1212 -737 
Q 1344 -625 1503 -206 
L 1606 56 
L 191 3500 
L 800 3500 
L 1894 763 
L 2988 3500 
L 3597 3500 
L 2059 -325 
z
" transform="scale(0.015625)"/>
       <path id="DejaVuSans-20" transform="scale(0.015625)"/>
       <path id="DejaVuSans-5b" d="M 550 4863 
L 1875 4863 
L 1875 4416 
L 1125 4416 
L 1125 -397 
L 1875 -397 
L 1875 -844 
L 550 -844 
L 550 4863 
z
" transform="scale(0.015625)"/>
       <path id="DejaVuSans-6d" d="M 3328 2828 
Q 3544 3216 3844 3400 
Q 4144 3584 4550 3584 
Q 5097 3584 5394 3201 
Q 5691 2819 5691 2113 
L 5691 0 
L 5113 0 
L 5113 2094 
Q 5113 2597 4934 2840 
Q 4756 3084 4391 3084 
Q 3944 3084 3684 2787 
Q 3425 2491 3425 1978 
L 3425 0 
L 2847 0 
L 2847 2094 
Q 2847 2600 2669 2842 
Q 2491 3084 2119 3084 
Q 1678 3084 1418 2786 
Q 1159 2488 1159 1978 
L 1159 0 
L 581 0 
L 581 3500 
L 1159 3500 
L 1159 2956 
Q 1356 3278 1631 3431 
Q 1906 3584 2284 3584 
Q 2666 3584 2933 3390 
Q 3200 3197 3328 2828 
z
" transform="scale(0.015625)"/>
       <path id="DejaVuSans-5d" d="M 1947 4863 
L 1947 -844 
L 622 -844 
L 622 -397 
L 1369 -397 
L 1369 4416 
L 622 4416 
L 622 4863 
L 1947 4863 
z
" transform="scale(0.015625)"/>
      </defs>
      <use xlink:href="#DejaVuSans-79"/>
      <use xlink:href="#DejaVuSans-20" x="59.179688"/>
      <use xlink:href="#DejaVuSans-5b" x="90.966797"/>
      <use xlink:href="#DejaVuSans-6d" x="129.980469"/>
      <use xlink:href="#DejaVuSans-5d" x="227.392578"/>
     </g>
    </g>
   </g>
   <g id="matplotlib.axis_2">
    <g id="ytick_1">
     <g id="line2d_19">
      <path d="M 90 622.856349 
L 648 622.856349 
" clip-path="url(#p5d803c2984)" style="fill: none; stroke: #cad3f5; stroke-width: 0.5; stroke-linecap: square"/>
     </g>
     <g id="line2d_20">
      <defs>
       <path id="md5e1131e34" d="M 0 0 
L -3.5 0 
" style="stroke: #cad3f5; stroke-width: 0.8"/>
      </defs>
      <g>
       <use xlink:href="#md5e1131e34" x="90" y="622.856349" style="fill: #cad3f5; stroke: #cad3f5; stroke-width: 0.8"/>
      </g>
     </g>
     <g id="text_11">
      <!-- 0.55 -->
      <g style="fill: #cad3f5" transform="translate(60.734375 626.655567) scale(0.1 -0.1)">
       <use xlink:href="#DejaVuSans-30"/>
       <use xlink:href="#DejaVuSans-2e" x="63.623047"/>
       <use xlink:href="#DejaVuSans-35" x="95.410156"/>
       <use xlink:href="#DejaVuSans-35" x="159.033203"/>
      </g>
     </g>
    </g>
    <g id="ytick_2">
     <g id="line2d_21">
      <path d="M 90 523.96199 
L 648 523.96199 
" clip-path="url(#p5d803c2984)" style="fill: none; stroke: #cad3f5; stroke-width: 0.5; stroke-linecap: square"/>
     </g>
     <g id="line2d_22">
      <g>
       <use xlink:href="#md5e1131e34" x="90" y="523.96199" style="fill: #cad3f5; stroke: #cad3f5; stroke-width: 0.8"/>
      </g>
     </g>
     <g id="text_12">
      <!-- 0.60 -->
      <g style="fill: #cad3f5" transform="translate(60.734375 527.761209) scale(0.1 -0.1)">
       <defs>
        <path id="DejaVuSans-36" d="M 2113 2584 
Q 1688 2584 1439 2293 
Q 1191 2003 1191 1497 
Q 1191 994 1439 701 
Q 1688 409 2113 409 
Q 2538 409 2786 701 
Q 3034 994 3034 1497 
Q 3034 2003 2786 2293 
Q 2538 2584 2113 2584 
z
M 3366 4563 
L 3366 3988 
Q 3128 4100 2886 4159 
Q 2644 4219 2406 4219 
Q 1781 4219 1451 3797 
Q 1122 3375 1075 2522 
Q 1259 2794 1537 2939 
Q 1816 3084 2150 3084 
Q 2853 3084 3261 2657 
Q 3669 2231 3669 1497 
Q 3669 778 3244 343 
Q 2819 -91 2113 -91 
Q 1303 -91 875 529 
Q 447 1150 447 2328 
Q 447 3434 972 4092 
Q 1497 4750 2381 4750 
Q 2619 4750 2861 4703 
Q 3103 4656 3366 4563 
z
" transform="scale(0.015625)"/>
       </defs>
       <use xlink:href="#DejaVuSans-30"/>
       <use xlink:href="#DejaVuSans-2e" x="63.623047"/>
       <use xlink:href="#DejaVuSans-36" x="95.410156"/>
       <use xlink:href="#DejaVuSans-30" x="159.033203"/>
      </g>
     </g>
    </g>
    <g id="ytick_3">
     <g id="line2d_23">
      <path d="M 90 425.067632 
L 648 425.067632 
" clip-path="url(#p5d803c2984)" style="fill: none; stroke: #cad3f5; stroke-width: 0.5; stroke-linecap: square"/>
     </g>
     <g id="line2d_24">
      <g>
       <use xlink:href="#md5e1131e34" x="90" y="425.067632" style="fill: #cad3f5; stroke: #cad3f5; stroke-width: 0.8"/>
      </g>
     </g>
     <g id="text_13">
      <!-- 0.65 -->
      <g style="fill: #cad3f5" transform="translate(60.734375 428.86685) scale(0.1 -0.1)">
       <use xlink:href="#DejaVuSans-30"/>
       <use xlink:href="#DejaVuSans-2e" x="63.623047"/>
       <use xlink:href="#DejaVuSans-36" x="95.410156"/>
       <use xlink:href="#DejaVuSans-35" x="159.033203"/>
      </g>
     </g>
    </g>
    <g id="ytick_4">
     <g id="line2d_25">
      <path d="M 90 326.173273 
L 648 326.173273 
" clip-path="url(#p5d803c2984)" style="fill: none; stroke: #cad3f5; stroke-width: 0.5; stroke-linecap: square"/>
     </g>
     <g id="line2d_26">
      <g>
       <use xlink:href="#md5e1131e34" x="90" y="326.173273" style="fill: #cad3f5; stroke: #cad3f5; stroke-width: 0.8"/>
      </g>
     </g>
     <g id="text_14">
      <!-- 0.70 -->
      <g style="fill: #cad3f5" transform="translate(60.734375 329.972492) scale(0.1 -0.1)">
       <defs>
        <path id="DejaVuSans-37" d="M 525 4666 
L 3525 4666 
L 3525 4397 
L 1831 0 
L 1172 0 
L 2766 4134 
L 525 4134 
L 525 4666 
z
" transform="scale(0.015625)"/>
       </defs>
       <use xlink:href="#DejaVuSans-30"/>
       <use xlink:href="#DejaVuSans-2e" x="63.623047"/>
       <use xlink:href="#DejaVuSans-37" x="95.410156"/>
       <use xlink:href="#DejaVuSans-30" x="159.033203"/>
      </g>
     </g>
    </g>
    <g id="ytick_5">
     <g id="line2d_27">
      <path d="M 90 227.278915 
L 648 227.278915 
" clip-path="url(#p5d803c2984)" style="fill: none; stroke: #cad3f5; stroke-width: 0.5; stroke-linecap: square"/>
     </g>
     <g id="line2d_28">
      <g>
       <use xlink:href="#md5e1131e34" x="90" y="227.278915" style="fill: #cad3f5; stroke: #cad3f5; stroke-width: 0.8"/>
      </g>
     </g>
     <g id="text_15">
      <!-- 0.75 -->
      <g style="fill: #cad3f5" transform="translate(60.734375 231.078133) scale(0.1 -0.1)">
       <use xlink:href="#DejaVuSans-30"/>
       <use xlink:href="#DejaVuSans-2e" x="63.623047"/>
       <use xlink:href="#DejaVuSans-37" x="95.410156"/>
       <use xlink:href="#DejaVuSans-35" x="159.033203"/>
      </g>
     </g>
    </g>
    <g id="ytick_6">
     <g id="line2d_29">
      <path d="M 90 128.384556 
L 648 128.384556 
" clip-path="url(#p5d803c2984)" style="fill: none; stroke: #cad3f5; stroke-width: 0.5; stroke-linecap: square"/>
     </g>
     <g id="line2d_30">
      <g>
       <use xlink:href="#md5e1131e34" x="90" y="128.384556" style="fill: #cad3f5; stroke: #cad3f5; stroke-width: 0.8"/>
      </g>
     </g>
     <g id="text_16">
      <!-- 0.80 -->
      <g style="fill: #cad3f5" transform="translate(60.734375 132.183775) scale(0.1 -0.1)">
       <defs>
        <path id="DejaVuSans-38" d="M 2034 2216 
Q 1584 2216 1326 1975 
Q 1069 1734 1069 1313 
Q 1069 891 1326 650 
Q 1584 409 2034 409 
Q 2484 409 2743 651 
Q 3003 894 3003 1313 
Q 3003 1734 2745 1975 
Q 2488 2216 2034 2216 
z
M 1403 2484 
Q 997 2584 770 2862 
Q 544 3141 544 3541 
Q 544 4100 942 4425 
Q 1341 4750 2034 4750 
Q 2731 4750 3128 4425 
Q 3525 4100 3525 3541 
Q 3525 3141 3298 2862 
Q 3072 2584 2669 2484 
Q 3125 2378 3379 2068 
Q 3634 1759 3634 1313 
Q 3634 634 3220 271 
Q 2806 -91 2034 -91 
Q 1263 -91 848 271 
Q 434 634 434 1313 
Q 434 1759 690 2068 
Q 947 2378 1403 2484 
z
M 1172 3481 
Q 1172 3119 1398 2916 
Q 1625 2713 2034 2713 
Q 2441 2713 2670 2916 
Q 2900 3119 2900 3481 
Q 2900 3844 2670 4047 
Q 2441 4250 2034 4250 
Q 1625 4250 1398 4047 
Q 1172 3844 1172 3481 
z
" transform="scale(0.015625)"/>
       </defs>
       <use xlink:href="#DejaVuSans-30"/>
       <use xlink:href="#DejaVuSans-2e" x="63.623047"/>
       <use xlink:href="#DejaVuSans-38" x="95.410156"/>
       <use xlink:href="#DejaVuSans-30" x="159.033203"/>
      </g>
     </g>
    </g>
    <g id="text_17">
     <!-- z [m] -->
     <g style="fill: #cad3f5" transform="translate(52.990938 386.973281) rotate(-90) scale(0.18 -0.18)">
      <defs>
       <path id="DejaVuSans-7a" d="M 353 3500 
L 3084 3500 
L 3084 2975 
L 922 459 
L 3084 459 
L 3084 0 
L 275 0 
L 275 525 
L 2438 3041 
L 353 3041 
L 353 3500 
z
" transform="scale(0.015625)"/>
      </defs>
      <use xlink:href="#DejaVuSans-7a"/>
      <use xlink:href="#DejaVuSans-20" x="52.490234"/>
      <use xlink:href="#DejaVuSans-5b" x="84.277344"/>
      <use xlink:href="#DejaVuSans-6d" x="123.291016"/>
      <use xlink:href="#DejaVuSans-5d" x="220.703125"/>
     </g>
    </g>
   </g>
   <g id="line2d_31"/>
   <g id="line2d_32"/>
   <g id="line2d_33">
    <path d="M 117.470529 239.739314 
L 127.985794 258.577748 
L 138.41255 276.769667 
L 148.721566 294.339591 
L 160.920909 314.673594 
L 172.927291 334.248377 
L 184.739344 353.081859 
L 196.360049 371.164021 
L 207.796666 388.486374 
L 217.193807 402.342016 
L 226.476751 415.676225 
L 235.652461 428.4969 
L 244.727938 440.813589 
L 253.710135 452.635372 
L 262.605891 463.971324 
L 271.421919 474.829816 
L 280.164837 485.21863 
L 288.841173 495.144367 
L 297.457396 504.612686 
L 306.019938 513.628302 
L 312.835634 520.517514 
L 319.624371 527.120721 
L 326.389453 533.438986 
L 333.134205 539.472661 
L 339.861981 545.221628 
L 346.576178 550.685063 
L 353.280233 555.861668 
L 359.977659 560.74944 
L 366.672035 565.345784 
L 373.367035 569.646811 
L 380.066419 573.648512 
L 386.774085 577.345464 
L 393.494067 580.731301 
L 398.544648 583.062483 
L 403.606328 585.211051 
L 408.681013 587.173352 
L 413.770668 588.945257 
L 418.877311 590.521935 
L 424.003075 591.898198 
L 429.15016 593.068858 
L 434.320859 594.027785 
L 439.517578 594.768378 
L 444.742848 595.283799 
L 449.999282 595.566502 
L 455.289646 595.608236 
L 460.616847 595.400511 
L 465.983923 594.934015 
L 471.394056 594.198963 
L 476.850642 593.184863 
L 482.357156 591.880868 
L 487.917335 590.275306 
L 493.535048 588.356037 
L 499.214316 586.110444 
L 504.959367 583.52556 
L 510.774543 580.588181 
L 516.664392 577.284868 
L 522.633503 573.602181 
L 528.686612 569.526798 
L 534.828589 565.045397 
L 541.064475 560.14454 
L 547.399215 554.811375 
L 553.837661 549.034703 
L 560.384266 542.805682 
L 567.042844 536.119597 
L 573.816284 528.976212 
L 580.706075 521.382718 
L 587.711917 513.354795 
L 594.831242 504.918142 
L 604.49042 493.101076 
L 614.321427 480.749372 
L 614.321427 480.749372 
" clip-path="url(#p5d803c2984)" style="fill: none; stroke: #f2d5cf; stroke-width: 2; stroke-linecap: square"/>
   </g>
   <g id="line2d_34">
    <path d="M 115.363636 235.919755 
L 120.74991 245.00198 
L 126.146093 254.183351 
L 131.548732 263.45491 
L 136.954221 272.806516 
L 142.35921 282.228268 
L 147.760301 291.710262 
L 153.154275 301.24236 
L 158.537916 310.813952 
L 163.908248 320.414898 
L 169.262271 330.034 
L 174.59723 339.660882 
L 179.910462 349.284464 
L 185.199448 358.893427 
L 190.461857 368.476808 
L 195.695498 378.023289 
L 200.898362 387.521316 
L 206.068664 396.959926 
L 211.204782 406.32733 
L 216.305252 415.61221 
L 221.36891 424.803013 
L 226.394673 433.888185 
L 231.381807 442.856881 
L 236.329669 451.697429 
L 241.237905 460.398747 
L 246.106388 468.949636 
L 250.935175 477.339721 
L 255.724563 485.557921 
L 260.475045 493.593979 
L 265.187352 501.437992 
L 269.862431 509.079704 
L 274.501423 516.510036 
L 279.105693 523.719559 
L 283.676749 530.699311 
L 288.216389 537.441158 
L 292.726483 543.937203 
L 297.209147 550.179899 
L 301.666679 556.162409 
L 306.101438 561.878131 
L 310.516055 567.321288 
L 314.913156 572.48634 
L 319.295599 577.368807 
L 323.666313 581.964444 
L 328.028291 586.269479 
L 332.384664 590.281437 
L 336.738536 593.997723 
L 341.093179 597.416923 
L 345.45179 600.537741 
L 349.817693 603.360293 
L 354.194081 605.884817 
L 358.584301 608.112136 
L 362.991566 610.043785 
L 367.419052 611.682238 
L 371.869888 613.030442 
L 376.347188 614.091935 
L 380.853882 614.870843 
L 385.392902 615.371645 
L 389.966966 615.6 
L 394.578781 615.561332 
L 399.230784 615.262124 
L 403.925334 614.709567 
L 408.664704 613.910382 
L 413.450831 612.872468 
L 418.285555 611.604194 
L 423.170517 610.11393 
L 428.107199 608.410401 
L 433.096792 606.502921 
L 438.14036 604.400802 
L 443.23866 602.113593 
L 448.392276 599.651434 
L 453.601633 597.02411 
L 458.86675 594.241876 
L 464.187542 591.315107 
L 469.563736 588.254061 
L 474.994689 585.068992 
L 480.479589 581.770513 
L 486.017513 578.36876 
L 491.607063 574.87411 
L 497.246918 571.296817 
L 502.935246 567.646668 
L 508.670161 563.93439 
L 514.449491 560.169179 
L 520.271122 556.360702 
L 526.13228 552.518743 
L 532.030417 548.652382 
L 537.9627 544.770458 
L 543.925977 540.882051 
L 549.917003 536.995529 
L 555.932548 533.1195 
L 561.969046 529.261627 
L 568.022834 525.429807 
L 574.090195 521.631586 
L 580.167352 517.874156 
L 586.250228 514.164472 
L 592.334728 510.509253 
L 598.41685 506.91522 
L 604.492383 503.388149 
L 610.556931 499.934407 
L 616.606321 496.559298 
L 622.636364 493.268717 
" clip-path="url(#p5d803c2984)" style="fill: none; stroke-dasharray: 7.4,3.2; stroke-dashoffset: 0; stroke: #f2d5cf; stroke-width: 2"/>
   </g>
   <g id="line2d_35">
    <path d="M 117.470529 239.739314 
L 127.985153 258.57315 
L 138.4117 276.763654 
L 148.72217 294.344189 
L 160.923693 314.694342 
L 172.92781 334.250735 
L 182.774862 349.917422 
L 192.47805 364.973905 
L 202.039006 379.390238 
L 211.461855 393.146498 
L 218.904575 403.669118 
L 226.266094 413.760846 
L 233.550117 423.422153 
L 240.760505 432.654453 
L 247.901184 441.460813 
L 254.976093 449.84406 
L 261.989171 457.807379 
L 268.944347 465.354188 
L 275.845528 472.487081 
L 282.6966 479.209241 
L 289.501429 485.52279 
L 296.263871 491.429613 
L 302.987774 496.931127 
L 308.007724 500.79183 
L 313.009784 504.425239 
L 317.995584 507.831117 
L 322.96676 511.00923 
L 327.924952 513.959105 
L 332.871821 516.680036 
L 337.809029 519.170842 
L 342.738263 521.430346 
L 347.661227 523.456897 
L 352.579652 525.248608 
L 357.495278 526.803476 
L 362.409895 528.118907 
L 367.325309 529.192071 
L 372.24337 530.019786 
L 377.165976 530.598514 
L 382.095051 530.924483 
L 387.032574 530.993332 
L 391.980591 530.800344 
L 396.94119 530.340803 
L 401.916512 529.608934 
L 406.908785 528.59896 
L 411.920283 527.304632 
L 416.953384 525.719466 
L 422.010506 523.836389 
L 427.094167 521.647973 
L 432.206963 519.146321 
L 437.351576 516.323297 
L 442.53074 513.170884 
L 447.747308 509.680124 
L 453.004186 505.842528 
L 458.304337 501.6489 
L 463.650782 497.090752 
L 469.046587 492.15936 
L 474.494831 486.846591 
L 479.998551 481.144544 
L 485.560806 475.046736 
L 491.184446 468.547155 
L 496.872265 461.641792 
L 502.626773 454.32829 
L 508.450198 446.607002 
L 514.344313 438.480875 
L 520.310441 429.956394 
L 528.378271 417.989959 
L 536.574552 405.373708 
L 544.895736 392.163049 
L 555.462458 374.926992 
L 568.35562 353.431761 
L 596.806568 305.784121 
L 596.806568 305.784121 
" clip-path="url(#p5d803c2984)" style="fill: none; stroke: #eebebe; stroke-width: 2; stroke-linecap: square"/>
   </g>
   <g id="line2d_36">
    <path d="M 115.363636 235.919755 
L 120.207977 244.365131 
L 125.060623 252.892206 
L 129.918725 261.491548 
L 134.779261 270.153019 
L 139.63942 278.866598 
L 144.49638 287.622382 
L 149.347412 296.410115 
L 154.189912 305.21954 
L 159.021285 314.040046 
L 163.839095 322.861613 
L 168.64105 331.673042 
L 173.424864 340.464193 
L 178.188501 349.223868 
L 182.92991 357.941691 
L 187.647356 366.606581 
L 192.339074 375.207927 
L 197.003564 383.734531 
L 201.639427 392.175899 
L 206.245458 400.521185 
L 210.82055 408.759545 
L 215.363864 416.880249 
L 219.874636 424.872805 
L 224.352332 432.726603 
L 228.796557 440.431386 
L 233.207134 447.97678 
L 237.583999 455.353001 
L 241.92735 462.550027 
L 246.237464 469.558309 
L 250.514857 476.368415 
L 254.760198 482.971269 
L 258.974332 489.358264 
L 263.158217 495.520676 
L 267.313059 501.450253 
L 271.440139 507.139449 
L 275.540889 512.580721 
L 279.616973 517.767347 
L 283.67009 522.692372 
L 287.702104 527.349902 
L 291.715016 531.73416 
L 295.710868 535.840077 
L 299.691913 539.662701 
L 303.660388 543.198142 
L 307.618685 546.442746 
L 311.569212 549.392857 
L 315.51446 552.046471 
L 319.456964 554.401467 
L 323.399346 556.456194 
L 327.344175 558.209708 
L 331.294039 559.661657 
L 335.251591 560.812276 
L 339.219382 561.662508 
L 343.200071 562.213178 
L 347.196135 562.466762 
L 351.210126 562.425264 
L 355.244437 562.09175 
L 359.301494 561.469638 
L 363.383514 560.563054 
L 367.492801 559.376242 
L 371.631393 557.914391 
L 375.801329 556.182804 
L 380.004439 554.187376 
L 384.242508 551.934474 
L 388.517112 549.4307 
L 392.829761 546.683244 
L 397.181719 543.699652 
L 401.574203 540.487469 
L 406.00815 537.055182 
L 410.484473 533.41081 
L 415.00373 529.563193 
L 419.566458 525.521173 
L 424.17296 521.294182 
L 428.82333 516.891061 
L 433.517483 512.321713 
L 438.255193 507.595806 
L 443.036016 502.722771 
L 447.859375 497.712628 
L 452.724395 492.575281 
L 457.630159 487.320631 
L 462.575467 481.958701 
L 467.558944 476.499746 
L 472.579191 470.953198 
L 477.634415 465.329667 
L 482.722843 459.638584 
L 487.842397 453.890088 
L 492.99102 448.093729 
L 498.166334 442.259408 
L 503.365904 436.396558 
L 508.587238 430.514491 
L 513.827543 424.622875 
L 519.084118 418.730552 
L 524.353926 412.846953 
L 529.633927 406.980684 
L 534.921176 401.140586 
L 540.21222 395.335503 
L 545.504018 389.573449 
L 550.793042 383.863386 
L 556.075969 378.21274 
L 561.349401 372.629763 
L 566.609789 367.122119 
" clip-path="url(#p5d803c2984)" style="fill: none; stroke-dasharray: 7.4,3.2; stroke-dashoffset: 0; stroke: #eebebe; stroke-width: 2"/>
   </g>
   <g id="line2d_37">
    <path d="M 117.470529 239.739314 
L 127.984511 258.56867 
L 138.410719 276.756581 
L 148.721877 294.342184 
L 160.923032 314.689155 
L 170.934901 330.998115 
L 180.795779 346.662916 
L 190.500345 361.617187 
L 198.150635 373.030358 
L 205.70142 383.931173 
L 213.155107 394.305604 
L 220.51496 404.145517 
L 227.78477 413.446901 
L 234.968674 422.208816 
L 242.071006 430.432674 
L 247.346901 436.248722 
L 252.581298 441.764854 
L 257.776106 446.982486 
L 262.933209 451.902913 
L 268.054507 456.527905 
L 273.141878 460.858877 
L 278.197199 464.897124 
L 283.222337 468.643826 
L 288.219147 472.100162 
L 293.189481 475.266957 
L 298.135182 478.144919 
L 303.058086 480.734636 
L 307.96003 483.036227 
L 312.842844 485.049574 
L 317.708363 486.774677 
L 322.558421 488.210946 
L 327.394857 489.357321 
L 332.21952 490.212976 
L 337.034265 490.776378 
L 341.840964 491.045759 
L 346.641498 491.019352 
L 351.437776 490.694444 
L 356.231718 490.068677 
L 361.025267 489.13875 
L 365.820403 487.9016 
L 370.619125 486.353569 
L 375.423467 484.490534 
L 380.235492 482.308602 
L 385.057304 479.802941 
L 389.891037 476.968835 
L 394.738869 473.801451 
L 399.603002 470.295483 
L 404.485689 466.44539 
L 409.389207 462.246103 
L 414.315866 457.691728 
L 419.267989 452.777077 
L 424.247936 447.496727 
L 429.258046 441.845492 
L 434.300671 435.819008 
L 439.378131 429.412915 
L 444.492721 422.623793 
L 449.64662 415.449284 
L 454.841962 407.887975 
L 460.08069 399.940099 
L 465.364617 391.607309 
L 472.482828 379.905894 
L 479.68702 367.544052 
L 486.978929 354.547484 
L 494.358895 340.952381 
L 503.705372 323.192063 
L 513.179961 304.697517 
L 526.634667 277.878316 
L 553.991388 223.091771 
L 559.886032 211.530646 
L 559.886032 211.530646 
" clip-path="url(#p5d803c2984)" style="fill: none; stroke: #f4b8e4; stroke-width: 2; stroke-linecap: square"/>
   </g>
   <g id="line2d_38">
    <path d="M 115.363636 235.919755 
L 119.791136 243.818705 
L 124.225772 251.786504 
L 128.665013 259.813484 
L 133.106349 267.889979 
L 137.547232 276.006085 
L 141.98535 284.152135 
L 146.418324 292.317991 
L 150.843861 300.493633 
L 155.259771 308.669038 
L 159.663978 316.834187 
L 164.054424 324.978587 
L 168.429204 333.092099 
L 172.786513 341.164468 
L 177.124625 349.185317 
L 181.441955 357.14451 
L 185.737011 365.031554 
L 190.008481 372.836309 
L 194.255092 380.548637 
L 198.475795 388.157929 
L 202.669628 395.654752 
L 206.83576 403.028497 
L 210.973522 410.269378 
L 215.082365 417.367729 
L 219.161922 424.313764 
L 223.211933 431.098053 
L 227.232309 437.711163 
L 231.223078 444.144018 
L 235.184428 450.387657 
L 239.116709 456.433239 
L 243.020384 462.272746 
L 246.896032 467.897574 
L 250.744451 473.300059 
L 254.566472 478.472421 
L 258.36311 483.407585 
L 262.135508 488.098714 
L 265.884887 492.539088 
L 269.612641 496.72246 
L 273.320207 500.643405 
L 277.009133 504.29603 
L 280.681126 507.675855 
L 284.337883 510.778045 
L 287.981258 513.59883 
L 291.613121 516.134317 
L 295.235424 518.38156 
L 298.850184 520.337848 
L 302.459461 522.000822 
L 306.065317 523.368832 
L 309.669893 524.441053 
L 313.275265 525.216188 
L 316.883638 525.694473 
L 320.497086 525.876026 
L 324.117796 525.761435 
L 327.747807 525.352353 
L 331.389215 524.650428 
L 335.044057 523.657666 
L 338.714305 522.377013 
L 342.401919 520.811535 
L 346.10873 518.965004 
L 349.836494 516.841429 
L 353.586989 514.445289 
L 357.361787 511.781771 
L 361.162369 508.856182 
L 364.990251 505.674061 
L 368.846627 502.241775 
L 372.732747 498.565807 
L 376.649644 494.652878 
L 380.598262 490.510415 
L 384.579418 486.145727 
L 388.593777 481.566477 
L 392.641811 476.780917 
L 396.724021 471.797417 
L 400.840518 466.624349 
L 404.991502 461.270671 
L 409.176813 455.745107 
L 413.396364 450.056854 
L 417.649714 444.215224 
L 421.936398 438.229767 
L 426.255729 432.10956 
L 430.606979 425.864624 
L 434.989101 419.504626 
L 439.401094 413.039351 
L 443.841732 406.478585 
L 448.309617 399.832111 
L 452.803231 393.109716 
L 457.320968 386.321537 
L 461.861121 379.477359 
L 466.421792 372.586969 
L 471.000999 365.66015 
L 475.596647 358.706569 
L 480.206509 351.736249 
L 484.828395 344.758736 
L 489.45987 337.783464 
L 494.098462 330.819863 
L 498.741621 323.877482 
L 503.386819 316.965518 
L 508.031281 310.0934 
L 512.672383 303.269736 
L 517.307237 296.503957 
L 521.933143 289.804903 
" clip-path="url(#p5d803c2984)" style="fill: none; stroke-dasharray: 7.4,3.2; stroke-dashoffset: 0; stroke: #f4b8e4; stroke-width: 2"/>
   </g>
   <g id="line2d_39">
    <path d="M 117.470529 239.739314 
L 127.983926 258.564544 
L 138.409699 276.749389 
L 148.720924 294.335347 
L 158.900601 311.335503 
L 168.934045 327.706591 
L 178.807627 343.362079 
L 186.584755 355.303402 
L 194.25109 366.677905 
L 201.806613 377.45187 
L 209.253098 387.602307 
L 214.76822 394.797093 
L 220.22534 401.629835 
L 225.626284 408.098882 
L 230.973022 414.203763 
L 236.2676 419.945304 
L 241.512118 425.324446 
L 246.70871 430.343195 
L 251.859533 435.003437 
L 256.966732 439.307293 
L 262.032454 443.25724 
L 267.058834 446.855281 
L 272.047987 450.103657 
L 277.002017 453.004371 
L 281.923011 455.559311 
L 286.813035 457.770243 
L 291.674143 459.638466 
L 296.50837 461.165276 
L 301.317737 462.351734 
L 306.104253 463.198547 
L 309.283556 463.57462 
L 312.454182 463.79991 
L 315.616719 463.874653 
L 318.771752 463.798495 
L 321.919871 463.571555 
L 325.061662 463.193477 
L 328.197704 462.664381 
L 331.328589 461.983677 
L 334.454899 461.151129 
L 339.137068 459.616656 
L 343.812251 457.738177 
L 348.482422 455.513923 
L 353.149587 452.941653 
L 357.815742 450.019364 
L 362.482898 446.744581 
L 367.153074 443.114473 
L 371.828304 439.126566 
L 376.510621 434.777911 
L 381.20208 430.065797 
L 385.904718 424.987277 
L 390.620588 419.539758 
L 395.351729 413.720645 
L 400.100179 407.528053 
L 404.86793 400.959859 
L 409.656964 394.01512 
L 414.469196 386.69313 
L 419.306506 378.994241 
L 424.170657 370.919986 
L 430.700821 359.574721 
L 437.285264 347.577163 
L 443.927005 334.94311 
L 450.628403 321.695669 
L 457.390942 307.864902 
L 465.93073 289.817518 
L 474.564956 271.019874 
L 485.043262 247.648874 
L 500.964677 211.492567 
L 518.844562 170.963791 
L 527.812045 151.054787 
L 527.812045 151.054787 
" clip-path="url(#p5d803c2984)" style="fill: none; stroke: #ca9ee6; stroke-width: 2; stroke-linecap: square"/>
   </g>
   <g id="line2d_40">
    <path d="M 115.363636 235.919755 
L 119.461881 243.350559 
L 123.566354 250.840662 
L 127.674754 258.38028 
L 131.78489 265.960099 
L 135.894612 273.570687 
L 140.001766 281.202378 
L 144.104276 288.84574 
L 148.200142 296.490871 
L 152.287429 304.127867 
L 156.364287 311.747415 
L 160.428913 319.339494 
L 164.479627 326.89432 
L 168.514797 334.401989 
L 172.532903 341.852717 
L 176.532539 349.236836 
L 180.512336 356.544208 
L 184.471143 363.765401 
L 188.407846 370.890867 
L 192.321397 377.910702 
L 196.210994 384.815476 
L 200.075808 391.59552 
L 203.915223 398.241994 
L 207.728722 404.745112 
L 211.515907 411.09615 
L 215.276487 417.286266 
L 219.010319 423.306619 
L 222.71737 429.148603 
L 226.397712 434.803847 
L 230.051571 440.264334 
L 233.679272 445.522284 
L 237.28125 450.569681 
L 240.858071 455.399332 
L 244.410438 460.004401 
L 247.939082 464.377695 
L 251.444919 468.512967 
L 254.928945 472.404322 
L 258.392236 476.045511 
L 261.835957 479.431348 
L 265.26136 482.556645 
L 268.66983 485.416688 
L 272.062748 488.007584 
L 275.441608 490.324854 
L 278.807972 492.365434 
L 282.163409 494.125904 
L 285.509599 495.603907 
L 288.84824 496.797085 
L 292.18106 497.703669 
L 295.509761 498.322598 
L 298.836172 498.652693 
L 302.162073 498.693484 
L 305.489193 498.445322 
L 308.819375 497.908328 
L 312.154378 497.083678 
L 315.495912 495.972671 
L 318.845735 494.576956 
L 322.20553 492.89901 
L 325.576915 490.941426 
L 328.961514 488.707268 
L 332.360878 486.199957 
L 335.776445 483.423736 
L 339.209633 480.382849 
L 342.661786 477.081775 
L 346.134147 473.525821 
L 349.627856 469.720409 
L 353.144019 465.671434 
L 356.683606 461.385025 
L 360.247455 456.867432 
L 363.836356 452.125846 
L 367.450967 447.167103 
L 371.091796 441.99875 
L 374.759312 436.628332 
L 378.453797 431.063746 
L 382.175473 425.313128 
L 385.924368 419.384966 
L 389.700426 413.287512 
L 393.503533 407.029726 
L 397.333303 400.62045 
L 401.189367 394.068761 
L 405.071169 387.383855 
L 408.978066 380.574927 
L 412.909173 373.651645 
L 416.863751 366.623204 
L 420.840632 359.499624 
L 424.838757 352.29022 
L 428.856863 345.004893 
L 432.893647 337.653076 
L 436.947637 330.244789 
L 441.017246 322.790053 
L 445.100956 315.298182 
L 449.19685 307.779077 
L 453.303268 300.24276 
L 457.418312 292.698544 
L 461.539982 285.156451 
L 465.666257 277.626029 
L 469.795024 270.116591 
L 473.92415 262.638041 
L 478.051445 255.199928 
L 482.174643 247.811093 
L 486.291537 240.481086 
" clip-path="url(#p5d803c2984)" style="fill: none; stroke-dasharray: 7.4,3.2; stroke-dashoffset: 0; stroke: #ca9ee6; stroke-width: 2"/>
   </g>
   <g id="line2d_41">
    <path d="M 117.470529 239.739314 
L 127.983397 258.560772 
L 138.408718 276.742198 
L 148.71947 294.324854 
L 158.895948 311.300725 
L 168.918953 327.591175 
L 176.814425 340.045679 
L 184.592893 351.910846 
L 192.250498 363.12761 
L 197.913731 371.087274 
L 203.508915 378.643986 
L 209.037127 385.788432 
L 214.499934 392.515072 
L 219.899189 398.820722 
L 225.236979 404.704557 
L 230.515536 410.167049 
L 235.7372 415.209847 
L 240.904351 419.835311 
L 246.019398 424.046269 
L 251.084764 427.84614 
L 256.102849 431.238108 
L 261.076057 434.225472 
L 266.006751 436.811771 
L 269.271418 438.314766 
L 272.51892 439.641868 
L 275.749937 440.793784 
L 278.965144 441.771692 
L 282.165214 442.576064 
L 285.350807 443.207843 
L 288.522584 443.667737 
L 291.681197 443.956453 
L 294.827294 444.074344 
L 297.961519 444.022236 
L 301.084509 443.800365 
L 304.196898 443.409437 
L 307.299316 442.849689 
L 310.392387 442.121593 
L 313.476733 441.225148 
L 316.552972 440.160826 
L 319.621719 438.928744 
L 322.683583 437.529021 
L 325.739176 435.961775 
L 328.789104 434.227005 
L 333.354687 431.310846 
L 337.910906 428.017672 
L 342.459775 424.347127 
L 347.003301 420.298977 
L 351.543473 415.872632 
L 356.08228 411.06762 
L 360.621687 405.88347 
L 365.163652 400.319827 
L 369.710114 394.376339 
L 374.262979 388.053241 
L 378.824136 381.350769 
L 383.395434 374.269984 
L 387.978691 366.812183 
L 392.575641 358.979252 
L 397.187985 350.77461 
L 403.364478 339.263471 
L 409.574692 327.111004 
L 415.8218 314.334538 
L 422.108435 300.956709 
L 428.4367 287.005693 
L 436.407611 268.816486 
L 444.446578 249.874426 
L 454.181035 226.30195 
L 467.295868 193.820078 
L 493.844767 127.780812 
L 500.508102 111.6 
L 500.508102 111.6 
" clip-path="url(#p5d803c2984)" style="fill: none; stroke: #e78284; stroke-width: 2; stroke-linecap: square"/>
   </g>
   <g id="line2d_42">
    <path d="M 115.363636 235.919755 
L 119.194935 242.947607 
L 123.031689 250.026977 
L 126.871916 257.14867 
L 130.713559 264.303609 
L 134.55473 271.482715 
L 138.393523 278.676676 
L 142.227993 285.876177 
L 146.056422 293.071906 
L 149.877018 300.254431 
L 153.688139 307.414439 
L 157.48816 314.542616 
L 161.275524 321.629296 
L 165.048845 328.6654 
L 168.806659 335.641616 
L 172.547711 342.548157 
L 176.270831 349.376066 
L 179.974839 356.116027 
L 183.658782 362.758846 
L 187.321659 369.295327 
L 190.962743 375.716392 
L 194.581271 382.013436 
L 198.176599 388.177263 
L 201.748276 394.199502 
L 205.295839 400.071195 
L 208.819024 405.784441 
L 212.317622 411.330753 
L 215.79154 416.701879 
L 219.240805 421.890391 
L 222.665527 426.888509 
L 226.065937 431.688688 
L 229.44235 436.283736 
L 232.795211 440.667051 
L 236.125019 444.831795 
L 239.432393 448.771485 
L 242.718074 452.479991 
L 245.982835 455.951889 
L 249.227555 459.181402 
L 252.453186 462.163579 
L 255.660795 464.893587 
L 258.851453 467.366828 
L 262.026353 469.579529 
L 265.186753 471.527564 
L 268.333909 473.207986 
L 271.469178 474.617612 
L 274.59393 475.753966 
L 277.70962 476.614808 
L 280.817677 477.19837 
L 283.91959 477.503472 
L 287.016863 477.528819 
L 290.111013 477.274292 
L 293.203582 476.739537 
L 296.296047 475.92479 
L 299.389944 474.83076 
L 302.486782 473.458741 
L 305.588053 471.810032 
L 308.695188 469.886754 
L 311.809637 467.691265 
L 314.932794 465.225805 
L 318.065977 462.494264 
L 321.210526 459.49959 
L 324.367614 456.245909 
L 327.538492 452.737465 
L 330.724241 448.97862 
L 333.925906 444.974797 
L 337.144468 440.73083 
L 340.380823 436.25273 
L 343.635778 431.546275 
L 346.910053 426.617595 
L 350.204304 421.473528 
L 353.519044 416.120675 
L 356.854718 410.566464 
L 360.21168 404.817968 
L 363.590193 398.882851 
L 366.990404 392.768892 
L 370.412318 386.484227 
L 373.855959 380.037107 
L 377.32109 373.436022 
L 380.807541 366.689223 
L 384.314832 359.806141 
L 387.842547 352.79503 
L 391.390138 345.665084 
L 394.956917 338.425736 
L 398.542128 331.086061 
L 402.144922 323.655139 
L 405.764299 316.142872 
L 409.399268 308.558456 
L 413.048639 300.911675 
L 416.711261 293.211725 
L 420.385765 285.468745 
L 424.070887 277.691576 
L 427.765051 269.890829 
L 431.466822 262.075464 
L 435.174577 254.255265 
L 438.886655 246.440135 
L 442.601441 238.639153 
L 446.317076 230.86222 
L 450.031862 223.119004 
L 453.743911 215.418582 
L 457.451383 207.770269 
" clip-path="url(#p5d803c2984)" style="fill: none; stroke-dasharray: 7.4,3.2; stroke-dashoffset: 0; stroke: #e78284; stroke-width: 2"/>
   </g>
   <g id="patch_3">
    <path d="M 90 640.8 
L 90 86.4 
" style="fill: none; stroke: #cad3f5; stroke-width: 1.5; stroke-linejoin: miter; stroke-linecap: square"/>
   </g>
   <g id="patch_4">
    <path d="M 648 640.8 
L 648 86.4 
" style="fill: none; stroke: #cad3f5; stroke-width: 1.5; stroke-linejoin: miter; stroke-linecap: square"/>
   </g>
   <g id="patch_5">
    <path d="M 90 640.8 
L 648 640.8 
" style="fill: none; stroke: #cad3f5; stroke-width: 1.5; stroke-linejoin: miter; stroke-linecap: square"/>
   </g>
   <g id="patch_6">
    <path d="M 90 86.4 
L 648 86.4 
" style="fill: none; stroke: #cad3f5; stroke-width: 1.5; stroke-linejoin: miter; stroke-linecap: square"/>
   </g>
   <g id="text_18">
    <!-- SLIP trajectories against constrained hopper trajectories -->
    <g style="fill: #cad3f5" transform="translate(79.666875 63.768) scale(0.18 -0.18)">
     <defs>
      <path id="DejaVuSans-Bold-53" d="M 3834 4519 
L 3834 3531 
Q 3450 3703 3084 3790 
Q 2719 3878 2394 3878 
Q 1963 3878 1756 3759 
Q 1550 3641 1550 3391 
Q 1550 3203 1689 3098 
Q 1828 2994 2194 2919 
L 2706 2816 
Q 3484 2659 3812 2340 
Q 4141 2022 4141 1434 
Q 4141 663 3683 286 
Q 3225 -91 2284 -91 
Q 1841 -91 1394 -6 
Q 947 78 500 244 
L 500 1259 
Q 947 1022 1364 901 
Q 1781 781 2169 781 
Q 2563 781 2772 912 
Q 2981 1044 2981 1288 
Q 2981 1506 2839 1625 
Q 2697 1744 2272 1838 
L 1806 1941 
Q 1106 2091 782 2419 
Q 459 2747 459 3303 
Q 459 4000 909 4375 
Q 1359 4750 2203 4750 
Q 2588 4750 2994 4692 
Q 3400 4634 3834 4519 
z
" transform="scale(0.015625)"/>
      <path id="DejaVuSans-Bold-4c" d="M 588 4666 
L 1791 4666 
L 1791 909 
L 3903 909 
L 3903 0 
L 588 0 
L 588 4666 
z
" transform="scale(0.015625)"/>
      <path id="DejaVuSans-Bold-49" d="M 588 4666 
L 1791 4666 
L 1791 0 
L 588 0 
L 588 4666 
z
" transform="scale(0.015625)"/>
      <path id="DejaVuSans-Bold-50" d="M 588 4666 
L 2584 4666 
Q 3475 4666 3951 4270 
Q 4428 3875 4428 3144 
Q 4428 2409 3951 2014 
Q 3475 1619 2584 1619 
L 1791 1619 
L 1791 0 
L 588 0 
L 588 4666 
z
M 1791 3794 
L 1791 2491 
L 2456 2491 
Q 2806 2491 2997 2661 
Q 3188 2831 3188 3144 
Q 3188 3456 2997 3625 
Q 2806 3794 2456 3794 
L 1791 3794 
z
" transform="scale(0.015625)"/>
      <path id="DejaVuSans-Bold-20" transform="scale(0.015625)"/>
      <path id="DejaVuSans-Bold-74" d="M 1759 4494 
L 1759 3500 
L 2913 3500 
L 2913 2700 
L 1759 2700 
L 1759 1216 
Q 1759 972 1856 886 
Q 1953 800 2241 800 
L 2816 800 
L 2816 0 
L 1856 0 
Q 1194 0 917 276 
Q 641 553 641 1216 
L 641 2700 
L 84 2700 
L 84 3500 
L 641 3500 
L 641 4494 
L 1759 4494 
z
" transform="scale(0.015625)"/>
      <path id="DejaVuSans-Bold-72" d="M 3138 2547 
Q 2991 2616 2845 2648 
Q 2700 2681 2553 2681 
Q 2122 2681 1889 2404 
Q 1656 2128 1656 1613 
L 1656 0 
L 538 0 
L 538 3500 
L 1656 3500 
L 1656 2925 
Q 1872 3269 2151 3426 
Q 2431 3584 2822 3584 
Q 2878 3584 2943 3579 
Q 3009 3575 3134 3559 
L 3138 2547 
z
" transform="scale(0.015625)"/>
      <path id="DejaVuSans-Bold-61" d="M 2106 1575 
Q 1756 1575 1579 1456 
Q 1403 1338 1403 1106 
Q 1403 894 1545 773 
Q 1688 653 1941 653 
Q 2256 653 2472 879 
Q 2688 1106 2688 1447 
L 2688 1575 
L 2106 1575 
z
M 3816 1997 
L 3816 0 
L 2688 0 
L 2688 519 
Q 2463 200 2181 54 
Q 1900 -91 1497 -91 
Q 953 -91 614 226 
Q 275 544 275 1050 
Q 275 1666 698 1953 
Q 1122 2241 2028 2241 
L 2688 2241 
L 2688 2328 
Q 2688 2594 2478 2717 
Q 2269 2841 1825 2841 
Q 1466 2841 1156 2769 
Q 847 2697 581 2553 
L 581 3406 
Q 941 3494 1303 3539 
Q 1666 3584 2028 3584 
Q 2975 3584 3395 3211 
Q 3816 2838 3816 1997 
z
" transform="scale(0.015625)"/>
      <path id="DejaVuSans-Bold-6a" d="M 538 3500 
L 1656 3500 
L 1656 63 
Q 1656 -641 1318 -1011 
Q 981 -1381 341 -1381 
L -213 -1381 
L -213 -647 
L -19 -647 
Q 300 -647 419 -503 
Q 538 -359 538 63 
L 538 3500 
z
M 538 4863 
L 1656 4863 
L 1656 3950 
L 538 3950 
L 538 4863 
z
" transform="scale(0.015625)"/>
      <path id="DejaVuSans-Bold-65" d="M 4031 1759 
L 4031 1441 
L 1416 1441 
Q 1456 1047 1700 850 
Q 1944 653 2381 653 
Q 2734 653 3104 758 
Q 3475 863 3866 1075 
L 3866 213 
Q 3469 63 3072 -14 
Q 2675 -91 2278 -91 
Q 1328 -91 801 392 
Q 275 875 275 1747 
Q 275 2603 792 3093 
Q 1309 3584 2216 3584 
Q 3041 3584 3536 3087 
Q 4031 2591 4031 1759 
z
M 2881 2131 
Q 2881 2450 2695 2645 
Q 2509 2841 2209 2841 
Q 1884 2841 1681 2658 
Q 1478 2475 1428 2131 
L 2881 2131 
z
" transform="scale(0.015625)"/>
      <path id="DejaVuSans-Bold-63" d="M 3366 3391 
L 3366 2478 
Q 3138 2634 2908 2709 
Q 2678 2784 2431 2784 
Q 1963 2784 1702 2511 
Q 1441 2238 1441 1747 
Q 1441 1256 1702 982 
Q 1963 709 2431 709 
Q 2694 709 2930 787 
Q 3166 866 3366 1019 
L 3366 103 
Q 3103 6 2833 -42 
Q 2563 -91 2291 -91 
Q 1344 -91 809 395 
Q 275 881 275 1747 
Q 275 2613 809 3098 
Q 1344 3584 2291 3584 
Q 2566 3584 2833 3536 
Q 3100 3488 3366 3391 
z
" transform="scale(0.015625)"/>
      <path id="DejaVuSans-Bold-6f" d="M 2203 2784 
Q 1831 2784 1636 2517 
Q 1441 2250 1441 1747 
Q 1441 1244 1636 976 
Q 1831 709 2203 709 
Q 2569 709 2762 976 
Q 2956 1244 2956 1747 
Q 2956 2250 2762 2517 
Q 2569 2784 2203 2784 
z
M 2203 3584 
Q 3106 3584 3614 3096 
Q 4122 2609 4122 1747 
Q 4122 884 3614 396 
Q 3106 -91 2203 -91 
Q 1297 -91 786 396 
Q 275 884 275 1747 
Q 275 2609 786 3096 
Q 1297 3584 2203 3584 
z
" transform="scale(0.015625)"/>
      <path id="DejaVuSans-Bold-69" d="M 538 3500 
L 1656 3500 
L 1656 0 
L 538 0 
L 538 3500 
z
M 538 4863 
L 1656 4863 
L 1656 3950 
L 538 3950 
L 538 4863 
z
" transform="scale(0.015625)"/>
      <path id="DejaVuSans-Bold-73" d="M 3272 3391 
L 3272 2541 
Q 2913 2691 2578 2766 
Q 2244 2841 1947 2841 
Q 1628 2841 1473 2761 
Q 1319 2681 1319 2516 
Q 1319 2381 1436 2309 
Q 1553 2238 1856 2203 
L 2053 2175 
Q 2913 2066 3209 1816 
Q 3506 1566 3506 1031 
Q 3506 472 3093 190 
Q 2681 -91 1863 -91 
Q 1516 -91 1145 -36 
Q 775 19 384 128 
L 384 978 
Q 719 816 1070 734 
Q 1422 653 1784 653 
Q 2113 653 2278 743 
Q 2444 834 2444 1013 
Q 2444 1163 2330 1236 
Q 2216 1309 1875 1350 
L 1678 1375 
Q 931 1469 631 1722 
Q 331 1975 331 2491 
Q 331 3047 712 3315 
Q 1094 3584 1881 3584 
Q 2191 3584 2531 3537 
Q 2872 3491 3272 3391 
z
" transform="scale(0.015625)"/>
      <path id="DejaVuSans-Bold-67" d="M 2919 594 
Q 2688 288 2409 144 
Q 2131 0 1766 0 
Q 1125 0 706 504 
Q 288 1009 288 1791 
Q 288 2575 706 3076 
Q 1125 3578 1766 3578 
Q 2131 3578 2409 3434 
Q 2688 3291 2919 2981 
L 2919 3500 
L 4044 3500 
L 4044 353 
Q 4044 -491 3511 -936 
Q 2978 -1381 1966 -1381 
Q 1638 -1381 1331 -1331 
Q 1025 -1281 716 -1178 
L 716 -306 
Q 1009 -475 1290 -558 
Q 1572 -641 1856 -641 
Q 2406 -641 2662 -400 
Q 2919 -159 2919 353 
L 2919 594 
z
M 2181 2772 
Q 1834 2772 1640 2515 
Q 1447 2259 1447 1791 
Q 1447 1309 1634 1061 
Q 1822 813 2181 813 
Q 2531 813 2725 1069 
Q 2919 1325 2919 1791 
Q 2919 2259 2725 2515 
Q 2531 2772 2181 2772 
z
" transform="scale(0.015625)"/>
      <path id="DejaVuSans-Bold-6e" d="M 4056 2131 
L 4056 0 
L 2931 0 
L 2931 347 
L 2931 1631 
Q 2931 2084 2911 2256 
Q 2891 2428 2841 2509 
Q 2775 2619 2662 2680 
Q 2550 2741 2406 2741 
Q 2056 2741 1856 2470 
Q 1656 2200 1656 1722 
L 1656 0 
L 538 0 
L 538 3500 
L 1656 3500 
L 1656 2988 
Q 1909 3294 2193 3439 
Q 2478 3584 2822 3584 
Q 3428 3584 3742 3212 
Q 4056 2841 4056 2131 
z
" transform="scale(0.015625)"/>
      <path id="DejaVuSans-Bold-64" d="M 2919 2988 
L 2919 4863 
L 4044 4863 
L 4044 0 
L 2919 0 
L 2919 506 
Q 2688 197 2409 53 
Q 2131 -91 1766 -91 
Q 1119 -91 703 423 
Q 288 938 288 1747 
Q 288 2556 703 3070 
Q 1119 3584 1766 3584 
Q 2128 3584 2408 3439 
Q 2688 3294 2919 2988 
z
M 2181 722 
Q 2541 722 2730 984 
Q 2919 1247 2919 1747 
Q 2919 2247 2730 2509 
Q 2541 2772 2181 2772 
Q 1825 2772 1636 2509 
Q 1447 2247 1447 1747 
Q 1447 1247 1636 984 
Q 1825 722 2181 722 
z
" transform="scale(0.015625)"/>
      <path id="DejaVuSans-Bold-68" d="M 4056 2131 
L 4056 0 
L 2931 0 
L 2931 347 
L 2931 1625 
Q 2931 2084 2911 2256 
Q 2891 2428 2841 2509 
Q 2775 2619 2662 2680 
Q 2550 2741 2406 2741 
Q 2056 2741 1856 2470 
Q 1656 2200 1656 1722 
L 1656 0 
L 538 0 
L 538 4863 
L 1656 4863 
L 1656 2988 
Q 1909 3294 2193 3439 
Q 2478 3584 2822 3584 
Q 3428 3584 3742 3212 
Q 4056 2841 4056 2131 
z
" transform="scale(0.015625)"/>
      <path id="DejaVuSans-Bold-70" d="M 1656 506 
L 1656 -1331 
L 538 -1331 
L 538 3500 
L 1656 3500 
L 1656 2988 
Q 1888 3294 2169 3439 
Q 2450 3584 2816 3584 
Q 3463 3584 3878 3070 
Q 4294 2556 4294 1747 
Q 4294 938 3878 423 
Q 3463 -91 2816 -91 
Q 2450 -91 2169 54 
Q 1888 200 1656 506 
z
M 2400 2772 
Q 2041 2772 1848 2508 
Q 1656 2244 1656 1747 
Q 1656 1250 1848 986 
Q 2041 722 2400 722 
Q 2759 722 2948 984 
Q 3138 1247 3138 1747 
Q 3138 2247 2948 2509 
Q 2759 2772 2400 2772 
z
" transform="scale(0.015625)"/>
     </defs>
     <use xlink:href="#DejaVuSans-Bold-53"/>
     <use xlink:href="#DejaVuSans-Bold-4c" x="72.021484"/>
     <use xlink:href="#DejaVuSans-Bold-49" x="135.742188"/>
     <use xlink:href="#DejaVuSans-Bold-50" x="172.949219"/>
     <use xlink:href="#DejaVuSans-Bold-20" x="246.240234"/>
     <use xlink:href="#DejaVuSans-Bold-74" x="281.054688"/>
     <use xlink:href="#DejaVuSans-Bold-72" x="328.857422"/>
     <use xlink:href="#DejaVuSans-Bold-61" x="378.173828"/>
     <use xlink:href="#DejaVuSans-Bold-6a" x="445.654297"/>
     <use xlink:href="#DejaVuSans-Bold-65" x="479.931641"/>
     <use xlink:href="#DejaVuSans-Bold-63" x="547.753906"/>
     <use xlink:href="#DejaVuSans-Bold-74" x="607.03125"/>
     <use xlink:href="#DejaVuSans-Bold-6f" x="654.833984"/>
     <use xlink:href="#DejaVuSans-Bold-72" x="723.535156"/>
     <use xlink:href="#DejaVuSans-Bold-69" x="772.851562"/>
     <use xlink:href="#DejaVuSans-Bold-65" x="807.128906"/>
     <use xlink:href="#DejaVuSans-Bold-73" x="874.951172"/>
     <use xlink:href="#DejaVuSans-Bold-20" x="934.472656"/>
     <use xlink:href="#DejaVuSans-Bold-61" x="969.287109"/>
     <use xlink:href="#DejaVuSans-Bold-67" x="1036.767578"/>
     <use xlink:href="#DejaVuSans-Bold-61" x="1108.349609"/>
     <use xlink:href="#DejaVuSans-Bold-69" x="1175.830078"/>
     <use xlink:href="#DejaVuSans-Bold-6e" x="1210.107422"/>
     <use xlink:href="#DejaVuSans-Bold-73" x="1281.298828"/>
     <use xlink:href="#DejaVuSans-Bold-74" x="1340.820312"/>
     <use xlink:href="#DejaVuSans-Bold-20" x="1388.623047"/>
     <use xlink:href="#DejaVuSans-Bold-63" x="1423.4375"/>
     <use xlink:href="#DejaVuSans-Bold-6f" x="1482.714844"/>
     <use xlink:href="#DejaVuSans-Bold-6e" x="1551.416016"/>
     <use xlink:href="#DejaVuSans-Bold-73" x="1622.607422"/>
     <use xlink:href="#DejaVuSans-Bold-74" x="1682.128906"/>
     <use xlink:href="#DejaVuSans-Bold-72" x="1729.931641"/>
     <use xlink:href="#DejaVuSans-Bold-61" x="1779.248047"/>
     <use xlink:href="#DejaVuSans-Bold-69" x="1846.728516"/>
     <use xlink:href="#DejaVuSans-Bold-6e" x="1881.005859"/>
     <use xlink:href="#DejaVuSans-Bold-65" x="1952.197266"/>
     <use xlink:href="#DejaVuSans-Bold-64" x="2020.019531"/>
     <use xlink:href="#DejaVuSans-Bold-20" x="2091.601562"/>
     <use xlink:href="#DejaVuSans-Bold-68" x="2126.416016"/>
     <use xlink:href="#DejaVuSans-Bold-6f" x="2197.607422"/>
     <use xlink:href="#DejaVuSans-Bold-70" x="2266.308594"/>
     <use xlink:href="#DejaVuSans-Bold-70" x="2337.890625"/>
     <use xlink:href="#DejaVuSans-Bold-65" x="2409.472656"/>
     <use xlink:href="#DejaVuSans-Bold-72" x="2477.294922"/>
     <use xlink:href="#DejaVuSans-Bold-20" x="2526.611328"/>
     <use xlink:href="#DejaVuSans-Bold-74" x="2561.425781"/>
     <use xlink:href="#DejaVuSans-Bold-72" x="2609.228516"/>
     <use xlink:href="#DejaVuSans-Bold-61" x="2658.544922"/>
     <use xlink:href="#DejaVuSans-Bold-6a" x="2726.025391"/>
     <use xlink:href="#DejaVuSans-Bold-65" x="2760.302734"/>
     <use xlink:href="#DejaVuSans-Bold-63" x="2828.125"/>
     <use xlink:href="#DejaVuSans-Bold-74" x="2887.402344"/>
     <use xlink:href="#DejaVuSans-Bold-6f" x="2935.205078"/>
     <use xlink:href="#DejaVuSans-Bold-72" x="3003.90625"/>
     <use xlink:href="#DejaVuSans-Bold-69" x="3053.222656"/>
     <use xlink:href="#DejaVuSans-Bold-65" x="3087.5"/>
     <use xlink:href="#DejaVuSans-Bold-73" x="3155.322266"/>
    </g>
   </g>
   <g id="legend_1">
    <g id="patch_7">
     <path d="M 99.8 242.87625 
L 440.84 242.87625 
Q 443.64 242.87625 443.64 240.07625 
L 443.64 96.2 
Q 443.64 93.4 440.84 93.4 
L 99.8 93.4 
Q 97 93.4 97 96.2 
L 97 240.07625 
Q 97 242.87625 99.8 242.87625 
z
" style="fill: #24273a; opacity: 0.8; stroke: #24273a; stroke-linejoin: miter"/>
    </g>
    <g id="line2d_43">
     <path d="M 102.6 104.737812 
L 116.6 104.737812 
L 130.6 104.737812 
" style="fill: none; stroke-dasharray: 7.4,3.2; stroke-dashoffset: 0; stroke: #f2d5cf; stroke-width: 2"/>
    </g>
    <g id="text_19">
     <!-- Spring Loaded Inverted Pendulum (SLIP) -->
     <g style="fill: #cad3f5" transform="translate(141.8 109.637812) scale(0.14 -0.14)">
      <defs>
       <path id="DejaVuSans-53" d="M 3425 4513 
L 3425 3897 
Q 3066 4069 2747 4153 
Q 2428 4238 2131 4238 
Q 1616 4238 1336 4038 
Q 1056 3838 1056 3469 
Q 1056 3159 1242 3001 
Q 1428 2844 1947 2747 
L 2328 2669 
Q 3034 2534 3370 2195 
Q 3706 1856 3706 1288 
Q 3706 609 3251 259 
Q 2797 -91 1919 -91 
Q 1588 -91 1214 -16 
Q 841 59 441 206 
L 441 856 
Q 825 641 1194 531 
Q 1563 422 1919 422 
Q 2459 422 2753 634 
Q 3047 847 3047 1241 
Q 3047 1584 2836 1778 
Q 2625 1972 2144 2069 
L 1759 2144 
Q 1053 2284 737 2584 
Q 422 2884 422 3419 
Q 422 4038 858 4394 
Q 1294 4750 2059 4750 
Q 2388 4750 2728 4690 
Q 3069 4631 3425 4513 
z
" transform="scale(0.015625)"/>
       <path id="DejaVuSans-70" d="M 1159 525 
L 1159 -1331 
L 581 -1331 
L 581 3500 
L 1159 3500 
L 1159 2969 
Q 1341 3281 1617 3432 
Q 1894 3584 2278 3584 
Q 2916 3584 3314 3078 
Q 3713 2572 3713 1747 
Q 3713 922 3314 415 
Q 2916 -91 2278 -91 
Q 1894 -91 1617 61 
Q 1341 213 1159 525 
z
M 3116 1747 
Q 3116 2381 2855 2742 
Q 2594 3103 2138 3103 
Q 1681 3103 1420 2742 
Q 1159 2381 1159 1747 
Q 1159 1113 1420 752 
Q 1681 391 2138 391 
Q 2594 391 2855 752 
Q 3116 1113 3116 1747 
z
" transform="scale(0.015625)"/>
       <path id="DejaVuSans-72" d="M 2631 2963 
Q 2534 3019 2420 3045 
Q 2306 3072 2169 3072 
Q 1681 3072 1420 2755 
Q 1159 2438 1159 1844 
L 1159 0 
L 581 0 
L 581 3500 
L 1159 3500 
L 1159 2956 
Q 1341 3275 1631 3429 
Q 1922 3584 2338 3584 
Q 2397 3584 2469 3576 
Q 2541 3569 2628 3553 
L 2631 2963 
z
" transform="scale(0.015625)"/>
       <path id="DejaVuSans-69" d="M 603 3500 
L 1178 3500 
L 1178 0 
L 603 0 
L 603 3500 
z
M 603 4863 
L 1178 4863 
L 1178 4134 
L 603 4134 
L 603 4863 
z
" transform="scale(0.015625)"/>
       <path id="DejaVuSans-6e" d="M 3513 2113 
L 3513 0 
L 2938 0 
L 2938 2094 
Q 2938 2591 2744 2837 
Q 2550 3084 2163 3084 
Q 1697 3084 1428 2787 
Q 1159 2491 1159 1978 
L 1159 0 
L 581 0 
L 581 3500 
L 1159 3500 
L 1159 2956 
Q 1366 3272 1645 3428 
Q 1925 3584 2291 3584 
Q 2894 3584 3203 3211 
Q 3513 2838 3513 2113 
z
" transform="scale(0.015625)"/>
       <path id="DejaVuSans-67" d="M 2906 1791 
Q 2906 2416 2648 2759 
Q 2391 3103 1925 3103 
Q 1463 3103 1205 2759 
Q 947 2416 947 1791 
Q 947 1169 1205 825 
Q 1463 481 1925 481 
Q 2391 481 2648 825 
Q 2906 1169 2906 1791 
z
M 3481 434 
Q 3481 -459 3084 -895 
Q 2688 -1331 1869 -1331 
Q 1566 -1331 1297 -1286 
Q 1028 -1241 775 -1147 
L 775 -588 
Q 1028 -725 1275 -790 
Q 1522 -856 1778 -856 
Q 2344 -856 2625 -561 
Q 2906 -266 2906 331 
L 2906 616 
Q 2728 306 2450 153 
Q 2172 0 1784 0 
Q 1141 0 747 490 
Q 353 981 353 1791 
Q 353 2603 747 3093 
Q 1141 3584 1784 3584 
Q 2172 3584 2450 3431 
Q 2728 3278 2906 2969 
L 2906 3500 
L 3481 3500 
L 3481 434 
z
" transform="scale(0.015625)"/>
       <path id="DejaVuSans-4c" d="M 628 4666 
L 1259 4666 
L 1259 531 
L 3531 531 
L 3531 0 
L 628 0 
L 628 4666 
z
" transform="scale(0.015625)"/>
       <path id="DejaVuSans-6f" d="M 1959 3097 
Q 1497 3097 1228 2736 
Q 959 2375 959 1747 
Q 959 1119 1226 758 
Q 1494 397 1959 397 
Q 2419 397 2687 759 
Q 2956 1122 2956 1747 
Q 2956 2369 2687 2733 
Q 2419 3097 1959 3097 
z
M 1959 3584 
Q 2709 3584 3137 3096 
Q 3566 2609 3566 1747 
Q 3566 888 3137 398 
Q 2709 -91 1959 -91 
Q 1206 -91 779 398 
Q 353 888 353 1747 
Q 353 2609 779 3096 
Q 1206 3584 1959 3584 
z
" transform="scale(0.015625)"/>
       <path id="DejaVuSans-61" d="M 2194 1759 
Q 1497 1759 1228 1600 
Q 959 1441 959 1056 
Q 959 750 1161 570 
Q 1363 391 1709 391 
Q 2188 391 2477 730 
Q 2766 1069 2766 1631 
L 2766 1759 
L 2194 1759 
z
M 3341 1997 
L 3341 0 
L 2766 0 
L 2766 531 
Q 2569 213 2275 61 
Q 1981 -91 1556 -91 
Q 1019 -91 701 211 
Q 384 513 384 1019 
Q 384 1609 779 1909 
Q 1175 2209 1959 2209 
L 2766 2209 
L 2766 2266 
Q 2766 2663 2505 2880 
Q 2244 3097 1772 3097 
Q 1472 3097 1187 3025 
Q 903 2953 641 2809 
L 641 3341 
Q 956 3463 1253 3523 
Q 1550 3584 1831 3584 
Q 2591 3584 2966 3190 
Q 3341 2797 3341 1997 
z
" transform="scale(0.015625)"/>
       <path id="DejaVuSans-64" d="M 2906 2969 
L 2906 4863 
L 3481 4863 
L 3481 0 
L 2906 0 
L 2906 525 
Q 2725 213 2448 61 
Q 2172 -91 1784 -91 
Q 1150 -91 751 415 
Q 353 922 353 1747 
Q 353 2572 751 3078 
Q 1150 3584 1784 3584 
Q 2172 3584 2448 3432 
Q 2725 3281 2906 2969 
z
M 947 1747 
Q 947 1113 1208 752 
Q 1469 391 1925 391 
Q 2381 391 2643 752 
Q 2906 1113 2906 1747 
Q 2906 2381 2643 2742 
Q 2381 3103 1925 3103 
Q 1469 3103 1208 2742 
Q 947 2381 947 1747 
z
" transform="scale(0.015625)"/>
       <path id="DejaVuSans-65" d="M 3597 1894 
L 3597 1613 
L 953 1613 
Q 991 1019 1311 708 
Q 1631 397 2203 397 
Q 2534 397 2845 478 
Q 3156 559 3463 722 
L 3463 178 
Q 3153 47 2828 -22 
Q 2503 -91 2169 -91 
Q 1331 -91 842 396 
Q 353 884 353 1716 
Q 353 2575 817 3079 
Q 1281 3584 2069 3584 
Q 2775 3584 3186 3129 
Q 3597 2675 3597 1894 
z
M 3022 2063 
Q 3016 2534 2758 2815 
Q 2500 3097 2075 3097 
Q 1594 3097 1305 2825 
Q 1016 2553 972 2059 
L 3022 2063 
z
" transform="scale(0.015625)"/>
       <path id="DejaVuSans-49" d="M 628 4666 
L 1259 4666 
L 1259 0 
L 628 0 
L 628 4666 
z
" transform="scale(0.015625)"/>
       <path id="DejaVuSans-76" d="M 191 3500 
L 800 3500 
L 1894 563 
L 2988 3500 
L 3597 3500 
L 2284 0 
L 1503 0 
L 191 3500 
z
" transform="scale(0.015625)"/>
       <path id="DejaVuSans-74" d="M 1172 4494 
L 1172 3500 
L 2356 3500 
L 2356 3053 
L 1172 3053 
L 1172 1153 
Q 1172 725 1289 603 
Q 1406 481 1766 481 
L 2356 481 
L 2356 0 
L 1766 0 
Q 1100 0 847 248 
Q 594 497 594 1153 
L 594 3053 
L 172 3053 
L 172 3500 
L 594 3500 
L 594 4494 
L 1172 4494 
z
" transform="scale(0.015625)"/>
       <path id="DejaVuSans-50" d="M 1259 4147 
L 1259 2394 
L 2053 2394 
Q 2494 2394 2734 2622 
Q 2975 2850 2975 3272 
Q 2975 3691 2734 3919 
Q 2494 4147 2053 4147 
L 1259 4147 
z
M 628 4666 
L 2053 4666 
Q 2838 4666 3239 4311 
Q 3641 3956 3641 3272 
Q 3641 2581 3239 2228 
Q 2838 1875 2053 1875 
L 1259 1875 
L 1259 0 
L 628 0 
L 628 4666 
z
" transform="scale(0.015625)"/>
       <path id="DejaVuSans-75" d="M 544 1381 
L 544 3500 
L 1119 3500 
L 1119 1403 
Q 1119 906 1312 657 
Q 1506 409 1894 409 
Q 2359 409 2629 706 
Q 2900 1003 2900 1516 
L 2900 3500 
L 3475 3500 
L 3475 0 
L 2900 0 
L 2900 538 
Q 2691 219 2414 64 
Q 2138 -91 1772 -91 
Q 1169 -91 856 284 
Q 544 659 544 1381 
z
M 1991 3584 
L 1991 3584 
z
" transform="scale(0.015625)"/>
       <path id="DejaVuSans-6c" d="M 603 4863 
L 1178 4863 
L 1178 0 
L 603 0 
L 603 4863 
z
" transform="scale(0.015625)"/>
       <path id="DejaVuSans-28" d="M 1984 4856 
Q 1566 4138 1362 3434 
Q 1159 2731 1159 2009 
Q 1159 1288 1364 580 
Q 1569 -128 1984 -844 
L 1484 -844 
Q 1016 -109 783 600 
Q 550 1309 550 2009 
Q 550 2706 781 3412 
Q 1013 4119 1484 4856 
L 1984 4856 
z
" transform="scale(0.015625)"/>
       <path id="DejaVuSans-29" d="M 513 4856 
L 1013 4856 
Q 1481 4119 1714 3412 
Q 1947 2706 1947 2009 
Q 1947 1309 1714 600 
Q 1481 -109 1013 -844 
L 513 -844 
Q 928 -128 1133 580 
Q 1338 1288 1338 2009 
Q 1338 2731 1133 3434 
Q 928 4138 513 4856 
z
" transform="scale(0.015625)"/>
      </defs>
      <use xlink:href="#DejaVuSans-53"/>
      <use xlink:href="#DejaVuSans-70" x="63.476562"/>
      <use xlink:href="#DejaVuSans-72" x="126.953125"/>
      <use xlink:href="#DejaVuSans-69" x="168.066406"/>
      <use xlink:href="#DejaVuSans-6e" x="195.849609"/>
      <use xlink:href="#DejaVuSans-67" x="259.228516"/>
      <use xlink:href="#DejaVuSans-20" x="322.705078"/>
      <use xlink:href="#DejaVuSans-4c" x="354.492188"/>
      <use xlink:href="#DejaVuSans-6f" x="408.455078"/>
      <use xlink:href="#DejaVuSans-61" x="469.636719"/>
      <use xlink:href="#DejaVuSans-64" x="530.916016"/>
      <use xlink:href="#DejaVuSans-65" x="594.392578"/>
      <use xlink:href="#DejaVuSans-64" x="655.916016"/>
      <use xlink:href="#DejaVuSans-20" x="719.392578"/>
      <use xlink:href="#DejaVuSans-49" x="751.179688"/>
      <use xlink:href="#DejaVuSans-6e" x="780.671875"/>
      <use xlink:href="#DejaVuSans-76" x="844.050781"/>
      <use xlink:href="#DejaVuSans-65" x="903.230469"/>
      <use xlink:href="#DejaVuSans-72" x="964.753906"/>
      <use xlink:href="#DejaVuSans-74" x="1005.867188"/>
      <use xlink:href="#DejaVuSans-65" x="1045.076172"/>
      <use xlink:href="#DejaVuSans-64" x="1106.599609"/>
      <use xlink:href="#DejaVuSans-20" x="1170.076172"/>
      <use xlink:href="#DejaVuSans-50" x="1201.863281"/>
      <use xlink:href="#DejaVuSans-65" x="1258.541016"/>
      <use xlink:href="#DejaVuSans-6e" x="1320.064453"/>
      <use xlink:href="#DejaVuSans-64" x="1383.443359"/>
      <use xlink:href="#DejaVuSans-75" x="1446.919922"/>
      <use xlink:href="#DejaVuSans-6c" x="1510.298828"/>
      <use xlink:href="#DejaVuSans-75" x="1538.082031"/>
      <use xlink:href="#DejaVuSans-6d" x="1601.460938"/>
      <use xlink:href="#DejaVuSans-20" x="1698.873047"/>
      <use xlink:href="#DejaVuSans-28" x="1730.660156"/>
      <use xlink:href="#DejaVuSans-53" x="1769.673828"/>
      <use xlink:href="#DejaVuSans-4c" x="1833.150391"/>
      <use xlink:href="#DejaVuSans-49" x="1888.863281"/>
      <use xlink:href="#DejaVuSans-50" x="1918.355469"/>
      <use xlink:href="#DejaVuSans-29" x="1978.658203"/>
     </g>
    </g>
    <g id="line2d_44">
     <path d="M 102.6 125.289375 
L 116.6 125.289375 
L 130.6 125.289375 
" style="fill: none; stroke: #f2d5cf; stroke-width: 2; stroke-linecap: square"/>
    </g>
    <g id="text_20">
     <!-- hopper constrained with $r_{hopper}(s)=r_{SLIP}(s)$ -->
     <g style="fill: #cad3f5" transform="translate(141.8 130.189375) scale(0.14 -0.14)">
      <defs>
       <path id="DejaVuSans-68" d="M 3513 2113 
L 3513 0 
L 2938 0 
L 2938 2094 
Q 2938 2591 2744 2837 
Q 2550 3084 2163 3084 
Q 1697 3084 1428 2787 
Q 1159 2491 1159 1978 
L 1159 0 
L 581 0 
L 581 4863 
L 1159 4863 
L 1159 2956 
Q 1366 3272 1645 3428 
Q 1925 3584 2291 3584 
Q 2894 3584 3203 3211 
Q 3513 2838 3513 2113 
z
" transform="scale(0.015625)"/>
       <path id="DejaVuSans-63" d="M 3122 3366 
L 3122 2828 
Q 2878 2963 2633 3030 
Q 2388 3097 2138 3097 
Q 1578 3097 1268 2742 
Q 959 2388 959 1747 
Q 959 1106 1268 751 
Q 1578 397 2138 397 
Q 2388 397 2633 464 
Q 2878 531 3122 666 
L 3122 134 
Q 2881 22 2623 -34 
Q 2366 -91 2075 -91 
Q 1284 -91 818 406 
Q 353 903 353 1747 
Q 353 2603 823 3093 
Q 1294 3584 2113 3584 
Q 2378 3584 2631 3529 
Q 2884 3475 3122 3366 
z
" transform="scale(0.015625)"/>
       <path id="DejaVuSans-73" d="M 2834 3397 
L 2834 2853 
Q 2591 2978 2328 3040 
Q 2066 3103 1784 3103 
Q 1356 3103 1142 2972 
Q 928 2841 928 2578 
Q 928 2378 1081 2264 
Q 1234 2150 1697 2047 
L 1894 2003 
Q 2506 1872 2764 1633 
Q 3022 1394 3022 966 
Q 3022 478 2636 193 
Q 2250 -91 1575 -91 
Q 1294 -91 989 -36 
Q 684 19 347 128 
L 347 722 
Q 666 556 975 473 
Q 1284 391 1588 391 
Q 1994 391 2212 530 
Q 2431 669 2431 922 
Q 2431 1156 2273 1281 
Q 2116 1406 1581 1522 
L 1381 1569 
Q 847 1681 609 1914 
Q 372 2147 372 2553 
Q 372 3047 722 3315 
Q 1072 3584 1716 3584 
Q 2034 3584 2315 3537 
Q 2597 3491 2834 3397 
z
" transform="scale(0.015625)"/>
       <path id="DejaVuSans-77" d="M 269 3500 
L 844 3500 
L 1563 769 
L 2278 3500 
L 2956 3500 
L 3675 769 
L 4391 3500 
L 4966 3500 
L 4050 0 
L 3372 0 
L 2619 2869 
L 1863 0 
L 1184 0 
L 269 3500 
z
" transform="scale(0.015625)"/>
       <path id="DejaVuSans-Oblique-72" d="M 2853 2969 
Q 2766 3016 2653 3041 
Q 2541 3066 2413 3066 
Q 1953 3066 1609 2717 
Q 1266 2369 1153 1784 
L 800 0 
L 225 0 
L 909 3500 
L 1484 3500 
L 1375 2956 
Q 1603 3259 1920 3421 
Q 2238 3584 2597 3584 
Q 2691 3584 2781 3573 
Q 2872 3563 2963 3538 
L 2853 2969 
z
" transform="scale(0.015625)"/>
       <path id="DejaVuSans-Oblique-68" d="M 3566 2113 
L 3156 0 
L 2578 0 
L 2988 2091 
Q 3016 2238 3031 2350 
Q 3047 2463 3047 2528 
Q 3047 2791 2881 2937 
Q 2716 3084 2419 3084 
Q 1956 3084 1617 2771 
Q 1278 2459 1178 1941 
L 800 0 
L 225 0 
L 1172 4863 
L 1747 4863 
L 1375 2950 
Q 1594 3244 1934 3414 
Q 2275 3584 2650 3584 
Q 3113 3584 3367 3334 
Q 3622 3084 3622 2631 
Q 3622 2519 3608 2391 
Q 3594 2263 3566 2113 
z
" transform="scale(0.015625)"/>
       <path id="DejaVuSans-Oblique-6f" d="M 1625 -91 
Q 1009 -91 651 289 
Q 294 669 294 1325 
Q 294 1706 417 2101 
Q 541 2497 738 2766 
Q 1047 3184 1428 3384 
Q 1809 3584 2291 3584 
Q 2888 3584 3255 3212 
Q 3622 2841 3622 2241 
Q 3622 1825 3500 1412 
Q 3378 1000 3181 728 
Q 2875 309 2494 109 
Q 2113 -91 1625 -91 
z
M 891 1344 
Q 891 869 1089 633 
Q 1288 397 1691 397 
Q 2269 397 2648 901 
Q 3028 1406 3028 2181 
Q 3028 2634 2825 2865 
Q 2622 3097 2228 3097 
Q 1903 3097 1650 2945 
Q 1397 2794 1197 2484 
Q 1050 2253 970 1956 
Q 891 1659 891 1344 
z
" transform="scale(0.015625)"/>
       <path id="DejaVuSans-Oblique-70" d="M 3175 2156 
Q 3175 2616 2975 2859 
Q 2775 3103 2400 3103 
Q 2144 3103 1911 2972 
Q 1678 2841 1497 2591 
Q 1319 2344 1212 1994 
Q 1106 1644 1106 1300 
Q 1106 863 1306 627 
Q 1506 391 1875 391 
Q 2147 391 2380 519 
Q 2613 647 2778 891 
Q 2956 1147 3065 1494 
Q 3175 1841 3175 2156 
z
M 1394 2969 
Q 1625 3272 1939 3428 
Q 2253 3584 2638 3584 
Q 3175 3584 3472 3232 
Q 3769 2881 3769 2247 
Q 3769 1728 3584 1258 
Q 3400 788 3053 416 
Q 2822 169 2531 39 
Q 2241 -91 1919 -91 
Q 1547 -91 1294 64 
Q 1041 219 916 525 
L 556 -1331 
L -19 -1331 
L 922 3500 
L 1497 3500 
L 1394 2969 
z
" transform="scale(0.015625)"/>
       <path id="DejaVuSans-Oblique-65" d="M 3078 2063 
Q 3088 2113 3092 2166 
Q 3097 2219 3097 2272 
Q 3097 2653 2873 2875 
Q 2650 3097 2266 3097 
Q 1838 3097 1509 2826 
Q 1181 2556 1013 2059 
L 3078 2063 
z
M 3578 1613 
L 903 1613 
Q 884 1494 878 1425 
Q 872 1356 872 1306 
Q 872 872 1139 634 
Q 1406 397 1894 397 
Q 2269 397 2603 481 
Q 2938 566 3225 728 
L 3116 159 
Q 2806 34 2476 -28 
Q 2147 -91 1806 -91 
Q 1078 -91 686 257 
Q 294 606 294 1247 
Q 294 1794 489 2264 
Q 684 2734 1063 3103 
Q 1306 3334 1642 3459 
Q 1978 3584 2356 3584 
Q 2950 3584 3301 3228 
Q 3653 2872 3653 2272 
Q 3653 2128 3634 1964 
Q 3616 1800 3578 1613 
z
" transform="scale(0.015625)"/>
       <path id="DejaVuSans-Oblique-73" d="M 3200 3397 
L 3091 2853 
Q 2863 2978 2609 3040 
Q 2356 3103 2088 3103 
Q 1634 3103 1373 2948 
Q 1113 2794 1113 2528 
Q 1113 2219 1719 2053 
Q 1766 2041 1788 2034 
L 1972 1978 
Q 2547 1819 2739 1644 
Q 2931 1469 2931 1166 
Q 2931 609 2489 259 
Q 2047 -91 1331 -91 
Q 1053 -91 747 -37 
Q 441 16 72 128 
L 184 722 
Q 500 559 806 475 
Q 1113 391 1394 391 
Q 1816 391 2080 572 
Q 2344 753 2344 1031 
Q 2344 1331 1650 1516 
L 1591 1531 
L 1394 1581 
Q 956 1697 753 1886 
Q 550 2075 550 2369 
Q 550 2928 970 3256 
Q 1391 3584 2113 3584 
Q 2397 3584 2667 3537 
Q 2938 3491 3200 3397 
z
" transform="scale(0.015625)"/>
       <path id="DejaVuSans-3d" d="M 678 2906 
L 4684 2906 
L 4684 2381 
L 678 2381 
L 678 2906 
z
M 678 1631 
L 4684 1631 
L 4684 1100 
L 678 1100 
L 678 1631 
z
" transform="scale(0.015625)"/>
       <path id="DejaVuSans-Oblique-53" d="M 3859 4513 
L 3738 3897 
Q 3422 4066 3111 4152 
Q 2800 4238 2509 4238 
Q 1944 4238 1609 3991 
Q 1275 3744 1275 3334 
Q 1275 3109 1398 2989 
Q 1522 2869 2034 2731 
L 2413 2638 
Q 3053 2472 3303 2217 
Q 3553 1963 3553 1503 
Q 3553 797 2998 353 
Q 2444 -91 1538 -91 
Q 1166 -91 791 -17 
Q 416 56 38 206 
L 166 856 
Q 513 641 861 531 
Q 1209 422 1556 422 
Q 2147 422 2503 684 
Q 2859 947 2859 1369 
Q 2859 1650 2717 1795 
Q 2575 1941 2106 2059 
L 1728 2156 
Q 1081 2325 845 2545 
Q 609 2766 609 3163 
Q 609 3859 1145 4304 
Q 1681 4750 2541 4750 
Q 2875 4750 3203 4690 
Q 3531 4631 3859 4513 
z
" transform="scale(0.015625)"/>
       <path id="DejaVuSans-Oblique-4c" d="M 1075 4666 
L 1709 4666 
L 909 525 
L 3181 525 
L 3078 0 
L 172 0 
L 1075 4666 
z
" transform="scale(0.015625)"/>
       <path id="DejaVuSans-Oblique-49" d="M 1081 4666 
L 1716 4666 
L 806 0 
L 172 0 
L 1081 4666 
z
" transform="scale(0.015625)"/>
       <path id="DejaVuSans-Oblique-50" d="M 1081 4666 
L 2541 4666 
Q 3178 4666 3512 4369 
Q 3847 4072 3847 3500 
Q 3847 2731 3353 2303 
Q 2859 1875 1966 1875 
L 1172 1875 
L 806 0 
L 172 0 
L 1081 4666 
z
M 1613 4147 
L 1275 2394 
L 2069 2394 
Q 2606 2394 2893 2669 
Q 3181 2944 3181 3456 
Q 3181 3784 2986 3965 
Q 2791 4147 2438 4147 
L 1613 4147 
z
" transform="scale(0.015625)"/>
      </defs>
      <use xlink:href="#DejaVuSans-68" transform="translate(0 0.015625)"/>
      <use xlink:href="#DejaVuSans-6f" transform="translate(63.378906 0.015625)"/>
      <use xlink:href="#DejaVuSans-70" transform="translate(124.560547 0.015625)"/>
      <use xlink:href="#DejaVuSans-70" transform="translate(188.037109 0.015625)"/>
      <use xlink:href="#DejaVuSans-65" transform="translate(251.513672 0.015625)"/>
      <use xlink:href="#DejaVuSans-72" transform="translate(313.037109 0.015625)"/>
      <use xlink:href="#DejaVuSans-20" transform="translate(354.150391 0.015625)"/>
      <use xlink:href="#DejaVuSans-63" transform="translate(385.9375 0.015625)"/>
      <use xlink:href="#DejaVuSans-6f" transform="translate(440.917969 0.015625)"/>
      <use xlink:href="#DejaVuSans-6e" transform="translate(502.099609 0.015625)"/>
      <use xlink:href="#DejaVuSans-73" transform="translate(565.478516 0.015625)"/>
      <use xlink:href="#DejaVuSans-74" transform="translate(617.578125 0.015625)"/>
      <use xlink:href="#DejaVuSans-72" transform="translate(656.787109 0.015625)"/>
      <use xlink:href="#DejaVuSans-61" transform="translate(697.900391 0.015625)"/>
      <use xlink:href="#DejaVuSans-69" transform="translate(759.179688 0.015625)"/>
      <use xlink:href="#DejaVuSans-6e" transform="translate(786.962891 0.015625)"/>
      <use xlink:href="#DejaVuSans-65" transform="translate(850.341797 0.015625)"/>
      <use xlink:href="#DejaVuSans-64" transform="translate(911.865234 0.015625)"/>
      <use xlink:href="#DejaVuSans-20" transform="translate(975.341797 0.015625)"/>
      <use xlink:href="#DejaVuSans-77" transform="translate(1007.128906 0.015625)"/>
      <use xlink:href="#DejaVuSans-69" transform="translate(1088.916016 0.015625)"/>
      <use xlink:href="#DejaVuSans-74" transform="translate(1116.699219 0.015625)"/>
      <use xlink:href="#DejaVuSans-68" transform="translate(1155.908203 0.015625)"/>
      <use xlink:href="#DejaVuSans-20" transform="translate(1219.287109 0.015625)"/>
      <use xlink:href="#DejaVuSans-Oblique-72" transform="translate(1251.074219 0.015625)"/>
      <use xlink:href="#DejaVuSans-Oblique-68" transform="translate(1292.1875 -16.390625) scale(0.7)"/>
      <use xlink:href="#DejaVuSans-Oblique-6f" transform="translate(1336.552734 -16.390625) scale(0.7)"/>
      <use xlink:href="#DejaVuSans-Oblique-70" transform="translate(1379.379883 -16.390625) scale(0.7)"/>
      <use xlink:href="#DejaVuSans-Oblique-70" transform="translate(1423.813477 -16.390625) scale(0.7)"/>
      <use xlink:href="#DejaVuSans-Oblique-65" transform="translate(1468.24707 -16.390625) scale(0.7)"/>
      <use xlink:href="#DejaVuSans-Oblique-72" transform="translate(1511.313477 -16.390625) scale(0.7)"/>
      <use xlink:href="#DejaVuSans-28" transform="translate(1542.827148 0.015625)"/>
      <use xlink:href="#DejaVuSans-Oblique-73" transform="translate(1581.84082 0.015625)"/>
      <use xlink:href="#DejaVuSans-29" transform="translate(1633.94043 0.015625)"/>
      <use xlink:href="#DejaVuSans-3d" transform="translate(1692.436523 0.015625)"/>
      <use xlink:href="#DejaVuSans-Oblique-72" transform="translate(1795.708008 0.015625)"/>
      <use xlink:href="#DejaVuSans-Oblique-53" transform="translate(1836.821289 -16.390625) scale(0.7)"/>
      <use xlink:href="#DejaVuSans-Oblique-4c" transform="translate(1881.254883 -16.390625) scale(0.7)"/>
      <use xlink:href="#DejaVuSans-Oblique-49" transform="translate(1920.253906 -16.390625) scale(0.7)"/>
      <use xlink:href="#DejaVuSans-Oblique-50" transform="translate(1940.898438 -16.390625) scale(0.7)"/>
      <use xlink:href="#DejaVuSans-28" transform="translate(1985.844727 0.015625)"/>
      <use xlink:href="#DejaVuSans-Oblique-73" transform="translate(2024.858398 0.015625)"/>
      <use xlink:href="#DejaVuSans-29" transform="translate(2076.958008 0.015625)"/>
     </g>
    </g>
    <g id="line2d_45">
     <path d="M 102.6 147.267187 
L 116.6 147.267187 
L 130.6 147.267187 
" style="fill: none; stroke: #f2d5cf; stroke-width: 2; stroke-linecap: square"/>
    </g>
    <g id="text_21">
     <!-- $K = $ 1500.0 N/m -->
     <g style="fill: #cad3f5" transform="translate(141.8 152.167187) scale(0.14 -0.14)">
      <defs>
       <path id="DejaVuSans-Oblique-4b" d="M 1081 4666 
L 1716 4666 
L 1331 2700 
L 3781 4666 
L 4622 4666 
L 1850 2438 
L 3878 0 
L 3109 0 
L 1247 2272 
L 806 0 
L 172 0 
L 1081 4666 
z
" transform="scale(0.015625)"/>
       <path id="DejaVuSans-4e" d="M 628 4666 
L 1478 4666 
L 3547 763 
L 3547 4666 
L 4159 4666 
L 4159 0 
L 3309 0 
L 1241 3903 
L 1241 0 
L 628 0 
L 628 4666 
z
" transform="scale(0.015625)"/>
       <path id="DejaVuSans-2f" d="M 1625 4666 
L 2156 4666 
L 531 -594 
L 0 -594 
L 1625 4666 
z
" transform="scale(0.015625)"/>
      </defs>
      <use xlink:href="#DejaVuSans-Oblique-4b" transform="translate(0 0.78125)"/>
      <use xlink:href="#DejaVuSans-3d" transform="translate(85.058594 0.78125)"/>
      <use xlink:href="#DejaVuSans-20" transform="translate(188.330078 0.78125)"/>
      <use xlink:href="#DejaVuSans-31" transform="translate(220.117188 0.78125)"/>
      <use xlink:href="#DejaVuSans-35" transform="translate(283.740234 0.78125)"/>
      <use xlink:href="#DejaVuSans-30" transform="translate(347.363281 0.78125)"/>
      <use xlink:href="#DejaVuSans-30" transform="translate(410.986328 0.78125)"/>
      <use xlink:href="#DejaVuSans-2e" transform="translate(474.609375 0.78125)"/>
      <use xlink:href="#DejaVuSans-30" transform="translate(506.396484 0.78125)"/>
      <use xlink:href="#DejaVuSans-20" transform="translate(570.019531 0.78125)"/>
      <use xlink:href="#DejaVuSans-4e" transform="translate(601.806641 0.78125)"/>
      <use xlink:href="#DejaVuSans-2f" transform="translate(676.611328 0.78125)"/>
      <use xlink:href="#DejaVuSans-6d" transform="translate(710.302734 0.78125)"/>
     </g>
    </g>
    <g id="line2d_46">
     <path d="M 102.6 167.816562 
L 116.6 167.816562 
L 130.6 167.816562 
" style="fill: none; stroke: #eebebe; stroke-width: 2; stroke-linecap: square"/>
    </g>
    <g id="text_22">
     <!-- $K = $ 1875.0 N/m -->
     <g style="fill: #cad3f5" transform="translate(141.8 172.716562) scale(0.14 -0.14)">
      <use xlink:href="#DejaVuSans-Oblique-4b" transform="translate(0 0.78125)"/>
      <use xlink:href="#DejaVuSans-3d" transform="translate(85.058594 0.78125)"/>
      <use xlink:href="#DejaVuSans-20" transform="translate(188.330078 0.78125)"/>
      <use xlink:href="#DejaVuSans-31" transform="translate(220.117188 0.78125)"/>
      <use xlink:href="#DejaVuSans-38" transform="translate(283.740234 0.78125)"/>
      <use xlink:href="#DejaVuSans-37" transform="translate(347.363281 0.78125)"/>
      <use xlink:href="#DejaVuSans-35" transform="translate(410.986328 0.78125)"/>
      <use xlink:href="#DejaVuSans-2e" transform="translate(474.609375 0.78125)"/>
      <use xlink:href="#DejaVuSans-30" transform="translate(506.396484 0.78125)"/>
      <use xlink:href="#DejaVuSans-20" transform="translate(570.019531 0.78125)"/>
      <use xlink:href="#DejaVuSans-4e" transform="translate(601.806641 0.78125)"/>
      <use xlink:href="#DejaVuSans-2f" transform="translate(676.611328 0.78125)"/>
      <use xlink:href="#DejaVuSans-6d" transform="translate(710.302734 0.78125)"/>
     </g>
    </g>
    <g id="line2d_47">
     <path d="M 102.6 188.365937 
L 116.6 188.365937 
L 130.6 188.365937 
" style="fill: none; stroke: #f4b8e4; stroke-width: 2; stroke-linecap: square"/>
    </g>
    <g id="text_23">
     <!-- $K = $ 2250.0 N/m -->
     <g style="fill: #cad3f5" transform="translate(141.8 193.265937) scale(0.14 -0.14)">
      <use xlink:href="#DejaVuSans-Oblique-4b" transform="translate(0 0.78125)"/>
      <use xlink:href="#DejaVuSans-3d" transform="translate(85.058594 0.78125)"/>
      <use xlink:href="#DejaVuSans-20" transform="translate(188.330078 0.78125)"/>
      <use xlink:href="#DejaVuSans-32" transform="translate(220.117188 0.78125)"/>
      <use xlink:href="#DejaVuSans-32" transform="translate(283.740234 0.78125)"/>
      <use xlink:href="#DejaVuSans-35" transform="translate(347.363281 0.78125)"/>
      <use xlink:href="#DejaVuSans-30" transform="translate(410.986328 0.78125)"/>
      <use xlink:href="#DejaVuSans-2e" transform="translate(474.609375 0.78125)"/>
      <use xlink:href="#DejaVuSans-30" transform="translate(506.396484 0.78125)"/>
      <use xlink:href="#DejaVuSans-20" transform="translate(570.019531 0.78125)"/>
      <use xlink:href="#DejaVuSans-4e" transform="translate(601.806641 0.78125)"/>
      <use xlink:href="#DejaVuSans-2f" transform="translate(676.611328 0.78125)"/>
      <use xlink:href="#DejaVuSans-6d" transform="translate(710.302734 0.78125)"/>
     </g>
    </g>
    <g id="line2d_48">
     <path d="M 102.6 208.915312 
L 116.6 208.915312 
L 130.6 208.915312 
" style="fill: none; stroke: #ca9ee6; stroke-width: 2; stroke-linecap: square"/>
    </g>
    <g id="text_24">
     <!-- $K = $ 2625.0 N/m -->
     <g style="fill: #cad3f5" transform="translate(141.8 213.815312) scale(0.14 -0.14)">
      <use xlink:href="#DejaVuSans-Oblique-4b" transform="translate(0 0.78125)"/>
      <use xlink:href="#DejaVuSans-3d" transform="translate(85.058594 0.78125)"/>
      <use xlink:href="#DejaVuSans-20" transform="translate(188.330078 0.78125)"/>
      <use xlink:href="#DejaVuSans-32" transform="translate(220.117188 0.78125)"/>
      <use xlink:href="#DejaVuSans-36" transform="translate(283.740234 0.78125)"/>
      <use xlink:href="#DejaVuSans-32" transform="translate(347.363281 0.78125)"/>
      <use xlink:href="#DejaVuSans-35" transform="translate(410.986328 0.78125)"/>
      <use xlink:href="#DejaVuSans-2e" transform="translate(474.609375 0.78125)"/>
      <use xlink:href="#DejaVuSans-30" transform="translate(506.396484 0.78125)"/>
      <use xlink:href="#DejaVuSans-20" transform="translate(570.019531 0.78125)"/>
      <use xlink:href="#DejaVuSans-4e" transform="translate(601.806641 0.78125)"/>
      <use xlink:href="#DejaVuSans-2f" transform="translate(676.611328 0.78125)"/>
      <use xlink:href="#DejaVuSans-6d" transform="translate(710.302734 0.78125)"/>
     </g>
    </g>
    <g id="line2d_49">
     <path d="M 102.6 229.464687 
L 116.6 229.464687 
L 130.6 229.464687 
" style="fill: none; stroke: #e78284; stroke-width: 2; stroke-linecap: square"/>
    </g>
    <g id="text_25">
     <!-- $K = $ 3000.0 N/m -->
     <g style="fill: #cad3f5" transform="translate(141.8 234.364687) scale(0.14 -0.14)">
      <use xlink:href="#DejaVuSans-Oblique-4b" transform="translate(0 0.78125)"/>
      <use xlink:href="#DejaVuSans-3d" transform="translate(85.058594 0.78125)"/>
      <use xlink:href="#DejaVuSans-20" transform="translate(188.330078 0.78125)"/>
      <use xlink:href="#DejaVuSans-33" transform="translate(220.117188 0.78125)"/>
      <use xlink:href="#DejaVuSans-30" transform="translate(283.740234 0.78125)"/>
      <use xlink:href="#DejaVuSans-30" transform="translate(347.363281 0.78125)"/>
      <use xlink:href="#DejaVuSans-30" transform="translate(410.986328 0.78125)"/>
      <use xlink:href="#DejaVuSans-2e" transform="translate(474.609375 0.78125)"/>
      <use xlink:href="#DejaVuSans-30" transform="translate(506.396484 0.78125)"/>
      <use xlink:href="#DejaVuSans-20" transform="translate(570.019531 0.78125)"/>
      <use xlink:href="#DejaVuSans-4e" transform="translate(601.806641 0.78125)"/>
      <use xlink:href="#DejaVuSans-2f" transform="translate(676.611328 0.78125)"/>
      <use xlink:href="#DejaVuSans-6d" transform="translate(710.302734 0.78125)"/>
     </g>
    </g>
   </g>
  </g>
 </g>
 <defs>
  <clipPath id="p5d803c2984">
   <rect x="90" y="86.4" width="558" height="554.4"/>
  </clipPath>
 </defs>
</svg>
