<?xml version="1.0" encoding="utf-8" standalone="no"?>
<!DOCTYPE svg PUBLIC "-//W3C//DTD SVG 1.1//EN"
  "http://www.w3.org/Graphics/SVG/1.1/DTD/svg11.dtd">
<svg xmlns:xlink="http://www.w3.org/1999/xlink" width="720pt" height="720pt" viewBox="0 0 720 720" xmlns="http://www.w3.org/2000/svg" version="1.1">
 <metadata>
  <rdf:RDF xmlns:dc="http://purl.org/dc/elements/1.1/" xmlns:cc="http://creativecommons.org/ns#" xmlns:rdf="http://www.w3.org/1999/02/22-rdf-syntax-ns#">
   <cc:Work>
    <dc:type rdf:resource="http://purl.org/dc/dcmitype/StillImage"/>
    <dc:date>2025-06-10T09:06:30.287643</dc:date>
    <dc:format>image/svg+xml</dc:format>
    <dc:creator>
     <cc:Agent>
      <dc:title>Matplotlib v3.9.2, https://matplotlib.org/</dc:title>
     </cc:Agent>
    </dc:creator>
   </cc:Work>
  </rdf:RDF>
 </metadata>
 <defs>
  <style type="text/css">*{stroke-linejoin: round; stroke-linecap: butt}</style>
 </defs>
 <g id="figure_1">
  <g id="patch_1">
   <path d="M 0 720 
L 720 720 
L 720 0 
L 0 0 
z
" style="fill: #24273a"/>
  </g>
  <g id="axes_1">
   <g id="patch_2">
    <path d="M 90 640.8 
L 648 640.8 
L 648 86.4 
L 90 86.4 
z
" style="fill: #24273a"/>
   </g>
   <g id="matplotlib.axis_1">
    <g id="xtick_1">
     <g id="line2d_1">
      <path d="M 108.957798 640.8 
L 108.957798 86.4 
" clip-path="url(#p106de895c1)" style="fill: none; stroke: #cad3f5; stroke-width: 0.5; stroke-linecap: square"/>
     </g>
     <g id="line2d_2">
      <defs>
       <path id="m132adc7b02" d="M 0 0 
L 0 3.5 
" style="stroke: #cad3f5; stroke-width: 0.8"/>
      </defs>
      <g>
       <use xlink:href="#m132adc7b02" x="108.957798" y="640.8" style="fill: #cad3f5; stroke: #cad3f5; stroke-width: 0.8"/>
      </g>
     </g>
     <g id="text_1">
      <!-- −0.3 -->
      <g style="fill: #cad3f5" transform="translate(96.816391 655.398438) scale(0.1 -0.1)">
       <defs>
        <path id="DejaVuSans-2212" d="M 678 2272 
L 4684 2272 
L 4684 1741 
L 678 1741 
L 678 2272 
z
" transform="scale(0.015625)"/>
        <path id="DejaVuSans-30" d="M 2034 4250 
Q 1547 4250 1301 3770 
Q 1056 3291 1056 2328 
Q 1056 1369 1301 889 
Q 1547 409 2034 409 
Q 2525 409 2770 889 
Q 3016 1369 3016 2328 
Q 3016 3291 2770 3770 
Q 2525 4250 2034 4250 
z
M 2034 4750 
Q 2819 4750 3233 4129 
Q 3647 3509 3647 2328 
Q 3647 1150 3233 529 
Q 2819 -91 2034 -91 
Q 1250 -91 836 529 
Q 422 1150 422 2328 
Q 422 3509 836 4129 
Q 1250 4750 2034 4750 
z
" transform="scale(0.015625)"/>
        <path id="DejaVuSans-2e" d="M 684 794 
L 1344 794 
L 1344 0 
L 684 0 
L 684 794 
z
" transform="scale(0.015625)"/>
        <path id="DejaVuSans-33" d="M 2597 2516 
Q 3050 2419 3304 2112 
Q 3559 1806 3559 1356 
Q 3559 666 3084 287 
Q 2609 -91 1734 -91 
Q 1441 -91 1130 -33 
Q 819 25 488 141 
L 488 750 
Q 750 597 1062 519 
Q 1375 441 1716 441 
Q 2309 441 2620 675 
Q 2931 909 2931 1356 
Q 2931 1769 2642 2001 
Q 2353 2234 1838 2234 
L 1294 2234 
L 1294 2753 
L 1863 2753 
Q 2328 2753 2575 2939 
Q 2822 3125 2822 3475 
Q 2822 3834 2567 4026 
Q 2313 4219 1838 4219 
Q 1578 4219 1281 4162 
Q 984 4106 628 3988 
L 628 4550 
Q 988 4650 1302 4700 
Q 1616 4750 1894 4750 
Q 2613 4750 3031 4423 
Q 3450 4097 3450 3541 
Q 3450 3153 3228 2886 
Q 3006 2619 2597 2516 
z
" transform="scale(0.015625)"/>
       </defs>
       <use xlink:href="#DejaVuSans-2212"/>
       <use xlink:href="#DejaVuSans-30" x="83.789062"/>
       <use xlink:href="#DejaVuSans-2e" x="147.412109"/>
       <use xlink:href="#DejaVuSans-33" x="179.199219"/>
      </g>
     </g>
    </g>
    <g id="xtick_2">
     <g id="line2d_3">
      <path d="M 172.295444 640.8 
L 172.295444 86.4 
" clip-path="url(#p106de895c1)" style="fill: none; stroke: #cad3f5; stroke-width: 0.5; stroke-linecap: square"/>
     </g>
     <g id="line2d_4">
      <g>
       <use xlink:href="#m132adc7b02" x="172.295444" y="640.8" style="fill: #cad3f5; stroke: #cad3f5; stroke-width: 0.8"/>
      </g>
     </g>
     <g id="text_2">
      <!-- −0.2 -->
      <g style="fill: #cad3f5" transform="translate(160.154038 655.398438) scale(0.1 -0.1)">
       <defs>
        <path id="DejaVuSans-32" d="M 1228 531 
L 3431 531 
L 3431 0 
L 469 0 
L 469 531 
Q 828 903 1448 1529 
Q 2069 2156 2228 2338 
Q 2531 2678 2651 2914 
Q 2772 3150 2772 3378 
Q 2772 3750 2511 3984 
Q 2250 4219 1831 4219 
Q 1534 4219 1204 4116 
Q 875 4013 500 3803 
L 500 4441 
Q 881 4594 1212 4672 
Q 1544 4750 1819 4750 
Q 2544 4750 2975 4387 
Q 3406 4025 3406 3419 
Q 3406 3131 3298 2873 
Q 3191 2616 2906 2266 
Q 2828 2175 2409 1742 
Q 1991 1309 1228 531 
z
" transform="scale(0.015625)"/>
       </defs>
       <use xlink:href="#DejaVuSans-2212"/>
       <use xlink:href="#DejaVuSans-30" x="83.789062"/>
       <use xlink:href="#DejaVuSans-2e" x="147.412109"/>
       <use xlink:href="#DejaVuSans-32" x="179.199219"/>
      </g>
     </g>
    </g>
    <g id="xtick_3">
     <g id="line2d_5">
      <path d="M 235.63309 640.8 
L 235.63309 86.4 
" clip-path="url(#p106de895c1)" style="fill: none; stroke: #cad3f5; stroke-width: 0.5; stroke-linecap: square"/>
     </g>
     <g id="line2d_6">
      <g>
       <use xlink:href="#m132adc7b02" x="235.63309" y="640.8" style="fill: #cad3f5; stroke: #cad3f5; stroke-width: 0.8"/>
      </g>
     </g>
     <g id="text_3">
      <!-- −0.1 -->
      <g style="fill: #cad3f5" transform="translate(223.491684 655.398438) scale(0.1 -0.1)">
       <defs>
        <path id="DejaVuSans-31" d="M 794 531 
L 1825 531 
L 1825 4091 
L 703 3866 
L 703 4441 
L 1819 4666 
L 2450 4666 
L 2450 531 
L 3481 531 
L 3481 0 
L 794 0 
L 794 531 
z
" transform="scale(0.015625)"/>
       </defs>
       <use xlink:href="#DejaVuSans-2212"/>
       <use xlink:href="#DejaVuSans-30" x="83.789062"/>
       <use xlink:href="#DejaVuSans-2e" x="147.412109"/>
       <use xlink:href="#DejaVuSans-31" x="179.199219"/>
      </g>
     </g>
    </g>
    <g id="xtick_4">
     <g id="line2d_7">
      <path d="M 298.970737 640.8 
L 298.970737 86.4 
" clip-path="url(#p106de895c1)" style="fill: none; stroke: #cad3f5; stroke-width: 0.5; stroke-linecap: square"/>
     </g>
     <g id="line2d_8">
      <g>
       <use xlink:href="#m132adc7b02" x="298.970737" y="640.8" style="fill: #cad3f5; stroke: #cad3f5; stroke-width: 0.8"/>
      </g>
     </g>
     <g id="text_4">
      <!-- 0.0 -->
      <g style="fill: #cad3f5" transform="translate(291.019174 655.398438) scale(0.1 -0.1)">
       <use xlink:href="#DejaVuSans-30"/>
       <use xlink:href="#DejaVuSans-2e" x="63.623047"/>
       <use xlink:href="#DejaVuSans-30" x="95.410156"/>
      </g>
     </g>
    </g>
    <g id="xtick_5">
     <g id="line2d_9">
      <path d="M 362.308383 640.8 
L 362.308383 86.4 
" clip-path="url(#p106de895c1)" style="fill: none; stroke: #cad3f5; stroke-width: 0.5; stroke-linecap: square"/>
     </g>
     <g id="line2d_10">
      <g>
       <use xlink:href="#m132adc7b02" x="362.308383" y="640.8" style="fill: #cad3f5; stroke: #cad3f5; stroke-width: 0.8"/>
      </g>
     </g>
     <g id="text_5">
      <!-- 0.1 -->
      <g style="fill: #cad3f5" transform="translate(354.35682 655.398438) scale(0.1 -0.1)">
       <use xlink:href="#DejaVuSans-30"/>
       <use xlink:href="#DejaVuSans-2e" x="63.623047"/>
       <use xlink:href="#DejaVuSans-31" x="95.410156"/>
      </g>
     </g>
    </g>
    <g id="xtick_6">
     <g id="line2d_11">
      <path d="M 425.646029 640.8 
L 425.646029 86.4 
" clip-path="url(#p106de895c1)" style="fill: none; stroke: #cad3f5; stroke-width: 0.5; stroke-linecap: square"/>
     </g>
     <g id="line2d_12">
      <g>
       <use xlink:href="#m132adc7b02" x="425.646029" y="640.8" style="fill: #cad3f5; stroke: #cad3f5; stroke-width: 0.8"/>
      </g>
     </g>
     <g id="text_6">
      <!-- 0.2 -->
      <g style="fill: #cad3f5" transform="translate(417.694467 655.398438) scale(0.1 -0.1)">
       <use xlink:href="#DejaVuSans-30"/>
       <use xlink:href="#DejaVuSans-2e" x="63.623047"/>
       <use xlink:href="#DejaVuSans-32" x="95.410156"/>
      </g>
     </g>
    </g>
    <g id="xtick_7">
     <g id="line2d_13">
      <path d="M 488.983675 640.8 
L 488.983675 86.4 
" clip-path="url(#p106de895c1)" style="fill: none; stroke: #cad3f5; stroke-width: 0.5; stroke-linecap: square"/>
     </g>
     <g id="line2d_14">
      <g>
       <use xlink:href="#m132adc7b02" x="488.983675" y="640.8" style="fill: #cad3f5; stroke: #cad3f5; stroke-width: 0.8"/>
      </g>
     </g>
     <g id="text_7">
      <!-- 0.3 -->
      <g style="fill: #cad3f5" transform="translate(481.032113 655.398438) scale(0.1 -0.1)">
       <use xlink:href="#DejaVuSans-30"/>
       <use xlink:href="#DejaVuSans-2e" x="63.623047"/>
       <use xlink:href="#DejaVuSans-33" x="95.410156"/>
      </g>
     </g>
    </g>
    <g id="xtick_8">
     <g id="line2d_15">
      <path d="M 552.321322 640.8 
L 552.321322 86.4 
" clip-path="url(#p106de895c1)" style="fill: none; stroke: #cad3f5; stroke-width: 0.5; stroke-linecap: square"/>
     </g>
     <g id="line2d_16">
      <g>
       <use xlink:href="#m132adc7b02" x="552.321322" y="640.8" style="fill: #cad3f5; stroke: #cad3f5; stroke-width: 0.8"/>
      </g>
     </g>
     <g id="text_8">
      <!-- 0.4 -->
      <g style="fill: #cad3f5" transform="translate(544.369759 655.398438) scale(0.1 -0.1)">
       <defs>
        <path id="DejaVuSans-34" d="M 2419 4116 
L 825 1625 
L 2419 1625 
L 2419 4116 
z
M 2253 4666 
L 3047 4666 
L 3047 1625 
L 3713 1625 
L 3713 1100 
L 3047 1100 
L 3047 0 
L 2419 0 
L 2419 1100 
L 313 1100 
L 313 1709 
L 2253 4666 
z
" transform="scale(0.015625)"/>
       </defs>
       <use xlink:href="#DejaVuSans-30"/>
       <use xlink:href="#DejaVuSans-2e" x="63.623047"/>
       <use xlink:href="#DejaVuSans-34" x="95.410156"/>
      </g>
     </g>
    </g>
    <g id="xtick_9">
     <g id="line2d_17">
      <path d="M 615.658968 640.8 
L 615.658968 86.4 
" clip-path="url(#p106de895c1)" style="fill: none; stroke: #cad3f5; stroke-width: 0.5; stroke-linecap: square"/>
     </g>
     <g id="line2d_18">
      <g>
       <use xlink:href="#m132adc7b02" x="615.658968" y="640.8" style="fill: #cad3f5; stroke: #cad3f5; stroke-width: 0.8"/>
      </g>
     </g>
     <g id="text_9">
      <!-- 0.5 -->
      <g style="fill: #cad3f5" transform="translate(607.707406 655.398438) scale(0.1 -0.1)">
       <defs>
        <path id="DejaVuSans-35" d="M 691 4666 
L 3169 4666 
L 3169 4134 
L 1269 4134 
L 1269 2991 
Q 1406 3038 1543 3061 
Q 1681 3084 1819 3084 
Q 2600 3084 3056 2656 
Q 3513 2228 3513 1497 
Q 3513 744 3044 326 
Q 2575 -91 1722 -91 
Q 1428 -91 1123 -41 
Q 819 9 494 109 
L 494 744 
Q 775 591 1075 516 
Q 1375 441 1709 441 
Q 2250 441 2565 725 
Q 2881 1009 2881 1497 
Q 2881 1984 2565 2268 
Q 2250 2553 1709 2553 
Q 1456 2553 1204 2497 
Q 953 2441 691 2322 
L 691 4666 
z
" transform="scale(0.015625)"/>
       </defs>
       <use xlink:href="#DejaVuSans-30"/>
       <use xlink:href="#DejaVuSans-2e" x="63.623047"/>
       <use xlink:href="#DejaVuSans-35" x="95.410156"/>
      </g>
     </g>
    </g>
    <g id="text_10">
     <!-- y [m] -->
     <g style="fill: #cad3f5" transform="translate(345.023438 675.155313) scale(0.18 -0.18)">
      <defs>
       <path id="DejaVuSans-79" d="M 2059 -325 
Q 1816 -950 1584 -1140 
Q 1353 -1331 966 -1331 
L 506 -1331 
L 506 -850 
L 844 -850 
Q 1081 -850 1212 -737 
Q 1344 -625 1503 -206 
L 1606 56 
L 191 3500 
L 800 3500 
L 1894 763 
L 2988 3500 
L 3597 3500 
L 2059 -325 
z
" transform="scale(0.015625)"/>
       <path id="DejaVuSans-20" transform="scale(0.015625)"/>
       <path id="DejaVuSans-5b" d="M 550 4863 
L 1875 4863 
L 1875 4416 
L 1125 4416 
L 1125 -397 
L 1875 -397 
L 1875 -844 
L 550 -844 
L 550 4863 
z
" transform="scale(0.015625)"/>
       <path id="DejaVuSans-6d" d="M 3328 2828 
Q 3544 3216 3844 3400 
Q 4144 3584 4550 3584 
Q 5097 3584 5394 3201 
Q 5691 2819 5691 2113 
L 5691 0 
L 5113 0 
L 5113 2094 
Q 5113 2597 4934 2840 
Q 4756 3084 4391 3084 
Q 3944 3084 3684 2787 
Q 3425 2491 3425 1978 
L 3425 0 
L 2847 0 
L 2847 2094 
Q 2847 2600 2669 2842 
Q 2491 3084 2119 3084 
Q 1678 3084 1418 2786 
Q 1159 2488 1159 1978 
L 1159 0 
L 581 0 
L 581 3500 
L 1159 3500 
L 1159 2956 
Q 1356 3278 1631 3431 
Q 1906 3584 2284 3584 
Q 2666 3584 2933 3390 
Q 3200 3197 3328 2828 
z
" transform="scale(0.015625)"/>
       <path id="DejaVuSans-5d" d="M 1947 4863 
L 1947 -844 
L 622 -844 
L 622 -397 
L 1369 -397 
L 1369 4416 
L 622 4416 
L 622 4863 
L 1947 4863 
z
" transform="scale(0.015625)"/>
      </defs>
      <use xlink:href="#DejaVuSans-79"/>
      <use xlink:href="#DejaVuSans-20" x="59.179688"/>
      <use xlink:href="#DejaVuSans-5b" x="90.966797"/>
      <use xlink:href="#DejaVuSans-6d" x="129.980469"/>
      <use xlink:href="#DejaVuSans-5d" x="227.392578"/>
     </g>
    </g>
   </g>
   <g id="matplotlib.axis_2">
    <g id="ytick_1">
     <g id="line2d_19">
      <path d="M 90 622.856349 
L 648 622.856349 
" clip-path="url(#p106de895c1)" style="fill: none; stroke: #cad3f5; stroke-width: 0.5; stroke-linecap: square"/>
     </g>
     <g id="line2d_20">
      <defs>
       <path id="m6bfc3b9bed" d="M 0 0 
L -3.5 0 
" style="stroke: #cad3f5; stroke-width: 0.8"/>
      </defs>
      <g>
       <use xlink:href="#m6bfc3b9bed" x="90" y="622.856349" style="fill: #cad3f5; stroke: #cad3f5; stroke-width: 0.8"/>
      </g>
     </g>
     <g id="text_11">
      <!-- 0.55 -->
      <g style="fill: #cad3f5" transform="translate(60.734375 626.655567) scale(0.1 -0.1)">
       <use xlink:href="#DejaVuSans-30"/>
       <use xlink:href="#DejaVuSans-2e" x="63.623047"/>
       <use xlink:href="#DejaVuSans-35" x="95.410156"/>
       <use xlink:href="#DejaVuSans-35" x="159.033203"/>
      </g>
     </g>
    </g>
    <g id="ytick_2">
     <g id="line2d_21">
      <path d="M 90 523.96199 
L 648 523.96199 
" clip-path="url(#p106de895c1)" style="fill: none; stroke: #cad3f5; stroke-width: 0.5; stroke-linecap: square"/>
     </g>
     <g id="line2d_22">
      <g>
       <use xlink:href="#m6bfc3b9bed" x="90" y="523.96199" style="fill: #cad3f5; stroke: #cad3f5; stroke-width: 0.8"/>
      </g>
     </g>
     <g id="text_12">
      <!-- 0.60 -->
      <g style="fill: #cad3f5" transform="translate(60.734375 527.761209) scale(0.1 -0.1)">
       <defs>
        <path id="DejaVuSans-36" d="M 2113 2584 
Q 1688 2584 1439 2293 
Q 1191 2003 1191 1497 
Q 1191 994 1439 701 
Q 1688 409 2113 409 
Q 2538 409 2786 701 
Q 3034 994 3034 1497 
Q 3034 2003 2786 2293 
Q 2538 2584 2113 2584 
z
M 3366 4563 
L 3366 3988 
Q 3128 4100 2886 4159 
Q 2644 4219 2406 4219 
Q 1781 4219 1451 3797 
Q 1122 3375 1075 2522 
Q 1259 2794 1537 2939 
Q 1816 3084 2150 3084 
Q 2853 3084 3261 2657 
Q 3669 2231 3669 1497 
Q 3669 778 3244 343 
Q 2819 -91 2113 -91 
Q 1303 -91 875 529 
Q 447 1150 447 2328 
Q 447 3434 972 4092 
Q 1497 4750 2381 4750 
Q 2619 4750 2861 4703 
Q 3103 4656 3366 4563 
z
" transform="scale(0.015625)"/>
       </defs>
       <use xlink:href="#DejaVuSans-30"/>
       <use xlink:href="#DejaVuSans-2e" x="63.623047"/>
       <use xlink:href="#DejaVuSans-36" x="95.410156"/>
       <use xlink:href="#DejaVuSans-30" x="159.033203"/>
      </g>
     </g>
    </g>
    <g id="ytick_3">
     <g id="line2d_23">
      <path d="M 90 425.067632 
L 648 425.067632 
" clip-path="url(#p106de895c1)" style="fill: none; stroke: #cad3f5; stroke-width: 0.5; stroke-linecap: square"/>
     </g>
     <g id="line2d_24">
      <g>
       <use xlink:href="#m6bfc3b9bed" x="90" y="425.067632" style="fill: #cad3f5; stroke: #cad3f5; stroke-width: 0.8"/>
      </g>
     </g>
     <g id="text_13">
      <!-- 0.65 -->
      <g style="fill: #cad3f5" transform="translate(60.734375 428.86685) scale(0.1 -0.1)">
       <use xlink:href="#DejaVuSans-30"/>
       <use xlink:href="#DejaVuSans-2e" x="63.623047"/>
       <use xlink:href="#DejaVuSans-36" x="95.410156"/>
       <use xlink:href="#DejaVuSans-35" x="159.033203"/>
      </g>
     </g>
    </g>
    <g id="ytick_4">
     <g id="line2d_25">
      <path d="M 90 326.173273 
L 648 326.173273 
" clip-path="url(#p106de895c1)" style="fill: none; stroke: #cad3f5; stroke-width: 0.5; stroke-linecap: square"/>
     </g>
     <g id="line2d_26">
      <g>
       <use xlink:href="#m6bfc3b9bed" x="90" y="326.173273" style="fill: #cad3f5; stroke: #cad3f5; stroke-width: 0.8"/>
      </g>
     </g>
     <g id="text_14">
      <!-- 0.70 -->
      <g style="fill: #cad3f5" transform="translate(60.734375 329.972492) scale(0.1 -0.1)">
       <defs>
        <path id="DejaVuSans-37" d="M 525 4666 
L 3525 4666 
L 3525 4397 
L 1831 0 
L 1172 0 
L 2766 4134 
L 525 4134 
L 525 4666 
z
" transform="scale(0.015625)"/>
       </defs>
       <use xlink:href="#DejaVuSans-30"/>
       <use xlink:href="#DejaVuSans-2e" x="63.623047"/>
       <use xlink:href="#DejaVuSans-37" x="95.410156"/>
       <use xlink:href="#DejaVuSans-30" x="159.033203"/>
      </g>
     </g>
    </g>
    <g id="ytick_5">
     <g id="line2d_27">
      <path d="M 90 227.278915 
L 648 227.278915 
" clip-path="url(#p106de895c1)" style="fill: none; stroke: #cad3f5; stroke-width: 0.5; stroke-linecap: square"/>
     </g>
     <g id="line2d_28">
      <g>
       <use xlink:href="#m6bfc3b9bed" x="90" y="227.278915" style="fill: #cad3f5; stroke: #cad3f5; stroke-width: 0.8"/>
      </g>
     </g>
     <g id="text_15">
      <!-- 0.75 -->
      <g style="fill: #cad3f5" transform="translate(60.734375 231.078133) scale(0.1 -0.1)">
       <use xlink:href="#DejaVuSans-30"/>
       <use xlink:href="#DejaVuSans-2e" x="63.623047"/>
       <use xlink:href="#DejaVuSans-37" x="95.410156"/>
       <use xlink:href="#DejaVuSans-35" x="159.033203"/>
      </g>
     </g>
    </g>
    <g id="ytick_6">
     <g id="line2d_29">
      <path d="M 90 128.384556 
L 648 128.384556 
" clip-path="url(#p106de895c1)" style="fill: none; stroke: #cad3f5; stroke-width: 0.5; stroke-linecap: square"/>
     </g>
     <g id="line2d_30">
      <g>
       <use xlink:href="#m6bfc3b9bed" x="90" y="128.384556" style="fill: #cad3f5; stroke: #cad3f5; stroke-width: 0.8"/>
      </g>
     </g>
     <g id="text_16">
      <!-- 0.80 -->
      <g style="fill: #cad3f5" transform="translate(60.734375 132.183775) scale(0.1 -0.1)">
       <defs>
        <path id="DejaVuSans-38" d="M 2034 2216 
Q 1584 2216 1326 1975 
Q 1069 1734 1069 1313 
Q 1069 891 1326 650 
Q 1584 409 2034 409 
Q 2484 409 2743 651 
Q 3003 894 3003 1313 
Q 3003 1734 2745 1975 
Q 2488 2216 2034 2216 
z
M 1403 2484 
Q 997 2584 770 2862 
Q 544 3141 544 3541 
Q 544 4100 942 4425 
Q 1341 4750 2034 4750 
Q 2731 4750 3128 4425 
Q 3525 4100 3525 3541 
Q 3525 3141 3298 2862 
Q 3072 2584 2669 2484 
Q 3125 2378 3379 2068 
Q 3634 1759 3634 1313 
Q 3634 634 3220 271 
Q 2806 -91 2034 -91 
Q 1263 -91 848 271 
Q 434 634 434 1313 
Q 434 1759 690 2068 
Q 947 2378 1403 2484 
z
M 1172 3481 
Q 1172 3119 1398 2916 
Q 1625 2713 2034 2713 
Q 2441 2713 2670 2916 
Q 2900 3119 2900 3481 
Q 2900 3844 2670 4047 
Q 2441 4250 2034 4250 
Q 1625 4250 1398 4047 
Q 1172 3844 1172 3481 
z
" transform="scale(0.015625)"/>
       </defs>
       <use xlink:href="#DejaVuSans-30"/>
       <use xlink:href="#DejaVuSans-2e" x="63.623047"/>
       <use xlink:href="#DejaVuSans-38" x="95.410156"/>
       <use xlink:href="#DejaVuSans-30" x="159.033203"/>
      </g>
     </g>
    </g>
    <g id="text_17">
     <!-- z [m] -->
     <g style="fill: #cad3f5" transform="translate(52.990938 386.973281) rotate(-90) scale(0.18 -0.18)">
      <defs>
       <path id="DejaVuSans-7a" d="M 353 3500 
L 3084 3500 
L 3084 2975 
L 922 459 
L 3084 459 
L 3084 0 
L 275 0 
L 275 525 
L 2438 3041 
L 353 3041 
L 353 3500 
z
" transform="scale(0.015625)"/>
      </defs>
      <use xlink:href="#DejaVuSans-7a"/>
      <use xlink:href="#DejaVuSans-20" x="52.490234"/>
      <use xlink:href="#DejaVuSans-5b" x="84.277344"/>
      <use xlink:href="#DejaVuSans-6d" x="123.291016"/>
      <use xlink:href="#DejaVuSans-5d" x="220.703125"/>
     </g>
    </g>
   </g>
   <g id="line2d_31">
    <path d="M 117.470529 239.739314 
L 127.985794 258.577748 
L 138.41255 276.769667 
L 148.721566 294.339591 
L 160.920909 314.673594 
L 172.927291 334.248377 
L 184.739344 353.081859 
L 196.360049 371.164021 
L 207.796666 388.486374 
L 217.193807 402.342016 
L 226.476751 415.676225 
L 235.652461 428.4969 
L 244.727938 440.813589 
L 253.710135 452.635372 
L 262.605891 463.971324 
L 271.421919 474.829816 
L 280.164837 485.21863 
L 288.841173 495.144367 
L 297.457396 504.612686 
L 306.019938 513.628302 
L 312.835634 520.517514 
L 319.624371 527.120721 
L 326.389453 533.438986 
L 333.134205 539.472661 
L 339.861981 545.221628 
L 346.576178 550.685063 
L 353.280233 555.861668 
L 359.977659 560.74944 
L 366.672035 565.345784 
L 373.367035 569.646811 
L 380.066419 573.648512 
L 386.774085 577.345464 
L 393.494067 580.731301 
L 398.544648 583.062483 
L 403.606328 585.211051 
L 408.681013 587.173352 
L 413.770668 588.945257 
L 418.877311 590.521935 
L 424.003075 591.898198 
L 429.15016 593.068858 
L 434.320859 594.027785 
L 439.517578 594.768378 
L 444.742848 595.283799 
L 449.999282 595.566502 
L 455.289646 595.608236 
L 460.616847 595.400511 
L 465.983923 594.934015 
L 471.394056 594.198963 
L 476.850642 593.184863 
L 482.357156 591.880868 
L 487.917335 590.275306 
L 493.535048 588.356037 
L 499.214316 586.110444 
L 504.959367 583.52556 
L 510.774543 580.588181 
L 516.664392 577.284868 
L 522.633503 573.602181 
L 528.686612 569.526798 
L 534.828589 565.045397 
L 541.064475 560.14454 
L 547.399215 554.811375 
L 553.837661 549.034703 
L 560.384266 542.805682 
L 567.042844 536.119597 
L 573.816284 528.976212 
L 580.706075 521.382718 
L 587.711917 513.354795 
L 594.831242 504.918142 
L 604.49042 493.101076 
L 614.321427 480.749372 
L 614.321427 480.749372 
" clip-path="url(#p106de895c1)" style="fill: none; stroke: #c6a0f6; stroke-width: 2; stroke-linecap: square"/>
   </g>
   <g id="line2d_32">
    <path d="M 115.363636 235.919755 
L 120.74991 245.00198 
L 126.146093 254.183351 
L 131.548732 263.45491 
L 136.954221 272.806516 
L 142.35921 282.228268 
L 147.760301 291.710262 
L 153.154275 301.24236 
L 158.537916 310.813952 
L 163.908248 320.414898 
L 169.262271 330.034 
L 174.59723 339.660882 
L 179.910462 349.284464 
L 185.199448 358.893427 
L 190.461857 368.476808 
L 195.695498 378.023289 
L 200.898362 387.521316 
L 206.068664 396.959926 
L 211.204782 406.32733 
L 216.305252 415.61221 
L 221.36891 424.803013 
L 226.394673 433.888185 
L 231.381807 442.856881 
L 236.329669 451.697429 
L 241.237905 460.398747 
L 246.106388 468.949636 
L 250.935175 477.339721 
L 255.724563 485.557921 
L 260.475045 493.593979 
L 265.187352 501.437992 
L 269.862431 509.079704 
L 274.501423 516.510036 
L 279.105693 523.719559 
L 283.676749 530.699311 
L 288.216389 537.441158 
L 292.726483 543.937203 
L 297.209147 550.179899 
L 301.666679 556.162409 
L 306.101438 561.878131 
L 310.516055 567.321288 
L 314.913156 572.48634 
L 319.295599 577.368807 
L 323.666313 581.964444 
L 328.028291 586.269479 
L 332.384664 590.281437 
L 336.738536 593.997723 
L 341.093179 597.416923 
L 345.45179 600.537741 
L 349.817693 603.360293 
L 354.194081 605.884817 
L 358.584301 608.112136 
L 362.991566 610.043785 
L 367.419052 611.682238 
L 371.869888 613.030442 
L 376.347188 614.091935 
L 380.853882 614.870843 
L 385.392902 615.371645 
L 389.966966 615.6 
L 394.578781 615.561332 
L 399.230784 615.262124 
L 403.925334 614.709567 
L 408.664704 613.910382 
L 413.450831 612.872468 
L 418.285555 611.604194 
L 423.170517 610.11393 
L 428.107199 608.410401 
L 433.096792 606.502921 
L 438.14036 604.400802 
L 443.23866 602.113593 
L 448.392276 599.651434 
L 453.601633 597.02411 
L 458.86675 594.241876 
L 464.187542 591.315107 
L 469.563736 588.254061 
L 474.994689 585.068992 
L 480.479589 581.770513 
L 486.017513 578.36876 
L 491.607063 574.87411 
L 497.246918 571.296817 
L 502.935246 567.646668 
L 508.670161 563.93439 
L 514.449491 560.169179 
L 520.271122 556.360702 
L 526.13228 552.518743 
L 532.030417 548.652382 
L 537.9627 544.770458 
L 543.925977 540.882051 
L 549.917003 536.995529 
L 555.932548 533.1195 
L 561.969046 529.261627 
L 568.022834 525.429807 
L 574.090195 521.631586 
L 580.167352 517.874156 
L 586.250228 514.164472 
L 592.334728 510.509253 
L 598.41685 506.91522 
L 604.492383 503.388149 
L 610.556931 499.934407 
L 616.606321 496.559298 
L 622.636364 493.268717 
" clip-path="url(#p106de895c1)" style="fill: none; stroke: #8bd5ca; stroke-width: 2; stroke-linecap: square"/>
   </g>
   <g id="line2d_33">
    <path d="M 117.470529 239.739314 
L 127.985511 258.575744 
L 138.41221 276.767309 
L 148.721962 294.342538 
L 160.922607 314.686208 
L 172.928697 334.258397 
L 184.736257 353.054744 
L 194.424675 368.103093 
L 203.978921 382.575188 
L 213.404064 396.462661 
L 222.706323 409.763507 
L 231.892561 422.480673 
L 240.969931 434.6197 
L 249.945667 446.187545 
L 258.82698 457.191515 
L 265.868847 465.593743 
L 272.858489 473.643123 
L 279.799495 481.343073 
L 286.69544 488.696422 
L 293.549879 495.705647 
L 300.366354 502.372634 
L 307.148404 508.699033 
L 313.89957 514.686023 
L 320.623404 520.334193 
L 327.32348 525.643072 
L 334.003393 530.612543 
L 340.666787 535.240954 
L 347.317347 539.526419 
L 353.958824 543.465873 
L 358.936269 546.191519 
L 363.912398 548.718637 
L 368.888886 551.045338 
L 373.867445 553.169032 
L 378.849827 555.086887 
L 383.837824 556.795838 
L 388.833277 558.292468 
L 393.838084 559.572885 
L 398.854197 560.632963 
L 403.883627 561.467987 
L 408.92846 562.072887 
L 413.990857 562.442358 
L 419.073056 562.570388 
L 424.177377 562.450611 
L 429.306237 562.076188 
L 434.462146 561.439811 
L 439.647729 560.533699 
L 444.865713 559.349363 
L 450.118928 557.878316 
L 455.410349 556.111126 
L 460.743052 554.038126 
L 466.120227 551.649295 
L 471.545215 548.933906 
L 477.021471 545.881112 
L 482.552543 542.480067 
L 488.142093 538.719335 
L 493.793839 534.587954 
L 499.511595 530.074841 
L 505.299137 525.169503 
L 511.160276 519.862392 
L 517.098656 514.144784 
L 523.117788 508.009723 
L 529.22088 501.452257 
L 535.41086 494.470029 
L 541.690199 487.063511 
L 548.06086 479.235884 
L 554.524014 470.995285 
L 563.28537 459.389598 
L 572.20755 447.126195 
L 581.281532 434.283003 
L 592.813482 417.579344 
L 609.227809 393.48461 
L 609.227809 393.48461 
" clip-path="url(#p106de895c1)" style="fill: none; stroke: #c6a0f6; stroke-width: 2; stroke-linecap: square"/>
   </g>
   <g id="line2d_34">
    <path d="M 115.363636 235.919755 
L 120.490628 244.707252 
L 125.626812 253.585525 
L 130.768904 262.545261 
L 135.913733 271.576203 
L 141.058081 280.668566 
L 146.198927 289.812095 
L 151.333243 298.996767 
L 156.458148 308.212327 
L 161.570822 317.447811 
L 166.668593 326.692961 
L 171.748847 335.936815 
L 176.809177 345.168762 
L 181.847244 354.377367 
L 186.860922 363.552136 
L 191.848183 372.681635 
L 196.807215 381.755136 
L 201.736318 390.761086 
L 206.633946 399.688402 
L 211.498843 408.525766 
L 216.329839 417.262452 
L 221.125979 425.887259 
L 225.886486 434.388751 
L 230.610785 442.756555 
L 235.298539 450.979353 
L 239.949574 459.047006 
L 244.563891 466.948903 
L 249.141706 474.674671 
L 253.683458 482.214171 
L 258.189771 489.557736 
L 262.661432 496.696052 
L 267.09945 503.61957 
L 271.504955 510.319684 
L 275.879368 516.78767 
L 280.224205 523.01563 
L 284.541159 528.996018 
L 288.832082 534.721289 
L 293.098959 540.184606 
L 297.343987 545.379838 
L 301.569418 550.301209 
L 305.777657 554.943295 
L 309.971189 559.301264 
L 314.152697 563.371106 
L 318.324803 567.149285 
L 322.490346 570.6325 
L 326.652107 573.818276 
L 330.813008 576.704961 
L 334.975938 579.291142 
L 339.143887 581.576464 
L 343.319788 583.560456 
L 347.50658 585.244061 
L 351.707185 586.628222 
L 355.924571 587.714708 
L 360.161549 588.50623 
L 364.420887 589.005264 
L 368.705344 589.215818 
L 373.017526 589.141546 
L 377.360069 588.787401 
L 381.735311 588.158215 
L 386.145624 587.259766 
L 390.593161 586.098301 
L 395.079979 584.680305 
L 399.608032 583.012733 
L 404.178915 581.10313 
L 408.794327 578.959042 
L 413.455588 576.589192 
L 418.163917 574.001479 
L 422.920371 571.20498 
L 427.725733 568.208538 
L 432.580644 565.021701 
L 437.485483 561.654019 
L 442.440541 558.114806 
L 447.44581 554.414081 
L 452.501053 550.561984 
L 457.605884 546.5683 
L 462.75966 542.443403 
L 467.961571 538.197077 
L 473.210615 533.839698 
L 478.505528 529.381404 
L 483.844875 524.832334 
L 489.227015 520.202509 
L 494.650115 515.501948 
L 500.112233 510.74032 
L 505.611158 505.927527 
L 511.144495 501.073354 
L 516.709676 496.186997 
L 522.304096 491.277887 
L 527.924924 486.354984 
L 533.56912 481.427601 
L 539.233476 476.504226 
L 544.914952 471.593583 
L 550.610095 466.703807 
L 556.315412 461.843387 
L 562.027392 457.019983 
L 567.742336 452.241497 
L 573.456468 447.51559 
L 579.16607 442.849218 
L 584.867272 438.249808 
L 590.556147 433.724316 
L 596.228752 429.279344 
" clip-path="url(#p106de895c1)" style="fill: none; stroke: #8bd5ca; stroke-width: 2; stroke-linecap: square"/>
   </g>
   <g id="line2d_35">
    <path d="M 117.470529 239.739314 
L 127.985228 258.573622 
L 138.411814 276.764479 
L 148.722151 294.343953 
L 160.92357 314.693399 
L 172.928216 334.253918 
L 182.77674 349.932512 
L 192.482693 365.012337 
L 202.047925 379.465806 
L 211.476692 393.274999 
L 220.774841 406.431192 
L 228.123874 416.484488 
L 235.397388 426.119505 
L 242.59923 435.338366 
L 249.733273 444.144136 
L 256.803412 452.539998 
L 263.813522 460.529253 
L 270.767471 468.115084 
L 277.669098 475.300438 
L 284.522221 482.088146 
L 291.330643 488.48021 
L 298.098158 494.478517 
L 304.828549 500.084718 
L 311.525605 505.299049 
L 316.528804 508.953089 
L 321.516996 512.386672 
L 326.491797 515.59968 
L 331.45483 518.591289 
L 336.407737 521.360554 
L 341.352173 523.906534 
L 346.289804 526.227813 
L 351.222329 528.322623 
L 356.151466 530.189077 
L 361.07896 531.824937 
L 366.006587 533.227489 
L 370.936163 534.393787 
L 375.869533 535.320766 
L 380.808589 536.004535 
L 385.755285 536.441087 
L 390.711609 536.626294 
L 395.679607 536.555088 
L 400.661384 536.222398 
L 405.659131 535.622568 
L 410.675074 534.749701 
L 415.711545 533.597432 
L 420.770941 532.158687 
L 425.855726 530.426275 
L 430.968475 528.39265 
L 436.111832 526.049679 
L 441.288533 523.388991 
L 446.501401 520.402098 
L 451.753362 517.079687 
L 457.047388 513.412797 
L 462.386556 509.391998 
L 467.773999 505.008329 
L 473.21288 500.252478 
L 478.706388 495.11572 
L 484.257733 489.589802 
L 489.870029 483.667181 
L 495.546333 477.341726 
L 501.289572 470.608366 
L 507.102351 463.464391 
L 512.987066 455.908976 
L 518.945624 447.94495 
L 524.979423 439.577971 
L 533.142615 427.813838 
L 541.440185 415.390221 
L 549.868774 402.36135 
L 560.577991 385.336555 
L 573.652458 364.075691 
L 600.28209 320.522415 
L 600.28209 320.522415 
" clip-path="url(#p106de895c1)" style="fill: none; stroke: #c6a0f6; stroke-width: 2; stroke-linecap: square"/>
   </g>
   <g id="line2d_36">
    <path d="M 115.363636 235.919755 
L 120.26117 244.431268 
L 125.167235 253.026248 
L 130.078794 261.694911 
L 134.992844 270.427588 
L 139.906498 279.214024 
L 144.816933 288.044433 
L 149.721328 296.908441 
L 154.617012 305.795792 
L 159.50137 314.695875 
L 164.37193 323.598316 
L 169.226313 332.492504 
L 174.062263 341.367594 
L 178.877619 350.212976 
L 183.670391 359.017802 
L 188.438717 367.771111 
L 193.180882 376.461937 
L 197.895317 385.079552 
L 202.580599 393.612875 
L 207.235499 402.05106 
L 211.858971 410.383615 
L 216.45006 418.599339 
L 221.008051 426.687858 
L 225.532404 434.638209 
L 230.022728 442.440253 
L 234.478821 450.083615 
L 238.900682 457.558393 
L 243.288467 464.854211 
L 247.64251 471.96164 
L 251.963328 478.871483 
L 256.251626 485.573954 
L 260.508269 492.060685 
L 264.734274 498.322951 
L 268.930823 504.3525 
L 273.099319 510.141432 
L 277.241215 515.682322 
L 281.358182 520.96833 
L 285.451996 525.992502 
L 289.524568 530.748825 
L 293.577956 535.23164 
L 297.614272 539.435879 
L 301.63581 543.356235 
L 305.644894 546.98929 
L 309.643945 550.331035 
L 313.635444 553.378053 
L 317.621982 556.128338 
L 321.606155 558.579415 
L 325.590581 560.729988 
L 329.57791 562.579466 
L 333.570868 564.126907 
L 337.572106 565.373135 
L 341.584268 566.318859 
L 345.610033 566.965374 
L 349.651999 567.314568 
L 353.712713 567.369152 
L 357.794648 567.131955 
L 361.900264 566.606867 
L 366.031891 565.797544 
L 370.19178 564.708936 
L 374.382026 563.346113 
L 378.604768 561.714262 
L 382.861845 559.819867 
L 387.155023 557.669177 
L 391.485981 555.268911 
L 395.856183 552.626378 
L 400.26694 549.74936 
L 404.719441 546.645401 
L 409.214688 543.323225 
L 413.753538 539.790849 
L 418.336605 536.057351 
L 422.964352 532.13169 
L 427.6371 528.023297 
L 432.354905 523.741251 
L 437.117729 519.295453 
L 441.925243 514.695454 
L 446.776964 509.951038 
L 451.672298 505.072344 
L 456.610416 500.068921 
L 461.590192 494.951143 
L 466.610477 489.729032 
L 471.669892 484.41249 
L 476.766795 479.011537 
L 481.899524 473.536078 
L 487.066155 467.996131 
L 492.264555 462.401484 
L 497.492666 456.761448 
L 502.747863 451.086398 
L 508.027845 445.385295 
L 513.329875 439.667686 
L 518.651157 433.943005 
L 523.988863 428.219973 
L 529.339951 422.50767 
L 534.70127 416.815173 
L 540.069724 411.150615 
L 545.441916 405.522958 
L 550.814504 399.940099 
L 556.184147 394.41041 
L 561.547165 388.942141 
L 566.900198 383.542604 
L 572.239715 378.219342 
" clip-path="url(#p106de895c1)" style="fill: none; stroke: #8bd5ca; stroke-width: 2; stroke-linecap: square"/>
   </g>
   <g id="line2d_37">
    <path d="M 117.470529 239.739314 
L 127.984926 258.571736 
L 138.411379 276.761414 
L 148.722151 294.344189 
L 160.923834 314.695286 
L 172.925941 334.23588 
L 182.768038 349.862367 
L 192.462194 364.843281 
L 202.009389 379.140544 
L 209.543837 390.068593 
L 216.98953 400.534979 
L 224.349864 410.53593 
L 231.628612 420.07015 
L 238.829717 429.1387 
L 245.957239 437.743583 
L 253.015283 445.887512 
L 260.007965 453.573668 
L 266.9394 460.805236 
L 273.81368 467.585163 
L 280.634883 473.916395 
L 285.718394 478.371741 
L 290.776037 482.576923 
L 295.809511 486.532646 
L 300.820517 490.239383 
L 305.810751 493.697606 
L 310.78191 496.907313 
L 315.735697 499.868506 
L 320.673815 502.580712 
L 325.597974 505.043461 
L 330.5099 507.255926 
L 335.41132 509.217047 
L 340.303988 510.925291 
L 345.189663 512.379127 
L 350.070132 513.576548 
L 354.947204 514.515198 
L 359.822719 515.192484 
L 364.698536 515.605457 
L 369.576556 515.750817 
L 374.45872 515.624673 
L 379.347004 515.223371 
L 384.243424 514.542313 
L 389.150065 513.576784 
L 394.069023 512.321596 
L 399.002506 510.771325 
L 403.952723 508.920197 
L 408.921976 506.761844 
L 413.912616 504.289782 
L 418.927059 501.497291 
L 423.967796 498.377299 
L 429.037366 494.922378 
L 434.138374 491.124982 
L 439.273473 486.977804 
L 444.445361 482.472943 
L 449.656785 477.602855 
L 454.91051 472.360466 
L 460.209312 466.738703 
L 465.555927 460.731436 
L 470.953035 454.333006 
L 476.403279 447.538932 
L 481.909095 440.346151 
L 487.472803 432.753718 
L 493.096387 424.762105 
L 498.781544 416.374849 
L 506.459676 404.58867 
L 514.251028 392.136995 
L 522.155088 379.059199 
L 530.168894 365.409631 
L 540.331234 347.654028 
L 554.794943 321.827943 
L 580.016551 276.607212 
L 584.243002 269.159432 
L 584.243002 269.159432 
" clip-path="url(#p106de895c1)" style="fill: none; stroke: #c6a0f6; stroke-width: 2; stroke-linecap: square"/>
   </g>
   <g id="line2d_38">
    <path d="M 115.363636 235.919755 
L 120.057252 244.173558 
L 124.758814 252.504226 
L 129.465415 260.90221 
L 134.174415 269.357725 
L 138.882999 277.860868 
L 143.588534 286.401383 
L 148.288482 294.969484 
L 152.980257 303.554561 
L 157.661518 312.146594 
L 162.329905 320.735091 
L 166.983201 329.30944 
L 171.619319 337.859386 
L 176.23625 346.374318 
L 180.832097 354.843273 
L 185.40516 363.255875 
L 189.953797 371.601516 
L 194.476565 379.869348 
L 198.972123 388.048879 
L 203.4393 396.129382 
L 207.877078 404.1006 
L 212.284608 411.951804 
L 216.661133 419.672739 
L 221.006177 427.253147 
L 225.319288 434.682772 
L 229.600291 441.951948 
L 233.849115 449.050652 
L 238.065892 455.969336 
L 242.250876 462.69857 
L 246.40447 469.229156 
L 250.527343 475.55249 
L 254.620184 481.659965 
L 258.683928 487.542856 
L 262.71961 493.193856 
L 266.728445 498.604947 
L 270.711751 503.768938 
L 274.670994 508.678991 
L 278.607787 513.328741 
L 282.523866 517.712291 
L 286.420985 521.823749 
L 290.301126 525.65828 
L 294.16632 529.210934 
L 298.018662 532.477936 
L 301.860323 535.455398 
L 305.693595 538.140136 
L 309.520781 540.529556 
L 313.344215 542.621654 
L 317.166309 544.41478 
L 320.989476 545.907991 
L 324.816154 547.100461 
L 328.648782 547.992544 
L 332.489799 548.584712 
L 336.341626 548.87779 
L 340.206592 548.874017 
L 344.087115 548.574927 
L 347.985419 547.983584 
L 351.903794 547.103055 
L 355.844352 545.936874 
L 359.809218 544.489523 
L 363.800378 542.765128 
L 367.819669 540.769347 
L 371.868925 538.507367 
L 375.949799 535.985201 
L 380.063833 533.209216 
L 384.21241 530.186366 
L 388.396862 526.923372 
L 392.618273 523.427778 
L 396.877596 519.707719 
L 401.175739 515.770858 
L 405.513304 511.625566 
L 409.890773 507.280683 
L 414.308533 502.745053 
L 418.766725 498.027516 
L 423.265313 493.137386 
L 427.804182 488.084095 
L 432.383002 482.877074 
L 437.001169 477.526107 
L 441.658042 472.040863 
L 446.352733 466.431361 
L 451.084233 460.707268 
L 455.851361 454.878607 
L 460.652843 448.95516 
L 465.487029 442.947186 
L 470.352303 436.864468 
L 475.246892 430.716674 
L 480.168757 424.514061 
L 485.115859 418.266178 
L 490.085971 411.98281 
L 495.076753 405.673505 
L 500.085674 399.34805 
L 505.110187 393.01552 
L 510.14763 386.685585 
L 515.195134 380.367203 
L 520.249849 374.069687 
L 525.308849 367.801645 
L 530.369075 361.57227 
L 535.427395 355.39017 
L 540.480732 349.263833 
L 545.525763 343.201511 
L 550.559356 337.211809 
" clip-path="url(#p106de895c1)" style="fill: none; stroke: #8bd5ca; stroke-width: 2; stroke-linecap: square"/>
   </g>
   <g id="line2d_39">
    <path d="M 117.470529 239.739314 
L 127.984662 258.569614 
L 138.410945 276.758231 
L 148.722 294.34301 
L 160.923447 314.692456 
L 170.93692 331.013794 
L 180.80164 346.709365 
L 190.513011 361.719988 
L 198.171182 373.200239 
L 205.732113 384.189827 
L 213.198267 394.676137 
L 220.572839 404.651506 
L 227.859562 414.112633 
L 235.06247 423.058694 
L 242.185787 431.490866 
L 249.233831 439.411627 
L 256.210962 446.82404 
L 261.3999 452.051692 
L 266.553242 456.996641 
L 271.672825 461.660419 
L 276.760471 466.044206 
L 281.817999 470.149297 
L 286.84722 473.976519 
L 291.849936 477.526933 
L 296.827947 480.801245 
L 301.783046 483.799927 
L 306.717023 486.523215 
L 311.631669 488.971109 
L 316.528776 491.143491 
L 321.410136 493.040008 
L 326.277551 494.659716 
L 331.132825 496.00179 
L 335.97778 497.064816 
L 340.814242 497.847142 
L 345.644067 498.347001 
L 350.469116 498.562153 
L 355.291273 498.489885 
L 360.112458 498.12737 
L 364.934609 497.471423 
L 369.759701 496.518508 
L 374.589729 495.264616 
L 379.426746 493.705622 
L 384.272833 491.83681 
L 389.130094 489.653699 
L 394.00072 487.150868 
L 398.88689 484.322892 
L 403.790879 481.164114 
L 408.714981 477.668874 
L 413.661526 473.830924 
L 418.632894 469.644133 
L 423.631499 465.10249 
L 428.659797 460.199747 
L 433.720231 454.930007 
L 438.815275 449.287613 
L 443.947391 443.26726 
L 449.119005 436.864586 
L 454.332496 430.075464 
L 459.590138 422.897183 
L 464.894131 415.328446 
L 470.246446 407.369371 
L 475.648896 399.022198 
L 482.932707 387.296969 
L 490.310899 374.908366 
L 497.784716 361.885272 
L 505.353707 348.268359 
L 514.944818 330.496723 
L 526.630722 308.256536 
L 544.456282 273.688696 
L 562.502541 238.832494 
L 568.534924 227.396334 
L 568.534924 227.396334 
" clip-path="url(#p106de895c1)" style="fill: none; stroke: #c6a0f6; stroke-width: 2; stroke-linecap: square"/>
   </g>
   <g id="line2d_40">
    <path d="M 115.363636 235.919755 
L 119.875078 243.932942 
L 124.393939 252.017571 
L 128.917518 260.163503 
L 133.443249 268.36178 
L 137.968622 276.602143 
L 142.491116 284.874573 
L 147.008306 293.169284 
L 151.517851 301.47602 
L 156.017514 309.784643 
L 160.505097 318.085013 
L 164.978532 326.366756 
L 169.435809 334.61938 
L 173.875088 342.832747 
L 178.294612 350.996127 
L 182.692722 359.099383 
L 187.067889 367.13214 
L 191.418771 375.083906 
L 195.744094 382.944188 
L 200.042718 390.70273 
L 204.313697 398.349511 
L 208.556193 405.874038 
L 212.769525 413.266528 
L 216.953127 420.51684 
L 221.106641 427.615191 
L 225.22983 434.551913 
L 229.322572 441.317693 
L 233.384971 447.902981 
L 237.417234 454.298817 
L 241.419706 460.496361 
L 245.392896 466.487123 
L 249.337489 472.262498 
L 253.254244 477.815059 
L 257.144111 483.136435 
L 261.008134 488.219552 
L 264.847516 493.057574 
L 268.663592 497.643544 
L 272.457761 501.971332 
L 276.23158 506.03528 
L 279.986706 509.829492 
L 283.724848 513.349489 
L 287.447884 516.590202 
L 291.157661 519.547858 
L 294.85622 522.218685 
L 298.545579 524.599735 
L 302.227853 526.688061 
L 305.905156 528.48154 
L 309.579749 529.978641 
L 313.253737 531.178303 
L 316.929423 532.079582 
L 320.608974 532.682478 
L 324.294669 532.987344 
L 327.988699 532.995125 
L 331.693257 532.706999 
L 335.410487 532.12497 
L 339.142533 531.251513 
L 342.891423 530.089341 
L 346.659166 528.641872 
L 350.447716 526.912761 
L 354.258888 524.906488 
L 358.094467 522.62765 
L 361.956137 520.081316 
L 365.845418 517.273029 
L 369.763802 514.208917 
L 373.7126 510.895229 
L 377.693034 507.338686 
L 381.706204 503.546124 
L 385.75303 499.525089 
L 389.834371 495.283125 
L 393.95084 490.828486 
L 398.102966 486.169187 
L 402.291193 481.313482 
L 406.515596 476.270683 
L 410.77641 471.049044 
L 415.07342 465.657994 
L 419.406436 460.106848 
L 423.775005 454.405037 
L 428.178636 448.561639 
L 432.616546 442.586674 
L 437.087952 436.489692 
L 441.591702 430.28083 
L 446.126739 423.96964 
L 450.691761 417.566022 
L 455.28521 411.079881 
L 459.905539 404.521118 
L 464.551077 397.89952 
L 469.219908 391.225342 
L 473.910031 384.507897 
L 478.619407 377.75709 
L 483.345791 370.98294 
L 488.086918 364.194761 
L 492.840332 357.402103 
L 497.603468 350.614749 
L 502.373852 343.841778 
L 507.148767 337.092739 
L 511.925418 330.376474 
L 516.701069 323.702296 
L 521.472793 317.079283 
L 526.237817 310.515805 
L 530.992968 304.021057 
" clip-path="url(#p106de895c1)" style="fill: none; stroke: #8bd5ca; stroke-width: 2; stroke-linecap: square"/>
   </g>
   <g id="line2d_41">
    <path d="M 117.470529 239.739314 
L 127.984379 258.567727 
L 138.410492 276.755048 
L 148.721717 294.341123 
L 160.922466 314.684911 
L 170.932551 330.979959 
L 180.789305 346.611751 
L 188.560091 358.589857 
L 196.227851 370.063153 
L 203.79335 381.007234 
L 211.258749 391.404772 
L 218.627134 401.245745 
L 225.902272 410.524613 
L 233.088338 419.239842 
L 238.422079 425.406852 
L 243.710111 431.258149 
L 248.95437 436.79503 
L 254.156819 442.019028 
L 259.319396 446.931557 
L 264.444054 451.534621 
L 269.532739 455.829517 
L 274.587383 459.818015 
L 279.609905 463.501409 
L 284.602223 466.88088 
L 289.566237 469.957842 
L 294.503843 472.732885 
L 299.416925 475.206833 
L 304.307363 477.380276 
L 309.177033 479.253332 
L 314.027806 480.826002 
L 318.861555 482.097931 
L 323.680151 483.068529 
L 328.48547 483.736973 
L 333.2794 484.1022 
L 338.063828 484.162324 
L 342.840656 483.91605 
L 347.61181 483.361018 
L 352.379211 482.49487 
L 357.144825 481.314779 
L 361.910613 479.818031 
L 366.678585 478.000856 
L 371.450763 475.860068 
L 376.229193 473.391543 
L 381.015962 470.591154 
L 385.813169 467.454539 
L 390.622966 463.977218 
L 395.447506 460.154476 
L 400.289006 455.981597 
L 405.149665 451.453394 
L 410.031739 446.565386 
L 414.937474 441.312623 
L 419.869127 435.690625 
L 424.828951 429.695382 
L 429.819185 423.323006 
L 434.842018 416.570548 
L 439.899602 409.435651 
L 444.993985 401.917136 
L 450.127121 394.015238 
L 455.300792 385.731373 
L 462.264843 374.098335 
L 469.306964 361.807228 
L 476.429309 348.880097 
L 483.632897 335.349245 
L 492.750709 317.653649 
L 501.989875 299.193999 
L 513.223413 276.236562 
L 553.346864 193.670592 
L 553.346864 193.670592 
" clip-path="url(#p106de895c1)" style="fill: none; stroke: #c6a0f6; stroke-width: 2; stroke-linecap: square"/>
   </g>
   <g id="line2d_42">
    <path d="M 115.363636 235.919755 
L 119.71146 243.708359 
L 124.066193 251.563572 
L 128.425343 259.475254 
L 132.786531 267.434447 
L 137.147285 275.431011 
L 141.505322 283.455162 
L 145.858327 291.497115 
L 150.204103 299.546966 
L 154.540536 307.594341 
L 158.865557 315.629574 
L 163.177215 323.642289 
L 167.473649 331.622467 
L 171.753075 339.559967 
L 176.013852 347.444535 
L 180.254422 355.265913 
L 184.473332 363.013845 
L 188.669308 370.678545 
L 192.841122 378.24964 
L 196.987717 385.717108 
L 201.108141 393.070811 
L 205.20161 400.3012 
L 209.267463 407.398372 
L 213.305153 414.352542 
L 217.314283 421.154278 
L 221.294623 427.79415 
L 225.24603 434.262962 
L 229.168543 440.551753 
L 233.062322 446.651801 
L 236.927663 452.55438 
L 240.765017 458.251358 
L 244.574924 463.73448 
L 248.358112 468.995967 
L 252.115398 474.028745 
L 255.847706 478.825033 
L 259.556157 483.378819 
L 263.241859 487.682911 
L 266.906157 491.731533 
L 270.550441 495.519143 
L 274.176176 499.040202 
L 277.78495 502.289992 
L 281.378433 505.263799 
L 284.958358 507.957615 
L 288.526519 510.368255 
L 292.084799 512.492184 
L 295.635101 514.326926 
L 299.179398 515.869887 
L 302.719675 517.120006 
L 306.257963 518.075397 
L 309.796319 518.735941 
L 313.336751 519.100697 
L 316.881331 519.170371 
L 320.4321 518.945552 
L 323.991071 518.427184 
L 327.560221 517.617271 
L 331.141563 516.517463 
L 334.736922 515.130944 
L 338.348208 513.460307 
L 341.977231 511.509325 
L 345.625672 509.281887 
L 349.295227 506.782239 
L 352.987404 504.015567 
L 356.703724 500.986469 
L 360.445554 497.701193 
L 364.214128 494.16528 
L 368.010643 490.385097 
L 371.836123 486.367598 
L 375.691498 482.119505 
L 379.577538 477.648361 
L 383.494949 472.961711 
L 387.444242 468.067338 
L 391.425795 462.973374 
L 395.439909 457.688427 
L 399.486678 452.220866 
L 403.566065 446.579651 
L 407.677929 440.77386 
L 411.821966 434.812453 
L 415.997659 428.704978 
L 420.204545 422.460278 
L 424.441793 416.088491 
L 428.708507 409.599166 
L 433.003733 403.001853 
L 437.326376 396.306101 
L 441.675031 389.522167 
L 446.048375 382.659716 
L 450.444871 375.728535 
L 454.862829 368.738409 
L 459.30056 361.699357 
L 463.756148 354.621166 
L 468.22761 347.513619 
L 472.71289 340.386503 
L 477.209817 333.249248 
L 481.716087 326.111875 
L 486.229416 318.983816 
L 490.74737 311.874383 
L 495.267514 304.793245 
L 499.787224 297.74936 
L 504.303989 290.752396 
L 508.815129 283.810958 
L 513.317888 276.934479 
" clip-path="url(#p106de895c1)" style="fill: none; stroke: #8bd5ca; stroke-width: 2; stroke-linecap: square"/>
   </g>
   <g id="line2d_43">
    <path d="M 117.470529 239.739314 
L 127.984114 258.565841 
L 138.410039 276.751747 
L 148.721311 294.338058 
L 160.920937 314.673476 
L 170.926925 330.936575 
L 180.774629 346.495982 
L 188.533645 358.377299 
L 196.185134 369.713251 
L 203.72969 380.475781 
L 211.169418 390.645552 
L 218.507535 400.211014 
L 223.946798 406.98481 
L 229.332949 413.414481 
L 234.667931 419.500146 
L 239.953751 425.242865 
L 245.192441 430.6437 
L 250.386056 435.7043 
L 255.53667 440.42667 
L 260.646343 444.812579 
L 265.717128 448.864148 
L 270.751072 452.583146 
L 275.750209 455.971459 
L 280.716557 459.030619 
L 285.652122 461.762277 
L 290.558894 464.167613 
L 295.438853 466.247804 
L 300.293966 468.003677 
L 305.126191 469.435702 
L 309.937477 470.544351 
L 314.729769 471.329625 
L 319.505006 471.791287 
L 324.265124 471.928984 
L 329.012064 471.741773 
L 333.747765 471.228474 
L 338.474175 470.387792 
L 343.193247 469.217957 
L 347.906947 467.717201 
L 352.617244 465.883048 
L 357.326125 463.712906 
L 362.035605 461.20418 
L 366.747691 458.353687 
L 371.464424 455.158362 
L 376.187864 451.614669 
L 380.920081 447.719188 
L 385.663151 443.468147 
L 390.41919 438.858009 
L 395.190301 433.885002 
L 399.978608 428.545707 
L 404.786215 422.836822 
L 409.615248 416.755166 
L 414.467781 410.298026 
L 419.345872 403.463751 
L 424.251532 396.250575 
L 429.186704 388.658377 
L 434.15322 380.687749 
L 440.826994 369.475347 
L 447.563238 357.602989 
L 454.36502 345.086474 
L 461.234604 331.948082 
L 468.173266 318.219291 
L 476.943739 300.291331 
L 485.819333 281.609103 
L 496.598977 258.381223 
L 514.821746 218.458526 
L 531.391423 182.374133 
L 538.771162 166.634235 
L 538.771162 166.634235 
" clip-path="url(#p106de895c1)" style="fill: none; stroke: #c6a0f6; stroke-width: 2; stroke-linecap: square"/>
   </g>
   <g id="line2d_44">
    <path d="M 115.363636 235.919755 
L 119.563661 243.498748 
L 123.770216 251.139988 
L 127.980905 258.833572 
L 132.193426 266.570304 
L 136.405531 274.340281 
L 140.614993 282.134073 
L 144.819699 289.941775 
L 149.017514 297.75384 
L 153.206458 305.56001 
L 157.384549 313.350736 
L 161.549973 321.115997 
L 165.700976 328.845774 
L 169.835831 336.530044 
L 173.952989 344.158788 
L 178.050988 351.72222 
L 182.128441 359.210319 
L 186.18411 366.613301 
L 190.216836 373.921144 
L 194.225607 381.123947 
L 198.209519 388.212277 
L 202.167807 395.176467 
L 206.099772 402.006615 
L 210.004952 408.693644 
L 213.882922 415.228238 
L 217.733389 421.601322 
L 221.556231 427.804053 
L 225.351448 433.827353 
L 229.119177 439.663089 
L 232.859625 445.302653 
L 236.573189 450.738265 
L 240.260331 455.961909 
L 243.921689 460.966158 
L 247.558007 465.743701 
L 251.170126 470.287584 
L 254.75899 474.591204 
L 258.325698 478.648432 
L 261.871378 482.453255 
L 265.397311 486.000131 
L 268.904859 489.283875 
L 272.39542 492.299533 
L 275.870546 495.043099 
L 279.331815 497.510327 
L 282.780893 499.697799 
L 286.219438 501.602333 
L 289.649266 503.221451 
L 293.072171 504.552797 
L 296.489929 505.594602 
L 299.904464 506.34557 
L 303.317648 506.804992 
L 306.73133 506.972397 
L 310.147423 506.847904 
L 313.567828 506.432102 
L 316.994402 505.725933 
L 320.428976 504.730931 
L 323.873398 503.448863 
L 327.329407 501.882442 
L 330.798782 500.034261 
L 334.283162 497.907503 
L 337.784155 495.506175 
L 341.303336 492.83417 
L 344.84214 489.896084 
L 348.402019 486.696633 
L 351.984206 483.241476 
L 355.589921 479.535918 
L 359.220312 475.586325 
L 362.876351 471.398827 
L 366.558902 466.980262 
L 370.268785 462.337469 
L 374.006633 457.477991 
L 377.773002 452.409138 
L 381.568333 447.139045 
L 385.392855 441.67561 
L 389.246767 436.027322 
L 393.130108 430.202669 
L 397.042791 424.210256 
L 400.984552 418.059161 
L 404.954996 411.758345 
L 408.953754 405.317002 
L 412.980099 398.744446 
L 417.033296 392.050463 
L 421.112504 385.244128 
L 425.21677 378.335229 
L 429.344857 371.333903 
L 433.495587 364.249109 
L 437.667627 357.091223 
L 441.859478 349.869912 
L 446.069573 342.594842 
L 450.296175 335.276035 
L 454.537689 327.922921 
L 458.79202 320.545875 
L 463.057393 313.154211 
L 467.331732 305.757595 
L 471.612811 298.366049 
L 475.89857 290.988885 
L 480.186727 283.635654 
L 484.475016 276.315785 
L 488.760964 269.038947 
L 493.042269 261.814099 
L 497.316438 254.650554 
" clip-path="url(#p106de895c1)" style="fill: none; stroke: #8bd5ca; stroke-width: 2; stroke-linecap: square"/>
   </g>
   <g id="line2d_45">
    <path d="M 117.470529 239.739314 
L 127.983869 258.564073 
L 138.409586 276.748564 
L 148.720792 294.334286 
L 158.900176 311.332319 
L 168.932582 327.695391 
L 178.80388 343.332724 
L 186.578026 355.249762 
L 194.240217 366.589605 
L 201.790408 377.317709 
L 209.230362 387.410734 
L 214.739821 394.554827 
L 220.190659 401.330037 
L 225.584719 407.73507 
L 230.923991 413.769216 
L 236.210561 419.433655 
L 241.446557 424.729331 
L 246.63415 429.658365 
L 251.77551 434.222643 
L 256.872824 438.424523 
L 261.928263 442.266481 
L 266.943987 445.750758 
L 271.92214 448.879592 
L 276.864849 451.655224 
L 281.774224 454.079422 
L 286.652354 456.15419 
L 291.50131 457.880825 
L 296.32315 459.260978 
L 301.119913 460.295474 
L 304.304824 460.793565 
L 307.480089 461.138633 
L 310.646301 461.330677 
L 313.804055 461.369817 
L 316.953943 461.256052 
L 320.096554 460.9895 
L 323.232479 460.569807 
L 326.362307 459.996856 
L 329.486625 459.270528 
L 332.606022 458.390351 
L 335.721086 457.356327 
L 340.386845 455.515455 
L 345.046172 453.325507 
L 349.701048 450.78495 
L 354.353485 447.891663 
L 359.005488 444.643405 
L 363.659058 441.038054 
L 368.316228 437.073018 
L 372.979009 432.745819 
L 377.649444 428.053865 
L 382.329558 422.994679 
L 387.02138 417.565904 
L 391.726944 411.765065 
L 396.448241 405.590392 
L 401.187272 399.040353 
L 405.945991 392.11377 
L 410.726313 384.810406 
L 415.53007 377.130498 
L 420.359046 369.075695 
L 426.839793 357.757427 
L 433.37193 345.787573 
L 439.958562 333.181814 
L 446.602124 319.96196 
L 453.304278 306.158072 
L 461.765287 288.140279 
L 470.317665 269.364916 
L 480.694701 246.005234 
L 496.461521 209.817097 
L 515.949781 165.121572 
L 524.837097 145.17885 
L 524.837097 145.17885 
" clip-path="url(#p106de895c1)" style="fill: none; stroke: #c6a0f6; stroke-width: 2; stroke-linecap: square"/>
   </g>
   <g id="line2d_46">
    <path d="M 115.363636 235.919755 
L 119.429527 243.302931 
L 123.501515 250.744109 
L 127.57741 258.234331 
L 131.655004 265.763574 
L 135.732145 273.32288 
L 139.806738 280.902581 
L 143.876762 288.492892 
L 147.940209 296.084382 
L 151.995189 303.667383 
L 156.039826 311.231876 
L 160.072391 318.768547 
L 164.091214 326.267256 
L 168.094644 333.718338 
L 172.081236 341.112124 
L 176.049556 348.438712 
L 179.998293 355.688553 
L 183.926247 362.851744 
L 187.832361 369.918972 
L 191.715616 376.880451 
L 195.575144 383.726632 
L 199.410208 390.44832 
L 203.220121 397.036202 
L 207.004408 403.480964 
L 210.762657 409.773999 
L 214.494582 415.905877 
L 218.200025 421.868464 
L 221.878946 427.652916 
L 225.531408 433.250983 
L 229.157647 438.654883 
L 232.757945 443.856481 
L 236.332746 448.848351 
L 239.882588 453.623065 
L 243.408141 458.173785 
L 246.910137 462.493439 
L 250.389477 466.576131 
L 253.847095 470.415142 
L 257.284058 474.005167 
L 260.701513 477.340547 
L 264.100719 480.416448 
L 267.482946 483.228154 
L 270.84961 485.771187 
L 274.202167 488.042008 
L 277.542102 490.036846 
L 280.871012 491.752753 
L 284.190521 493.187254 
L 287.502277 494.337755 
L 290.807961 495.202841 
L 294.109311 495.781216 
L 297.408048 496.071464 
L 300.70594 496.073822 
L 304.004729 495.787936 
L 307.306153 495.214277 
L 310.61196 494.353788 
L 313.923887 493.207767 
L 317.24359 491.777864 
L 320.572743 490.066555 
L 323.912974 488.076432 
L 327.265848 485.810326 
L 330.632869 483.271892 
L 334.015506 480.464901 
L 337.415132 477.393716 
L 340.833066 474.063052 
L 344.270548 470.477743 
L 347.728714 466.643329 
L 351.208615 462.565706 
L 354.711244 458.250886 
L 358.237444 453.704999 
L 361.787956 448.935119 
L 365.363465 443.948318 
L 368.964508 438.751671 
L 372.591497 433.352841 
L 376.244771 427.759844 
L 379.924509 421.980342 
L 383.630791 416.022943 
L 387.363575 409.896252 
L 391.12272 403.608522 
L 394.907933 397.168947 
L 398.718808 390.586371 
L 402.554807 383.86987 
L 406.415298 377.029112 
L 410.299534 370.072938 
L 414.206649 363.011251 
L 418.13565 355.853483 
L 422.085425 348.609065 
L 426.054755 341.2879 
L 430.042395 333.899536 
L 434.046891 326.454114 
L 438.066743 318.960945 
L 442.100422 311.429933 
L 446.146116 303.870981 
L 450.202153 296.293639 
L 454.266704 288.707689 
L 458.337766 281.123037 
L 462.413454 273.548995 
L 466.491671 265.995348 
L 470.570341 258.471646 
L 474.647312 250.987319 
L 478.720338 243.551564 
L 482.787286 236.174046 
" clip-path="url(#p106de895c1)" style="fill: none; stroke: #8bd5ca; stroke-width: 2; stroke-linecap: square"/>
   </g>
   <g id="line2d_47">
    <path d="M 117.470529 239.739314 
L 127.983642 258.562304 
L 138.409152 276.745381 
L 148.720169 294.329806 
L 158.898232 311.317819 
L 168.926192 327.646584 
L 176.82946 340.16251 
L 184.619981 352.125054 
L 192.29431 363.480576 
L 199.851664 374.187696 
L 205.443667 381.775178 
L 210.971813 388.974444 
L 216.43764 395.780424 
L 221.842983 402.190644 
L 227.189871 408.204395 
L 232.480438 413.821796 
L 237.716915 419.044614 
L 242.901573 423.874619 
L 248.0367 428.314168 
L 253.124594 432.366091 
L 258.167549 436.033217 
L 263.167846 439.318375 
L 268.127737 442.224276 
L 273.049465 444.753633 
L 277.935241 446.908921 
L 281.173538 448.139235 
L 284.397473 449.204972 
L 287.607687 450.10684 
L 290.804814 450.845075 
L 293.989485 451.42062 
L 297.162324 451.833475 
L 300.323955 452.084348 
L 303.474997 452.173474 
L 306.616065 452.101206 
L 309.74777 451.867664 
L 312.870723 451.472964 
L 315.985529 450.917224 
L 319.092794 450.200681 
L 322.193121 449.323334 
L 325.28711 448.284948 
L 328.375359 447.085523 
L 331.458464 445.725057 
L 336.074789 443.381615 
L 340.682893 440.674124 
L 345.284789 437.601878 
L 349.882471 434.163343 
L 354.477949 430.35746 
L 359.073216 426.182459 
L 363.67027 421.637043 
L 368.2711 416.719799 
L 372.877687 411.429075 
L 377.492008 405.763692 
L 382.116023 399.722472 
L 386.751669 393.304708 
L 391.40086 386.509927 
L 396.065462 379.338483 
L 400.747299 371.790967 
L 405.448124 363.869382 
L 411.74835 352.729718 
L 418.089036 340.939059 
L 424.473505 328.51167 
L 430.904579 315.46712 
L 437.384448 301.830991 
L 443.914565 287.636647 
L 452.148646 269.172046 
L 460.460874 249.999862 
L 470.532891 226.233691 
L 487.518729 185.465124 
L 504.663843 144.500504 
L 511.536797 128.411058 
L 511.536797 128.411058 
" clip-path="url(#p106de895c1)" style="fill: none; stroke: #c6a0f6; stroke-width: 2; stroke-linecap: square"/>
   </g>
   <g id="line2d_48">
    <path d="M 115.363636 235.919755 
L 119.307116 243.119492 
L 123.256371 250.374049 
L 127.20927 257.67364 
L 131.163773 265.009542 
L 135.117785 272.372322 
L 139.069324 279.752551 
L 143.016466 287.140679 
L 146.957265 294.527156 
L 150.889966 301.902669 
L 154.812814 309.257669 
L 158.724062 316.582607 
L 162.622182 323.867579 
L 166.50557 331.103274 
L 170.372846 338.280022 
L 174.222662 345.388511 
L 178.053763 352.419075 
L 181.864968 359.361927 
L 185.655277 366.208226 
L 189.423691 372.948423 
L 193.169405 379.573205 
L 196.891619 386.073258 
L 200.589747 392.439975 
L 204.263308 398.664162 
L 207.911829 404.737095 
L 211.535057 410.649931 
L 215.132802 416.394772 
L 218.704998 421.962777 
L 222.251702 427.346281 
L 225.77306 432.537269 
L 229.269346 437.528196 
L 232.740928 442.311752 
L 236.188301 446.880628 
L 239.612018 451.228221 
L 243.01281 455.347814 
L 246.391408 459.233156 
L 249.748723 462.878354 
L 253.085705 466.277984 
L 256.403409 469.426624 
L 259.702944 472.319086 
L 262.985562 474.951362 
L 266.252466 477.318737 
L 269.505047 479.417791 
L 272.744692 481.245105 
L 275.97285 482.797497 
L 279.191008 484.072373 
L 282.400707 485.067729 
L 285.603494 485.781561 
L 288.801005 486.212689 
L 291.994805 486.360171 
L 295.186562 486.223417 
L 298.377874 485.80231 
L 301.570385 485.097438 
L 304.765706 484.109509 
L 307.965438 482.839467 
L 311.171193 481.289197 
L 314.384492 479.460939 
L 317.606861 477.356816 
L 320.839769 474.979774 
L 324.084671 472.333233 
L 327.342891 469.420847 
L 330.61579 466.246625 
L 333.90456 462.814928 
L 337.210445 459.130709 
L 340.534451 455.199271 
L 343.877643 451.025802 
L 347.240951 446.616315 
L 350.625198 441.977176 
L 354.031101 437.114515 
L 357.459343 432.035524 
L 360.910473 426.746804 
L 364.384876 421.256136 
L 367.882965 415.570595 
L 371.404885 409.698667 
L 374.950824 403.64778 
L 378.520722 397.426658 
L 382.114522 391.043435 
L 385.731973 384.506719 
L 389.372784 377.825821 
L 393.036501 371.008994 
L 396.722614 364.065788 
L 400.43036 357.005281 
L 404.159076 349.83702 
L 407.907858 342.569849 
L 411.675743 335.213906 
L 415.461616 327.778268 
L 419.264393 320.272839 
L 423.082781 312.707049 
L 426.91542 305.090802 
L 430.76081 297.433647 
L 434.617563 289.74525 
L 438.483943 282.035633 
L 442.35843 274.313992 
L 446.239118 266.590699 
L 450.124317 258.874834 
L 454.012178 251.175827 
L 457.900728 243.503818 
L 461.788033 235.868118 
L 465.672014 228.278161 
L 469.550768 220.743141 
" clip-path="url(#p106de895c1)" style="fill: none; stroke: #8bd5ca; stroke-width: 2; stroke-linecap: square"/>
   </g>
   <g id="line2d_49">
    <path d="M 117.470529 239.739314 
L 127.983397 258.560772 
L 138.408718 276.742198 
L 148.71947 294.324854 
L 158.895948 311.300725 
L 168.918953 327.591175 
L 176.814425 340.045679 
L 184.592893 351.910846 
L 192.250498 363.12761 
L 197.913731 371.087274 
L 203.508915 378.643986 
L 209.037127 385.788432 
L 214.499934 392.515072 
L 219.899189 398.820722 
L 225.236979 404.704557 
L 230.515536 410.167049 
L 235.7372 415.209847 
L 240.904351 419.835311 
L 246.019398 424.046269 
L 251.084764 427.84614 
L 256.102849 431.238108 
L 261.076057 434.225472 
L 266.006751 436.811771 
L 269.271418 438.314766 
L 272.51892 439.641868 
L 275.749937 440.793784 
L 278.965144 441.771692 
L 282.165214 442.576064 
L 285.350807 443.207843 
L 288.522584 443.667737 
L 291.681197 443.956453 
L 294.827294 444.074344 
L 297.961519 444.022236 
L 301.084509 443.800365 
L 304.196898 443.409437 
L 307.299316 442.849689 
L 310.392387 442.121593 
L 313.476733 441.225148 
L 316.552972 440.160826 
L 319.621719 438.928744 
L 322.683583 437.529021 
L 325.739176 435.961775 
L 328.789104 434.227005 
L 333.354687 431.310846 
L 337.910906 428.017672 
L 342.459775 424.347127 
L 347.003301 420.298977 
L 351.543473 415.872632 
L 356.08228 411.06762 
L 360.621687 405.88347 
L 365.163652 400.319827 
L 369.710114 394.376339 
L 374.262979 388.053241 
L 378.824136 381.350769 
L 383.395434 374.269984 
L 387.978691 366.812183 
L 392.575641 358.979252 
L 397.187985 350.77461 
L 403.364478 339.263471 
L 409.574692 327.111004 
L 415.8218 314.334538 
L 422.108435 300.956709 
L 428.4367 287.005693 
L 436.407611 268.816486 
L 444.446578 249.874426 
L 454.181035 226.30195 
L 467.295868 193.820078 
L 493.844767 127.780812 
L 500.508102 111.6 
L 500.508102 111.6 
" clip-path="url(#p106de895c1)" style="fill: none; stroke: #c6a0f6; stroke-width: 2; stroke-linecap: square"/>
   </g>
   <g id="line2d_50">
    <path d="M 115.363636 235.919755 
L 119.194935 242.947607 
L 123.031689 250.026977 
L 126.871916 257.14867 
L 130.713559 264.303609 
L 134.55473 271.482715 
L 138.393523 278.676676 
L 142.227993 285.876177 
L 146.056422 293.071906 
L 149.877018 300.254431 
L 153.688139 307.414439 
L 157.48816 314.542616 
L 161.275524 321.629296 
L 165.048845 328.6654 
L 168.806659 335.641616 
L 172.547711 342.548157 
L 176.270831 349.376066 
L 179.974839 356.116027 
L 183.658782 362.758846 
L 187.321659 369.295327 
L 190.962743 375.716392 
L 194.581271 382.013436 
L 198.176599 388.177263 
L 201.748276 394.199502 
L 205.295839 400.071195 
L 208.819024 405.784441 
L 212.317622 411.330753 
L 215.79154 416.701879 
L 219.240805 421.890391 
L 222.665527 426.888509 
L 226.065937 431.688688 
L 229.44235 436.283736 
L 232.795211 440.667051 
L 236.125019 444.831795 
L 239.432393 448.771485 
L 242.718074 452.479991 
L 245.982835 455.951889 
L 249.227555 459.181402 
L 252.453186 462.163579 
L 255.660795 464.893587 
L 258.851453 467.366828 
L 262.026353 469.579529 
L 265.186753 471.527564 
L 268.333909 473.207986 
L 271.469178 474.617612 
L 274.59393 475.753966 
L 277.70962 476.614808 
L 280.817677 477.19837 
L 283.91959 477.503472 
L 287.016863 477.528819 
L 290.111013 477.274292 
L 293.203582 476.739537 
L 296.296047 475.92479 
L 299.389944 474.83076 
L 302.486782 473.458741 
L 305.588053 471.810032 
L 308.695188 469.886754 
L 311.809637 467.691265 
L 314.932794 465.225805 
L 318.065977 462.494264 
L 321.210526 459.49959 
L 324.367614 456.245909 
L 327.538492 452.737465 
L 330.724241 448.97862 
L 333.925906 444.974797 
L 337.144468 440.73083 
L 340.380823 436.25273 
L 343.635778 431.546275 
L 346.910053 426.617595 
L 350.204304 421.473528 
L 353.519044 416.120675 
L 356.854718 410.566464 
L 360.21168 404.817968 
L 363.590193 398.882851 
L 366.990404 392.768892 
L 370.412318 386.484227 
L 373.855959 380.037107 
L 377.32109 373.436022 
L 380.807541 366.689223 
L 384.314832 359.806141 
L 387.842547 352.79503 
L 391.390138 345.665084 
L 394.956917 338.425736 
L 398.542128 331.086061 
L 402.144922 323.655139 
L 405.764299 316.142872 
L 409.399268 308.558456 
L 413.048639 300.911675 
L 416.711261 293.211725 
L 420.385765 285.468745 
L 424.070887 277.691576 
L 427.765051 269.890829 
L 431.466822 262.075464 
L 435.174577 254.255265 
L 438.886655 246.440135 
L 442.601441 238.639153 
L 446.317076 230.86222 
L 450.031862 223.119004 
L 453.743911 215.418582 
L 457.451383 207.770269 
" clip-path="url(#p106de895c1)" style="fill: none; stroke: #8bd5ca; stroke-width: 2; stroke-linecap: square"/>
   </g>
   <g id="patch_3">
    <path d="M 90 640.8 
L 90 86.4 
" style="fill: none; stroke: #cad3f5; stroke-width: 1.5; stroke-linejoin: miter; stroke-linecap: square"/>
   </g>
   <g id="patch_4">
    <path d="M 648 640.8 
L 648 86.4 
" style="fill: none; stroke: #cad3f5; stroke-width: 1.5; stroke-linejoin: miter; stroke-linecap: square"/>
   </g>
   <g id="patch_5">
    <path d="M 90 640.8 
L 648 640.8 
" style="fill: none; stroke: #cad3f5; stroke-width: 1.5; stroke-linejoin: miter; stroke-linecap: square"/>
   </g>
   <g id="patch_6">
    <path d="M 90 86.4 
L 648 86.4 
" style="fill: none; stroke: #cad3f5; stroke-width: 1.5; stroke-linejoin: miter; stroke-linecap: square"/>
   </g>
   <g id="text_18">
    <!-- SLIP trajectories against constrained hopper trajectories -->
    <g style="fill: #cad3f5" transform="translate(79.666875 80.4) scale(0.18 -0.18)">
     <defs>
      <path id="DejaVuSans-Bold-53" d="M 3834 4519 
L 3834 3531 
Q 3450 3703 3084 3790 
Q 2719 3878 2394 3878 
Q 1963 3878 1756 3759 
Q 1550 3641 1550 3391 
Q 1550 3203 1689 3098 
Q 1828 2994 2194 2919 
L 2706 2816 
Q 3484 2659 3812 2340 
Q 4141 2022 4141 1434 
Q 4141 663 3683 286 
Q 3225 -91 2284 -91 
Q 1841 -91 1394 -6 
Q 947 78 500 244 
L 500 1259 
Q 947 1022 1364 901 
Q 1781 781 2169 781 
Q 2563 781 2772 912 
Q 2981 1044 2981 1288 
Q 2981 1506 2839 1625 
Q 2697 1744 2272 1838 
L 1806 1941 
Q 1106 2091 782 2419 
Q 459 2747 459 3303 
Q 459 4000 909 4375 
Q 1359 4750 2203 4750 
Q 2588 4750 2994 4692 
Q 3400 4634 3834 4519 
z
" transform="scale(0.015625)"/>
      <path id="DejaVuSans-Bold-4c" d="M 588 4666 
L 1791 4666 
L 1791 909 
L 3903 909 
L 3903 0 
L 588 0 
L 588 4666 
z
" transform="scale(0.015625)"/>
      <path id="DejaVuSans-Bold-49" d="M 588 4666 
L 1791 4666 
L 1791 0 
L 588 0 
L 588 4666 
z
" transform="scale(0.015625)"/>
      <path id="DejaVuSans-Bold-50" d="M 588 4666 
L 2584 4666 
Q 3475 4666 3951 4270 
Q 4428 3875 4428 3144 
Q 4428 2409 3951 2014 
Q 3475 1619 2584 1619 
L 1791 1619 
L 1791 0 
L 588 0 
L 588 4666 
z
M 1791 3794 
L 1791 2491 
L 2456 2491 
Q 2806 2491 2997 2661 
Q 3188 2831 3188 3144 
Q 3188 3456 2997 3625 
Q 2806 3794 2456 3794 
L 1791 3794 
z
" transform="scale(0.015625)"/>
      <path id="DejaVuSans-Bold-20" transform="scale(0.015625)"/>
      <path id="DejaVuSans-Bold-74" d="M 1759 4494 
L 1759 3500 
L 2913 3500 
L 2913 2700 
L 1759 2700 
L 1759 1216 
Q 1759 972 1856 886 
Q 1953 800 2241 800 
L 2816 800 
L 2816 0 
L 1856 0 
Q 1194 0 917 276 
Q 641 553 641 1216 
L 641 2700 
L 84 2700 
L 84 3500 
L 641 3500 
L 641 4494 
L 1759 4494 
z
" transform="scale(0.015625)"/>
      <path id="DejaVuSans-Bold-72" d="M 3138 2547 
Q 2991 2616 2845 2648 
Q 2700 2681 2553 2681 
Q 2122 2681 1889 2404 
Q 1656 2128 1656 1613 
L 1656 0 
L 538 0 
L 538 3500 
L 1656 3500 
L 1656 2925 
Q 1872 3269 2151 3426 
Q 2431 3584 2822 3584 
Q 2878 3584 2943 3579 
Q 3009 3575 3134 3559 
L 3138 2547 
z
" transform="scale(0.015625)"/>
      <path id="DejaVuSans-Bold-61" d="M 2106 1575 
Q 1756 1575 1579 1456 
Q 1403 1338 1403 1106 
Q 1403 894 1545 773 
Q 1688 653 1941 653 
Q 2256 653 2472 879 
Q 2688 1106 2688 1447 
L 2688 1575 
L 2106 1575 
z
M 3816 1997 
L 3816 0 
L 2688 0 
L 2688 519 
Q 2463 200 2181 54 
Q 1900 -91 1497 -91 
Q 953 -91 614 226 
Q 275 544 275 1050 
Q 275 1666 698 1953 
Q 1122 2241 2028 2241 
L 2688 2241 
L 2688 2328 
Q 2688 2594 2478 2717 
Q 2269 2841 1825 2841 
Q 1466 2841 1156 2769 
Q 847 2697 581 2553 
L 581 3406 
Q 941 3494 1303 3539 
Q 1666 3584 2028 3584 
Q 2975 3584 3395 3211 
Q 3816 2838 3816 1997 
z
" transform="scale(0.015625)"/>
      <path id="DejaVuSans-Bold-6a" d="M 538 3500 
L 1656 3500 
L 1656 63 
Q 1656 -641 1318 -1011 
Q 981 -1381 341 -1381 
L -213 -1381 
L -213 -647 
L -19 -647 
Q 300 -647 419 -503 
Q 538 -359 538 63 
L 538 3500 
z
M 538 4863 
L 1656 4863 
L 1656 3950 
L 538 3950 
L 538 4863 
z
" transform="scale(0.015625)"/>
      <path id="DejaVuSans-Bold-65" d="M 4031 1759 
L 4031 1441 
L 1416 1441 
Q 1456 1047 1700 850 
Q 1944 653 2381 653 
Q 2734 653 3104 758 
Q 3475 863 3866 1075 
L 3866 213 
Q 3469 63 3072 -14 
Q 2675 -91 2278 -91 
Q 1328 -91 801 392 
Q 275 875 275 1747 
Q 275 2603 792 3093 
Q 1309 3584 2216 3584 
Q 3041 3584 3536 3087 
Q 4031 2591 4031 1759 
z
M 2881 2131 
Q 2881 2450 2695 2645 
Q 2509 2841 2209 2841 
Q 1884 2841 1681 2658 
Q 1478 2475 1428 2131 
L 2881 2131 
z
" transform="scale(0.015625)"/>
      <path id="DejaVuSans-Bold-63" d="M 3366 3391 
L 3366 2478 
Q 3138 2634 2908 2709 
Q 2678 2784 2431 2784 
Q 1963 2784 1702 2511 
Q 1441 2238 1441 1747 
Q 1441 1256 1702 982 
Q 1963 709 2431 709 
Q 2694 709 2930 787 
Q 3166 866 3366 1019 
L 3366 103 
Q 3103 6 2833 -42 
Q 2563 -91 2291 -91 
Q 1344 -91 809 395 
Q 275 881 275 1747 
Q 275 2613 809 3098 
Q 1344 3584 2291 3584 
Q 2566 3584 2833 3536 
Q 3100 3488 3366 3391 
z
" transform="scale(0.015625)"/>
      <path id="DejaVuSans-Bold-6f" d="M 2203 2784 
Q 1831 2784 1636 2517 
Q 1441 2250 1441 1747 
Q 1441 1244 1636 976 
Q 1831 709 2203 709 
Q 2569 709 2762 976 
Q 2956 1244 2956 1747 
Q 2956 2250 2762 2517 
Q 2569 2784 2203 2784 
z
M 2203 3584 
Q 3106 3584 3614 3096 
Q 4122 2609 4122 1747 
Q 4122 884 3614 396 
Q 3106 -91 2203 -91 
Q 1297 -91 786 396 
Q 275 884 275 1747 
Q 275 2609 786 3096 
Q 1297 3584 2203 3584 
z
" transform="scale(0.015625)"/>
      <path id="DejaVuSans-Bold-69" d="M 538 3500 
L 1656 3500 
L 1656 0 
L 538 0 
L 538 3500 
z
M 538 4863 
L 1656 4863 
L 1656 3950 
L 538 3950 
L 538 4863 
z
" transform="scale(0.015625)"/>
      <path id="DejaVuSans-Bold-73" d="M 3272 3391 
L 3272 2541 
Q 2913 2691 2578 2766 
Q 2244 2841 1947 2841 
Q 1628 2841 1473 2761 
Q 1319 2681 1319 2516 
Q 1319 2381 1436 2309 
Q 1553 2238 1856 2203 
L 2053 2175 
Q 2913 2066 3209 1816 
Q 3506 1566 3506 1031 
Q 3506 472 3093 190 
Q 2681 -91 1863 -91 
Q 1516 -91 1145 -36 
Q 775 19 384 128 
L 384 978 
Q 719 816 1070 734 
Q 1422 653 1784 653 
Q 2113 653 2278 743 
Q 2444 834 2444 1013 
Q 2444 1163 2330 1236 
Q 2216 1309 1875 1350 
L 1678 1375 
Q 931 1469 631 1722 
Q 331 1975 331 2491 
Q 331 3047 712 3315 
Q 1094 3584 1881 3584 
Q 2191 3584 2531 3537 
Q 2872 3491 3272 3391 
z
" transform="scale(0.015625)"/>
      <path id="DejaVuSans-Bold-67" d="M 2919 594 
Q 2688 288 2409 144 
Q 2131 0 1766 0 
Q 1125 0 706 504 
Q 288 1009 288 1791 
Q 288 2575 706 3076 
Q 1125 3578 1766 3578 
Q 2131 3578 2409 3434 
Q 2688 3291 2919 2981 
L 2919 3500 
L 4044 3500 
L 4044 353 
Q 4044 -491 3511 -936 
Q 2978 -1381 1966 -1381 
Q 1638 -1381 1331 -1331 
Q 1025 -1281 716 -1178 
L 716 -306 
Q 1009 -475 1290 -558 
Q 1572 -641 1856 -641 
Q 2406 -641 2662 -400 
Q 2919 -159 2919 353 
L 2919 594 
z
M 2181 2772 
Q 1834 2772 1640 2515 
Q 1447 2259 1447 1791 
Q 1447 1309 1634 1061 
Q 1822 813 2181 813 
Q 2531 813 2725 1069 
Q 2919 1325 2919 1791 
Q 2919 2259 2725 2515 
Q 2531 2772 2181 2772 
z
" transform="scale(0.015625)"/>
      <path id="DejaVuSans-Bold-6e" d="M 4056 2131 
L 4056 0 
L 2931 0 
L 2931 347 
L 2931 1631 
Q 2931 2084 2911 2256 
Q 2891 2428 2841 2509 
Q 2775 2619 2662 2680 
Q 2550 2741 2406 2741 
Q 2056 2741 1856 2470 
Q 1656 2200 1656 1722 
L 1656 0 
L 538 0 
L 538 3500 
L 1656 3500 
L 1656 2988 
Q 1909 3294 2193 3439 
Q 2478 3584 2822 3584 
Q 3428 3584 3742 3212 
Q 4056 2841 4056 2131 
z
" transform="scale(0.015625)"/>
      <path id="DejaVuSans-Bold-64" d="M 2919 2988 
L 2919 4863 
L 4044 4863 
L 4044 0 
L 2919 0 
L 2919 506 
Q 2688 197 2409 53 
Q 2131 -91 1766 -91 
Q 1119 -91 703 423 
Q 288 938 288 1747 
Q 288 2556 703 3070 
Q 1119 3584 1766 3584 
Q 2128 3584 2408 3439 
Q 2688 3294 2919 2988 
z
M 2181 722 
Q 2541 722 2730 984 
Q 2919 1247 2919 1747 
Q 2919 2247 2730 2509 
Q 2541 2772 2181 2772 
Q 1825 2772 1636 2509 
Q 1447 2247 1447 1747 
Q 1447 1247 1636 984 
Q 1825 722 2181 722 
z
" transform="scale(0.015625)"/>
      <path id="DejaVuSans-Bold-68" d="M 4056 2131 
L 4056 0 
L 2931 0 
L 2931 347 
L 2931 1625 
Q 2931 2084 2911 2256 
Q 2891 2428 2841 2509 
Q 2775 2619 2662 2680 
Q 2550 2741 2406 2741 
Q 2056 2741 1856 2470 
Q 1656 2200 1656 1722 
L 1656 0 
L 538 0 
L 538 4863 
L 1656 4863 
L 1656 2988 
Q 1909 3294 2193 3439 
Q 2478 3584 2822 3584 
Q 3428 3584 3742 3212 
Q 4056 2841 4056 2131 
z
" transform="scale(0.015625)"/>
      <path id="DejaVuSans-Bold-70" d="M 1656 506 
L 1656 -1331 
L 538 -1331 
L 538 3500 
L 1656 3500 
L 1656 2988 
Q 1888 3294 2169 3439 
Q 2450 3584 2816 3584 
Q 3463 3584 3878 3070 
Q 4294 2556 4294 1747 
Q 4294 938 3878 423 
Q 3463 -91 2816 -91 
Q 2450 -91 2169 54 
Q 1888 200 1656 506 
z
M 2400 2772 
Q 2041 2772 1848 2508 
Q 1656 2244 1656 1747 
Q 1656 1250 1848 986 
Q 2041 722 2400 722 
Q 2759 722 2948 984 
Q 3138 1247 3138 1747 
Q 3138 2247 2948 2509 
Q 2759 2772 2400 2772 
z
" transform="scale(0.015625)"/>
     </defs>
     <use xlink:href="#DejaVuSans-Bold-53"/>
     <use xlink:href="#DejaVuSans-Bold-4c" x="72.021484"/>
     <use xlink:href="#DejaVuSans-Bold-49" x="135.742188"/>
     <use xlink:href="#DejaVuSans-Bold-50" x="172.949219"/>
     <use xlink:href="#DejaVuSans-Bold-20" x="246.240234"/>
     <use xlink:href="#DejaVuSans-Bold-74" x="281.054688"/>
     <use xlink:href="#DejaVuSans-Bold-72" x="328.857422"/>
     <use xlink:href="#DejaVuSans-Bold-61" x="378.173828"/>
     <use xlink:href="#DejaVuSans-Bold-6a" x="445.654297"/>
     <use xlink:href="#DejaVuSans-Bold-65" x="479.931641"/>
     <use xlink:href="#DejaVuSans-Bold-63" x="547.753906"/>
     <use xlink:href="#DejaVuSans-Bold-74" x="607.03125"/>
     <use xlink:href="#DejaVuSans-Bold-6f" x="654.833984"/>
     <use xlink:href="#DejaVuSans-Bold-72" x="723.535156"/>
     <use xlink:href="#DejaVuSans-Bold-69" x="772.851562"/>
     <use xlink:href="#DejaVuSans-Bold-65" x="807.128906"/>
     <use xlink:href="#DejaVuSans-Bold-73" x="874.951172"/>
     <use xlink:href="#DejaVuSans-Bold-20" x="934.472656"/>
     <use xlink:href="#DejaVuSans-Bold-61" x="969.287109"/>
     <use xlink:href="#DejaVuSans-Bold-67" x="1036.767578"/>
     <use xlink:href="#DejaVuSans-Bold-61" x="1108.349609"/>
     <use xlink:href="#DejaVuSans-Bold-69" x="1175.830078"/>
     <use xlink:href="#DejaVuSans-Bold-6e" x="1210.107422"/>
     <use xlink:href="#DejaVuSans-Bold-73" x="1281.298828"/>
     <use xlink:href="#DejaVuSans-Bold-74" x="1340.820312"/>
     <use xlink:href="#DejaVuSans-Bold-20" x="1388.623047"/>
     <use xlink:href="#DejaVuSans-Bold-63" x="1423.4375"/>
     <use xlink:href="#DejaVuSans-Bold-6f" x="1482.714844"/>
     <use xlink:href="#DejaVuSans-Bold-6e" x="1551.416016"/>
     <use xlink:href="#DejaVuSans-Bold-73" x="1622.607422"/>
     <use xlink:href="#DejaVuSans-Bold-74" x="1682.128906"/>
     <use xlink:href="#DejaVuSans-Bold-72" x="1729.931641"/>
     <use xlink:href="#DejaVuSans-Bold-61" x="1779.248047"/>
     <use xlink:href="#DejaVuSans-Bold-69" x="1846.728516"/>
     <use xlink:href="#DejaVuSans-Bold-6e" x="1881.005859"/>
     <use xlink:href="#DejaVuSans-Bold-65" x="1952.197266"/>
     <use xlink:href="#DejaVuSans-Bold-64" x="2020.019531"/>
     <use xlink:href="#DejaVuSans-Bold-20" x="2091.601562"/>
     <use xlink:href="#DejaVuSans-Bold-68" x="2126.416016"/>
     <use xlink:href="#DejaVuSans-Bold-6f" x="2197.607422"/>
     <use xlink:href="#DejaVuSans-Bold-70" x="2266.308594"/>
     <use xlink:href="#DejaVuSans-Bold-70" x="2337.890625"/>
     <use xlink:href="#DejaVuSans-Bold-65" x="2409.472656"/>
     <use xlink:href="#DejaVuSans-Bold-72" x="2477.294922"/>
     <use xlink:href="#DejaVuSans-Bold-20" x="2526.611328"/>
     <use xlink:href="#DejaVuSans-Bold-74" x="2561.425781"/>
     <use xlink:href="#DejaVuSans-Bold-72" x="2609.228516"/>
     <use xlink:href="#DejaVuSans-Bold-61" x="2658.544922"/>
     <use xlink:href="#DejaVuSans-Bold-6a" x="2726.025391"/>
     <use xlink:href="#DejaVuSans-Bold-65" x="2760.302734"/>
     <use xlink:href="#DejaVuSans-Bold-63" x="2828.125"/>
     <use xlink:href="#DejaVuSans-Bold-74" x="2887.402344"/>
     <use xlink:href="#DejaVuSans-Bold-6f" x="2935.205078"/>
     <use xlink:href="#DejaVuSans-Bold-72" x="3003.90625"/>
     <use xlink:href="#DejaVuSans-Bold-69" x="3053.222656"/>
     <use xlink:href="#DejaVuSans-Bold-65" x="3087.5"/>
     <use xlink:href="#DejaVuSans-Bold-73" x="3155.322266"/>
    </g>
   </g>
  </g>
 </g>
 <defs>
  <clipPath id="p106de895c1">
   <rect x="90" y="86.4" width="558" height="554.4"/>
  </clipPath>
 </defs>
</svg>
