<?xml version="1.0" encoding="UTF-8" standalone="no"?>
<!-- Created with Inkscape (http://www.inkscape.org/) -->

<svg
   version="1.1"
   id="svg226"
   width="862.89233"
   height="409.4989"
   viewBox="0 0 862.89233 409.4989"
   sodipodi:docname="funamb.svg"
   inkscape:version="1.2.2 (b0a8486541, 2022-12-01)"
   xmlns:inkscape="http://www.inkscape.org/namespaces/inkscape"
   xmlns:sodipodi="http://sodipodi.sourceforge.net/DTD/sodipodi-0.dtd"
   xmlns="http://www.w3.org/2000/svg"
   xmlns:svg="http://www.w3.org/2000/svg">
  <defs
     id="defs230" />
  <sodipodi:namedview
     id="namedview228"
     pagecolor="#505050"
     bordercolor="#eeeeee"
     borderopacity="1"
     inkscape:showpageshadow="0"
     inkscape:pageopacity="0"
     inkscape:pagecheckerboard="0"
     inkscape:deskcolor="#505050"
     showgrid="false"
     inkscape:zoom="0.72130703"
     inkscape:cx="478.2984"
     inkscape:cy="334.80888"
     inkscape:window-width="1920"
     inkscape:window-height="1011"
     inkscape:window-x="0"
     inkscape:window-y="0"
     inkscape:window-maximized="1"
     inkscape:current-layer="g232" />
  <g
     inkscape:groupmode="layer"
     inkscape:label="Image"
     id="g232"
     transform="translate(31.882368,519.63255)">
    <g
       id="g354"
       transform="translate(-31.882368,-595.94014)">
      <circle
         style="fill:#2260c4;fill-opacity:1;stroke:none;stroke-width:1.00157;stroke-linejoin:round;paint-order:markers stroke fill"
         id="path416"
         cx="434.98532"
         cy="232.72533"
         r="156.41774" />
      <path
         style="fill:#c0cee1"
         d="m 792,485.43632 c -0.825,-0.18242 -9.6,-1.50434 -19.5,-2.93759 -9.9,-1.43325 -22.725,-3.47516 -28.5,-4.53756 -29.44468,-5.41683 -44.3886,-8.25474 -53,-10.06491 -5.225,-1.09834 -19.03092,-3.99049 -30.67983,-6.42701 -30.58546,-6.39736 -55.5672,-12.97823 -81.59389,-21.49407 C 570.36326,437.23883 562.81626,435 561.95518,435 c -2.63131,0 -15.40095,-4.6086 -14.39637,-5.19569 1.14078,-0.66668 7.39073,0.87536 40.44119,9.97802 37.0088,10.19285 62.20007,16.15437 104.5,24.72995 34.07325,6.90777 91.01619,16.44076 116,19.41992 4.95,0.59025 10.125,1.23569 11.5,1.43431 1.375,0.19862 -4.025,0.37021 -12,0.38131 -7.975,0.0111 -15.175,-0.12908 -16,-0.3115 z m 63.5,-26.09867 c -9.82281,-1.18751 -41.70798,-4.86386 -72.5,-8.35923 -19.525,-2.21639 -40.9,-4.68228 -47.5,-5.47975 -6.6,-0.79748 -22.125,-2.5953 -34.5,-3.99515 -12.375,-1.39985 -31.5,-3.65827 -42.5,-5.01872 -11,-1.36044 -26.075,-3.13949 -33.5,-3.95343 -7.425,-0.81395 -25.65,-2.91681 -40.5,-4.67301 -14.85,-1.75621 -29.356,-3.23029 -32.23556,-3.27573 -3.19701,-0.0505 -5.42365,-0.56934 -5.71862,-1.33263 -0.58484,-1.5134 0.62351,-1.54448 9.26263,-0.23822 3.68035,0.55647 12.76655,1.66171 20.19155,2.45607 7.425,0.79437 24.975,2.79538 39,4.4467 14.025,1.65131 35.4,4.14159 47.5,5.53394 12.1,1.39236 29.2,3.42752 38,4.5226 8.8,1.09507 26.125,3.14832 38.5,4.56277 12.375,1.41445 33.75,3.90697 47.5,5.53892 13.75,1.63196 34.9,4.11129 47,5.50963 22.83082,2.63844 33.4122,4.20658 28,4.14954 -1.65,-0.0174 -4.35,-0.19482 -6,-0.3943 z M 532,433.05902 c 0,-0.51754 0.45,-1.2191 1,-1.55902 0.55,-0.33992 1,0.0835 1,0.94098 0,0.85746 -0.45,1.55902 -1,1.55902 -0.55,0 -1,-0.42344 -1,-0.94098 z m -38.04584,-3.14467 c -0.61391,-1.1471 -0.92784,-2.274 -0.69762,-2.50422 0.23022,-0.23022 0.93203,0.70832 1.55958,2.08564 1.37807,3.02454 0.70709,3.35038 -0.86196,0.41858 z M 540.5,428 c -0.33992,-0.55 0.0835,-1 0.94098,-1 0.85746,0 1.55902,0.45 1.55902,1 0,0.55 -0.42344,1 -0.94098,1 -0.51754,0 -1.2191,-0.45 -1.55902,-1 z m -4.75,-1.66228 c 0.6875,-0.27741 1.8125,-0.27741 2.5,0 0.6875,0.27741 0.125,0.50439 -1.25,0.50439 -1.375,0 -1.9375,-0.22698 -1.25,-0.50439 z m -11.25,-2.71623 c -3.85,-1.1731 -7.58807,-2.51019 -8.30682,-2.97133 -0.71875,-0.46114 -4.28606,-1.02588 -7.92735,-1.25498 -6.67303,-0.41985 -8.14196,-0.85238 -6.94839,-2.04595 0.55718,-0.55719 7.7857,0.13936 33.93256,3.26976 7.15203,0.85627 5.84128,2.60877 -1.65766,2.21634 -3.52422,-0.18443 -6.19766,0.002 -5.94099,0.41467 0.25668,0.4125 1.22763,0.75689 2.15767,0.76531 0.93004,0.008 2.36598,0.45153 3.19098,0.98469 2.38348,1.54033 -0.40455,1.08817 -8.5,-1.37851 z m -45,-7.61776 c -1.65,-0.44874 -6.6,-1.07638 -11,-1.39476 -12.75428,-0.92287 -17.61542,-1.76981 -17.18079,-2.99337 0.49303,-1.38797 7.0128,-1.05536 15.68079,0.79998 3.575,0.76521 8.97888,1.67855 12.00861,2.02965 5.92148,0.68621 10.5697,2.58639 5.99139,2.44927 -1.375,-0.0412 -3.85,-0.44203 -5.5,-0.89077 z M 315,413.60035 c -8.94865,-0.72204 -11.81431,-1.1995 -8.5,-1.41621 2.75,-0.17981 11.75,0.16475 20,0.76569 12.14421,0.8846 18.33176,0.80332 32.5,-0.42693 17.47993,-1.51782 60.12866,-3.52737 60.91667,-2.87032 1.2367,1.03118 -1.92182,1.51762 -13.36477,2.0583 -6.96804,0.32924 -12.15505,0.91635 -11.52669,1.3047 0.7768,0.48009 0.60935,0.91067 -0.52315,1.34526 -2.67366,1.02598 -64.71688,0.4325 -79.50206,-0.76049 z m -49,-2.28967 c -3.575,-0.16718 -14.62569,-0.98048 -24.55708,-1.80732 -21.60493,-1.79874 -27.80811,-1.90327 -26.91212,-0.45352 0.71512,1.15708 -2.09904,0.98833 -35.62478,-2.13612 C 155.66804,404.74804 125.13396,400.9075 108,397.99525 86.281409,394.30376 68.258032,391.02324 61.383519,389.51036 57.597583,388.67719 50.4336,387.12648 45.463555,386.06434 37.663659,384.39744 15.630868,379.03351 3.75,375.90908 1.0264141,375.19284 0,374.38604 0,372.96146 0,371.88266 0.17465996,371 0.38813325,371 0.60160653,371 4.5391065,372.08731 9.1381332,373.41624 21.737761,377.05701 52.90399,384.47996 66,386.95918 c 40.54297,7.67525 88.20464,14.32622 122,17.02456 6.875,0.54892 21.05,1.72956 31.5,2.62365 10.45,0.89408 27.47615,2.13568 37.8359,2.75911 10.35974,0.62342 18.49724,1.471 18.08333,1.8835 -0.41391,0.4125 -1.24006,0.66329 -1.8359,0.55732 C 272.9875,411.70135 269.575,411.47786 266,411.31068 Z m 238.51008,-0.29437 C 504.16462,410.45734 502.53618,410 500.89132,410 c -1.64485,0 -4.28979,-0.67182 -5.87763,-1.49292 -2.72987,-1.41167 -3.53019,-1.39915 -7.76369,0.12151 -0.9625,0.34573 -2.65,0.71598 -3.75,0.82279 -16.61179,1.61291 -18.5,1.6809 -18.5,0.66612 0,-1.34507 5.38009,-3.66247 10.60185,-4.56659 4.0204,-0.69612 8.39815,-3.5429 8.39815,-5.4612 0,-0.59934 0.43588,-1.08971 0.96862,-1.08971 0.53273,0 0.74186,-0.59089 0.46473,-1.3131 -0.5847,-1.52368 2.10898,-4.15906 5.21745,-5.10452 1.80443,-0.54883 3.29411,0.7403 9.25,8.00473 3.90456,4.7624 7.0992,9.027 7.0992,9.47689 0,1.35002 -1.81508,2.04423 -2.48992,0.95231 z m -83.99216,-4.98732 c -0.34116,-0.552 -2.26576,-0.79296 -4.27691,-0.53547 -2.01114,0.25749 -7.50061,-0.40936 -12.19882,-1.4819 -8.81058,-2.01134 -22.69709,-4.64733 -42.92081,-8.14738 -6.39176,-1.10619 -13.64638,-2.40836 -16.12138,-2.89369 -2.475,-0.48533 -6.975,-1.33607 -10,-1.89052 -3.025,-0.55444 -10.9,-2.11349 -17.5,-3.46454 -6.6,-1.35105 -20.775,-4.08006 -31.5,-6.06448 -10.725,-1.98442 -23.775,-4.45951 -29,-5.50021 -13.5611,-2.70106 -39.10241,-7.51677 -56,-10.55858 -7.975,-1.43561 -20.125,-3.70588 -27,-5.04504 -14.69358,-2.86211 -39.21728,-7.44767 -43.5,-8.13383 -1.65,-0.26435 -4.575,-0.88161 -6.5,-1.37168 -8.48066,-2.15901 7.9663,0.42706 35.5,5.58191 15.95,2.98616 41.15,7.68282 56,10.43703 14.85,2.7542 32.85,6.12381 40,7.48802 7.15,1.3642 26.5,4.98493 43,8.04605 16.5,3.06112 36.975,6.88529 45.5,8.49816 8.525,1.61286 20.675,3.87286 27,5.02221 6.325,1.14936 17.27515,3.22603 24.33367,4.61482 15.4568,3.0412 25.8251,2.68468 31.68869,-1.08965 6.52614,-4.20081 11.45558,-6.14511 15.44654,-6.09252 3.20796,0.0423 4.20706,0.53161 5.21115,2.5523 0.68324,1.375 2.09367,3.19363 3.13428,4.0414 2.10087,1.71155 4.58987,5.88773 3.91268,6.56492 -0.23926,0.23927 -4.882,-0.0608 -10.31718,-0.6669 -9.31656,-1.03886 -20.22364,-0.79056 -22.32512,0.50822 -0.52058,0.32174 -1.22564,0.13335 -1.56679,-0.41865 z M 112,348.87242 c -4.71953,-0.95795 -23.883931,-4.57256 -52.5,-9.90206 -9.35,-1.74135 -18.575,-3.55955 -20.5,-4.04043 -6.126427,-1.53043 5.269228,-0.0551 17,2.20092 5.775,1.11062 11.625,2.22063 13,2.46669 31.14583,5.5737 50.22618,9.29531 50.8489,9.91803 0.6902,0.69019 -2.61374,0.41947 -7.8489,-0.64315 z m 355.62354,-3.41108 c -0.96498,-2.51469 -0.68031,-3.16355 0.49853,-1.13634 0.58369,1.00375 0.8506,2.03566 0.59313,2.29313 -0.25747,0.25747 -0.74872,-0.26309 -1.09166,-1.15679 z m -2.51243,-6.57245 c -0.61607,-1.76726 -0.94513,-3.38821 -0.73124,-3.60209 0.21389,-0.21389 0.89295,1.05705 1.50902,2.82431 0.61607,1.76726 0.94513,3.38821 0.73124,3.60209 -0.21389,0.21389 -0.89295,-1.05705 -1.50902,-2.82431 z M 25.217011,332.51448 c -3.455644,-0.68592 -6.605644,-1.57241 -7,-1.96999 -0.781499,-0.78787 4.068977,0.002 12.141635,1.9766 6.625133,1.62073 3.033636,1.61611 -5.141635,-0.007 z M 12.5,330.33256 c -1.1,-0.23949 -4.3981873,-0.9016 -7.3293052,-1.47136 -2.9311178,-0.56976 -5.12932811,-1.2359 -4.88491175,-1.48032 0.677983,-0.67798 15.08190095,1.78161 16.16421695,2.76018 0.995317,0.89991 -0.388141,0.96698 -3.95,0.1915 z M 406,273 c -0.825,-0.53316 -1.05,-0.96937 -0.5,-0.96937 0.55,0 1.675,0.43621 2.5,0.96937 0.825,0.53316 1.05,0.96937 0.5,0.96937 -0.55,0 -1.675,-0.43621 -2.5,-0.96937 z m 25.43986,-7.29613 c -0.33397,-0.87032 -0.13325,-2.39723 0.44605,-3.39313 1.00315,-1.72457 1.05472,-1.72008 1.08368,0.0942 0.0299,1.87119 0.0703,1.87132 2.28041,0.007 1.98582,-1.675 1.95647,-1.54644 -0.25,1.09501 -1.375,1.64607 -2.60191,3.16976 -2.72646,3.38598 -0.12456,0.21622 -0.49971,-0.31895 -0.83368,-1.18926 z M 430,261.10765 c 0,-0.67413 -0.45,-0.94757 -1,-0.60765 -0.55,0.33992 -1,0.14148 -1,-0.44098 0,-0.58246 0.42344,-1.05902 0.94098,-1.05902 1.23462,0 2.42741,1.96494 1.65916,2.7332 C 430.27006,262.06327 430,261.78178 430,261.10765 Z m 53.75,-5.18775 c -0.9625,-0.5606 -1.75,-1.84877 -1.75,-2.8626 0,-1.01383 -0.65142,-2.09329 -1.44759,-2.39881 -0.79617,-0.30553 -1.95781,-2.45032 -2.58142,-4.76622 -1.04183,-3.86908 -0.93094,-6.22999 0.67014,-14.26738 0.39079,-1.96175 0.22109,-2.65777 -0.5342,-2.19098 C 477.49812,229.81018 477,231.21648 477,232.55902 477,233.90156 476.51552,235 475.92338,235 c -0.618,0 -0.95013,-1.46809 -0.77969,-3.44636 0.1633,-1.8955 -0.0272,-3.7705 -0.42339,-4.16667 -0.39616,-0.39617 -0.74882,-0.0828 -0.78369,0.69636 -0.0349,0.77917 -0.44837,0.4636 -0.91891,-0.70125 -0.47055,-1.16486 -2.02096,-2.34071 -3.44536,-2.613 -1.89364,-0.36199 -2.32991,-0.1819 -1.62294,0.66996 0.5318,0.64077 0.70825,2.15412 0.39212,3.363 -0.33861,1.29485 -0.11598,2.19796 0.54185,2.19796 0.61415,0 1.11663,0.87344 1.11663,1.94098 0,1.06754 0.45,2.2191 1,2.55902 0.55,0.33992 1,0.14148 1,-0.44098 0,-0.58246 0.43588,-1.05902 0.96862,-1.05902 0.53273,0 0.75288,0.5625 0.4892,1.25 -0.32812,0.85554 -2.99793,1.25 -8.46028,1.25 -4.38948,0 -7.50306,-0.16052 -6.91906,-0.35672 0.584,-0.19619 0.101,-1.02969 -1.07333,-1.85223 -1.9268,-1.34958 -2.26346,-1.32006 -3.44993,0.30254 -1.20523,1.64826 -1.49311,1.44849 -3.45532,-2.39777 C 448.9226,229.88812 447.5185,228 446.97968,228 c -1.41222,0 -1.20611,1.72479 0.52109,4.36083 2.11941,3.23462 1.31993,7.52355 -2.34568,12.58377 -1.7353,2.39551 -3.15509,3.90548 -3.15509,3.35548 0,-0.55 1.35,-2.86362 3,-5.14138 3.50514,-4.8387 3.58077,-5.1587 1.21924,-5.1587 -2.32988,0 -4.52407,-5.5619 -3.18285,-8.06799 1.33624,-2.49679 1.22272,-2.92594 -0.78639,-2.97302 -1.24118,-0.0291 -0.4416,-1.23379 2.75,-4.14335 2.63424,-2.40145 3.47442,-3.56408 2.02642,-2.80414 -1.36047,0.714 -4.84797,3.54378 -7.75,6.2884 -6.91543,6.54032 -6.85332,3.97265 0.0714,-2.95207 6.12949,-6.1295 6.01334,-7.06076 -0.21565,-1.72898 -6.56293,5.61763 -6.23461,3.0056 0.42272,-3.36294 l 5.9451,-5.68721 -5.25,3.80082 c -6.52673,4.72513 -7.27701,2.55542 -1,-2.89186 3.79247,-3.29117 3.87321,-3.44449 0.75,-1.42427 -1.925,1.24517 -4.9625,3.63082 -6.75,5.30145 -5.69864,5.32603 -3.58879,0.58649 2.26131,-5.07977 5.58276,-5.40733 3.60849,-5.14141 -3.49812,0.47116 l -3.4868,2.75377 1.88681,-3 c 1.03775,-1.65 3.28181,-4.27167 4.98681,-5.82594 2.77236,-2.52727 2.58568,-2.47443 -1.76628,0.5 -2.67645,1.82927 -5.48895,4.21357 -6.25,5.29845 -1.35246,1.92792 -1.38373,1.92156 -1.38373,-0.28139 0,-1.23964 0.60655,-2.48664 1.34789,-2.77112 0.74133,-0.28448 2.3876,-1.95786 3.65836,-3.71862 l 2.31047,-3.20138 -2.40836,2.10123 c -5.29042,4.61576 -7.18167,3.46566 -2.15836,-1.31254 2.78671,-2.65074 1.21623,-2.24367 -2,0.5184 -0.9625,0.82659 -1.75,1.03807 -1.75,0.46997 0,-1.06059 11.32721,-11.84885 14.64687,-13.94996 1.72683,-1.09297 1.70884,-1.13851 -0.26396,-0.66813 -2.25482,0.53762 -16.3829,13.8198 -16.3829,15.402 0,0.51647 -0.45,0.93903 -1,0.93903 -0.55,0 -1,-0.71969 -1,-1.59932 0,-2.13004 15.47907,-17.26581 19.40566,-18.97526 l 3.09434,-1.34714 -2.68027,-0.0391 c -2.03266,-0.0297 -4.32562,1.65957 -9.48985,6.99132 -3.74526,3.86676 -6.95387,6.59756 -7.13024,6.06846 -0.17637,-0.5291 2.8598,-4.18055 6.74703,-8.11433 3.88723,-3.93378 6.81291,-7.56459 6.5015,-8.06846 -0.31141,-0.50387 0.0569,-0.91613 0.8185,-0.91613 1.39417,0 4.74295,-3.21698 6.24581,-6 0.44551,-0.825 -0.30404,-0.4875 -1.66568,0.75 -1.36164,1.2375 -3.75666,2.25 -5.32228,2.25 h -2.84658 l 3.61313,-2.75 c 4.08535,-3.10941 5.36814,-5.25 3.14616,-5.25 -0.825,0 -1.75902,0.675 -2.0756,1.5 -0.31734,0.82696 -1.76151,1.48176 -3.21862,1.45936 l -2.64301,-0.0406 3.25,-2.78219 C 439.85205,166.481 440.99797,164 439.12244,164 c -0.48265,0 -1.43775,0.675 -2.12244,1.5 -0.68469,0.825 -2.65229,1.46447 -4.37244,1.42105 -1.72016,-0.0434 -2.45256,-0.33843 -1.62756,-0.65558 2.35831,-0.90658 8,-5.40876 8,-6.38416 0,-1.44348 -2.83457,-0.99933 -3.72003,0.58289 -0.51624,0.92247 -3.032,1.65744 -6.79969,1.9865 -5.97028,0.52142 -5.97353,0.52023 -1.94167,-0.7142 C 430.91012,160.39808 437,156.43692 437,154.93191 c 0,-1.67979 -2.1425,-0.97707 -4.01872,1.31809 -1.43887,1.76015 -2.10611,1.98777 -3.06478,1.04552 -0.96355,-0.94705 -0.52193,-1.86168 2.06627,-4.27942 1.81045,-1.69122 3.03472,-3.33195 2.72059,-3.64607 -0.31412,-0.31412 -1.58573,0.37412 -2.82581,1.52942 -4.45358,4.14914 -6.67667,1.99058 -2.37755,-2.30854 3.10666,-3.10666 3.21798,-4.0917 0.25,-2.21212 -1.2375,0.78369 -3.825,1.69628 -5.75,2.02798 -2.73129,0.47063 -3.02019,0.39476 -1.31537,-0.34543 1.88312,-0.81762 4.31537,-3.87573 4.31537,-5.42579 0,-0.27277 -1.35,-0.10876 -3,0.36445 -1.65,0.47321 -3,0.61505 -3,0.31518 0,-0.29986 -1.125,0.19193 -2.5,1.09286 -1.52953,1.00219 -2.5,1.20459 -2.5,0.52139 0,-0.61417 0.9,-1.35202 2,-1.63968 1.1,-0.28766 2,-1.06616 2,-1.73002 0,-0.66385 1.6875,-1.68401 3.75,-2.26703 l 3.75,-1.06003 -4.2097,0.24224 c -2.31533,0.13324 -5.40523,1.0256 -6.86645,1.98303 -1.74443,1.14299 -2.51048,1.30194 -2.23078,0.46286 0.23428,-0.70285 1.2597,-1.76006 2.2787,-2.34936 1.019,-0.58929 2.67972,-1.85894 3.69048,-2.82144 1.77695,-1.6921 1.76165,-1.75 -0.46225,-1.75 -1.265,0 -2.9308,0.5625 -3.70177,1.25 -1.19253,1.06341 -1.20411,0.98877 -0.0776,-0.5 0.99978,-1.32124 1.04499,-2.08645 0.18452,-3.12325 -0.62683,-0.75529 -0.86778,-2.08187 -0.53543,-2.94795 0.53293,-1.3888 -0.67513,-1.52417 -10.23274,-1.14667 -5.96036,0.23542 -12.40905,0.887 -14.33042,1.44795 -4.21919,1.23182 -4.0066,1.22509 -4.0066,0.12691 0,-1.0068 2.29229,-2.0591 6,-2.75435 1.375,-0.25783 4.3,-0.88165 6.5,-1.38626 5.69068,-1.30528 17.62228,-1.11572 20.08327,0.31906 3.56816,2.08026 7.41673,5.45674 7.41673,6.50693 0,1.48956 5.86738,12.39722 7.91143,14.70763 1.72201,1.9464 11.15772,20.71302 14.70668,29.25 0.97173,2.3375 2.06921,4.25 2.43883,4.25 0.36962,0 2.04517,1.2375 3.72344,2.75 2.58047,2.32558 3.15987,3.74179 3.75415,9.17622 0.54018,4.93962 1.60064,7.8932 4.58411,12.76761 4.39425,7.17929 4.4356,7.30617 2.3814,7.30617 -0.825,0 -1.5,0.48032 -1.5,1.06739 0,0.62065 0.85715,0.79534 2.04799,0.41738 1.97711,-0.62751 4.95201,0.91301 4.95201,2.56435 0,0.44233 -0.7875,1.03304 -1.75,1.3127 -1.07825,0.31329 -0.83644,0.4374 0.62997,0.32333 1.46412,-0.1139 2.81097,0.57561 3.5,1.79181 1.89784,3.34986 3.95072,4.45815 8.31914,4.49124 3.54509,0.0268 4.58573,0.53868 6.68139,3.28623 4.79938,6.29232 4.90435,7.81689 1.20372,17.48165 -2.48744,6.49634 -3.77337,8.68789 -4.96996,8.47008 -1.90477,-0.34671 -2.10446,0.90364 -0.41426,2.59384 1.45027,1.45027 0.9107,1.49488 -1.45,0.1199 z m -35.31929,-31.82252 c -0.26308,-0.26308 -1.25511,0.33267 -2.20452,1.3239 -1.64929,1.72194 -1.62798,1.74325 0.47833,0.47833 1.21249,-0.72815 1.98927,-1.53915 1.72619,-1.80223 z M 464.25,208.33772 c -0.6875,-0.27741 -1.8125,-0.27741 -2.5,0 -0.6875,0.27741 -0.125,0.50439 1.25,0.50439 1.375,0 1.9375,-0.22698 1.25,-0.50439 z M 461.5,204 c -0.33992,-0.55 -1.29303,-1 -2.11803,-1 -0.825,0 -1.22189,0.45 -0.88197,1 0.33992,0.55 1.29303,1 2.11803,1 0.825,0 1.22189,-0.45 0.88197,-1 z M 437,201.5 c 0.69443,-0.83674 0.80272,-1.5 0.24489,-1.5 -0.55,0 -1.5602,0.675 -2.24489,1.5 -0.69443,0.83674 -0.80272,1.5 -0.24489,1.5 0.55,0 1.5602,-0.675 2.24489,-1.5 z m 21.54112,-1.56653 c 0.91669,-1.48324 0.0546,-2.0993 -1.89225,-1.35222 -0.90056,0.34557 -1.38841,1.03117 -1.08411,1.52353 0.74846,1.21104 2.17268,1.12906 2.97636,-0.17131 z M 435.5,198 c 0.99549,-1.1 1.39848,-2 0.89553,-2 -0.50294,0 -1.4765,0.9 -2.16346,2 -0.68696,1.1 -1.08995,2 -0.89553,2 0.19442,0 1.16797,-0.9 2.16346,-2 z m 8.02646,-0.80687 c -0.30789,-0.30789 -1.11479,-6.4e-4 -1.79313,0.68278 -0.98026,0.98762 -0.8654,1.10248 0.5598,0.5598 0.98622,-0.37553 1.54122,-0.93469 1.23333,-1.24258 z M 444,192.47432 c 0,-0.99447 -1.59298,-0.35405 -4,1.60811 l -2.5,2.03796 3.25,-1.58588 c 1.7875,-0.87223 3.25,-1.79931 3.25,-2.06019 z m 9.72917,2.92151 c -0.33229,-0.33229 -1.1948,-0.36781 -1.91667,-0.0789 -0.79773,0.31922 -0.56078,0.55618 0.60417,0.60416 1.05416,0.0434 1.64479,-0.19293 1.3125,-0.52522 z m 3.84607,-6.15392 c -1.17829,-1.17829 -1.64707,0.61512 -0.88612,3.39009 l 0.78646,2.868 0.33745,-2.84142 c 0.1856,-1.56278 0.0786,-3.10028 -0.23779,-3.41667 z m -4.43602,2.72482 C 450.69574,189.93111 449,189.43792 449,190.76287 c 0,0.80304 3.79387,2.92835 5.5,3.08108 0.55,0.0492 -0.0623,-0.79552 -1.36078,-1.87722 z m -4.70043,-4.06577 c -0.6906,-1.11742 -5.14094,-1.19191 -5.8174,-0.0974 -0.27315,0.44197 1.04931,0.8474 2.93879,0.90096 1.88949,0.0536 3.18486,-0.30805 2.87861,-0.80358 z M 454,185 c 0,-1.1 -0.40787,-2 -0.90638,-2 -0.49851,0 -0.67103,0.9 -0.38337,2 0.28766,1.1 0.69553,2 0.90638,2 0.21085,0 0.38337,-0.9 0.38337,-2 z m -6.27083,-0.60417 c -0.33229,-0.33229 -1.1948,-0.36781 -1.91667,-0.0789 -0.79773,0.31922 -0.56078,0.55618 0.60417,0.60416 1.05416,0.0434 1.64479,-0.19293 1.3125,-0.52522 z m 0.0777,-7.92229 c -0.30789,-0.30789 -0.86705,0.24711 -1.24258,1.23333 -0.54268,1.4252 -0.42782,1.54006 0.5598,0.5598 0.68342,-0.67834 0.99067,-1.48524 0.68278,-1.79313 z m -22.0777,-43.07771 c -0.33229,-0.33229 -1.1948,-0.36781 -1.91667,-0.0789 -0.79773,0.31922 -0.56078,0.55618 0.60417,0.60416 1.05416,0.0434 1.64479,-0.19293 1.3125,-0.52522 z m 1.17644,120.78054 c 0.60783,-1.13574 1.59762,-2.36935 2.19954,-2.74135 0.78412,-0.48462 0.78107,-0.0909 -0.0108,1.38861 -0.60783,1.13574 -1.59762,2.36935 -2.19954,2.74135 -0.78412,0.48462 -0.78107,0.0909 0.0108,-1.38861 z M 425,250.05902 c 0,-0.51754 0.44485,-1.21592 0.98855,-1.55194 0.56686,-0.35034 0.7345,0.0511 0.39301,0.94098 C 425.71677,251.18048 425,251.49745 425,250.05902 Z m 36.34508,-5.60215 c -0.90001,-2.34537 0.0715,-2.62076 1.45125,-0.41139 0.77256,1.23707 0.83892,1.95452 0.18076,1.95452 -0.57192,0 -1.30633,-0.69441 -1.63201,-1.54313 z M 424,244.28911 c 0,-0.57432 0.7875,-1.66182 1.75,-2.41667 1.61876,-1.26951 1.63998,-1.22245 0.28297,0.62756 -0.80687,1.1 -1.59437,2.1875 -1.75,2.41667 C 424.12734,245.14583 424,244.86343 424,244.28911 Z m 16,-2.66667 c 0,-0.20765 0.7875,-0.99515 1.75,-1.75 1.58606,-1.24387 1.62143,-1.2085 0.37756,0.37756 C 440.82119,241.91575 440,242.44548 440,241.62244 Z m -2,-1.42857 c 0,-0.52194 0.675,-1.50918 1.5,-2.19387 0.825,-0.68469 1.5,-0.93265 1.5,-0.55102 0,0.38163 -0.675,1.36888 -1.5,2.19388 -0.825,0.825 -1.5,1.07295 -1.5,0.55101 z m -2,-1.13485 c 0,-0.51754 0.44485,-1.21592 0.98855,-1.55194 0.56686,-0.35034 0.7345,0.0511 0.39301,0.94098 C 436.71677,240.18048 436,240.49745 436,239.05902 Z m 16.45888,-0.12555 c -0.36253,-0.58659 -0.44468,-1.281 -0.18255,-1.54313 0.26212,-0.26213 0.74306,0.21781 1.06875,1.06653 0.67618,1.76211 0.0999,2.07206 -0.8862,0.4766 z M 424,237 c 0.5887,-1.1 1.29537,-2 1.57037,-2 0.275,0 0.0183,0.9 -0.57037,2 -0.5887,1.1 -1.29537,2 -1.57037,2 -0.275,0 -0.0183,-0.9 0.57037,-2 z m 12.04615,-4.06481 c 1.19462,-1.67769 2.3844,-2.83797 2.64396,-2.57841 0.78172,0.78172 -1.52076,4.36426 -3.22528,5.01834 -1.2124,0.46524 -1.07414,-0.11505 0.58132,-2.43993 z m -5.08194,-9.77084 c 0.6588,-1.2846 1.47209,-2.06139 1.80729,-1.72619 0.3352,0.3352 -0.20383,1.38624 -1.19784,2.33565 -1.72775,1.65022 -1.75457,1.6234 -0.60945,-0.60946 z m -6.39992,-2.87122 c -0.54268,-1.4252 -0.42782,-1.54006 0.5598,-0.5598 0.68342,0.67834 0.99067,1.48524 0.68278,1.79313 -0.30789,0.30789 -0.86705,-0.24711 -1.24258,-1.23333 z m -5.51194,-7.47568 C 420.04687,209.34977 422,206.72068 422,208.84966 422,210.20924 419.20123,216 418.54413,216 c -0.22249,0 0.006,-1.43215 0.50822,-3.18255 z M 416.5,199 c 0.33992,-0.55 0.81648,-1 1.05902,-1 0.24254,0 0.44098,0.45 0.44098,1 0,0.55 -0.47656,1 -1.05902,1 -0.58246,0 -0.7809,-0.45 -0.44098,-1 z m -1.20188,-9.97886 c 0.99272,-2.63002 0.84909,-3.23534 -1.2266,-5.16914 -2.27322,-2.11783 -2.39599,-2.12874 -3.71126,-0.33001 -0.74814,1.02315 -1.36026,1.49416 -1.36026,1.04669 0,-0.44746 -0.68587,-0.24434 -1.52417,0.45138 -1.71665,1.42469 -1.64306,1.47606 -3.25191,-2.27006 -0.99625,-2.31973 -0.94047,-2.75 0.35654,-2.75 0.84566,0 1.24095,-0.47994 0.87842,-1.06653 -0.36254,-0.5866 0.15642,-1.6629 1.15324,-2.39179 1.5365,-1.12352 1.60922,-1.57006 0.47769,-2.93347 C 406.35572,172.7237 404.91021,172 403.87756,172 c -2.57869,0 -2.53517,-4.57769 0.0567,-5.96482 3.39261,-1.81567 5.79839,-1.23652 6.50156,1.56514 0.83864,3.34139 4.62439,8.4805 5.73952,7.79131 0.47151,-0.2914 0.59839,-0.94873 0.28195,-1.46073 -0.31643,-0.51199 0.35123,-0.9309 1.48369,-0.9309 1.13246,0 2.05902,0.46973 2.05902,1.04384 0,0.57411 0.5625,0.97079 1.25,0.88151 3.33541,-0.43312 3.75,0.17667 3.75,5.51563 0,2.99254 -0.45734,5.72364 -1.01631,6.0691 -0.55897,0.34546 -0.78784,0.9978 -0.50859,1.44963 0.27925,0.45184 -0.61341,1.55612 -1.98369,2.45396 -1.7407,1.14055 -2.49141,1.26391 -2.49141,0.40938 0,-0.95126 -0.26667,-0.95638 -1.2,-0.023 -2.38364,2.38364 -3.71558,1.43661 -2.50188,-1.77886 z M 421,183.16667 c 0,-1.30208 -1.18877,-2.16804 -2.15579,-1.57039 C 417.80999,182.23547 418.70176,184 420.05902,184 420.57656,184 421,183.625 421,183.16667 Z M 422,177 c 0,-0.55 -0.45,-1 -1,-1 -0.55,0 -1,0.45 -1,1 0,0.55 0.45,1 1,1 0.55,0 1,-0.45 1,-1 z m 5,11.56074 c 0,-0.40991 0.9,-1.88945 2,-3.28787 1.1,-1.39842 2,-2.10076 2,-1.56074 0,0.54002 -0.9,2.01956 -2,3.28787 -1.1,1.26831 -2,1.97064 -2,1.56074 z m -30,-6.50172 c 0,-1.74272 1.6919,-2.00514 3.60268,-0.55879 1.79772,1.36077 1.75295,1.43783 -0.85268,1.46797 -1.5125,0.0175 -2.75,-0.39164 -2.75,-0.90918 z m 25.83514,-8.80002 c -1.63701,-0.36662 -3.31204,-3.11543 -2.43368,-3.99379 0.24669,-0.2467 1.26979,0.029 2.27354,0.61272 1.00375,0.58369 1.375,1.08183 0.825,1.10697 -0.55,0.0251 -0.33803,0.46437 0.47104,0.97604 1.77088,1.11994 1.16424,1.8132 -1.1359,1.29806 z M 430.5,172 c -1.90836,-0.82005 -1.8969,-0.86265 0.25,-0.92971 1.2375,-0.0387 2.25,0.37971 2.25,0.92971 0,0.55 -0.1125,0.96837 -0.25,0.92971 -0.1375,-0.0386 -1.15,-0.45702 -2.25,-0.92971 z m -5.5,-5 c -1.21948,-0.78809 -1.09025,-0.97224 0.69098,-0.98469 1.20504,-0.008 2.4691,0.43469 2.80902,0.98469 0.78687,1.27319 -1.52988,1.27319 -3.5,0 z m -4.39328,-8.82732 c -0.33206,-0.53728 1.17182,-1.13222 3.39885,-1.3446 2.19694,-0.20951 3.99443,-0.0315 3.99443,0.39549 0,0.42704 -0.8632,0.77643 -1.91821,0.77643 -1.05502,0 -2.5845,0.25568 -3.39885,0.56817 -0.81435,0.3125 -1.74865,0.13453 -2.07622,-0.39549 z m 1.17591,-5.40773 c 1.68776,-0.81311 2.58685,-0.79547 3.45,0.0677 0.88983,0.88983 0.34713,1.15128 -2.28263,1.09969 -3.23999,-0.0636 -3.31105,-0.13462 -1.16737,-1.16737 z M 376.25,132.33772 c -1.7481,-0.70537 -1.55874,-1.66382 0.59437,-3.00845 1.6294,-1.01758 1.79064,-0.87079 1.38342,1.25945 -0.25352,1.3262 -0.52098,2.37575 -0.59437,2.33233 -0.0734,-0.0434 -0.69592,-0.30592 -1.38342,-0.58333 z m 6.67642,-5.4752 c -1.60657,-3.00191 0.21709,-4.57379 3.54645,-3.05683 3.18559,1.45145 3.19847,2.5674 0.0462,4.00367 -2.13663,0.97352 -2.63522,0.84211 -3.59264,-0.94684 z"
         id="path362" />
      <path
         style="fill:#1b213b"
         d="m 785.26903,485.30701 c 0.97297,-0.25354 2.32297,-0.23687 3,0.0371 0.67703,0.27393 -0.11903,0.48137 -1.76903,0.46099 -1.65,-0.0204 -2.20394,-0.2445 -1.23097,-0.49804 z M 508.30505,440.95198 c -5.53991,-1.09465 -12.40379,-5.04622 -12.05565,-6.9405 0.45414,-2.47106 3.08186,-2.20765 6.11194,0.61267 1.57374,1.4648 4.94874,3.6999 7.5,4.9669 5.00773,2.48692 4.84821,2.62641 -1.55629,1.36093 z m 13.50919,-1.00691 C 524.25383,438.96665 523.94893,437 521.35765,437 c -2.1556,0 -1.09074,-2.43681 1.22522,-2.80376 1.59726,-0.25307 1.66686,-0.13049 0.41713,0.73469 -0.89707,0.62104 -1.02627,1.0446 -0.32143,1.05376 0.64822,0.008 1.84103,-0.64714 2.65069,-1.45681 1.29617,-1.29616 1.61816,-1.29616 2.69388,0 1.66598,2.00738 3.34015,1.86123 2.54081,-0.22181 -0.55238,-1.43949 -0.33082,-1.40506 1.475,0.22918 1.99224,1.80295 2.1855,1.81507 3.09273,0.19394 0.53223,-0.95106 1.50784,-1.74341 2.16801,-1.76079 2.28412,-0.0601 6.59665,-4.79354 6.89787,-7.57105 0.26716,-2.46348 -0.14076,-2.91574 -3.49694,-3.87703 C 536.52266,420.32365 536.74894,419 541.13148,419 c 3.25748,0 4.34569,1.65485 5.2656,8.00742 l 0.65271,4.50742 -5.9668,2.37001 c -3.28175,1.30351 -6.19308,2.95965 -6.46962,3.68031 -0.62117,1.61873 -6.91702,3.44345 -11.61337,3.36588 -3.16848,-0.0523 -3.2808,-0.14573 -1.18576,-0.98597 z M 533.75,431.22174 c -1.06134,-0.22342 -1.75,-1.28649 -1.75,-2.70144 0,-1.81287 0.43051,-2.22048 1.93083,-1.82814 3.57589,0.93512 3.40228,5.28386 -0.18083,4.52958 z M 489.59711,425 c -1.58385,-4.40454 -2.13626,-5 -4.63852,-5 -1.56231,0 -3.11867,0.45 -3.45859,1 -0.33992,0.55 -2.98229,1 -5.87193,1 -4.47069,0 -5.66087,-0.4248 -7.98405,-2.84968 -2.58566,-2.69884 -3.31688,-2.88324 -13.8154,-3.48392 -12.12908,-0.69398 -25.81389,-3.50583 -25.82291,-5.3059 -0.003,-0.63067 -1.45695,-1.11156 -3.25571,-1.07694 C 414.88993,409.47338 411,408.9688 411,407.5 c 0,-0.84502 0.98247,-1.56465 2.25,-1.64806 5.54677,-0.365 6.3075,-0.34427 7.25,0.1976 1.19199,0.6853 2.81599,0.60119 7.5,-0.38843 1.925,-0.40671 8.13809,-0.33626 13.80686,0.15657 10.52777,0.91525 14.3049,2.39747 10.94314,4.29429 -0.9625,0.54308 -1.75,1.31243 -1.75,1.70967 0,1.07478 12.10431,3.16936 18.72372,3.24002 7.27669,0.0777 19.57398,2.39867 16.77628,3.16636 -1.44019,0.39519 -1.23026,0.51899 0.75,0.44228 7.16027,-0.27734 0.25387,-3.30269 -10.66276,-4.67081 -7.60759,-0.95342 -9.43792,-1.48215 -8.4726,-2.44747 0.62793,-0.62792 12.81084,-1.97898 16.13536,-1.78937 1.5125,0.0863 2.75,-0.32751 2.75,-0.91948 0,-0.60534 1.08073,-0.86973 2.46974,-0.6042 1.35835,0.25966 2.2318,0.0871 1.94098,-0.38343 -0.7762,-1.25591 0.74167,-0.98338 3.58928,0.64446 1.375,0.78602 3.66776,1.44508 5.09501,1.46456 2.9247,0.0399 6.16915,3.0105 5.1044,4.6735 -0.38468,0.60081 -1.74445,1.41868 -3.02173,1.8175 -1.39429,0.43535 -2.11397,1.26809 -1.80093,2.08385 0.29488,0.76845 4.7e-4,1.18464 -0.67768,0.958 -0.65949,-0.2204 -2.90077,-0.64729 -4.98062,-0.94864 -4.7582,-0.68942 -5.47528,0.78183 -3.37926,6.9333 0.84668,2.48486 1.20562,4.51793 0.79766,4.51793 -0.40797,0 -1.55085,-2.25 -2.53974,-5 z M 534,424 c 0,-1.25292 1.06124,-1.25292 3,0 1.21296,0.78387 1.06944,0.9723 -0.75,0.98469 C 535.0125,424.99311 534,424.55 534,424 Z m -26.83453,-2.87658 c -1.03264,-0.65458 -0.90707,-0.95773 0.55509,-1.34009 2.58262,-0.67537 8.27944,0.23988 8.27944,1.33017 0,1.12681 -7.06008,1.13474 -8.83453,0.01 z M 471.76889,395.71318 C 465.55061,386.80185 456.28125,376 454.85246,376 c -0.48981,0 -0.65401,1.0125 -0.3649,2.25 0.28912,1.2375 0.68511,4.36373 0.87998,6.94719 l 0.35431,4.69718 -3.11092,-0.56888 c -2.98687,-0.5462 -3.03117,-0.50549 -1.11093,1.02101 1.1,0.87444 2.5625,1.6042 3.25,1.6217 1.79219,0.0456 1.5534,4.0318 -0.24153,4.0318 -0.82034,0 -2.02433,0.85315 -2.67553,1.8959 -1.26416,2.02425 -2.19447,1.51456 -4.45021,-2.43813 -0.8843,-1.54955 -2.13538,-1.93719 -6,-1.85909 -2.6855,0.0543 -5.84437,0.43096 -7.01971,0.83708 -2.0278,0.70067 -2.11249,0.49127 -1.6578,-4.09868 0.26355,-2.6604 0.88518,-6.41208 1.3814,-8.33708 1.22672,-4.75882 1.11211,-18.08394 -0.22363,-26 -0.60324,-3.575 -1.23837,-8.075 -1.4114,-10 -0.71004,-7.89947 -1.44933,-11.07525 -3.52563,-15.14513 -1.84993,-3.62616 -2.10002,-5.37041 -1.64072,-11.44331 0.49336,-6.52345 4.38762,-20.76421 8.01324,-29.30336 1.74579,-4.11172 1.14021,-7.1082 -1.43655,-7.1082 -2.11328,0 -3.12941,-2.06364 -4.67778,-9.5 -0.5726,-2.75 -1.28519,-6.1512 -1.58353,-7.55822 C 427.01226,263.16708 420.09743,259 416.08145,259 c -1.21168,0 -1.92192,-0.44911 -1.58145,-1 0.33992,-0.55 -0.19602,-1.01368 -1.19098,-1.03041 -1.70746,-0.0287 -1.70383,-0.0915 0.0648,-1.11896 1.04461,-0.60686 3.73905,-0.83288 6.08901,-0.51078 4.09399,0.56114 4.2803,0.462 6.47715,-3.44678 2.9417,-5.23404 3.80605,-4.38587 1.00565,0.98682 -1.48001,2.83946 -2.81551,4.13413 -4.29656,4.16521 -1.79346,0.0376 -1.65668,0.25506 0.82668,1.31407 2.8732,1.22524 3.04233,1.14618 4.90945,-2.29511 1.06356,-1.96023 2.50689,-5.36406 3.2074,-7.56406 0.70051,-2.2 1.29936,-3.1 1.33078,-2 0.0314,1.1 -1.06348,4.40718 -2.43311,7.3493 -2.63196,5.65374 -3.24246,10.73329 -1.36523,11.35903 0.61875,0.20625 1.125,1.60196 1.125,3.10157 0,4.06962 1.60332,4.28541 3.21318,0.43246 0.7817,-1.87086 2.12227,-3.98335 2.97904,-4.69441 C 438.07287,262.69463 438.57731,260 437.2,260 c -0.44,0 -1.34,0.54 -2,1.2 -0.87428,0.87428 -1.2,0.8881 -1.2,0.0509 0,-0.63201 1.5816,-2.35545 3.51466,-3.82987 2.70983,-2.06689 3.2626,-2.98448 2.41391,-4.00709 C 438.66885,251.89606 439.49575,250 441.41744,250 c 1.93896,0 8.56375,-10.5014 8.11026,-12.85614 -0.21333,-1.10774 -0.86933,-2.91369 -1.45778,-4.01322 -2.3277,-4.34935 -0.9749,-5.50366 1.53731,-1.31174 1.42357,2.3754 2.32755,4.57965 2.00886,4.89834 -0.31869,0.31869 0.61006,2.76494 2.06389,5.43611 3.23759,5.94852 4.05821,5.76969 1.3736,-0.29932 C 453.28377,237.85308 453.18453,233 454.87252,233 c 0.35159,0 1.25933,1.4625 2.01721,3.25 3.40218,8.0243 4.4225,9.71432 6.20677,10.28063 1.04692,0.33228 1.9035,1.43427 1.9035,2.44886 0,1.37807 1.02926,2.01861 4.0688,2.53213 2.86323,0.48374 3.91321,1.09289 3.54367,2.05588 -0.28882,0.75265 -0.0948,1.63442 0.4312,1.95949 0.52598,0.32508 0.95633,0.12861 0.95633,-0.43659 0,-0.5652 0.7875,-0.7325 1.75,-0.37178 1.4674,0.54993 1.54954,0.40889 0.50868,-0.8734 -0.68273,-0.84108 -1.00966,-1.76091 -0.7265,-2.04406 0.89318,-0.89319 5.47221,0.38271 4.87008,1.35699 -0.31594,0.5112 -0.0968,1.50494 0.48691,2.2083 0.58374,0.70337 1.78635,4.10882 2.67246,7.56767 1.35966,5.30724 1.42531,7.32499 0.42065,12.92735 -2.58253,14.40115 -9.06307,31.3478 -13.082,34.20953 -1.69852,1.20946 -3.0612,3.55314 -3.86559,6.64847 -3.28376,12.63606 -4.0888,13.67665 -6.03009,7.79446 -0.63278,-1.91734 -1.56998,-3.74532 -2.08267,-4.06218 -0.51268,-0.31685 1.08982,5.1572 3.56112,12.16458 2.4713,7.00737 4.31136,12.92259 4.08901,13.14494 -0.22234,0.22235 -1.40231,-2.33298 -2.62215,-5.6785 -2.34257,-6.4247 -2.95184,-6.9903 -4.94413,-4.58973 -1.96494,2.3676 -1.84631,7.72791 0.23806,10.75696 1.04079,1.5125 1.56696,2.75 1.16927,2.75 -0.3977,0 0.0657,0.87164 1.02986,1.93699 0.96413,1.06534 1.45731,2.41534 1.09597,3 -0.36133,0.58465 0.0305,1.06301 0.87066,1.06301 1.01748,0 1.31316,0.5589 0.88541,1.67361 -0.46308,1.20677 -0.22796,1.51464 0.84293,1.1037 0.92684,-0.35566 2.21389,0.51782 3.42361,2.32351 2.16767,3.23557 4.41755,3.81289 4.47849,1.14918 0.0284,-1.24131 0.47731,-0.94374 1.54436,1.02371 0.82738,1.52554 1.22876,3.21958 0.89197,3.76453 -0.3368,0.54494 1.04727,3.57177 3.0757,6.72628 2.02842,3.15452 3.38294,4.84321 3.01003,3.75266 -0.37294,-1.09066 2.66687,1.15906 6.75598,5 5.5045,5.17043 7.46617,7.69102 7.55796,9.71138 0.11433,2.51663 -0.0595,2.64499 -2.23743,1.65264 -2.84524,-1.29638 -8.63861,1.21187 -8.63861,3.74011 0,2.41888 -3.93393,7.38312 -5.81809,7.34187 -0.95145,-0.0208 -4.17095,-3.60382 -7.41302,-8.25 z m 2.41444,-31.92985 c -0.71756,-0.71756 -1.18333,-0.7766 -1.18333,-0.15 0,0.56834 0.3,1.33334 0.66667,1.7 0.36666,0.36667 0.89916,0.43417 1.18333,0.15 0.28417,-0.28416 -0.0158,-1.04916 -0.66667,-1.7 z M 452,339 c -0.52125,-0.32215 -0.50561,-1.16762 0.0375,-2.02639 C 453.46676,334.71349 453.17353,332 451.5,332 c -0.825,0 -1.5,-0.675 -1.5,-1.5 0,-1.55404 -1.57014,-2.06735 -2.29418,-0.75 -0.76979,1.40062 1.35746,7.32892 2.39889,6.68529 0.56598,-0.3498 0.94564,-0.0283 0.84369,0.71436 -0.10195,0.74269 -0.12516,2.25035 -0.0516,3.35035 0.10949,1.63667 0.30309,1.7323 1.0657,0.52639 0.54308,-0.85877 0.55872,-1.70424 0.0375,-2.02639 z m -19.02006,-59.52417 c -0.69572,-0.83829 -1.47088,-1.31823 -1.72258,-1.06653 -0.69349,0.6935 0.71555,2.5907 1.9241,2.5907 0.6631,0 0.58723,-0.57378 -0.20152,-1.52417 z m 0.70317,-6.66333 c -0.31922,-0.79773 -0.55618,-0.56078 -0.60416,0.60417 -0.0434,1.05416 0.19293,1.64479 0.52522,1.3125 0.33229,-0.33229 0.36781,-1.1948 0.0789,-1.91667 z m 37.27105,84.10185 c -0.61391,-1.1471 -0.92784,-2.274 -0.69762,-2.50422 0.23022,-0.23022 0.93203,0.70832 1.55958,2.08564 1.37807,3.02454 0.70709,3.35038 -0.86196,0.41858 z M 368.47732,354.9633 c -0.35239,-0.57018 -0.3472,-2.774 0.0115,-4.89737 0.39902,-2.36179 0.23662,-4.11756 -0.4183,-4.52232 -1.72586,-1.06664 -1.23226,-7.57812 0.90989,-12.00322 1.08924,-2.25008 4.22491,-6.77966 6.96814,-10.06573 6.75549,-8.09227 10.33416,-13.10313 13.5745,-19.00704 1.49956,-2.73219 4.54258,-7.40653 6.76228,-10.38741 4.12121,-5.53448 8.11157,-14.34994 6.99912,-15.46239 -0.3398,-0.3398 -0.11938,-0.61782 0.48983,-0.61782 0.6092,0 1.3645,0.41559 1.67843,0.92354 0.31392,0.50795 2.81019,1.66735 5.54725,2.57646 2.73706,0.90911 5.23539,2.07186 5.55185,2.58389 0.57272,0.92669 -7.59858,15.4613 -10.51913,18.71077 -0.84299,0.93794 -2.76895,3.5277 -4.2799,5.75502 -1.51095,2.22733 -4.89019,6.27733 -7.50942,9 C 387.14251,324.93102 384,329.54863 384,332.60137 c 0,1.50414 -0.49897,5.60009 -1.10882,9.10211 -0.86479,4.96598 -1.66184,6.74467 -3.62161,8.08192 -1.38204,0.94303 -3.60352,2.7271 -4.93664,3.9646 -2.60526,2.41841 -4.82638,2.87863 -5.85561,1.2133 z m 98.98156,-6.02983 c -0.36253,-0.58659 -0.44468,-1.281 -0.18255,-1.54313 0.26212,-0.26213 0.74306,0.21781 1.06875,1.06653 0.67618,1.76211 0.0999,2.07206 -0.8862,0.4766 z m -55.20273,-69.7689 c -2.33411,-0.94803 -4.98397,-2.46382 -5.88857,-3.36842 -1.334,-1.334 -0.53226,-1.23295 4.24385,0.53491 3.23871,1.19879 6.78857,2.72604 7.88857,3.39387 l 2,1.21425 -2,-0.0255 c -1.1,-0.014 -3.90973,-0.80113 -6.24385,-1.74915 z m 4.64988,-3.62866 c -4.94557,-1.82079 -10.18195,-4.59333 -9.66034,-5.11493 0.23735,-0.23736 3.53972,0.69582 7.3386,2.07373 3.79887,1.37791 7.02149,2.50529 7.16138,2.50529 0.13988,0 0.25433,0.45 0.25433,1 0,1.24465 -0.60159,1.18984 -5.09397,-0.46409 z m 0.63926,-4.48864 c -1.5559,-1.624 -3.27134,-2.8615 -3.8121,-2.75 -0.54075,0.1115 -1.19598,-0.3794 -1.45606,-1.09089 -0.34334,-0.93926 0.30722,-1.14307 2.375,-0.74401 1.56633,0.30227 2.28537,0.2844 1.59787,-0.0397 -2.40501,-1.13385 -1.24198,-2.3701 1.3151,-1.3979 3.13984,1.19377 4.72338,1.25104 4.04052,0.14614 -0.28183,-0.456 -3.03683,-1.4347 -6.12222,-2.17487 -3.93873,-0.94489 -5.16775,-1.59316 -4.12581,-2.17626 0.82431,-0.46131 2.65948,-0.38357 4.1283,0.17488 1.45437,0.55295 3.63177,1.00536 4.83866,1.00536 2.5474,0 4.8156,3.14661 5.08625,7.05603 0.18247,2.63561 0.11011,2.67616 -2.14218,1.2004 -1.28207,-0.84004 -2.61699,-1.24139 -2.96649,-0.89189 -0.34951,0.3495 -0.16295,0.63546 0.41457,0.63546 0.57752,0 1.28539,0.9 1.57305,2 0.76525,2.92634 -1.45528,2.48043 -4.74446,-0.95273 z m -7.73279,-6.73038 c 0.72187,-0.28887 1.58438,-0.25335 1.91667,0.0789 0.33229,0.33229 -0.25834,0.56864 -1.3125,0.52522 -1.16495,-0.048 -1.4019,-0.28494 -0.60417,-0.60416 z M 417,252.11481 c 0,-0.48685 0.5934,-2.29647 1.31867,-4.02137 0.95577,-2.27311 1.09795,-4.96954 0.51664,-9.79812 -0.44111,-3.66407 -0.58451,-6.87945 -0.31867,-7.1453 0.26585,-0.26584 0.51507,0.60415 0.55382,1.93331 0.0572,1.96273 0.33195,1.7042 1.46256,-1.37637 1.61531,-4.40126 5.43222,-10.07506 6.23661,-9.27067 0.30329,0.3033 -0.14153,1.34171 -0.98851,2.30758 C 422.29574,228.71855 421,232.94199 421,240.3279 c 0,5.47921 -0.40535,7.76362 -1.54551,8.70987 -0.85003,0.70546 -1.31415,1.88556 -1.03138,2.62244 C 418.70587,252.3971 418.50135,253 417.96862,253 417.43588,253 417,252.60166 417,252.11481 Z m 4,0.51065 C 421,251.92175 427.22482,242 427.66632,242 c 0.68466,0 -4.62118,9.85407 -5.6473,10.48825 C 421.45856,252.83463 421,252.89638 421,252.62546 Z M 467,248 c -1.2819,-0.82843 -1.24555,-0.9716 0.25,-0.98469 0.9625,-0.008 1.75,0.43469 1.75,0.98469 0,1.21961 -0.11279,1.21961 -2,0 z m 3.50672,-0.98912 C 470.16311,246.45489 468.5661,246 466.95783,246 c -2.50447,0 -3.28777,-0.71759 -5.45783,-5 l -2.53369,-5 h 3.95174 c 2.17346,0 5.20517,0.47655 6.73713,1.059 2.16564,0.82337 3.01448,0.74822 3.8151,-0.33777 0.56634,-0.76823 1.59222,-1.20727 2.27972,-0.97567 1.61665,0.54463 1.63869,3.33368 0.0237,3.00444 -0.67444,-0.1375 -1.38904,0.82584 -1.588,2.14076 -0.27949,1.84718 -6.8e-4,2.2522 1.22626,1.78138 1.21393,-0.46583 1.588,0.0398 1.588,2.14654 0,2.33093 -0.45248,2.79038 -2.93426,2.97949 -1.61385,0.12297 -3.2154,-0.23131 -3.55902,-0.78729 z M 414.61006,244.25 C 415.46842,240.60814 417,238.98566 417,241.71821 417,244.52715 416.00462,247 414.87396,247 c -0.50164,0 -0.62039,-1.2375 -0.2639,-2.75 z M 429.0856,246 c -0.0302,-0.825 0.38124,-2.175 0.9144,-3 1.18132,-1.82797 1.18132,-0.24909 0,2.5 -0.56668,1.31874 -0.87815,1.48906 -0.9144,0.5 z M 423,242.52417 c 0,-0.26171 0.89832,-1.94921 1.99626,-3.75 2.34896,-3.85264 2.67713,-2.97705 0.47806,1.27549 C 424.10244,242.70258 423,243.80511 423,242.52417 Z m -12,-1.18631 c 0,-1.18886 5.16417,-9.50702 5.61954,-9.05165 0.60392,0.60392 -3.9302,9.60268 -4.86954,9.66446 -0.4125,0.0271 -0.75,-0.24863 -0.75,-0.61281 z M 435,238 c 0.5887,-1.1 1.29537,-2 1.57037,-2 0.275,0 0.0183,0.9 -0.57037,2 -0.5887,1.1 -1.29537,2 -1.57037,2 -0.275,0 -0.0183,-0.9 0.57037,-2 z m -12.99488,-0.80305 c -0.003,-0.71668 1.11988,-2.95864 2.49488,-4.98214 1.375,-2.02349 2.48596,-3.23712 2.46879,-2.69694 -0.049,1.54334 -4.95793,9.13768 -4.96367,7.67908 z M 409.59399,235 c 0.4105,-0.825 1.96127,-3.3 3.44615,-5.5 1.48488,-2.2 3.01905,-5.4625 3.40927,-7.25 0.39023,-1.7875 1.0139,-3.25 1.38593,-3.25 0.37204,0 1.31244,-1.43683 2.08978,-3.19296 1.22356,-2.76423 1.50276,-2.93802 2.07933,-1.29435 0.64938,1.85125 0.69429,1.84982 1.80036,-0.057 1.67568,-2.88887 1.43725,-1.14838 -0.29865,2.18004 -1.05621,2.02519 -1.49564,2.33435 -1.5,1.05529 -0.0106,-3.10406 -1.70852,-0.93009 -2.86704,3.67082 -0.60879,2.41769 -2.21364,5.68784 -3.56636,7.267 -1.35271,1.57916 -3.41925,3.9962 -4.5923,5.3712 -1.17306,1.375 -1.79697,1.825 -1.38647,1 z m 28.44197,-0.35564 c -0.0198,-0.47061 1.08904,-2.19263 2.46404,-3.82673 1.375,-1.63409 2.49776,-2.59905 2.49503,-2.14436 -0.007,1.13231 -4.9141,7.04105 -4.95907,5.97109 z M 470,233.89436 c 0,-0.60811 1.125,-2.44263 2.5,-4.07673 2.24368,-2.66647 2.5,-2.75816 2.5,-0.89436 0,1.1422 -0.9,2.97673 -2,4.07673 -2.26828,2.26828 -3,2.48642 -3,0.89436 z m -39,-1.83534 c 0,-0.51754 0.44485,-1.21592 0.98855,-1.55194 0.56686,-0.35034 0.7345,0.0511 0.39301,0.94098 C 431.71677,233.18048 431,233.49745 431,232.05902 Z m 6.57258,-3.15345 c 1.61008,-1.97694 3.12934,-3.42502 3.37614,-3.21795 0.24679,0.20706 -1.07055,1.82456 -2.92742,3.59443 L 434.64516,232.5 Z M 468.53644,229 c 0.75634,-2.74693 2.16366,-4.63324 2.90421,-3.89268 0.26069,0.26069 -0.44099,1.80569 -1.55929,3.43333 -1.90813,2.77721 -1.99091,2.80549 -1.34492,0.45935 z m -59.53326,-1.62756 c 0.002,-0.47984 1.83767,-3.57244 4.07983,-6.87244 3.9984,-5.88485 4.62292,-4.19694 0.79089,2.13758 -2.05706,3.40041 -4.87585,6.14058 -4.87072,4.73486 z M 431,226.28911 c 0,-0.57432 0.7875,-1.66182 1.75,-2.41667 1.61876,-1.26951 1.63998,-1.22245 0.28297,0.62756 -0.80687,1.1 -1.59437,2.1875 -1.75,2.41667 C 431.12734,227.14583 431,226.86343 431,226.28911 Z m 1,-6.66667 c 0,-0.20765 0.7875,-0.99515 1.75,-1.75 1.58606,-1.24387 1.62143,-1.2085 0.37756,0.37756 C 432.82119,219.91575 432,220.44548 432,219.62244 Z m -17.66829,-9.02246 C 418.21657,206.49914 420,205.71824 420,208.11803 c 0,0.55 -0.42742,0.73584 -0.94983,0.41298 -0.5224,-0.32287 -1.41945,0.29049 -1.99345,1.36301 -1.50897,2.81953 -3.99265,5.10598 -5.54644,5.10598 -0.74077,0 0.52887,-1.98001 2.82143,-4.40002 z M 416,202.72308 c 0,-1.48014 5.68079,-6.37562 6.47581,-5.5806 0.47853,0.47852 -1.47655,2.90384 -4.24216,5.26251 C 416.32746,204.0307 416,204.07733 416,202.72308 Z m -8.94552,-1.80336 c -5.65501,-1.1222 -6.73099,-2.25718 -8.6993,-9.17626 C 396.5288,185.32329 396.99005,183 400.09106,183 c 1.84353,0 1.96617,-0.22612 0.85124,-1.56952 -0.71642,-0.86324 -2.12945,-1.3533 -3.14005,-1.08902 -1.54803,0.40482 -1.82161,-0.0962 -1.73682,-3.18047 0.0554,-2.01355 -0.19267,-4.78601 -0.55118,-6.16102 -0.45946,-1.76219 0.0437,-3.533 1.70483,-6 l 2.35666,-3.49997 10.34518,-0.28458 c 8.32341,-0.22896 10.68734,0.0251 12.09596,1.29986 1.36671,1.23685 2.92795,1.43655 7.11695,0.91035 4.36282,-0.54805 5.13868,-0.43272 4.1495,0.61681 -0.73274,0.77745 -3.61639,1.29089 -7.25,1.29089 -5.44221,0 -6.03483,0.20412 -6.04864,2.08334 -0.0125,1.69459 -0.19128,1.805 -0.95836,0.59169 -0.75105,-1.18796 -1.19583,-1.23886 -2.18469,-0.25 -0.6829,0.6829 -0.81414,1.24219 -0.29164,1.24286 0.5225,6.7e-4 2.21023,1.08507 3.75052,2.40976 2.01385,1.73198 2.45178,2.62407 1.55902,3.17583 -0.69558,0.42989 -1.41403,0.24971 -1.63386,-0.40976 C 420.00989,173.52967 418.94428,173 417.85765,173 c -1.23875,0 -1.70954,0.43063 -1.26216,1.15451 0.45596,0.73775 0.27275,0.88209 -0.50751,0.39986 -0.67157,-0.41505 -0.96877,-1.00691 -0.66044,-1.31525 0.30834,-0.30833 -0.40907,-1.05077 -1.59424,-1.64986 -1.18516,-0.59909 -2.28238,-1.97693 -2.43826,-3.06186 -0.15588,-1.08494 -1.04317,-2.52815 -1.97175,-3.20715 -2.15914,-1.5788 -6.9177,0.63835 -7.68742,3.5818 -0.60914,2.32932 -0.0364,3.09795 2.30835,3.09795 0.94099,0 2.3115,0.7237 3.04559,1.60821 1.13153,1.36341 1.05881,1.80995 -0.47769,2.93347 -0.99682,0.72889 -1.51578,1.80519 -1.15324,2.39179 0.36253,0.58659 -0.0328,1.06653 -0.87842,1.06653 -1.1937,0 -1.33692,0.50321 -0.64038,2.25 0.49347,1.2375 1.20389,3.15 1.57872,4.25 0.66929,1.96412 0.69626,1.96186 1.50335,-0.12624 0.62987,-1.62958 1.48242,-2.03512 3.64984,-1.73615 2.39131,0.32986 2.51917,0.2444 0.82801,-0.55347 -1.51704,-0.71572 -1.61484,-0.96054 -0.40499,-1.01385 0.87726,-0.0387 2.3567,0.77136 3.28764,1.80004 1.41563,1.56425 1.49623,2.30138 0.49255,4.50423 -1.39282,3.05691 -0.71462,4.2011 1.83167,3.09022 0.98622,-0.43026 2.11502,-0.71606 2.50844,-0.6351 0.39342,0.081 1.85592,-0.28646 3.25,-0.81649 3.66498,-1.39342 3.11912,-0.42832 -1.47867,2.61435 -2.20735,1.46076 -4.57328,3.82414 -5.25762,5.25196 -1.43287,2.98959 -2.55751,3.2541 -8.67454,2.04022 z M 414,165 c 0,-0.55 -0.47656,-1 -1.05902,-1 -0.58246,0 -0.7809,0.45 -0.44098,1 0.33992,0.55 0.81648,1 1.05902,1 0.24254,0 0.44098,-0.45 0.44098,-1 z m 43.07895,27.41667 c 0.048,-1.16495 0.28494,-1.4019 0.60416,-0.60417 0.28887,0.72187 0.25335,1.58437 -0.0789,1.91667 -0.33229,0.33229 -0.56864,-0.25834 -0.52522,-1.3125 z m -26.46263,-5.95386 c 1.58803,-2.42363 1.55888,-2.64742 -0.65126,-5 -3.11367,-3.31435 -4.08356,-3.10118 -2.7888,0.61295 0.81442,2.33626 0.76653,3.35809 -0.1992,4.25 -0.99923,0.92286 -1.14222,0.80645 -0.66791,-0.54373 0.33193,-0.94489 0.24769,-1.93788 -0.18719,-2.20666 -0.43488,-0.26877 -0.86411,-2.36235 -0.95385,-4.65241 -0.1401,-3.57548 0.0464,-3.98986 1.31977,-2.93302 0.8156,0.67689 4.18584,1.29357 7.48942,1.37039 3.30357,0.0768 6.01014,0.42469 6.0146,0.77304 0.0135,1.05513 -3.82438,1.71434 -7.25713,1.24651 l -3.23477,-0.44085 2.60035,2.3538 2.60036,2.3538 -2.30239,2.67668 c -2.91452,3.38834 -3.96458,3.47054 -1.782,0.1395 z m 15.19618,0.85408 c 0.72187,-0.28887 1.58438,-0.25335 1.91667,0.0789 0.33229,0.33229 -0.25834,0.56864 -1.3125,0.52522 -1.16495,-0.048 -1.4019,-0.28494 -0.60417,-0.60416 z m 7.26645,-2.90022 c 0.048,-1.16495 0.28494,-1.4019 0.60416,-0.60417 0.28887,0.72187 0.25335,1.58437 -0.0789,1.91667 -0.33229,0.33229 -0.56864,-0.25834 -0.52522,-1.3125 z m -34.53624,-1.34757 c -0.68308,-1.10523 0.8944,-2.29865 1.81781,-1.37525 0.95079,0.95079 0.77359,2.30615 -0.3015,2.30615 -0.51754,0 -1.19988,-0.41891 -1.51631,-0.9309 z M 420,177 c 0,-0.55 0.45,-1 1,-1 0.55,0 1,0.45 1,1 0,0.55 -0.45,1 -1,1 -0.55,0 -1,-0.45 -1,-1 z m 8.5,-3 c 0.33992,-0.55 2.64303,-1 5.11803,-1 2.74536,0 4.25902,0.38992 3.88197,1 -0.33992,0.55 -2.64303,1 -5.11803,1 -2.74536,0 -4.25902,-0.38992 -3.88197,-1 z m 11.52006,-3.52417 c 0.69572,-0.83829 1.47088,-1.31823 1.72258,-1.06653 0.69349,0.6935 -0.71555,2.5907 -1.9241,2.5907 -0.6631,0 -0.58723,-0.57378 0.20152,-1.52417 z M 423,169.21371 c 0,-0.43246 2.76263,-0.86286 6.13919,-0.95644 4.81327,-0.13341 6.64907,-0.64917 8.5,-2.38803 C 438.93763,164.64941 440,164.14917 440,164.75759 440,167.34526 434.22486,170 428.59563,170 425.51803,170 423,169.64617 423,169.21371 Z m 12,-6.96882 c 0,-0.55 0.675,-1.5602 1.5,-2.24489 0.83674,-0.69443 1.5,-0.80272 1.5,-0.24489 0,0.55 -0.675,1.5602 -1.5,2.24489 -0.83674,0.69443 -1.5,0.80272 -1.5,0.24489 z m -14,-1.97837 c 0,-0.95943 10.03555,-2.48267 10.91667,-1.65698 0.90368,0.84684 -0.87023,1.47919 -5.78106,2.0608 C 422.93707,161.04916 421,160.89685 421,160.26652 Z m -1.12634,-4.34461 c -0.56924,-0.3518 0.40757,-0.92816 2.17068,-1.28078 4.45709,-0.89142 6.95566,-0.80024 6.95566,0.25383 0,1.07473 -7.65524,1.93614 -9.12634,1.02695 z m 14.35528,-0.10873 c 0.49828,-1.49484 2.77106,-2.31789 2.77106,-1.0035 0,0.53699 -0.7126,1.24979 -1.58356,1.58401 -0.97391,0.37373 -1.43108,0.15024 -1.1875,-0.58051 z m -2.00275,-4.3919 c 0.94941,-0.99123 1.94144,-1.58698 2.20452,-1.3239 0.26308,0.26308 -0.5137,1.07408 -1.72619,1.80223 -2.10631,1.26492 -2.12762,1.24361 -0.47833,-0.47833 z M 418,151.25948 c 0,-0.99059 8.06547,-2.52734 8.89753,-1.69529 0.80292,0.80292 -0.44286,1.33947 -4.68507,2.01783 C 419.6309,151.99483 418,151.86995 418,151.25948 Z m -1.59992,-4.0978 C 417.19333,145.87816 423.45916,143 425.46015,143 c 2.14602,0 0.97265,1.89271 -1.80729,2.91526 -4.19564,1.54329 -7.82135,2.16638 -7.25278,1.24642 z m -1.35477,-4.71628 C 417.14004,139.92141 420,138.68552 420,140.3043 c 0,0.75607 -1.14617,1.8969 -2.54705,2.53518 -3.40566,1.55173 -3.94874,1.46283 -2.40764,-0.39408 z m -31.156,-2.1954 c -0.0609,-0.4125 -0.024,-1.79806 0.0819,-3.07903 0.16888,-2.042 -0.0559,-2.19605 -1.82357,-1.25 -1.96207,1.05007 -6.14766,1.49998 -6.14766,0.66082 0,-0.23002 -0.27314,-1.13002 -0.60699,-2 -0.39831,-1.03799 -0.0545,-1.58179 1,-1.58179 0.88385,0 1.60699,-0.81399 1.60699,-1.80887 0,-0.99488 0.63436,-2.67641 1.40968,-3.73673 1.31987,-1.80502 1.52697,-1.8217 3.25063,-0.26182 1.33338,1.2067 2.31893,1.39854 3.57463,0.69582 1.41034,-0.78927 1.61098,-0.65045 1.07577,0.7443 -0.52651,1.37205 -0.27616,1.56802 1.25336,0.98109 1.0512,-0.40339 4.84183,-0.94202 8.42361,-1.19696 3.58177,-0.25493 9.25155,-0.65424 12.59951,-0.88735 l 6.08719,-0.42382 -0.12341,3.55372 c -0.0927,2.66999 -0.82924,4.06789 -2.9617,5.62128 -2.54593,1.85458 -3.29046,1.94661 -7.22813,0.89344 -6.88186,-1.84061 -10.54897,-1.48251 -13.57771,1.3259 -2.50334,2.32122 -7.6417,3.46032 -7.89412,1.75 z m 31.41645,-3.7816 c 1.54317,-1.35762 3.5431,-2.4684 4.44428,-2.4684 1.05135,0 0.42421,0.89589 -1.75004,2.5 -4.36176,3.218 -6.36132,3.19455 -2.69424,-0.0316 z"
         id="path356" />
    </g>
  </g>
</svg>
