<?xml version="1.0" encoding="utf-8" standalone="no"?>
<!DOCTYPE svg PUBLIC "-//W3C//DTD SVG 1.1//EN"
  "http://www.w3.org/Graphics/SVG/1.1/DTD/svg11.dtd">
<svg xmlns:xlink="http://www.w3.org/1999/xlink" width="720pt" height="360pt" viewBox="0 0 720 360" xmlns="http://www.w3.org/2000/svg" version="1.1">
 <metadata>
  <rdf:RDF xmlns:dc="http://purl.org/dc/elements/1.1/" xmlns:cc="http://creativecommons.org/ns#" xmlns:rdf="http://www.w3.org/1999/02/22-rdf-syntax-ns#">
   <cc:Work>
    <dc:type rdf:resource="http://purl.org/dc/dcmitype/StillImage"/>
    <dc:date>2025-12-07T11:29:04.686697</dc:date>
    <dc:format>image/svg+xml</dc:format>
    <dc:creator>
     <cc:Agent>
      <dc:title>Matplotlib v3.9.2, https://matplotlib.org/</dc:title>
     </cc:Agent>
    </dc:creator>
   </cc:Work>
  </rdf:RDF>
 </metadata>
 <defs>
  <style type="text/css">*{stroke-linejoin: round; stroke-linecap: butt}</style>
 </defs>
 <g id="figure_1">
  <g id="patch_1">
   <path d="M 0 360 
L 720 360 
L 720 0 
L 0 0 
z
" style="fill: #24273a"/>
  </g>
  <g id="axes_1">
   <g id="patch_2">
    <path d="M 284.716623 142.430224 
Q 277.132872 128.548262 269.549122 114.6663 
L 268.496023 115.241611 
Q 268.415339 113.008091 268.334656 110.774572 
Q 270.170505 112.04924 272.006353 113.323908 
L 270.953254 113.899219 
Q 278.537004 127.781181 286.120755 141.663143 
L 284.716623 142.430224 
z
" clip-path="url(#p69577625bb)" style="fill: #ffff00; stroke: #ffff00; stroke-linecap: round"/>
   </g>
   <g id="patch_3">
    <path d="M 216.818182 191.311364 
C 219.340625 191.311364 221.760095 190.309186 223.543732 188.52555 
C 225.327368 186.741913 226.329545 184.322443 226.329545 181.8 
C 226.329545 179.277557 225.327368 176.858087 223.543732 175.07445 
C 221.760095 173.290814 219.340625 172.288636 216.818182 172.288636 
C 214.295739 172.288636 211.876269 173.290814 210.092632 175.07445 
C 208.308995 176.858087 207.306818 179.277557 207.306818 181.8 
C 207.306818 184.322443 208.308995 186.741913 210.092632 188.52555 
C 211.876269 190.309186 214.295739 191.311364 216.818182 191.311364 
z
" clip-path="url(#p69577625bb)" style="fill: #ffff00; stroke: #ffff00; stroke-linejoin: miter"/>
   </g>
   <g id="patch_4">
    <path d="M 216.818182 189.32983 
C 218.815116 189.32983 220.73053 188.536439 222.142575 187.124394 
C 223.554621 185.712348 224.348011 183.796934 224.348011 181.8 
C 224.348011 179.803066 223.554621 177.887652 222.142575 176.475606 
C 220.73053 175.063561 218.815116 174.27017 216.818182 174.27017 
C 214.821248 174.27017 212.905834 175.063561 211.493788 176.475606 
C 210.081743 177.887652 209.288352 179.803066 209.288352 181.8 
C 209.288352 183.796934 210.081743 185.712348 211.493788 187.124394 
C 212.905834 188.536439 214.821248 189.32983 216.818182 189.32983 
z
" clip-path="url(#p69577625bb)" style="fill: #24273a; stroke: #24273a; stroke-linejoin: miter"/>
   </g>
   <g id="line2d_1">
    <path d="M 97.926136 181.8 
L 335.710227 181.8 
" clip-path="url(#p69577625bb)" style="fill: none; stroke: #b7bdf8; stroke-linecap: square"/>
   </g>
   <g id="line2d_2">
    <path d="M 216.818182 181.8 
L 286.376572 143.800078 
" clip-path="url(#p69577625bb)" style="fill: none; stroke: #ffff00; stroke-width: 2; stroke-linecap: square"/>
    <defs>
     <path id="m4a49681ecb" d="M 0 5 
C 1.326016 5 2.597899 4.473168 3.535534 3.535534 
C 4.473168 2.597899 5 1.326016 5 0 
C 5 -1.326016 4.473168 -2.597899 3.535534 -3.535534 
C 2.597899 -4.473168 1.326016 -5 0 -5 
C -1.326016 -5 -2.597899 -4.473168 -3.535534 -3.535534 
C -4.473168 -2.597899 -5 -1.326016 -5 0 
C -5 1.326016 -4.473168 2.597899 -3.535534 3.535534 
C -2.597899 4.473168 -1.326016 5 0 5 
z
" style="stroke: #ffff00"/>
    </defs>
    <g clip-path="url(#p69577625bb)">
     <use xlink:href="#m4a49681ecb" x="216.818182" y="181.8" style="fill: #ffff00; stroke: #ffff00"/>
     <use xlink:href="#m4a49681ecb" x="286.376572" y="143.800078" style="fill: #ffff00; stroke: #ffff00"/>
    </g>
   </g>
   <g id="line2d_3">
    <path d="M 286.376572 143.800078 
" clip-path="url(#p69577625bb)" style="fill: none; stroke: #ffff00; stroke-linecap: square"/>
   </g>
  </g>
  <g id="patch_5">
   <path d="M 394.363636 308.618182 
L 648 308.618182 
L 648 54.981818 
L 394.363636 54.981818 
z
" style="fill: #24273a"/>
  </g>
  <g id="pane3d_1">
   <g id="patch_6">
    <path d="M 533.795814 174.280945 
L 637.773744 235.495389 
L 642.97487 128.979803 
L 534.186283 73.172929 
" style="fill: none; opacity: 0.5; stroke: #cad3f5; stroke-linejoin: miter"/>
   </g>
  </g>
  <g id="pane3d_2">
   <g id="patch_7">
    <path d="M 533.795814 174.280945 
L 412.842886 225.011433 
L 407.772348 119.395736 
L 534.186283 73.172929 
" style="fill: none; opacity: 0.5; stroke: #cad3f5; stroke-linejoin: miter"/>
   </g>
  </g>
  <g id="pane3d_3">
   <g id="patch_8">
    <path d="M 533.795814 174.280945 
L 412.842886 225.011433 
L 514.017866 294.716248 
L 637.773744 235.495389 
" style="fill: none; opacity: 0.5; stroke: #cad3f5; stroke-linejoin: miter"/>
   </g>
  </g>
  <g id="axis3d_1">
   <g id="line2d_4">
    <path d="M 637.773744 235.495389 
L 514.017866 294.716248 
" style="fill: none; stroke: #cad3f5; stroke-width: 0.8; stroke-linecap: square"/>
   </g>
   <g id="xtick_1">
    <g id="line2d_5">
     <path d="M 636.877815 234.967932 
L 639.56895 236.552272 
" style="fill: none; stroke: #24273a; stroke-width: 0.8; stroke-linecap: square"/>
    </g>
   </g>
   <g id="xtick_2">
    <g id="line2d_6">
     <path d="M 619.444021 243.301125 
L 622.12876 244.91678 
" style="fill: none; stroke: #24273a; stroke-width: 0.8; stroke-linecap: square"/>
    </g>
   </g>
   <g id="xtick_3">
    <g id="line2d_7">
     <path d="M 601.664247 251.799694 
L 604.341803 253.447602 
" style="fill: none; stroke: #24273a; stroke-width: 0.8; stroke-linecap: square"/>
    </g>
   </g>
   <g id="xtick_4">
    <g id="line2d_8">
     <path d="M 583.528091 260.468609 
L 586.197635 262.149746 
" style="fill: none; stroke: #24273a; stroke-width: 0.8; stroke-linecap: square"/>
    </g>
   </g>
   <g id="xtick_5">
    <g id="line2d_9">
     <path d="M 565.024729 269.313045 
L 567.685385 271.028426 
" style="fill: none; stroke: #24273a; stroke-width: 0.8; stroke-linecap: square"/>
    </g>
   </g>
   <g id="xtick_6">
    <g id="line2d_10">
     <path d="M 546.142896 278.338387 
L 548.793738 280.089069 
" style="fill: none; stroke: #24273a; stroke-width: 0.8; stroke-linecap: square"/>
    </g>
   </g>
   <g id="xtick_7">
    <g id="line2d_11">
     <path d="M 526.87086 287.550244 
L 529.510909 289.337327 
" style="fill: none; stroke: #24273a; stroke-width: 0.8; stroke-linecap: square"/>
    </g>
   </g>
   <g id="text_1">
    <!-- Position -->
    <g style="fill: #cad3f5" transform="translate(575.760084 312.591447) rotate(-25.572498) scale(0.14 -0.14)">
     <defs>
      <path id="DejaVuSans-50" d="M 1259 4147 
L 1259 2394 
L 2053 2394 
Q 2494 2394 2734 2622 
Q 2975 2850 2975 3272 
Q 2975 3691 2734 3919 
Q 2494 4147 2053 4147 
L 1259 4147 
z
M 628 4666 
L 2053 4666 
Q 2838 4666 3239 4311 
Q 3641 3956 3641 3272 
Q 3641 2581 3239 2228 
Q 2838 1875 2053 1875 
L 1259 1875 
L 1259 0 
L 628 0 
L 628 4666 
z
" transform="scale(0.015625)"/>
      <path id="DejaVuSans-6f" d="M 1959 3097 
Q 1497 3097 1228 2736 
Q 959 2375 959 1747 
Q 959 1119 1226 758 
Q 1494 397 1959 397 
Q 2419 397 2687 759 
Q 2956 1122 2956 1747 
Q 2956 2369 2687 2733 
Q 2419 3097 1959 3097 
z
M 1959 3584 
Q 2709 3584 3137 3096 
Q 3566 2609 3566 1747 
Q 3566 888 3137 398 
Q 2709 -91 1959 -91 
Q 1206 -91 779 398 
Q 353 888 353 1747 
Q 353 2609 779 3096 
Q 1206 3584 1959 3584 
z
" transform="scale(0.015625)"/>
      <path id="DejaVuSans-73" d="M 2834 3397 
L 2834 2853 
Q 2591 2978 2328 3040 
Q 2066 3103 1784 3103 
Q 1356 3103 1142 2972 
Q 928 2841 928 2578 
Q 928 2378 1081 2264 
Q 1234 2150 1697 2047 
L 1894 2003 
Q 2506 1872 2764 1633 
Q 3022 1394 3022 966 
Q 3022 478 2636 193 
Q 2250 -91 1575 -91 
Q 1294 -91 989 -36 
Q 684 19 347 128 
L 347 722 
Q 666 556 975 473 
Q 1284 391 1588 391 
Q 1994 391 2212 530 
Q 2431 669 2431 922 
Q 2431 1156 2273 1281 
Q 2116 1406 1581 1522 
L 1381 1569 
Q 847 1681 609 1914 
Q 372 2147 372 2553 
Q 372 3047 722 3315 
Q 1072 3584 1716 3584 
Q 2034 3584 2315 3537 
Q 2597 3491 2834 3397 
z
" transform="scale(0.015625)"/>
      <path id="DejaVuSans-69" d="M 603 3500 
L 1178 3500 
L 1178 0 
L 603 0 
L 603 3500 
z
M 603 4863 
L 1178 4863 
L 1178 4134 
L 603 4134 
L 603 4863 
z
" transform="scale(0.015625)"/>
      <path id="DejaVuSans-74" d="M 1172 4494 
L 1172 3500 
L 2356 3500 
L 2356 3053 
L 1172 3053 
L 1172 1153 
Q 1172 725 1289 603 
Q 1406 481 1766 481 
L 2356 481 
L 2356 0 
L 1766 0 
Q 1100 0 847 248 
Q 594 497 594 1153 
L 594 3053 
L 172 3053 
L 172 3500 
L 594 3500 
L 594 4494 
L 1172 4494 
z
" transform="scale(0.015625)"/>
      <path id="DejaVuSans-6e" d="M 3513 2113 
L 3513 0 
L 2938 0 
L 2938 2094 
Q 2938 2591 2744 2837 
Q 2550 3084 2163 3084 
Q 1697 3084 1428 2787 
Q 1159 2491 1159 1978 
L 1159 0 
L 581 0 
L 581 3500 
L 1159 3500 
L 1159 2956 
Q 1366 3272 1645 3428 
Q 1925 3584 2291 3584 
Q 2894 3584 3203 3211 
Q 3513 2838 3513 2113 
z
" transform="scale(0.015625)"/>
     </defs>
     <use xlink:href="#DejaVuSans-50"/>
     <use xlink:href="#DejaVuSans-6f" x="56.677734"/>
     <use xlink:href="#DejaVuSans-73" x="117.859375"/>
     <use xlink:href="#DejaVuSans-69" x="169.958984"/>
     <use xlink:href="#DejaVuSans-74" x="197.742188"/>
     <use xlink:href="#DejaVuSans-69" x="236.951172"/>
     <use xlink:href="#DejaVuSans-6f" x="264.734375"/>
     <use xlink:href="#DejaVuSans-6e" x="325.916016"/>
    </g>
   </g>
  </g>
  <g id="axis3d_2">
   <g id="line2d_12">
    <path d="M 412.842886 225.011433 
L 514.017866 294.716248 
" style="fill: none; stroke: #cad3f5; stroke-width: 0.8; stroke-linecap: square"/>
   </g>
   <g id="xtick_8">
    <g id="line2d_13">
     <path d="M 413.872316 224.579666 
L 410.78084 225.876304 
" style="fill: none; stroke: #24273a; stroke-width: 0.8; stroke-linecap: square"/>
    </g>
   </g>
   <g id="xtick_9">
    <g id="line2d_14">
     <path d="M 429.64707 235.43295 
L 426.540212 236.763428 
" style="fill: none; stroke: #24273a; stroke-width: 0.8; stroke-linecap: square"/>
    </g>
   </g>
   <g id="xtick_10">
    <g id="line2d_15">
     <path d="M 445.835917 246.571136 
L 442.713931 247.936797 
" style="fill: none; stroke: #24273a; stroke-width: 0.8; stroke-linecap: square"/>
    </g>
   </g>
   <g id="xtick_11">
    <g id="line2d_16">
     <path d="M 462.455379 258.005593 
L 459.318556 259.407851 
" style="fill: none; stroke: #24273a; stroke-width: 0.8; stroke-linecap: square"/>
    </g>
   </g>
   <g id="xtick_12">
    <g id="line2d_17">
     <path d="M 479.522869 269.748299 
L 476.371538 271.188646 
" style="fill: none; stroke: #24273a; stroke-width: 0.8; stroke-linecap: square"/>
    </g>
   </g>
   <g id="xtick_13">
    <g id="line2d_18">
     <path d="M 497.056751 281.811891 
L 493.891287 283.291899 
" style="fill: none; stroke: #24273a; stroke-width: 0.8; stroke-linecap: square"/>
    </g>
   </g>
   <g id="xtick_14">
    <g id="line2d_19">
     <path d="M 515.076408 294.209704 
L 511.897232 295.731034 
" style="fill: none; stroke: #24273a; stroke-width: 0.8; stroke-linecap: square"/>
    </g>
   </g>
   <g id="text_2">
    <!-- Vitesse -->
    <g style="fill: #cad3f5" transform="translate(414.162658 278.11742) rotate(-325.434981) scale(0.14 -0.14)">
     <defs>
      <path id="DejaVuSans-56" d="M 1831 0 
L 50 4666 
L 709 4666 
L 2188 738 
L 3669 4666 
L 4325 4666 
L 2547 0 
L 1831 0 
z
" transform="scale(0.015625)"/>
      <path id="DejaVuSans-65" d="M 3597 1894 
L 3597 1613 
L 953 1613 
Q 991 1019 1311 708 
Q 1631 397 2203 397 
Q 2534 397 2845 478 
Q 3156 559 3463 722 
L 3463 178 
Q 3153 47 2828 -22 
Q 2503 -91 2169 -91 
Q 1331 -91 842 396 
Q 353 884 353 1716 
Q 353 2575 817 3079 
Q 1281 3584 2069 3584 
Q 2775 3584 3186 3129 
Q 3597 2675 3597 1894 
z
M 3022 2063 
Q 3016 2534 2758 2815 
Q 2500 3097 2075 3097 
Q 1594 3097 1305 2825 
Q 1016 2553 972 2059 
L 3022 2063 
z
" transform="scale(0.015625)"/>
     </defs>
     <use xlink:href="#DejaVuSans-56"/>
     <use xlink:href="#DejaVuSans-69" x="66.158203"/>
     <use xlink:href="#DejaVuSans-74" x="93.941406"/>
     <use xlink:href="#DejaVuSans-65" x="133.150391"/>
     <use xlink:href="#DejaVuSans-73" x="194.673828"/>
     <use xlink:href="#DejaVuSans-73" x="246.773438"/>
     <use xlink:href="#DejaVuSans-65" x="298.873047"/>
    </g>
   </g>
  </g>
  <g id="axis3d_3">
   <g id="line2d_20">
    <path d="M 412.842886 225.011433 
L 407.772348 119.395736 
" style="fill: none; stroke: #cad3f5; stroke-width: 0.8; stroke-linecap: square"/>
   </g>
   <g id="xtick_15">
    <g id="line2d_21">
     <path d="M 413.872316 224.579666 
L 410.78084 225.876304 
" style="fill: none; stroke: #24273a; stroke-width: 0.8; stroke-linecap: square"/>
    </g>
   </g>
   <g id="xtick_16">
    <g id="line2d_22">
     <path d="M 413.268626 211.885987 
L 410.159331 213.169951 
" style="fill: none; stroke: #24273a; stroke-width: 0.8; stroke-linecap: square"/>
    </g>
   </g>
   <g id="xtick_17">
    <g id="line2d_23">
     <path d="M 412.658318 199.053149 
L 409.530997 200.324081 
" style="fill: none; stroke: #24273a; stroke-width: 0.8; stroke-linecap: square"/>
    </g>
   </g>
   <g id="xtick_18">
    <g id="line2d_24">
     <path d="M 412.041282 186.07885 
L 408.895727 187.336385 
" style="fill: none; stroke: #24273a; stroke-width: 0.8; stroke-linecap: square"/>
    </g>
   </g>
   <g id="xtick_19">
    <g id="line2d_25">
     <path d="M 411.417407 172.960739 
L 408.253404 174.2045 
" style="fill: none; stroke: #24273a; stroke-width: 0.8; stroke-linecap: square"/>
    </g>
   </g>
   <g id="xtick_20">
    <g id="line2d_26">
     <path d="M 410.786578 159.696411 
L 407.60391 160.926012 
" style="fill: none; stroke: #24273a; stroke-width: 0.8; stroke-linecap: square"/>
    </g>
   </g>
   <g id="xtick_21">
    <g id="line2d_27">
     <path d="M 410.148678 146.283408 
L 406.947124 147.498452 
" style="fill: none; stroke: #24273a; stroke-width: 0.8; stroke-linecap: square"/>
    </g>
   </g>
   <g id="xtick_22">
    <g id="line2d_28">
     <path d="M 409.503588 132.719215 
L 406.282923 133.919295 
" style="fill: none; stroke: #24273a; stroke-width: 0.8; stroke-linecap: square"/>
    </g>
   </g>
   <g id="xtick_23">
    <g id="line2d_29">
     <path d="M 408.851186 119.001263 
L 405.611181 120.185959 
" style="fill: none; stroke: #24273a; stroke-width: 0.8; stroke-linecap: square"/>
    </g>
   </g>
   <g id="text_3">
    <!-- Energie -->
    <g style="fill: #cad3f5" transform="translate(362.362897 145.098126) rotate(-272.748621) scale(0.14 -0.14)">
     <defs>
      <path id="DejaVuSans-45" d="M 628 4666 
L 3578 4666 
L 3578 4134 
L 1259 4134 
L 1259 2753 
L 3481 2753 
L 3481 2222 
L 1259 2222 
L 1259 531 
L 3634 531 
L 3634 0 
L 628 0 
L 628 4666 
z
" transform="scale(0.015625)"/>
      <path id="DejaVuSans-72" d="M 2631 2963 
Q 2534 3019 2420 3045 
Q 2306 3072 2169 3072 
Q 1681 3072 1420 2755 
Q 1159 2438 1159 1844 
L 1159 0 
L 581 0 
L 581 3500 
L 1159 3500 
L 1159 2956 
Q 1341 3275 1631 3429 
Q 1922 3584 2338 3584 
Q 2397 3584 2469 3576 
Q 2541 3569 2628 3553 
L 2631 2963 
z
" transform="scale(0.015625)"/>
      <path id="DejaVuSans-67" d="M 2906 1791 
Q 2906 2416 2648 2759 
Q 2391 3103 1925 3103 
Q 1463 3103 1205 2759 
Q 947 2416 947 1791 
Q 947 1169 1205 825 
Q 1463 481 1925 481 
Q 2391 481 2648 825 
Q 2906 1169 2906 1791 
z
M 3481 434 
Q 3481 -459 3084 -895 
Q 2688 -1331 1869 -1331 
Q 1566 -1331 1297 -1286 
Q 1028 -1241 775 -1147 
L 775 -588 
Q 1028 -725 1275 -790 
Q 1522 -856 1778 -856 
Q 2344 -856 2625 -561 
Q 2906 -266 2906 331 
L 2906 616 
Q 2728 306 2450 153 
Q 2172 0 1784 0 
Q 1141 0 747 490 
Q 353 981 353 1791 
Q 353 2603 747 3093 
Q 1141 3584 1784 3584 
Q 2172 3584 2450 3431 
Q 2728 3278 2906 2969 
L 2906 3500 
L 3481 3500 
L 3481 434 
z
" transform="scale(0.015625)"/>
     </defs>
     <use xlink:href="#DejaVuSans-45"/>
     <use xlink:href="#DejaVuSans-6e" x="63.183594"/>
     <use xlink:href="#DejaVuSans-65" x="126.5625"/>
     <use xlink:href="#DejaVuSans-72" x="188.085938"/>
     <use xlink:href="#DejaVuSans-67" x="227.449219"/>
     <use xlink:href="#DejaVuSans-69" x="290.925781"/>
     <use xlink:href="#DejaVuSans-65" x="318.708984"/>
    </g>
   </g>
  </g>
  <g id="axes_2">
   <g id="line2d_30">
    <g clip-path="url(#p796ce937f9)">
     <use xlink:href="#m4a49681ecb" x="487.549652" y="171.99285" style="fill: #ffff00; stroke: #ffff00"/>
    </g>
   </g>
   <g id="line2d_31">
    <path d="M 487.549652 171.99285 
" clip-path="url(#p796ce937f9)" style="fill: none; stroke: #ffff00; stroke-width: 3; stroke-linecap: square"/>
   </g>
  </g>
 </g>
 <defs>
  <clipPath id="p69577625bb">
   <rect x="90" y="54.981818" width="253.636364" height="253.636364"/>
  </clipPath>
  <clipPath id="p796ce937f9">
   <rect x="394.363636" y="54.981818" width="253.636364" height="253.636364"/>
  </clipPath>
 </defs>
</svg>
