<?xml version="1.0" encoding="UTF-8" standalone="no"?>
<!-- Created with Inkscape (http://www.inkscape.org/) -->

<svg
   width="185.39043mm"
   height="155.7943mm"
   viewBox="0 0 185.39043 155.7943"
   version="1.1"
   id="svg5"
   inkscape:version="1.2.2 (b0a8486541, 2022-12-01)"
   sodipodi:docname="poincare_2.svg"
   xml:space="preserve"
   xmlns:inkscape="http://www.inkscape.org/namespaces/inkscape"
   xmlns:sodipodi="http://sodipodi.sourceforge.net/DTD/sodipodi-0.dtd"
   xmlns="http://www.w3.org/2000/svg"
   xmlns:svg="http://www.w3.org/2000/svg"><sodipodi:namedview
     id="namedview7"
     pagecolor="#24273a"
     bordercolor="#000000"
     borderopacity="0.25"
     inkscape:showpageshadow="2"
     inkscape:pageopacity="0"
     inkscape:pagecheckerboard="0"
     inkscape:deskcolor="#d1d1d1"
     inkscape:document-units="mm"
     showgrid="false"
     inkscape:zoom="1.1423967"
     inkscape:cx="348.39036"
     inkscape:cy="236.78289"
     inkscape:window-width="1920"
     inkscape:window-height="1043"
     inkscape:window-x="0"
     inkscape:window-y="0"
     inkscape:window-maximized="1"
     inkscape:current-layer="g7220" /><defs
     id="defs2"><style
   type="text/css"
   id="style1146">*{stroke-linejoin: round; stroke-linecap: butt}</style><path
   id="DejaVuSans-13"
   d="m 2034,4250 q -487,0 -733,-480 -245,-479 -245,-1442 0,-959 245,-1439 246,-480 733,-480 491,0 736,480 246,480 246,1439 0,963 -246,1442 -245,480 -736,480 z m 0,500 q 785,0 1199,-621 414,-620 414,-1801 0,-1178 -414,-1799 -414,-620 -1199,-620 -784,0 -1198,620 -414,621 -414,1799 0,1181 414,1801 414,621 1198,621 z"
   transform="scale(0.015625)" /><path
   id="DejaVuSans-11"
   d="m 684,794 h 660 V 0 H 684 Z"
   transform="scale(0.015625)" /><path
   id="DejaVuSans-19"
   d="m 2113,2584 q -425,0 -674,-291 -248,-290 -248,-796 0,-503 248,-796 249,-292 674,-292 425,0 673,292 248,293 248,796 0,506 -248,796 -248,291 -673,291 z m 1253,1979 v -575 q -238,112 -480,171 -242,60 -480,60 -625,0 -955,-422 -329,-422 -376,-1275 184,272 462,417 279,145 613,145 703,0 1111,-427 408,-426 408,-1160 0,-719 -425,-1154 -425,-434 -1131,-434 -810,0 -1238,620 -428,621 -428,1799 0,1106 525,1764 525,658 1409,658 238,0 480,-47 242,-47 505,-140 z"
   transform="scale(0.015625)" /><path
   id="DejaVuSans-1b"
   d="m 2034,2216 q -450,0 -708,-241 -257,-241 -257,-662 0,-422 257,-663 258,-241 708,-241 450,0 709,242 260,243 260,662 0,421 -258,662 -257,241 -711,241 z m -631,268 q -406,100 -633,378 -226,279 -226,679 0,559 398,884 399,325 1092,325 697,0 1094,-325 397,-325 397,-884 0,-400 -227,-679 -226,-278 -629,-378 456,-106 710,-416 255,-309 255,-755 Q 3634,634 3220,271 2806,-91 2034,-91 1263,-91 848,271 434,634 434,1313 q 0,446 256,755 257,310 713,416 z m -231,997 q 0,-362 226,-565 227,-203 636,-203 407,0 636,203 230,203 230,565 0,363 -230,566 -229,203 -636,203 -409,0 -636,-203 -226,-203 -226,-566 z"
   transform="scale(0.015625)" /><path
   id="DejaVuSans-14"
   d="M 794,531 H 1825 V 4091 L 703,3866 v 575 l 1116,225 h 631 V 531 H 3481 V 0 H 794 Z"
   transform="scale(0.015625)" /><path
   id="DejaVuSans-15"
   d="M 1228,531 H 3431 V 0 H 469 v 531 q 359,372 979,998 621,627 780,809 303,340 423,576 121,236 121,464 0,372 -261,606 -261,235 -680,235 -297,0 -627,-103 -329,-103 -704,-313 v 638 q 381,153 712,231 332,78 607,78 725,0 1156,-363 431,-362 431,-968 0,-288 -108,-546 -107,-257 -392,-607 -78,-91 -497,-524 Q 1991,1309 1228,531 Z"
   transform="scale(0.015625)" /><path
   id="DejaVuSans-17"
   d="M 2419,4116 825,1625 h 1594 z m -166,550 h 794 V 1625 h 666 V 1100 H 3047 V 0 H 2419 V 1100 H 313 v 609 z"
   transform="scale(0.015625)" /><path
   id="DejaVuSans-Oblique-5c"
   d="m 1588,-325 q -400,-672 -652,-839 -252,-167 -642,-167 h -453 l 96,481 h 332 q 240,0 409,131 169,131 378,513 l 178,334 -775,3372 h 610 L 1650,819 3256,3500 h 603 z"
   transform="scale(0.015625)" /><path
   id="DejaVuSans-c9c"
   d="M 678,2272 H 4684 V 1741 H 678 Z"
   transform="scale(0.015625)" /><path
   id="DejaVuSans-Oblique-34c"
   d="M 2913,2219 H 925 q -134,-935 3,-1331 172,-488 638,-488 468,0 825,491 312,431 522,1328 z m 96,531 q 85,888 -25,1200 -171,494 -631,494 -478,0 -828,-488 -275,-393 -491,-1206 z m -565,2163 q 750,0 1050,-663 300,-659 72,-1828 Q 3341,1256 2781,594 2225,-72 1475,-72 722,-72 425,594 q -297,662 -72,1828 228,1169 781,1828 557,663 1310,663 z"
   transform="scale(0.015625)" /><path
   id="DejaVuSans-16"
   d="m 2597,2516 q 453,-97 707,-404 255,-306 255,-756 0,-690 -475,-1069 -475,-378 -1350,-378 -293,0 -604,58 -311,58 -642,174 v 609 q 262,-153 574,-231 313,-78 654,-78 593,0 904,234 311,234 311,681 0,413 -289,645 -289,233 -804,233 h -544 v 519 h 569 q 465,0 712,186 247,186 247,536 0,359 -255,551 -254,193 -729,193 -260,0 -557,-57 -297,-56 -653,-174 v 562 q 360,100 674,150 314,50 592,50 719,0 1137,-327 419,-326 419,-882 0,-388 -222,-655 -222,-267 -631,-370 z"
   transform="scale(0.015625)" /><path
   id="DejaVuSans-Oblique-28"
   d="M 1081,4666 H 4031 L 3928,4134 H 1606 L 1338,2753 H 3566 L 3463,2222 H 1234 L 909,531 H 3284 L 3181,0 H 172 Z"
   transform="scale(0.015625)" /><path
   id="DejaVuSans-b"
   d="m 1984,4856 q -418,-718 -622,-1422 -203,-703 -203,-1425 0,-721 205,-1429 205,-708 620,-1424 h -500 q -468,735 -701,1444 -233,709 -233,1409 0,697 231,1403 232,707 703,1444 z"
   transform="scale(0.015625)" /><path
   id="DejaVuSans-Oblique-54"
   d="M 2669,525 Q 2438,222 2123,65 1809,-91 1428,-91 897,-91 595,267 294,625 294,1253 q 0,506 186,978 186,472 533,847 225,244 517,375 292,131 614,131 387,0 637,-153 250,-153 363,-462 l 100,525 h 578 L 2888,-1319 H 2309 Z M 891,1338 q 0,-463 193,-705 194,-242 560,-242 544,0 928,520 384,520 384,1264 0,450 -199,689 -198,239 -569,239 -272,0 -504,-127 Q 1453,2850 1281,2606 1100,2350 995,2006 891,1663 891,1338 Z"
   transform="scale(0.015625)" /><path
   id="DejaVuSans-f"
   d="m 750,794 h 659 V 256 L 897,-744 H 494 L 750,256 Z"
   transform="scale(0.015625)" /><path
   id="DejaVuSans-2b8"
   d="m -1894,4863 h 575 v -729 h -575 z m 294,-1279 z"
   transform="scale(0.015625)" /><path
   id="DejaVuSans-c"
   d="m 513,4856 h 500 q 468,-737 701,-1444 233,-706 233,-1403 0,-700 -233,-1409 -233,-709 -701,-1444 H 513 q 415,716 620,1424 205,708 205,1429 0,722 -205,1425 -205,704 -620,1422 z"
   transform="scale(0.015625)" /><clipPath
   id="pcfc954be6c"><rect
     x="91.800003"
     y="86.400002"
     width="554.40002"
     height="554.40002"
     id="rect1662" /></clipPath><style
   type="text/css"
   id="style4854">*{stroke-linejoin: round; stroke-linecap: butt}</style><path
   id="DejaVuSans-13-3"
   d="m 2034,4250 q -487,0 -733,-480 -245,-479 -245,-1442 0,-959 245,-1439 246,-480 733,-480 491,0 736,480 246,480 246,1439 0,963 -246,1442 -245,480 -736,480 z m 0,500 q 785,0 1199,-621 414,-620 414,-1801 0,-1178 -414,-1799 -414,-620 -1199,-620 -784,0 -1198,620 -414,621 -414,1799 0,1181 414,1801 414,621 1198,621 z"
   transform="scale(0.015625)" /><path
   id="DejaVuSans-11-6"
   d="m 684,794 h 660 V 0 H 684 Z"
   transform="scale(0.015625)" /><path
   id="DejaVuSans-19-7"
   d="m 2113,2584 q -425,0 -674,-291 -248,-290 -248,-796 0,-503 248,-796 249,-292 674,-292 425,0 673,292 248,293 248,796 0,506 -248,796 -248,291 -673,291 z m 1253,1979 v -575 q -238,112 -480,171 -242,60 -480,60 -625,0 -955,-422 -329,-422 -376,-1275 184,272 462,417 279,145 613,145 703,0 1111,-427 408,-426 408,-1160 0,-719 -425,-1154 -425,-434 -1131,-434 -810,0 -1238,620 -428,621 -428,1799 0,1106 525,1764 525,658 1409,658 238,0 480,-47 242,-47 505,-140 z"
   transform="scale(0.015625)" /><path
   id="DejaVuSans-1b-5"
   d="m 2034,2216 q -450,0 -708,-241 -257,-241 -257,-662 0,-422 257,-663 258,-241 708,-241 450,0 709,242 260,243 260,662 0,421 -258,662 -257,241 -711,241 z m -631,268 q -406,100 -633,378 -226,279 -226,679 0,559 398,884 399,325 1092,325 697,0 1094,-325 397,-325 397,-884 0,-400 -227,-679 -226,-278 -629,-378 456,-106 710,-416 255,-309 255,-755 Q 3634,634 3220,271 2806,-91 2034,-91 1263,-91 848,271 434,634 434,1313 q 0,446 256,755 257,310 713,416 z m -231,997 q 0,-362 226,-565 227,-203 636,-203 407,0 636,203 230,203 230,565 0,363 -230,566 -229,203 -636,203 -409,0 -636,-203 -226,-203 -226,-566 z"
   transform="scale(0.015625)" /><path
   id="DejaVuSans-14-3"
   d="M 794,531 H 1825 V 4091 L 703,3866 v 575 l 1116,225 h 631 V 531 H 3481 V 0 H 794 Z"
   transform="scale(0.015625)" /><path
   id="DejaVuSans-15-5"
   d="M 1228,531 H 3431 V 0 H 469 v 531 q 359,372 979,998 621,627 780,809 303,340 423,576 121,236 121,464 0,372 -261,606 -261,235 -680,235 -297,0 -627,-103 -329,-103 -704,-313 v 638 q 381,153 712,231 332,78 607,78 725,0 1156,-363 431,-362 431,-968 0,-288 -108,-546 -107,-257 -392,-607 -78,-91 -497,-524 Q 1991,1309 1228,531 Z"
   transform="scale(0.015625)" /><path
   id="DejaVuSans-17-6"
   d="M 2419,4116 825,1625 h 1594 z m -166,550 h 794 V 1625 h 666 V 1100 H 3047 V 0 H 2419 V 1100 H 313 v 609 z"
   transform="scale(0.015625)" /><path
   id="DejaVuSans-Oblique-5c-2"
   d="m 1588,-325 q -400,-672 -652,-839 -252,-167 -642,-167 h -453 l 96,481 h 332 q 240,0 409,131 169,131 378,513 l 178,334 -775,3372 h 610 L 1650,819 3256,3500 h 603 z"
   transform="scale(0.015625)" /><path
   id="DejaVuSans-c9c-9"
   d="M 678,2272 H 4684 V 1741 H 678 Z"
   transform="scale(0.015625)" /><path
   id="DejaVuSans-Oblique-34c-1"
   d="M 2913,2219 H 925 q -134,-935 3,-1331 172,-488 638,-488 468,0 825,491 312,431 522,1328 z m 96,531 q 85,888 -25,1200 -171,494 -631,494 -478,0 -828,-488 -275,-393 -491,-1206 z m -565,2163 q 750,0 1050,-663 300,-659 72,-1828 Q 3341,1256 2781,594 2225,-72 1475,-72 722,-72 425,594 q -297,662 -72,1828 228,1169 781,1828 557,663 1310,663 z"
   transform="scale(0.015625)" /><path
   id="DejaVuSans-2b8-2"
   d="m -1894,4863 h 575 v -729 h -575 z m 294,-1279 z"
   transform="scale(0.015625)" /><path
   id="DejaVuSans-Oblique-5b"
   d="M 3841,3500 2234,1784 3219,0 H 2559 L 1819,1388 531,0 H -166 L 1556,1844 641,3500 h 659 l 672,-1266 1172,1266 z"
   transform="scale(0.015625)" /><clipPath
   id="pf418e182c5"><rect
     x="91.800003"
     y="86.400002"
     width="554.40002"
     height="554.40002"
     id="rect5383" /></clipPath><style
   type="text/css"
   id="style7310">*{stroke-linejoin: round; stroke-linecap: butt}</style><path
   id="DejaVuSans-13-7"
   d="m 2034,4250 q -487,0 -733,-480 -245,-479 -245,-1442 0,-959 245,-1439 246,-480 733,-480 491,0 736,480 246,480 246,1439 0,963 -246,1442 -245,480 -736,480 z m 0,500 q 785,0 1199,-621 414,-620 414,-1801 0,-1178 -414,-1799 -414,-620 -1199,-620 -784,0 -1198,620 -414,621 -414,1799 0,1181 414,1801 414,621 1198,621 z"
   transform="scale(0.015625)" /><path
   id="DejaVuSans-11-0"
   d="m 684,794 h 660 V 0 H 684 Z"
   transform="scale(0.015625)" /><path
   id="DejaVuSans-19-9"
   d="m 2113,2584 q -425,0 -674,-291 -248,-290 -248,-796 0,-503 248,-796 249,-292 674,-292 425,0 673,292 248,293 248,796 0,506 -248,796 -248,291 -673,291 z m 1253,1979 v -575 q -238,112 -480,171 -242,60 -480,60 -625,0 -955,-422 -329,-422 -376,-1275 184,272 462,417 279,145 613,145 703,0 1111,-427 408,-426 408,-1160 0,-719 -425,-1154 -425,-434 -1131,-434 -810,0 -1238,620 -428,621 -428,1799 0,1106 525,1764 525,658 1409,658 238,0 480,-47 242,-47 505,-140 z"
   transform="scale(0.015625)" /><path
   id="DejaVuSans-1b-3"
   d="m 2034,2216 q -450,0 -708,-241 -257,-241 -257,-662 0,-422 257,-663 258,-241 708,-241 450,0 709,242 260,243 260,662 0,421 -258,662 -257,241 -711,241 z m -631,268 q -406,100 -633,378 -226,279 -226,679 0,559 398,884 399,325 1092,325 697,0 1094,-325 397,-325 397,-884 0,-400 -227,-679 -226,-278 -629,-378 456,-106 710,-416 255,-309 255,-755 Q 3634,634 3220,271 2806,-91 2034,-91 1263,-91 848,271 434,634 434,1313 q 0,446 256,755 257,310 713,416 z m -231,997 q 0,-362 226,-565 227,-203 636,-203 407,0 636,203 230,203 230,565 0,363 -230,566 -229,203 -636,203 -409,0 -636,-203 -226,-203 -226,-566 z"
   transform="scale(0.015625)" /><path
   id="DejaVuSans-14-6"
   d="M 794,531 H 1825 V 4091 L 703,3866 v 575 l 1116,225 h 631 V 531 H 3481 V 0 H 794 Z"
   transform="scale(0.015625)" /><path
   id="DejaVuSans-15-0"
   d="M 1228,531 H 3431 V 0 H 469 v 531 q 359,372 979,998 621,627 780,809 303,340 423,576 121,236 121,464 0,372 -261,606 -261,235 -680,235 -297,0 -627,-103 -329,-103 -704,-313 v 638 q 381,153 712,231 332,78 607,78 725,0 1156,-363 431,-362 431,-968 0,-288 -108,-546 -107,-257 -392,-607 -78,-91 -497,-524 Q 1991,1309 1228,531 Z"
   transform="scale(0.015625)" /><path
   id="DejaVuSans-17-62"
   d="M 2419,4116 825,1625 h 1594 z m -166,550 h 794 V 1625 h 666 V 1100 H 3047 V 0 H 2419 V 1100 H 313 v 609 z"
   transform="scale(0.015625)" /><path
   id="DejaVuSans-Oblique-5c-6"
   d="m 1588,-325 q -400,-672 -652,-839 -252,-167 -642,-167 h -453 l 96,481 h 332 q 240,0 409,131 169,131 378,513 l 178,334 -775,3372 h 610 L 1650,819 3256,3500 h 603 z"
   transform="scale(0.015625)" /><path
   id="DejaVuSans-c9c-1"
   d="M 678,2272 H 4684 V 1741 H 678 Z"
   transform="scale(0.015625)" /><path
   id="DejaVuSans-Oblique-34c-8"
   d="M 2913,2219 H 925 q -134,-935 3,-1331 172,-488 638,-488 468,0 825,491 312,431 522,1328 z m 96,531 q 85,888 -25,1200 -171,494 -631,494 -478,0 -828,-488 -275,-393 -491,-1206 z m -565,2163 q 750,0 1050,-663 300,-659 72,-1828 Q 3341,1256 2781,594 2225,-72 1475,-72 722,-72 425,594 q -297,662 -72,1828 228,1169 781,1828 557,663 1310,663 z"
   transform="scale(0.015625)" /><path
   id="DejaVuSans-2b8-7"
   d="m -1894,4863 h 575 v -729 h -575 z m 294,-1279 z"
   transform="scale(0.015625)" /><path
   id="DejaVuSans-Oblique-5b-9"
   d="M 3841,3500 2234,1784 3219,0 H 2559 L 1819,1388 531,0 H -166 L 1556,1844 641,3500 h 659 l 672,-1266 1172,1266 z"
   transform="scale(0.015625)" /><path
   id="m0a9403c3e1"
   d="M 0,0 H 3.5"
   style="stroke:#000000;stroke-width:0.8;stroke-opacity:1" /><path
   id="DejaVuSans-16-2"
   d="m 2597,2516 q 453,-97 707,-404 255,-306 255,-756 0,-690 -475,-1069 -475,-378 -1350,-378 -293,0 -604,58 -311,58 -642,174 v 609 q 262,-153 574,-231 313,-78 654,-78 593,0 904,234 311,234 311,681 0,413 -289,645 -289,233 -804,233 h -544 v 519 h 569 q 465,0 712,186 247,186 247,536 0,359 -255,551 -254,193 -729,193 -260,0 -557,-57 -297,-56 -653,-174 v 562 q 360,100 674,150 314,50 592,50 719,0 1137,-327 419,-326 419,-882 0,-388 -222,-655 -222,-267 -631,-370 z"
   transform="scale(0.015625)" /><path
   id="DejaVuSans-28"
   d="M 628,4666 H 3578 V 4134 H 1259 V 2753 H 3481 V 2222 H 1259 V 531 H 3634 V 0 H 628 Z"
   transform="scale(0.015625)" /><path
   id="DejaVuSans-3"
   transform="scale(0.015625)"
   d="" /><path
   id="DejaVuSans-3e"
   d="M 550,4863 H 1875 V 4416 H 1125 V -397 h 750 V -844 H 550 Z"
   transform="scale(0.015625)" /><path
   id="DejaVuSans-2d"
   d="m 628,4666 h 631 V 325 q 0,-844 -320,-1225 -320,-381 -1030,-381 h -240 v 531 h 197 q 418,0 590,235 172,234 172,840 z"
   transform="scale(0.015625)" /><path
   id="DejaVuSans-40"
   d="M 1947,4863 V -844 H 622 v 447 h 747 V 4416 H 622 v 447 z"
   transform="scale(0.015625)" /><clipPath
   id="p46881f2798"><rect
     x="135"
     y="181.30499"
     width="728.19"
     height="728.19"
     id="rect8011" /></clipPath><style
   type="text/css"
   id="style9208">*{stroke-linejoin: round; stroke-linecap: butt}</style><path
   id="DejaVuSans-13-2"
   d="m 2034,4250 q -487,0 -733,-480 -245,-479 -245,-1442 0,-959 245,-1439 246,-480 733,-480 491,0 736,480 246,480 246,1439 0,963 -246,1442 -245,480 -736,480 z m 0,500 q 785,0 1199,-621 414,-620 414,-1801 0,-1178 -414,-1799 -414,-620 -1199,-620 -784,0 -1198,620 -414,621 -414,1799 0,1181 414,1801 414,621 1198,621 z"
   transform="scale(0.015625)" /><path
   id="DejaVuSans-11-3"
   d="m 684,794 h 660 V 0 H 684 Z"
   transform="scale(0.015625)" /><path
   id="DejaVuSans-19-75"
   d="m 2113,2584 q -425,0 -674,-291 -248,-290 -248,-796 0,-503 248,-796 249,-292 674,-292 425,0 673,292 248,293 248,796 0,506 -248,796 -248,291 -673,291 z m 1253,1979 v -575 q -238,112 -480,171 -242,60 -480,60 -625,0 -955,-422 -329,-422 -376,-1275 184,272 462,417 279,145 613,145 703,0 1111,-427 408,-426 408,-1160 0,-719 -425,-1154 -425,-434 -1131,-434 -810,0 -1238,620 -428,621 -428,1799 0,1106 525,1764 525,658 1409,658 238,0 480,-47 242,-47 505,-140 z"
   transform="scale(0.015625)" /><path
   id="DejaVuSans-1b-9"
   d="m 2034,2216 q -450,0 -708,-241 -257,-241 -257,-662 0,-422 257,-663 258,-241 708,-241 450,0 709,242 260,243 260,662 0,421 -258,662 -257,241 -711,241 z m -631,268 q -406,100 -633,378 -226,279 -226,679 0,559 398,884 399,325 1092,325 697,0 1094,-325 397,-325 397,-884 0,-400 -227,-679 -226,-278 -629,-378 456,-106 710,-416 255,-309 255,-755 Q 3634,634 3220,271 2806,-91 2034,-91 1263,-91 848,271 434,634 434,1313 q 0,446 256,755 257,310 713,416 z m -231,997 q 0,-362 226,-565 227,-203 636,-203 407,0 636,203 230,203 230,565 0,363 -230,566 -229,203 -636,203 -409,0 -636,-203 -226,-203 -226,-566 z"
   transform="scale(0.015625)" /><path
   id="DejaVuSans-14-2"
   d="M 794,531 H 1825 V 4091 L 703,3866 v 575 l 1116,225 h 631 V 531 H 3481 V 0 H 794 Z"
   transform="scale(0.015625)" /><path
   id="DejaVuSans-15-2"
   d="M 1228,531 H 3431 V 0 H 469 v 531 q 359,372 979,998 621,627 780,809 303,340 423,576 121,236 121,464 0,372 -261,606 -261,235 -680,235 -297,0 -627,-103 -329,-103 -704,-313 v 638 q 381,153 712,231 332,78 607,78 725,0 1156,-363 431,-362 431,-968 0,-288 -108,-546 -107,-257 -392,-607 -78,-91 -497,-524 Q 1991,1309 1228,531 Z"
   transform="scale(0.015625)" /><path
   id="DejaVuSans-17-8"
   d="M 2419,4116 825,1625 h 1594 z m -166,550 h 794 V 1625 h 666 V 1100 H 3047 V 0 H 2419 V 1100 H 313 v 609 z"
   transform="scale(0.015625)" /><path
   id="DejaVuSans-Oblique-5c-9"
   d="m 1588,-325 q -400,-672 -652,-839 -252,-167 -642,-167 h -453 l 96,481 h 332 q 240,0 409,131 169,131 378,513 l 178,334 -775,3372 h 610 L 1650,819 3256,3500 h 603 z"
   transform="scale(0.015625)" /><path
   id="DejaVuSans-c9c-7"
   d="M 678,2272 H 4684 V 1741 H 678 Z"
   transform="scale(0.015625)" /><path
   id="DejaVuSans-Oblique-34c-3"
   d="M 2913,2219 H 925 q -134,-935 3,-1331 172,-488 638,-488 468,0 825,491 312,431 522,1328 z m 96,531 q 85,888 -25,1200 -171,494 -631,494 -478,0 -828,-488 -275,-393 -491,-1206 z m -565,2163 q 750,0 1050,-663 300,-659 72,-1828 Q 3341,1256 2781,594 2225,-72 1475,-72 722,-72 425,594 q -297,662 -72,1828 228,1169 781,1828 557,663 1310,663 z"
   transform="scale(0.015625)" /><path
   id="DejaVuSans-2b8-6"
   d="m -1894,4863 h 575 v -729 h -575 z m 294,-1279 z"
   transform="scale(0.015625)" /><path
   id="DejaVuSans-Oblique-5b-1"
   d="M 3841,3500 2234,1784 3219,0 H 2559 L 1819,1388 531,0 H -166 L 1556,1844 641,3500 h 659 l 672,-1266 1172,1266 z"
   transform="scale(0.015625)" /><path
   id="m0ee6d02174"
   d="M 0,0 H 3.5"
   style="stroke:#000000;stroke-width:0.8;stroke-opacity:1" /><path
   id="DejaVuSans-16-29"
   d="m 2597,2516 q 453,-97 707,-404 255,-306 255,-756 0,-690 -475,-1069 -475,-378 -1350,-378 -293,0 -604,58 -311,58 -642,174 v 609 q 262,-153 574,-231 313,-78 654,-78 593,0 904,234 311,234 311,681 0,413 -289,645 -289,233 -804,233 h -544 v 519 h 569 q 465,0 712,186 247,186 247,536 0,359 -255,551 -254,193 -729,193 -260,0 -557,-57 -297,-56 -653,-174 v 562 q 360,100 674,150 314,50 592,50 719,0 1137,-327 419,-326 419,-882 0,-388 -222,-655 -222,-267 -631,-370 z"
   transform="scale(0.015625)" /><path
   id="DejaVuSans-28-3"
   d="M 628,4666 H 3578 V 4134 H 1259 V 2753 H 3481 V 2222 H 1259 V 531 H 3634 V 0 H 628 Z"
   transform="scale(0.015625)" /><path
   id="DejaVuSans-3-1"
   transform="scale(0.015625)"
   d="" /><path
   id="DejaVuSans-3e-9"
   d="M 550,4863 H 1875 V 4416 H 1125 V -397 h 750 V -844 H 550 Z"
   transform="scale(0.015625)" /><path
   id="DejaVuSans-2d-4"
   d="m 628,4666 h 631 V 325 q 0,-844 -320,-1225 -320,-381 -1030,-381 h -240 v 531 h 197 q 418,0 590,235 172,234 172,840 z"
   transform="scale(0.015625)" /><path
   id="DejaVuSans-40-7"
   d="M 1947,4863 V -844 H 622 v 447 h 747 V 4416 H 622 v 447 z"
   transform="scale(0.015625)" /><clipPath
   id="p9cac8896e2"><rect
     x="135"
     y="181.30499"
     width="728.19"
     height="728.19"
     id="rect9864" /></clipPath><style
   type="text/css"
   id="style4">*{stroke-linejoin: round; stroke-linecap: butt}</style><clipPath
   id="p4c2f34109d-3"><rect
     x="91.800003"
     y="86.400002"
     width="554.40002"
     height="554.40002"
     id="rect230-6" /></clipPath><clipPath
   id="clipPath2504"><rect
     x="91.800003"
     y="86.400002"
     width="554.40002"
     height="554.40002"
     id="rect2502" /></clipPath><clipPath
   id="clipPath2508"><rect
     x="91.800003"
     y="86.400002"
     width="554.40002"
     height="554.40002"
     id="rect2506" /></clipPath><clipPath
   id="clipPath2512"><rect
     x="91.800003"
     y="86.400002"
     width="554.40002"
     height="554.40002"
     id="rect2510" /></clipPath><clipPath
   id="clipPath2516"><rect
     x="91.800003"
     y="86.400002"
     width="554.40002"
     height="554.40002"
     id="rect2514" /></clipPath><clipPath
   id="clipPath2520"><rect
     x="91.800003"
     y="86.400002"
     width="554.40002"
     height="554.40002"
     id="rect2518" /></clipPath><clipPath
   id="clipPath2524"><rect
     x="91.800003"
     y="86.400002"
     width="554.40002"
     height="554.40002"
     id="rect2522" /></clipPath><clipPath
   id="clipPath2528"><rect
     x="91.800003"
     y="86.400002"
     width="554.40002"
     height="554.40002"
     id="rect2526" /></clipPath><clipPath
   id="clipPath2532"><rect
     x="91.800003"
     y="86.400002"
     width="554.40002"
     height="554.40002"
     id="rect2530" /></clipPath><clipPath
   id="clipPath2536"><rect
     x="91.800003"
     y="86.400002"
     width="554.40002"
     height="554.40002"
     id="rect2534" /></clipPath><clipPath
   id="clipPath2540"><rect
     x="91.800003"
     y="86.400002"
     width="554.40002"
     height="554.40002"
     id="rect2538" /></clipPath><clipPath
   id="clipPath2544"><rect
     x="91.800003"
     y="86.400002"
     width="554.40002"
     height="554.40002"
     id="rect2542" /></clipPath><clipPath
   id="clipPath2548"><rect
     x="91.800003"
     y="86.400002"
     width="554.40002"
     height="554.40002"
     id="rect2546" /></clipPath><clipPath
   id="clipPath2552"><rect
     x="91.800003"
     y="86.400002"
     width="554.40002"
     height="554.40002"
     id="rect2550" /></clipPath><clipPath
   id="clipPath2556"><rect
     x="91.800003"
     y="86.400002"
     width="554.40002"
     height="554.40002"
     id="rect2554" /></clipPath><clipPath
   id="clipPath2560"><rect
     x="91.800003"
     y="86.400002"
     width="554.40002"
     height="554.40002"
     id="rect2558" /></clipPath><clipPath
   id="clipPath2564"><rect
     x="91.800003"
     y="86.400002"
     width="554.40002"
     height="554.40002"
     id="rect2562" /></clipPath><clipPath
   id="clipPath2568"><rect
     x="91.800003"
     y="86.400002"
     width="554.40002"
     height="554.40002"
     id="rect2566" /></clipPath><clipPath
   id="clipPath2572"><rect
     x="91.800003"
     y="86.400002"
     width="554.40002"
     height="554.40002"
     id="rect2570" /></clipPath><clipPath
   id="clipPath2576"><rect
     x="91.800003"
     y="86.400002"
     width="554.40002"
     height="554.40002"
     id="rect2574" /></clipPath><clipPath
   id="clipPath2580"><rect
     x="91.800003"
     y="86.400002"
     width="554.40002"
     height="554.40002"
     id="rect2578" /></clipPath><clipPath
   id="clipPath2584"><rect
     x="91.800003"
     y="86.400002"
     width="554.40002"
     height="554.40002"
     id="rect2582" /></clipPath><clipPath
   id="clipPath2588"><rect
     x="91.800003"
     y="86.400002"
     width="554.40002"
     height="554.40002"
     id="rect2586" /></clipPath><clipPath
   id="clipPath2592"><rect
     x="91.800003"
     y="86.400002"
     width="554.40002"
     height="554.40002"
     id="rect2590" /></clipPath><clipPath
   id="clipPath2596"><rect
     x="91.800003"
     y="86.400002"
     width="554.40002"
     height="554.40002"
     id="rect2594" /></clipPath><clipPath
   id="clipPath2600"><rect
     x="91.800003"
     y="86.400002"
     width="554.40002"
     height="554.40002"
     id="rect2598" /></clipPath><clipPath
   id="clipPath2604"><rect
     x="91.800003"
     y="86.400002"
     width="554.40002"
     height="554.40002"
     id="rect2602" /></clipPath><clipPath
   id="clipPath2608"><rect
     x="91.800003"
     y="86.400002"
     width="554.40002"
     height="554.40002"
     id="rect2606" /></clipPath><clipPath
   id="clipPath2612"><rect
     x="91.800003"
     y="86.400002"
     width="554.40002"
     height="554.40002"
     id="rect2610" /></clipPath><clipPath
   id="clipPath2616"><rect
     x="91.800003"
     y="86.400002"
     width="554.40002"
     height="554.40002"
     id="rect2614" /></clipPath><clipPath
   id="clipPath2620"><rect
     x="91.800003"
     y="86.400002"
     width="554.40002"
     height="554.40002"
     id="rect2618" /></clipPath><clipPath
   id="clipPath2624"><rect
     x="91.800003"
     y="86.400002"
     width="554.40002"
     height="554.40002"
     id="rect2622" /></clipPath><clipPath
   id="clipPath2628"><rect
     x="91.800003"
     y="86.400002"
     width="554.40002"
     height="554.40002"
     id="rect2626" /></clipPath><clipPath
   id="clipPath2632"><rect
     x="91.800003"
     y="86.400002"
     width="554.40002"
     height="554.40002"
     id="rect2630" /></clipPath><clipPath
   id="clipPath2636"><rect
     x="91.800003"
     y="86.400002"
     width="554.40002"
     height="554.40002"
     id="rect2634" /></clipPath><clipPath
   id="clipPath2640"><rect
     x="91.800003"
     y="86.400002"
     width="554.40002"
     height="554.40002"
     id="rect2638" /></clipPath><clipPath
   id="clipPath2644"><rect
     x="91.800003"
     y="86.400002"
     width="554.40002"
     height="554.40002"
     id="rect2642" /></clipPath><clipPath
   id="clipPath2648"><rect
     x="91.800003"
     y="86.400002"
     width="554.40002"
     height="554.40002"
     id="rect2646" /></clipPath><clipPath
   id="clipPath2652"><rect
     x="91.800003"
     y="86.400002"
     width="554.40002"
     height="554.40002"
     id="rect2650" /></clipPath><clipPath
   id="clipPath2656"><rect
     x="91.800003"
     y="86.400002"
     width="554.40002"
     height="554.40002"
     id="rect2654" /></clipPath><clipPath
   id="clipPath2660"><rect
     x="91.800003"
     y="86.400002"
     width="554.40002"
     height="554.40002"
     id="rect2658" /></clipPath><clipPath
   id="clipPath2664"><rect
     x="91.800003"
     y="86.400002"
     width="554.40002"
     height="554.40002"
     id="rect2662" /></clipPath><clipPath
   id="clipPath2668"><rect
     x="91.800003"
     y="86.400002"
     width="554.40002"
     height="554.40002"
     id="rect2666" /></clipPath><clipPath
   id="clipPath2672"><rect
     x="91.800003"
     y="86.400002"
     width="554.40002"
     height="554.40002"
     id="rect2670" /></clipPath><clipPath
   id="clipPath2676"><rect
     x="91.800003"
     y="86.400002"
     width="554.40002"
     height="554.40002"
     id="rect2674" /></clipPath><clipPath
   id="clipPath2680"><rect
     x="91.800003"
     y="86.400002"
     width="554.40002"
     height="554.40002"
     id="rect2678" /></clipPath><clipPath
   id="clipPath2684"><rect
     x="91.800003"
     y="86.400002"
     width="554.40002"
     height="554.40002"
     id="rect2682" /></clipPath><clipPath
   id="clipPath2688"><rect
     x="91.800003"
     y="86.400002"
     width="554.40002"
     height="554.40002"
     id="rect2686" /></clipPath><clipPath
   id="clipPath2692"><rect
     x="91.800003"
     y="86.400002"
     width="554.40002"
     height="554.40002"
     id="rect2690" /></clipPath><clipPath
   id="clipPath2696"><rect
     x="91.800003"
     y="86.400002"
     width="554.40002"
     height="554.40002"
     id="rect2694" /></clipPath><clipPath
   id="clipPath2700"><rect
     x="91.800003"
     y="86.400002"
     width="554.40002"
     height="554.40002"
     id="rect2698" /></clipPath><clipPath
   id="clipPath2704"><rect
     x="91.800003"
     y="86.400002"
     width="554.40002"
     height="554.40002"
     id="rect2702" /></clipPath><clipPath
   id="clipPath2708"><rect
     x="91.800003"
     y="86.400002"
     width="554.40002"
     height="554.40002"
     id="rect2706" /></clipPath><clipPath
   id="clipPath2712"><rect
     x="91.800003"
     y="86.400002"
     width="554.40002"
     height="554.40002"
     id="rect2710" /></clipPath><clipPath
   id="clipPath2716"><rect
     x="91.800003"
     y="86.400002"
     width="554.40002"
     height="554.40002"
     id="rect2714" /></clipPath><clipPath
   id="clipPath2720"><rect
     x="91.800003"
     y="86.400002"
     width="554.40002"
     height="554.40002"
     id="rect2718" /></clipPath><clipPath
   id="clipPath2724"><rect
     x="91.800003"
     y="86.400002"
     width="554.40002"
     height="554.40002"
     id="rect2722" /></clipPath><clipPath
   id="clipPath2728"><rect
     x="91.800003"
     y="86.400002"
     width="554.40002"
     height="554.40002"
     id="rect2726" /></clipPath><clipPath
   id="clipPath2732"><rect
     x="91.800003"
     y="86.400002"
     width="554.40002"
     height="554.40002"
     id="rect2730" /></clipPath><clipPath
   id="clipPath2736"><rect
     x="91.800003"
     y="86.400002"
     width="554.40002"
     height="554.40002"
     id="rect2734" /></clipPath><clipPath
   id="clipPath2740"><rect
     x="91.800003"
     y="86.400002"
     width="554.40002"
     height="554.40002"
     id="rect2738" /></clipPath><clipPath
   id="clipPath2744"><rect
     x="91.800003"
     y="86.400002"
     width="554.40002"
     height="554.40002"
     id="rect2742" /></clipPath><clipPath
   id="clipPath2748"><rect
     x="91.800003"
     y="86.400002"
     width="554.40002"
     height="554.40002"
     id="rect2746" /></clipPath><clipPath
   id="clipPath2752"><rect
     x="91.800003"
     y="86.400002"
     width="554.40002"
     height="554.40002"
     id="rect2750" /></clipPath><clipPath
   id="clipPath2756"><rect
     x="91.800003"
     y="86.400002"
     width="554.40002"
     height="554.40002"
     id="rect2754" /></clipPath><clipPath
   id="clipPath2760"><rect
     x="91.800003"
     y="86.400002"
     width="554.40002"
     height="554.40002"
     id="rect2758" /></clipPath><clipPath
   id="clipPath2764"><rect
     x="91.800003"
     y="86.400002"
     width="554.40002"
     height="554.40002"
     id="rect2762" /></clipPath><clipPath
   id="clipPath2768"><rect
     x="91.800003"
     y="86.400002"
     width="554.40002"
     height="554.40002"
     id="rect2766" /></clipPath><clipPath
   id="clipPath2772"><rect
     x="91.800003"
     y="86.400002"
     width="554.40002"
     height="554.40002"
     id="rect2770" /></clipPath><clipPath
   id="clipPath2776"><rect
     x="91.800003"
     y="86.400002"
     width="554.40002"
     height="554.40002"
     id="rect2774" /></clipPath><clipPath
   id="p4c2f34109d-0"><rect
     x="91.800003"
     y="86.400002"
     width="554.40002"
     height="554.40002"
     id="rect230-8" /></clipPath><clipPath
   id="clipPath2224"><path
     clip-rule="nonzero"
     d="m 52,0 h 4 v 17.1875 h -4 z m 0,0"
     id="path4431" /></clipPath><clipPath
   id="clipPath1669"><path
     clip-rule="nonzero"
     d="m 73,0 h 4 v 17.1875 h -4 z m 0,0"
     id="path8102" /></clipPath><clipPath
   id="clipPath3743"><path
     clip-rule="nonzero"
     d="m 20,12 h 7 v 8.835938 h -7 z m 0,0"
     id="path9849" /></clipPath><clipPath
   id="clipPath349"><path
     clip-rule="nonzero"
     d="m 26,15 h 7 v 5.835938 h -7 z m 0,0"
     id="path6642" /></clipPath><clipPath
   id="clipPath7965"><path
     clip-rule="nonzero"
     d="m 40,16 h 6 v 4.835938 h -6 z m 0,0"
     id="path474" /></clipPath><clipPath
   id="clipPath5880"><path
     clip-rule="nonzero"
     d="m 47,12 h 6 v 8.835938 h -6 z m 0,0"
     id="path8517" /></clipPath><clipPath
   id="clipPath2436"><path
     clip-rule="nonzero"
     d="m 53,15 h 6 v 5.835938 h -6 z m 0,0"
     id="path9751" /></clipPath><clipPath
   id="clipPath6901"><path
     clip-rule="nonzero"
     d="m 67,16 h 6 v 4.835938 h -6 z m 0,0"
     id="path4951" /></clipPath><clipPath
   id="clipPath5410"><path
     clip-rule="nonzero"
     d="m 46,0 h 7 v 28.691406 h -7 z m 0,0"
     id="path8320" /></clipPath><clipPath
   id="clipPath4042"><path
     clip-rule="nonzero"
     d="m 121,0 h 7 v 28.691406 h -7 z m 0,0"
     id="path1195" /></clipPath><clipPath
   id="clipPath8747"><path
     clip-rule="nonzero"
     d="m 46,0 h 7 v 28.691406 h -7 z m 0,0"
     id="path3436" /></clipPath><clipPath
   id="clipPath660"><path
     clip-rule="nonzero"
     d="m 115,0 h 7 v 28.691406 h -7 z m 0,0"
     id="path5231" /></clipPath><clipPath
   id="clipPath7073"><path
     clip-rule="nonzero"
     d="m 36,0 h 7 v 17.613281 h -7 z m 0,0"
     id="path6724" /></clipPath><clipPath
   id="clipPath7651"><path
     clip-rule="nonzero"
     d="m 88,0 h 16 V 17.613281 H 88 Z m 0,0"
     id="path7400" /></clipPath><clipPath
   id="clipPath2878"><path
     clip-rule="nonzero"
     d="m 114,10 h 6 v 7.613281 h -6 z m 0,0"
     id="path9971" /></clipPath><clipPath
   id="clipPath3491"><path
     clip-rule="nonzero"
     d="m 151,0 h 7 v 17.613281 h -7 z m 0,0"
     id="path2239" /></clipPath><clipPath
   id="clipPath2012"><path
     clip-rule="nonzero"
     d="m 34,0 h 8 v 17.613281 h -8 z m 0,0"
     id="path7760" /></clipPath><clipPath
   id="clipPath9624"><path
     clip-rule="nonzero"
     d="m 87,0 h 15 V 17.613281 H 87 Z m 0,0"
     id="path4593" /></clipPath><clipPath
   id="clipPath8586"><path
     clip-rule="nonzero"
     d="m 112,10 h 6 v 7.613281 h -6 z m 0,0"
     id="path2754" /></clipPath><clipPath
   id="clipPath2410"><path
     clip-rule="nonzero"
     d="m 149,0 h 7 v 17.613281 h -7 z m 0,0"
     id="path5732" /></clipPath><clipPath
   id="clipPath3469"><path
     clip-rule="nonzero"
     d="m 34,0 h 8 v 17.613281 h -8 z m 0,0"
     id="path3201" /></clipPath><clipPath
   id="clipPath2641"><path
     clip-rule="nonzero"
     d="m 106,0 h 1 v 17.613281 h -1 z m 0,0"
     id="path1993" /></clipPath><clipPath
   id="clipPath92"><path
     clip-rule="nonzero"
     d="m 122,10 h 6 v 7.613281 h -6 z m 0,0"
     id="path9609" /></clipPath><clipPath
   id="clipPath5964"><path
     clip-rule="nonzero"
     d="m 159,0 h 7 v 17.613281 h -7 z m 0,0"
     id="path860" /></clipPath><clipPath
   id="clipPath9953"><path
     clip-rule="nonzero"
     d="m 97,0 h 5 v 17.1875 h -5 z m 0,0"
     id="path7105" /></clipPath><clipPath
   id="clipPath4241"><path
     clip-rule="nonzero"
     d="m 118,0 h 5 v 17.1875 h -5 z m 0,0"
     id="path7466" /></clipPath><clipPath
   id="clipPath1694"><path
     clip-rule="nonzero"
     d="m 157,0 h 5 v 17.1875 h -5 z m 0,0"
     id="path9428" /></clipPath><clipPath
   id="clipPath7461"><path
     clip-rule="nonzero"
     d="m 176,0 h 5 v 17.1875 h -5 z m 0,0"
     id="path3339" /></clipPath><clipPath
   id="clipPath8963"><path
     clip-rule="nonzero"
     d="m 197,0 h 11 v 17.1875 h -11 z m 0,0"
     id="path138" /></clipPath><clipPath
   id="clipPath3901"><path
     clip-rule="nonzero"
     d="m 11,0 h 4 v 17.1875 h -4 z m 0,0"
     id="path1971" /></clipPath><clipPath
   id="clipPath1660"><path
     clip-rule="nonzero"
     d="m 30,0 h 4 v 17.1875 h -4 z m 0,0"
     id="path2280" /></clipPath><clipPath
   id="clipPath2785"><path
     clip-rule="nonzero"
     d="m 52,0 h 4 v 17.1875 h -4 z m 0,0"
     id="path9691" /></clipPath><clipPath
   id="clipPath993"><path
     clip-rule="nonzero"
     d="m 73,0 h 4 v 17.1875 h -4 z m 0,0"
     id="path1382" /></clipPath><clipPath
   id="clipPath5003"><path
     clip-rule="nonzero"
     d="m 111,0 h 5 v 17.1875 h -5 z m 0,0"
     id="path2299" /></clipPath><clipPath
   id="clipPath8436"><path
     clip-rule="nonzero"
     d="m 130,0 h 5 v 17.1875 h -5 z m 0,0"
     id="path5701" /></clipPath><clipPath
   clipPathUnits="userSpaceOnUse"
   id="clipPath99160"><rect
     style="fill:#bc6c25;fill-opacity:0.616163;fill-rule:nonzero;stroke:none;stroke-width:0.661687;stroke-linecap:round;stroke-linejoin:round;stroke-dasharray:none;stroke-opacity:1;paint-order:markers fill stroke"
     id="rect99162"
     width="278.3909"
     height="56.956818"
     x="311.33133"
     y="-25.398895" /></clipPath><clipPath
   clipPathUnits="userSpaceOnUse"
   id="clipPath99160-6"><rect
     style="fill:#bc6c25;fill-opacity:0.616163;fill-rule:nonzero;stroke:none;stroke-width:0.661687;stroke-linecap:round;stroke-linejoin:round;stroke-dasharray:none;stroke-opacity:1;paint-order:markers fill stroke"
     id="rect99162-3"
     width="278.3909"
     height="56.956818"
     x="311.33133"
     y="-25.398895" /></clipPath><clipPath
   clipPathUnits="userSpaceOnUse"
   id="clipPath99160-61"><rect
     style="fill:#bc6c25;fill-opacity:0.616163;fill-rule:nonzero;stroke:none;stroke-width:0.661687;stroke-linecap:round;stroke-linejoin:round;stroke-dasharray:none;stroke-opacity:1;paint-order:markers fill stroke"
     id="rect99162-1"
     width="278.3909"
     height="56.956818"
     x="311.33133"
     y="-25.398895" /></clipPath><clipPath
   id="clipPath2831"><path
     clip-rule="nonzero"
     d="m 45,18 h 1 v 11.238281 h -1 z m 0,0"
     id="path6344" /></clipPath><clipPath
   id="clipPath2197"><path
     clip-rule="nonzero"
     d="m 48,24 h 6 v 5.238281 h -6 z m 0,0"
     id="path2" /></clipPath><clipPath
   id="clipPath4513"><path
     clip-rule="nonzero"
     d="m 130,7 h 7.76953 V 19 H 130 Z m 0,0"
     id="path1501" /></clipPath><clipPath
   id="clipPath9981"><path
     clip-rule="nonzero"
     d="M 0,0 H 8 V 7.410156 H 0 Z m 0,0"
     id="path5217" /></clipPath><clipPath
   clipPathUnits="userSpaceOnUse"
   id="clipPath99160-61-3"><rect
     style="fill:#bc6c25;fill-opacity:0.616163;fill-rule:nonzero;stroke:none;stroke-width:0.661687;stroke-linecap:round;stroke-linejoin:round;stroke-dasharray:none;stroke-opacity:1;paint-order:markers fill stroke"
     id="rect99162-1-1"
     width="278.3909"
     height="56.956818"
     x="311.33133"
     y="-25.398895" /></clipPath><clipPath
   id="p4c2f34109d"><rect
     x="91.800003"
     y="86.400002"
     width="554.40002"
     height="554.40002"
     id="rect230" /></clipPath><clipPath
   id="clipPath3399">
      <path
   clip-rule="nonzero"
   d="m 10,2 h 6 v 7.996094 h -6 z m 0,0"
   id="path750" />
    </clipPath>
  <clipPath
   id="clipPath1624">
      <path
   clip-rule="nonzero"
   d="m 10,2 h 6 v 8.902344 h -6 z m 0,0"
   id="path4641" />
    </clipPath>
    <clipPath
   id="clipPath228">
      <path
   clip-rule="nonzero"
   d="m 16,2 h 13 v 8.902344 H 16 Z m 0,0"
   id="path5347" />
    </clipPath>
  <clipPath
   id="clipPath5793">
      <path
   clip-rule="nonzero"
   d="m 66,0 h 5 v 17.1875 h -5 z m 0,0"
   id="path5481" />
    </clipPath>
    <clipPath
   id="clipPath2175">
      <path
   clip-rule="nonzero"
   d="m 88,0 h 4 v 17.1875 h -4 z m 0,0"
   id="path4011" />
    </clipPath>
  <clipPath
   id="p4c2f34109d-36"><rect
     x="91.800003"
     y="86.400002"
     width="554.40002"
     height="554.40002"
     id="rect230-7" /></clipPath><clipPath
   id="clipPath55269"><rect
     x="91.800003"
     y="86.400002"
     width="554.40002"
     height="554.40002"
     id="rect55267" /></clipPath><clipPath
   id="clipPath55273"><rect
     x="91.800003"
     y="86.400002"
     width="554.40002"
     height="554.40002"
     id="rect55271" /></clipPath><clipPath
   id="clipPath55277"><rect
     x="91.800003"
     y="86.400002"
     width="554.40002"
     height="554.40002"
     id="rect55275" /></clipPath><clipPath
   id="clipPath55281"><rect
     x="91.800003"
     y="86.400002"
     width="554.40002"
     height="554.40002"
     id="rect55279" /></clipPath><clipPath
   id="clipPath55285"><rect
     x="91.800003"
     y="86.400002"
     width="554.40002"
     height="554.40002"
     id="rect55283" /></clipPath><clipPath
   id="clipPath55289"><rect
     x="91.800003"
     y="86.400002"
     width="554.40002"
     height="554.40002"
     id="rect55287" /></clipPath><clipPath
   id="clipPath55293"><rect
     x="91.800003"
     y="86.400002"
     width="554.40002"
     height="554.40002"
     id="rect55291" /></clipPath><clipPath
   id="clipPath55297"><rect
     x="91.800003"
     y="86.400002"
     width="554.40002"
     height="554.40002"
     id="rect55295" /></clipPath><clipPath
   id="clipPath55301"><rect
     x="91.800003"
     y="86.400002"
     width="554.40002"
     height="554.40002"
     id="rect55299" /></clipPath><clipPath
   id="clipPath55305"><rect
     x="91.800003"
     y="86.400002"
     width="554.40002"
     height="554.40002"
     id="rect55303" /></clipPath><clipPath
   id="clipPath55309"><rect
     x="91.800003"
     y="86.400002"
     width="554.40002"
     height="554.40002"
     id="rect55307" /></clipPath><clipPath
   id="clipPath55313"><rect
     x="91.800003"
     y="86.400002"
     width="554.40002"
     height="554.40002"
     id="rect55311" /></clipPath><clipPath
   id="clipPath55317"><rect
     x="91.800003"
     y="86.400002"
     width="554.40002"
     height="554.40002"
     id="rect55315" /></clipPath><clipPath
   id="clipPath55321"><rect
     x="91.800003"
     y="86.400002"
     width="554.40002"
     height="554.40002"
     id="rect55319" /></clipPath><clipPath
   id="clipPath55325"><rect
     x="91.800003"
     y="86.400002"
     width="554.40002"
     height="554.40002"
     id="rect55323" /></clipPath><clipPath
   id="clipPath55329"><rect
     x="91.800003"
     y="86.400002"
     width="554.40002"
     height="554.40002"
     id="rect55327" /></clipPath><clipPath
   id="clipPath55333"><rect
     x="91.800003"
     y="86.400002"
     width="554.40002"
     height="554.40002"
     id="rect55331" /></clipPath><clipPath
   id="clipPath55337"><rect
     x="91.800003"
     y="86.400002"
     width="554.40002"
     height="554.40002"
     id="rect55335" /></clipPath><clipPath
   id="clipPath55341"><rect
     x="91.800003"
     y="86.400002"
     width="554.40002"
     height="554.40002"
     id="rect55339" /></clipPath><clipPath
   id="clipPath55345"><rect
     x="91.800003"
     y="86.400002"
     width="554.40002"
     height="554.40002"
     id="rect55343" /></clipPath><clipPath
   id="clipPath55349"><rect
     x="91.800003"
     y="86.400002"
     width="554.40002"
     height="554.40002"
     id="rect55347" /></clipPath><clipPath
   id="clipPath55353"><rect
     x="91.800003"
     y="86.400002"
     width="554.40002"
     height="554.40002"
     id="rect55351" /></clipPath><clipPath
   id="clipPath55357"><rect
     x="91.800003"
     y="86.400002"
     width="554.40002"
     height="554.40002"
     id="rect55355" /></clipPath><clipPath
   id="clipPath55361"><rect
     x="91.800003"
     y="86.400002"
     width="554.40002"
     height="554.40002"
     id="rect55359" /></clipPath><clipPath
   id="clipPath55365"><rect
     x="91.800003"
     y="86.400002"
     width="554.40002"
     height="554.40002"
     id="rect55363" /></clipPath><clipPath
   id="clipPath55369"><rect
     x="91.800003"
     y="86.400002"
     width="554.40002"
     height="554.40002"
     id="rect55367" /></clipPath><clipPath
   id="clipPath55373"><rect
     x="91.800003"
     y="86.400002"
     width="554.40002"
     height="554.40002"
     id="rect55371" /></clipPath><clipPath
   id="clipPath55377"><rect
     x="91.800003"
     y="86.400002"
     width="554.40002"
     height="554.40002"
     id="rect55375" /></clipPath><clipPath
   id="clipPath55381"><rect
     x="91.800003"
     y="86.400002"
     width="554.40002"
     height="554.40002"
     id="rect55379" /></clipPath><clipPath
   id="clipPath55385"><rect
     x="91.800003"
     y="86.400002"
     width="554.40002"
     height="554.40002"
     id="rect55383" /></clipPath><clipPath
   id="clipPath55389"><rect
     x="91.800003"
     y="86.400002"
     width="554.40002"
     height="554.40002"
     id="rect55387" /></clipPath><clipPath
   id="clipPath55393"><rect
     x="91.800003"
     y="86.400002"
     width="554.40002"
     height="554.40002"
     id="rect55391" /></clipPath><clipPath
   id="clipPath55397"><rect
     x="91.800003"
     y="86.400002"
     width="554.40002"
     height="554.40002"
     id="rect55395" /></clipPath><clipPath
   id="clipPath55401"><rect
     x="91.800003"
     y="86.400002"
     width="554.40002"
     height="554.40002"
     id="rect55399" /></clipPath><clipPath
   id="clipPath55405"><rect
     x="91.800003"
     y="86.400002"
     width="554.40002"
     height="554.40002"
     id="rect55403" /></clipPath><clipPath
   id="clipPath55409"><rect
     x="91.800003"
     y="86.400002"
     width="554.40002"
     height="554.40002"
     id="rect55407" /></clipPath><clipPath
   id="clipPath55413"><rect
     x="91.800003"
     y="86.400002"
     width="554.40002"
     height="554.40002"
     id="rect55411" /></clipPath><clipPath
   id="clipPath55417"><rect
     x="91.800003"
     y="86.400002"
     width="554.40002"
     height="554.40002"
     id="rect55415" /></clipPath><clipPath
   id="clipPath55421"><rect
     x="91.800003"
     y="86.400002"
     width="554.40002"
     height="554.40002"
     id="rect55419" /></clipPath><clipPath
   id="clipPath55425"><rect
     x="91.800003"
     y="86.400002"
     width="554.40002"
     height="554.40002"
     id="rect55423" /></clipPath><clipPath
   id="clipPath55429"><rect
     x="91.800003"
     y="86.400002"
     width="554.40002"
     height="554.40002"
     id="rect55427" /></clipPath><clipPath
   id="clipPath55433"><rect
     x="91.800003"
     y="86.400002"
     width="554.40002"
     height="554.40002"
     id="rect55431" /></clipPath><clipPath
   id="clipPath55437"><rect
     x="91.800003"
     y="86.400002"
     width="554.40002"
     height="554.40002"
     id="rect55435" /></clipPath><clipPath
   id="clipPath55441"><rect
     x="91.800003"
     y="86.400002"
     width="554.40002"
     height="554.40002"
     id="rect55439" /></clipPath><clipPath
   id="clipPath55445"><rect
     x="91.800003"
     y="86.400002"
     width="554.40002"
     height="554.40002"
     id="rect55443" /></clipPath><clipPath
   id="clipPath55449"><rect
     x="91.800003"
     y="86.400002"
     width="554.40002"
     height="554.40002"
     id="rect55447" /></clipPath><clipPath
   id="clipPath55453"><rect
     x="91.800003"
     y="86.400002"
     width="554.40002"
     height="554.40002"
     id="rect55451" /></clipPath><clipPath
   id="clipPath55457"><rect
     x="91.800003"
     y="86.400002"
     width="554.40002"
     height="554.40002"
     id="rect55455" /></clipPath><clipPath
   id="clipPath55461"><rect
     x="91.800003"
     y="86.400002"
     width="554.40002"
     height="554.40002"
     id="rect55459" /></clipPath><clipPath
   id="clipPath55465"><rect
     x="91.800003"
     y="86.400002"
     width="554.40002"
     height="554.40002"
     id="rect55463" /></clipPath><clipPath
   id="clipPath55469"><rect
     x="91.800003"
     y="86.400002"
     width="554.40002"
     height="554.40002"
     id="rect55467" /></clipPath><clipPath
   id="clipPath55473"><rect
     x="91.800003"
     y="86.400002"
     width="554.40002"
     height="554.40002"
     id="rect55471" /></clipPath><clipPath
   id="clipPath55477"><rect
     x="91.800003"
     y="86.400002"
     width="554.40002"
     height="554.40002"
     id="rect55475" /></clipPath><clipPath
   id="clipPath55481"><rect
     x="91.800003"
     y="86.400002"
     width="554.40002"
     height="554.40002"
     id="rect55479" /></clipPath><clipPath
   id="clipPath55485"><rect
     x="91.800003"
     y="86.400002"
     width="554.40002"
     height="554.40002"
     id="rect55483" /></clipPath><clipPath
   id="clipPath55489"><rect
     x="91.800003"
     y="86.400002"
     width="554.40002"
     height="554.40002"
     id="rect55487" /></clipPath><clipPath
   id="clipPath55493"><rect
     x="91.800003"
     y="86.400002"
     width="554.40002"
     height="554.40002"
     id="rect55491" /></clipPath><clipPath
   id="clipPath55497"><rect
     x="91.800003"
     y="86.400002"
     width="554.40002"
     height="554.40002"
     id="rect55495" /></clipPath><clipPath
   id="clipPath55501"><rect
     x="91.800003"
     y="86.400002"
     width="554.40002"
     height="554.40002"
     id="rect55499" /></clipPath><clipPath
   id="clipPath55505"><rect
     x="91.800003"
     y="86.400002"
     width="554.40002"
     height="554.40002"
     id="rect55503" /></clipPath><clipPath
   id="clipPath55509"><rect
     x="91.800003"
     y="86.400002"
     width="554.40002"
     height="554.40002"
     id="rect55507" /></clipPath><clipPath
   id="clipPath55513"><rect
     x="91.800003"
     y="86.400002"
     width="554.40002"
     height="554.40002"
     id="rect55511" /></clipPath><clipPath
   id="clipPath55517"><rect
     x="91.800003"
     y="86.400002"
     width="554.40002"
     height="554.40002"
     id="rect55515" /></clipPath><clipPath
   id="clipPath55521"><rect
     x="91.800003"
     y="86.400002"
     width="554.40002"
     height="554.40002"
     id="rect55519" /></clipPath><clipPath
   id="clipPath55525"><rect
     x="91.800003"
     y="86.400002"
     width="554.40002"
     height="554.40002"
     id="rect55523" /></clipPath><clipPath
   id="clipPath55529"><rect
     x="91.800003"
     y="86.400002"
     width="554.40002"
     height="554.40002"
     id="rect55527" /></clipPath><clipPath
   id="clipPath55533"><rect
     x="91.800003"
     y="86.400002"
     width="554.40002"
     height="554.40002"
     id="rect55531" /></clipPath><clipPath
   id="clipPath90">
      <path
   clip-rule="nonzero"
   d="m 52,0 h 4 v 17.1875 h -4 z m 0,0"
   id="path9025" />
    </clipPath>
    <clipPath
   id="clipPath707">
      <path
   clip-rule="nonzero"
   d="m 73,0 h 4 v 17.1875 h -4 z m 0,0"
   id="path3156" />
    </clipPath>
  <clipPath
   id="clipPath7552">
      <path
   clip-rule="nonzero"
   d="m 34,0 h 8 v 17.214844 h -8 z m 0,0"
   id="path3047" />
    </clipPath><clipPath
   id="clipPath8800">
      <path
   clip-rule="nonzero"
   d="m 106,0 h 1 v 17.214844 h -1 z m 0,0"
   id="path291" />
    </clipPath><clipPath
   id="clipPath7634">
      <path
   clip-rule="nonzero"
   d="m 123,0 h 5 v 17.214844 h -5 z m 0,0"
   id="path8750" />
    </clipPath><clipPath
   id="clipPath4272">
      <path
   clip-rule="nonzero"
   d="m 138,0 h 5 v 17.214844 h -5 z m 0,0"
   id="path6098" />
    </clipPath><clipPath
   id="clipPath8441">
      <path
   clip-rule="nonzero"
   d="m 175,0 h 7 v 17.214844 h -7 z m 0,0"
   id="path2058" />
    </clipPath><clipPath
   id="clipPath7552-6">
      <path
   clip-rule="nonzero"
   d="m 34,0 h 8 v 17.214844 h -8 z m 0,0"
   id="path3047-7" />
    </clipPath><clipPath
   id="clipPath8800-5">
      <path
   clip-rule="nonzero"
   d="m 106,0 h 1 v 17.214844 h -1 z m 0,0"
   id="path291-3" />
    </clipPath><clipPath
   id="clipPath7634-5">
      <path
   clip-rule="nonzero"
   d="m 123,0 h 5 v 17.214844 h -5 z m 0,0"
   id="path8750-6" />
    </clipPath><clipPath
   id="clipPath4272-2">
      <path
   clip-rule="nonzero"
   d="m 138,0 h 5 v 17.214844 h -5 z m 0,0"
   id="path6098-9" />
    </clipPath><clipPath
   id="clipPath8441-1">
      <path
   clip-rule="nonzero"
   d="m 175,0 h 7 v 17.214844 h -7 z m 0,0"
   id="path2058-2" />
    </clipPath></defs><g
     inkscape:label="Layer 1"
     inkscape:groupmode="layer"
     id="layer1"
     transform="translate(55.0026, 0.431282)"><g
       id="figure_1-0"
       transform="matrix(0.352778 0 0 0.352778 -141.405 -112.457)"
       style="display:inline"><g
         id="g24147"
         transform="matrix(0.75125726,0,0,0.75125726,117.53601,152.34776)"
         style="stroke:#494d64;stroke-opacity:0.972549"><g
           id="grid3d_1"
           style="display:inline;stroke:#494d64;stroke-opacity:0.972549"
           transform="translate(-5.9891877,-28.503618)"><g
             id="Line3DCollection_1"
             style="stroke:#494d64;stroke-opacity:0.972549"><path
               d="M 206.31829,706.95776 537.66198,566.92586 V 248.41029"
               style="fill:none;stroke:#494d64;stroke-width:0.8;stroke-opacity:0.972549"
               id="path9230" /><path
               d="M 243.60111,722.71416 574.9448,582.68227 V 264.16669"
               style="fill:none;stroke:#494d64;stroke-width:0.8;stroke-opacity:0.972549"
               id="path9232" /><path
               d="M 280.88394,738.47056 612.22762,598.43867 V 279.92309"
               style="fill:none;stroke:#494d64;stroke-width:0.8;stroke-opacity:0.972549"
               id="path9234" /><path
               d="M 318.16676,754.22696 649.51044,614.19507 V 295.67949"
               style="fill:none;stroke:#494d64;stroke-width:0.8;stroke-opacity:0.972549"
               id="path9236" /><path
               d="M 355.44958,769.98336 686.79327,629.95147 V 311.4359"
               style="fill:none;stroke:#494d64;stroke-width:0.8;stroke-opacity:0.972549"
               id="path9238" /><path
               d="M 392.7324,785.73976 724.07609,645.70787 V 327.1923"
               style="fill:none;stroke:#494d64;stroke-width:0.8;stroke-opacity:0.972549"
               id="path9240" /><path
               d="M 430.01522,801.49616 761.35891,661.46427 V 342.9487"
               style="fill:none;stroke:#494d64;stroke-width:0.8;stroke-opacity:0.972549"
               id="path9242" /><path
               d="M 467.29804,817.25256 798.64173,677.22067 V 358.7051"
               style="fill:none;stroke:#494d64;stroke-width:0.8;stroke-opacity:0.972549"
               id="path9244" /><path
               d="M 504.58087,833.00897 835.92455,692.97707 V 374.4615"
               style="fill:none;stroke:#494d64;stroke-width:0.8;stroke-opacity:0.972549"
               id="path9246" /></g></g><g
           id="grid3d_2"
           style="display:inline;stroke:#494d64;stroke-opacity:0.972549"
           transform="translate(-5.9891877,-28.503618)"><g
             id="Line3DCollection_2"
             style="stroke:#494d64;stroke-opacity:0.972549"><path
               d="M 227.79733,355.084 V 673.59957 L 559.14102,813.63146"
               style="fill:none;stroke:#494d64;stroke-width:0.8;stroke-opacity:0.972549"
               id="path9250" /><path
               d="M 285.54631,330.67823 V 649.1938 l 331.34368,140.03189"
               style="fill:none;stroke:#494d64;stroke-width:0.8;stroke-opacity:0.972549"
               id="path9252" /><path
               d="M 343.29528,306.27246 V 624.78803 L 674.63897,764.81992"
               style="fill:none;stroke:#494d64;stroke-width:0.8;stroke-opacity:0.972549"
               id="path9254" /><path
               d="M 401.04426,281.86669 V 600.38226 L 732.38794,740.41415"
               style="fill:none;stroke:#494d64;stroke-width:0.8;stroke-opacity:0.972549"
               id="path9256" /><path
               d="M 458.79323,257.46091 V 575.97649 L 790.13691,716.00838"
               style="fill:none;stroke:#494d64;stroke-width:0.8;stroke-opacity:0.972549"
               id="path9258" /></g></g><g
           id="grid3d_3"
           style="display:inline;stroke:#494d64;stroke-opacity:0.972549"
           transform="translate(-5.9891877,-28.503618)"><g
             id="Line3DCollection_3"
             style="stroke:#494d64;stroke-opacity:0.972549"><path
               d="M 840.27909,688.44707 508.9354,548.41518 177.59172,688.44707"
               style="fill:none;stroke:#494d64;stroke-width:0.8;stroke-opacity:0.972549"
               id="path9262" /><path
               d="M 840.27909,648.93194 508.9354,508.90005 177.59172,648.93194"
               style="fill:none;stroke:#494d64;stroke-width:0.8;stroke-opacity:0.972549"
               id="path9264" /><path
               d="M 840.27909,609.41681 508.9354,469.38492 177.59172,609.41681"
               style="fill:none;stroke:#494d64;stroke-width:0.8;stroke-opacity:0.972549"
               id="path9266" /><path
               d="M 840.27909,569.90168 508.9354,429.86978 177.59172,569.90168"
               style="fill:none;stroke:#494d64;stroke-width:0.8;stroke-opacity:0.972549"
               id="path9268" /><path
               d="M 840.27909,530.38655 508.9354,390.35465 177.59172,530.38655"
               style="fill:none;stroke:#494d64;stroke-width:0.8;stroke-opacity:0.972549"
               id="path9270" /><path
               d="M 840.27909,490.87142 508.9354,350.83952 177.59172,490.87142"
               style="fill:none;stroke:#494d64;stroke-width:0.8;stroke-opacity:0.972549"
               id="path9272" /><path
               d="M 840.27909,451.35629 508.9354,311.32439 177.59172,451.35629"
               style="fill:none;stroke:#494d64;stroke-width:0.8;stroke-opacity:0.972549"
               id="path9274" /><path
               d="M 840.27909,411.84115 508.9354,271.80926 177.59172,411.84115"
               style="fill:none;stroke:#494d64;stroke-width:0.8;stroke-opacity:0.972549"
               id="path9276" /></g></g></g><path
         style="fill:none;fill-opacity:1;stroke:#6e738d;stroke-width:1.41732;stroke-linecap:round;stroke-linejoin:round;stroke-dasharray:none;stroke-dashoffset:0;stroke-opacity:0.972549;paint-order:fill markers stroke"
         d="M 744.40716,652.90056 V 413.61342"
         id="path26858" /><path
         style="fill:none;fill-opacity:1;stroke:#6e738d;stroke-width:1.41732;stroke-linecap:round;stroke-linejoin:round;stroke-dasharray:none;stroke-dashoffset:0;stroke-opacity:0.972549;paint-order:fill markers stroke"
         d="M 743.91063,653.26725 494.98628,758.46722"
         id="path27706" /><path
         style="fill:none;fill-opacity:1;stroke:#6e738d;stroke-width:1.41732;stroke-linecap:round;stroke-linejoin:round;stroke-dasharray:none;stroke-dashoffset:0;stroke-opacity:0.972549;paint-order:fill markers stroke"
         d="M 245.62775,653.03158 494.55211,758.23155"
         id="path27708" /><text
         xml:space="preserve"
         style="font-style:normal;font-variant:normal;font-weight:normal;font-stretch:normal;font-size:20px;font-family:sans-serif;-inkscape-font-specification:sans-serif;fill:#6e738d;fill-opacity:0.972549;stroke:none;stroke-width:1.41732;stroke-linecap:round;stroke-linejoin:round;stroke-dasharray:none;stroke-dashoffset:0;stroke-opacity:0.972549;paint-order:fill markers stroke"
         x="526.13745"
         y="523.22791"
         id="text29144"
         transform="rotate(23.157537)"><tspan
           sodipodi:role="line"
           id="tspan29142"
           style="font-style:normal;font-variant:normal;font-weight:normal;font-stretch:normal;font-size:20px;font-family:sans-serif;-inkscape-font-specification:sans-serif;fill:#6e738d;fill-opacity:0.972549;stroke:none;stroke-width:1.41732"
           x="526.13745"
           y="523.22791">vertical position</tspan></text><text
         xml:space="preserve"
         style="font-style:normal;font-variant:normal;font-weight:normal;font-stretch:normal;font-size:20px;font-family:sans-serif;-inkscape-font-specification:sans-serif;fill:#6e738d;fill-opacity:1;stroke:none;stroke-width:1.41732;stroke-linecap:round;stroke-linejoin:round;stroke-dasharray:none;stroke-dashoffset:0;stroke-opacity:0.972549;paint-order:fill markers stroke"
         x="277.07065"
         y="910.76868"
         id="text30324"
         transform="rotate(-22.836534)"><tspan
           sodipodi:role="line"
           id="tspan30322"
           style="font-style:normal;font-variant:normal;font-weight:normal;font-stretch:normal;font-size:20px;font-family:sans-serif;-inkscape-font-specification:sans-serif;fill:#6e738d;fill-opacity:1;stroke:none;stroke-width:1.41732"
           x="277.07065"
           y="910.76868">leg angle</tspan></text><text
         xml:space="preserve"
         style="font-style:normal;font-variant:normal;font-weight:normal;font-stretch:normal;font-size:20px;font-family:sans-serif;-inkscape-font-specification:sans-serif;fill:#6e738d;fill-opacity:1;stroke:none;stroke-width:1.41732;stroke-linecap:round;stroke-linejoin:round;stroke-dasharray:none;stroke-dashoffset:0;stroke-opacity:0.972549;paint-order:fill markers stroke"
         x="-625.51367"
         y="765.901"
         id="text30430"
         transform="rotate(-89.966488)"><tspan
           sodipodi:role="line"
           id="tspan30428"
           style="font-style:normal;font-variant:normal;font-weight:normal;font-stretch:normal;font-size:20px;font-family:sans-serif;-inkscape-font-specification:sans-serif;fill:#6e738d;fill-opacity:1;stroke:none;stroke-width:1.41732"
           x="-625.51367"
           y="765.901">horizontal velocity</tspan></text><g
         id="axes_1-5"
         style="display:inline;stroke:#cad3f5;stroke-width:0.6;stroke-linecap:butt;stroke-linejoin:round;stroke-dasharray:none;stroke-opacity:0.972549"
         transform="translate(81.97606,192.86357)"><g
           id="line2d_51"
           style="stroke:#cad3f5;stroke-width:1.41732194;stroke-linecap:butt;stroke-linejoin:round;stroke-dasharray:none;stroke-opacity:0.972549"
           transform="translate(57.669813,56.263709)"><path
             d="m 376.49172,291.16947 -0.0255,-2.98574 -0.0315,-2.96715 -0.0435,-2.94352 -0.0614,-2.91497 -0.0852,-2.8816 -0.11473,-2.84355 -0.14992,-2.80095 -0.19062,-2.75395 -0.23673,-2.70268 -0.28811,-2.64731 -0.34461,-2.58799 -0.40608,-2.52486 -0.47238,-2.4581 -0.54334,-2.38788 -0.6188,-2.31437 -0.69859,-2.23771 -0.78254,-2.1581 -0.87046,-2.0757 -0.96219,-1.99071 -1.05752,-1.90326 -1.15628,-1.81357 -1.25829,-1.72177 -1.36333,-1.62809 -1.47122,-1.53266 -1.58178,-1.43567 -1.69477,-1.33731 -1.81003,-1.23773 -1.92734,-1.13713 -2.0465,-1.03567 -2.1673,-0.93352 -2.28953,-0.83086 -2.41299,-0.72787 -2.53746,-0.62471 -2.66274,-0.52155 -2.78861,-0.41857 -2.91485,-0.31594 -3.04126,-0.21383 -3.16759,-0.11239 -3.29365,-0.0118 -3.41921,0.0877 -3.54404,0.18609 -3.66794,0.2831 -3.79065,0.37858 -3.91196,0.47236 -4.03165,0.56431 -4.14949,0.65422 -4.26523,0.74196 -4.37866,0.82735 -4.48954,0.91025"
             clip-path="url(#p4c2f34109d-36)"
             style="fill:none;stroke:#cad3f5;stroke-width:1.41732194;stroke-linecap:square;stroke-linejoin:round;stroke-dasharray:none;stroke-opacity:0.972549"
             id="path164" /></g><g
           id="line2d_1-3"
           style="stroke:#cad3f5;stroke-width:0.6;stroke-linecap:butt;stroke-linejoin:round;stroke-dasharray:none;stroke-opacity:0.972549" /><path
           style="display:inline;stroke:none;stroke-width:1.41732287;stroke-dasharray:none;stroke-opacity:0.972549;fill:#5b6078;fill-opacity:0.852231;stroke-linecap:round;stroke-linejoin:round;paint-order:markers fill stroke"
           d="M 196.94022,7.1989085 269.84137,47.799668 268.44844,312.48365 197.29722,271.60928 Z"
           id="path2007"
           sodipodi:nodetypes="ccccc"
           transform="translate(116.43097,131.8688)" /><g
           id="line2d_52"
           style="stroke:#cad3f5;stroke-width:1.41732194;stroke-linecap:butt;stroke-linejoin:round;stroke-dasharray:none;stroke-opacity:0.972549"
           transform="translate(57.669813,56.263709)"><path
             d="m 475.11429,361.43976 -4.8212,1.11394 -4.72513,1.01542 -4.62426,0.91299 -4.51876,0.80688 -4.40889,0.69738 -4.29489,0.58477 -4.17705,0.46929 -4.05563,0.35131 -3.93093,0.23107 -3.80328,0.10894 -3.67299,-0.0148 -3.5404,-0.13977 -3.40584,-0.26568 -3.26967,-0.39215 -3.13227,-0.51889 -2.99397,-0.6455 -2.85516,-0.77167 -2.7162,-0.89706 -2.57746,-1.02134 -2.43933,-1.14414 -2.30215,-1.26519 -2.16629,-1.38413 -2.03213,-1.50067 -1.89999,-1.61451 -1.77023,-1.72535 -1.64319,-1.83294 -1.51917,-1.937 -1.39851,-2.03727 -1.2815,-2.13353 -1.1684,-2.22557 -1.05951,-2.31317 -0.95507,-2.39615 -0.85533,-2.47434 -0.76051,-2.54757 -0.67079,-2.61573 -0.58639,-2.67869 -0.50746,-2.73634 -0.43418,-2.7886 -0.36664,-2.8354 -0.30499,-2.87669 -0.24932,-2.91243 -0.19972,-2.94259 -0.15623,-2.96719 -0.11894,-2.98622 -0.0878,-2.9997 -0.063,-3.00768 -0.0443,-3.0102 -0.0319,-3.00731 -0.0256,-2.99912"
             clip-path="url(#p4c2f34109d-36)"
             style="fill:none;stroke:#cad3f5;stroke-width:1.41732194;stroke-linecap:square;stroke-linejoin:round;stroke-dasharray:none;stroke-opacity:0.972549"
             id="path167" /></g><g
           id="line2d_50"
           style="stroke:#cad3f5;stroke-width:1.41732194;stroke-linecap:butt;stroke-linejoin:round;stroke-dasharray:none;stroke-opacity:0.972549"
           transform="translate(57.669813,56.263709)"><path
             d="m 287.27415,227.60466 -2.27451,0.68268 -1.77365,0.98966 -1.26368,1.29358 -0.74528,1.59369 -0.2193,1.8891 0.3133,2.17886 0.85131,2.46188 1.39337,2.73699 1.93781,3.00284 2.48272,3.25797 3.0258,3.5007 3.56443,3.72922 4.09554,3.94155 4.61564,4.13551 5.12083,4.30884 5.60674,4.45914 6.06861,4.584 6.50135,4.6811 6.8996,4.74824 7.25795,4.78355 7.571,4.78562 7.83362,4.75358 8.04116,4.68732 8.18963,4.5875 8.27592,4.45572 8.29797,4.29437 8.2548,4.1067 8.14664,3.89664 7.9749,3.66861 7.74199,3.4274 7.4513,3.17785 7.10695,2.92477 6.71367,2.67268 6.27647,2.42573 5.80063,2.18754 5.29143,1.96121 4.754,1.74928 4.19334,1.55374 3.61407,1.37603 3.02057,1.21715 2.41682,1.07767 1.80646,0.95782 1.19274,0.85753 0.57864,0.77647 -0.0332,0.71416 -0.64051,0.66991 -1.24111,0.64297 -1.8332,0.63248 -2.41512,0.63755"
             clip-path="url(#p4c2f34109d-36)"
             style="fill:none;stroke:#cad3f5;stroke-width:1.41732194;stroke-linecap:square;stroke-linejoin:round;stroke-dasharray:none;stroke-opacity:0.972549"
             id="path161" /></g><ellipse
           style="display:inline;fill:#ffff00;fill-opacity:0.97254902;stroke:none;stroke-width:2.08793;stroke-linecap:round;stroke-linejoin:round;stroke-dasharray:none;stroke-dashoffset:0;stroke-opacity:0.972549;paint-order:fill markers stroke"
           id="ellipse39146"
           cx="344.84637"
           cy="284.00601"
           rx="2.640645"
           ry="2.5109112" /></g><g
         id="g62486"
         transform="translate(-47.645281,2.6003021)"><rect
           style="display:inline;fill:#363a4f;fill-opacity:1;stroke:none;stroke-width:0.625616;stroke-linecap:round;stroke-linejoin:round;stroke-dasharray:0.625616, 1.87686;stroke-opacity:0.972549;paint-order:fill markers stroke"
           id="rect52072"
           width="84.840561"
           height="24.359009"
           x="387.56772"
           y="444.03732"
           ry="6.5832314" /><g
           inkscape:label=""
           transform="matrix(2.83464,0,0,2.83464,391.85211,447.81752)"
           id="g61075"
           style="fill:#ffff00;fill-opacity:0.99607843"><g
   fill="#000000"
   fill-opacity="1"
   id="g32"
   transform="matrix(0.352778,0,0,0.352778,-0.170877,-0.00224907)"
   style="fill:#ffff00;fill-opacity:0.99607843">
    <g
   id="use30"
   transform="translate(0,12.897)"
   style="fill:#ffff00;fill-opacity:0.99607843">
      <path
   d="m 8.15625,-7.03125 c -0.546875,0.109375 -0.75,0.515625 -0.75,0.84375 0,0.421875 0.328125,0.5625 0.5625,0.5625 0.515625,0 0.875,-0.453125 0.875,-0.921875 0,-0.71875 -0.8125,-1.046875 -1.546875,-1.046875 -1.046875,0 -1.625,1.03125 -1.78125,1.359375 -0.40625,-1.296875 -1.46875,-1.359375 -1.78125,-1.359375 -1.75,0 -2.6875,2.25 -2.6875,2.640625 0,0.0625 0.078125,0.15625 0.1875,0.15625 0.140625,0 0.171875,-0.109375 0.21875,-0.171875 C 2.03125,-6.890625 3.1875,-7.25 3.6875,-7.25 c 0.765625,0 0.921875,0.71875 0.921875,1.140625 0,0.375 -0.09375,0.765625 -0.296875,1.59375 L 3.71875,-2.15625 c -0.25,1.03125 -0.75,1.984375 -1.671875,1.984375 -0.078125,0 -0.515625,0 -0.875,-0.21875 0.625,-0.125 0.75,-0.640625 0.75,-0.84375 0,-0.34375 -0.25,-0.5625 -0.578125,-0.5625 -0.40625,0 -0.859375,0.375 -0.859375,0.921875 0,0.71875 0.8125,1.046875 1.546875,1.046875 0.828125,0 1.40625,-0.65625 1.78125,-1.359375 0.265625,1.015625 1.125,1.359375 1.765625,1.359375 1.75,0 2.6875,-2.25 2.6875,-2.640625 0,-0.078125 -0.0625,-0.15625 -0.171875,-0.15625 -0.15625,0 -0.171875,0.09375 -0.21875,0.234375 -0.46875,1.515625 -1.46875,2.21875 -2.25,2.21875 -0.59375,0 -0.921875,-0.453125 -0.921875,-1.15625 0,-0.375 0.0625,-0.65625 0.34375,-1.78125 l 0.59375,-2.34375 C 5.90625,-6.484375 6.484375,-7.25 7.28125,-7.25 c 0.03125,0 0.515625,0 0.875,0.21875 z m 0,0"
   id="path70"
   style="fill:#ffff00;fill-opacity:0.99607843" />
    </g>
  </g>
  <g
   fill="#000000"
   fill-opacity="1"
   id="g36"
   transform="matrix(0.352778,0,0,0.352778,-0.170877,-0.00224907)"
   style="fill:#ffff00;fill-opacity:0.99607843">
    <g
   id="use34"
   transform="translate(9.5790005,6.6490002)"
   style="fill:#ffff00;fill-opacity:0.99607843">
      <path
   d="m 3,-4.65625 c 0.015625,-0.15625 0.015625,-0.421875 -0.28125,-0.421875 -0.171875,0 -0.3125,0.15625 -0.28125,0.296875 v 0.140625 l 0.15625,1.6875 L 1.203125,-3.96875 C 1.09375,-4.03125 1.078125,-4.046875 1,-4.046875 c -0.15625,0 -0.296875,0.15625 -0.296875,0.3125 0,0.171875 0.109375,0.21875 0.21875,0.265625 l 1.546875,0.75 -1.5,0.71875 c -0.171875,0.09375 -0.265625,0.140625 -0.265625,0.296875 0,0.171875 0.140625,0.3125 0.296875,0.3125 0.078125,0 0.09375,0 0.375,-0.21875 l 1.21875,-0.875 -0.15625,1.828125 c 0,0.234375 0.1875,0.28125 0.28125,0.28125 0.125,0 0.296875,-0.078125 0.296875,-0.28125 L 2.84375,-2.484375 4.25,-1.46875 c 0.09375,0.046875 0.109375,0.078125 0.1875,0.078125 0.15625,0 0.296875,-0.15625 0.296875,-0.3125 0,-0.15625 -0.09375,-0.21875 -0.234375,-0.28125 C 3.84375,-2.3125 3.828125,-2.3125 2.96875,-2.71875 l 1.5,-0.734375 c 0.171875,-0.078125 0.265625,-0.125 0.265625,-0.28125 0,-0.171875 -0.140625,-0.3125 -0.296875,-0.3125 -0.078125,0 -0.09375,0 -0.375,0.203125 l -1.21875,0.890625 z m 0,0"
   id="path74"
   style="fill:#ffff00;fill-opacity:0.99607843" />
    </g>
  </g>
  <g
   fill="#000000"
   fill-opacity="1"
   id="g40"
   transform="matrix(0.352778,0,0,0.352778,-0.170877,-0.00224907)"
   style="fill:#ffff00;fill-opacity:0.99607843">
    <g
   id="use38"
   transform="translate(20.313999,12.897)"
   style="fill:#ffff00;fill-opacity:0.99607843">
      <path
   d="m 11.078125,-5.53125 c 0.25,0 0.515625,0 0.515625,-0.28125 C 11.59375,-6.125 11.296875,-6.125 11,-6.125 H 1.375 c -0.296875,0 -0.578125,0 -0.578125,0.3125 0,0.28125 0.25,0.28125 0.515625,0.28125 z M 11,-2.46875 c 0.296875,0 0.59375,0 0.59375,-0.296875 0,-0.296875 -0.265625,-0.296875 -0.515625,-0.296875 H 1.3125 c -0.265625,0 -0.515625,0 -0.515625,0.296875 0,0.296875 0.28125,0.296875 0.578125,0.296875 z m 0,0"
   id="path78"
   style="fill:#ffff00;fill-opacity:0.99607843" />
    </g>
  </g>
  <g
   fill="#000000"
   fill-opacity="1"
   id="g44"
   transform="matrix(0.352778,0,0,0.352778,-0.170877,-0.00224907)"
   style="fill:#ffff00;fill-opacity:0.99607843">
    <g
   id="use42"
   transform="translate(37.487999,12.897)"
   style="fill:#ffff00;fill-opacity:0.99607843">
      <path
   d="m 5.09375,-5.46875 h 2.890625 c 2.375,0 4.75,-1.765625 4.75,-3.71875 0,-1.34375 -1.125,-2.578125 -3.296875,-2.578125 H 4.109375 c -0.328125,0 -0.46875,0 -0.46875,0.328125 0,0.171875 0.140625,0.171875 0.40625,0.171875 1.046875,0 1.046875,0.140625 1.046875,0.328125 0,0.03125 0,0.140625 -0.0625,0.40625 l -2.328125,9.25 C 2.546875,-0.671875 2.515625,-0.5 1.3125,-0.5 c -0.328125,0 -0.5,0 -0.5,0.3125 C 0.8125,0 0.96875,0 1.0625,0 c 0.328125,0 0.671875,-0.03125 1,-0.03125 H 4.078125 C 4.40625,-0.03125 4.765625,0 5.09375,0 5.234375,0 5.421875,0 5.421875,-0.328125 5.421875,-0.5 5.265625,-0.5 5.015625,-0.5 c -1.03125,0 -1.0625,-0.125 -1.0625,-0.296875 C 3.953125,-0.875 3.984375,-1 4,-1.078125 Z m 1.25,-5.125 c 0.140625,-0.640625 0.21875,-0.671875 0.890625,-0.671875 H 8.9375 c 1.296875,0 2.359375,0.421875 2.359375,1.703125 0,0.453125 -0.21875,1.921875 -1.015625,2.703125 -0.296875,0.3125 -1.125,0.96875 -2.6875,0.96875 H 5.171875 Z m 0,0"
   id="path82"
   style="fill:#ffff00;fill-opacity:0.99607843" />
    </g>
  </g>
  <g
   clip-path="url(#clipPath90)"
   id="g50"
   transform="matrix(0.352778,0,0,0.352778,-0.170877,-0.00224907)"
   style="fill:#ffff00;fill-opacity:0.99607843">
    <g
   fill="#000000"
   fill-opacity="1"
   id="g48"
   style="fill:#ffff00;fill-opacity:0.99607843">
      <g
   id="use46"
   transform="translate(50.694,12.897)"
   style="fill:#ffff00;fill-opacity:0.99607843">
        <path
   d="m 5.265625,4.203125 c 0,-0.015625 0,-0.046875 -0.046875,-0.109375 -0.796875,-0.8125 -2.90625,-3.015625 -2.90625,-8.375 0,-5.375 2.078125,-7.5625 2.921875,-8.421875 0,-0.01563 0.03125,-0.0625 0.03125,-0.109375 0,-0.04687 -0.046875,-0.07813 -0.125,-0.07813 -0.1875,0 -1.640625,1.265625 -2.484375,3.15625 -0.859375,1.921875 -1.109375,3.78125 -1.109375,5.421875 0,1.25 0.125,3.34375 1.15625,5.5625 0.828125,1.796875 2.234375,3.0625 2.4375,3.0625 0.09375,0 0.125,-0.046875 0.125,-0.109375 z m 0,0"
   id="path86"
   style="fill:#ffff00;fill-opacity:0.99607843" />
      </g>
    </g>
  </g>
  <g
   fill="#000000"
   fill-opacity="1"
   id="g54"
   transform="matrix(0.352778,0,0,0.352778,-0.170877,-0.00224907)"
   style="fill:#ffff00;fill-opacity:0.99607843">
    <g
   id="use52"
   transform="translate(56.791,12.897)"
   style="fill:#ffff00;fill-opacity:0.99607843">
      <path
   d="m 8.15625,-7.03125 c -0.546875,0.109375 -0.75,0.515625 -0.75,0.84375 0,0.421875 0.328125,0.5625 0.5625,0.5625 0.515625,0 0.875,-0.453125 0.875,-0.921875 0,-0.71875 -0.8125,-1.046875 -1.546875,-1.046875 -1.046875,0 -1.625,1.03125 -1.78125,1.359375 -0.40625,-1.296875 -1.46875,-1.359375 -1.78125,-1.359375 -1.75,0 -2.6875,2.25 -2.6875,2.640625 0,0.0625 0.078125,0.15625 0.1875,0.15625 0.140625,0 0.171875,-0.109375 0.21875,-0.171875 C 2.03125,-6.890625 3.1875,-7.25 3.6875,-7.25 c 0.765625,0 0.921875,0.71875 0.921875,1.140625 0,0.375 -0.09375,0.765625 -0.296875,1.59375 L 3.71875,-2.15625 c -0.25,1.03125 -0.75,1.984375 -1.671875,1.984375 -0.078125,0 -0.515625,0 -0.875,-0.21875 0.625,-0.125 0.75,-0.640625 0.75,-0.84375 0,-0.34375 -0.25,-0.5625 -0.578125,-0.5625 -0.40625,0 -0.859375,0.375 -0.859375,0.921875 0,0.71875 0.8125,1.046875 1.546875,1.046875 0.828125,0 1.40625,-0.65625 1.78125,-1.359375 0.265625,1.015625 1.125,1.359375 1.765625,1.359375 1.75,0 2.6875,-2.25 2.6875,-2.640625 0,-0.078125 -0.0625,-0.15625 -0.171875,-0.15625 -0.15625,0 -0.171875,0.09375 -0.21875,0.234375 -0.46875,1.515625 -1.46875,2.21875 -2.25,2.21875 -0.59375,0 -0.921875,-0.453125 -0.921875,-1.15625 0,-0.375 0.0625,-0.65625 0.34375,-1.78125 l 0.59375,-2.34375 C 5.90625,-6.484375 6.484375,-7.25 7.28125,-7.25 c 0.03125,0 0.515625,0 0.875,0.21875 z m 0,0"
   id="path90"
   style="fill:#ffff00;fill-opacity:0.99607843" />
    </g>
  </g>
  <g
   fill="#000000"
   fill-opacity="1"
   id="g58"
   transform="matrix(0.352778,0,0,0.352778,-0.170877,-0.00224907)"
   style="fill:#ffff00;fill-opacity:0.99607843">
    <g
   id="use56"
   transform="translate(66.370003,6.6490002)"
   style="fill:#ffff00;fill-opacity:0.99607843">
      <path
   d="m 3,-4.65625 c 0.015625,-0.15625 0.015625,-0.421875 -0.28125,-0.421875 -0.171875,0 -0.3125,0.15625 -0.28125,0.296875 v 0.140625 l 0.15625,1.6875 L 1.203125,-3.96875 C 1.09375,-4.03125 1.078125,-4.046875 1,-4.046875 c -0.15625,0 -0.296875,0.15625 -0.296875,0.3125 0,0.171875 0.109375,0.21875 0.21875,0.265625 l 1.546875,0.75 -1.5,0.71875 c -0.171875,0.09375 -0.265625,0.140625 -0.265625,0.296875 0,0.171875 0.140625,0.3125 0.296875,0.3125 0.078125,0 0.09375,0 0.375,-0.21875 l 1.21875,-0.875 -0.15625,1.828125 c 0,0.234375 0.1875,0.28125 0.28125,0.28125 0.125,0 0.296875,-0.078125 0.296875,-0.28125 L 2.84375,-2.484375 4.25,-1.46875 c 0.09375,0.046875 0.109375,0.078125 0.1875,0.078125 0.15625,0 0.296875,-0.15625 0.296875,-0.3125 0,-0.15625 -0.09375,-0.21875 -0.234375,-0.28125 C 3.84375,-2.3125 3.828125,-2.3125 2.96875,-2.71875 l 1.5,-0.734375 c 0.171875,-0.078125 0.265625,-0.125 0.265625,-0.28125 0,-0.171875 -0.140625,-0.3125 -0.296875,-0.3125 -0.078125,0 -0.09375,0 -0.375,0.203125 l -1.21875,0.890625 z m 0,0"
   id="path94"
   style="fill:#ffff00;fill-opacity:0.99607843" />
    </g>
  </g>
  <g
   clip-path="url(#clipPath707)"
   id="g64"
   transform="matrix(0.352778,0,0,0.352778,-0.170877,-0.00224907)"
   style="fill:#ffff00;fill-opacity:0.99607843">
    <g
   fill="#000000"
   fill-opacity="1"
   id="g62"
   style="fill:#ffff00;fill-opacity:0.99607843">
      <g
   id="use60"
   transform="translate(72.322998,12.897)"
   style="fill:#ffff00;fill-opacity:0.99607843">
        <path
   d="m 4.53125,-4.28125 c 0,-1.25 -0.125,-3.34375 -1.15625,-5.5625 -0.828125,-1.796875 -2.234375,-3.046875 -2.4375,-3.046875 -0.0625,0 -0.125,0.01563 -0.125,0.09375 0,0.03125 0.015625,0.0625 0.03125,0.09375 0.828125,0.859375 2.921875,3.046875 2.921875,8.390625 0,5.375 -2.078125,7.5625 -2.921875,8.421875 C 0.828125,4.15625 0.8125,4.171875 0.8125,4.203125 0.8125,4.28125 0.875,4.3125 0.9375,4.3125 1.125,4.3125 2.578125,3.03125 3.421875,1.140625 4.28125,-0.78125 4.53125,-2.640625 4.53125,-4.28125 Z m 0,0"
   id="path98"
   style="fill:#ffff00;fill-opacity:0.99607843" />
      </g>
    </g>
  </g>
</g></g><g
         id="g7220"
         transform="translate(198.40703,324.73237)"
         style="display:inline;stroke-linecap:butt;stroke-linejoin:round"><rect
           style="fill:#363a4f;fill-opacity:1;stroke:none;stroke-width:2.72708;stroke-linecap:round;stroke-linejoin:round;stroke-dasharray:none;stroke-dashoffset:0;stroke-opacity:1;paint-order:fill markers stroke"
           id="rect19982"
           width="186.38164"
           height="21.43659"
           x="180.76106"
           y="315.61447"
           ry="5.0681524" /><g
           inkscape:label=""
           transform="matrix(2.83464,0,0,2.83464,183.81626,317.9292)"
           id="g9439"
           style="fill:#cad3f5;fill-opacity:1;stroke-linecap:butt;stroke-linejoin:round"><g
   fill="#000000"
   fill-opacity="1"
   id="g9373"
   transform="matrix(0.352778,0,0,0.352778,-0.110243,0.00383637)"
   style="fill:#cad3f5;fill-opacity:1;stroke-linecap:butt;stroke-linejoin:round">
    <g
   id="g9371"
   transform="translate(0,12.911)"
   style="fill:#cad3f5;fill-opacity:1;stroke-linecap:butt;stroke-linejoin:round">
      <path
   d="m 1.984375,-3.765625 c 0.203125,-0.09375 0.8125,-0.46875 0.8125,-0.71875 0,-0.109375 -0.109375,-0.109375 -0.21875,-0.109375 C 2,-4.59375 0.3125,-3.859375 0.3125,-2.140625 c 0,1.25 1.390625,2.515625 3.5,2.515625 2.796875,0 6.046875,-1.9375 6.046875,-4.28125 0,-1.640625 -1.71875,-2.4375 -3.109375,-3.046875 C 5.546875,-7.5 4.75,-8.21875 4.75,-9.1875 c 0,-0.375 0.15625,-1.046875 0.6875,-1.5 0.515625,-0.453125 1.484375,-0.5 1.71875,-0.5 0.203125,0 0.921875,0.01563 1.65625,0.34375 0.328125,0.15625 0.78125,0.359375 0.78125,1.09375 0,0.25 -0.015625,0.328125 -0.078125,0.515625 -0.015625,0.0625 -0.03125,0.125 -0.03125,0.171875 0,0.125 0.109375,0.125 0.171875,0.125 0.234375,0 0.640625,-0.171875 0.984375,-0.46875 0.21875,-0.171875 0.40625,-0.390625 0.40625,-1.0625 0,-0.84375 -0.4375,-1.078125 -0.90625,-1.296875 -0.8125,-0.375 -1.59375,-0.375 -1.84375,-0.375 -2.25,0 -5.015625,1.71875 -5.015625,3.6875 0,1.4375 1.5,2.140625 2.328125,2.5 1.21875,0.546875 2.796875,1.34375 2.796875,2.78125 0,1.15625 -0.84375,2.609375 -3.46875,2.609375 -1.75,0 -3.15625,-1.140625 -3.15625,-2.3125 0,-0.3125 0.078125,-0.625 0.203125,-0.890625 z m 0,0"
   id="path134"
   style="fill:#cad3f5;fill-opacity:1;stroke-linecap:butt;stroke-linejoin:round" />
    </g>
  </g>
  <g
   fill="#000000"
   fill-opacity="1"
   id="g9379"
   transform="matrix(0.352778,0,0,0.352778,-0.110243,0.00383637)"
   style="fill:#cad3f5;fill-opacity:1;stroke-linecap:butt;stroke-linejoin:round">
    <g
   id="g9377"
   transform="translate(16.497999,12.911)"
   style="fill:#cad3f5;fill-opacity:1;stroke-linecap:butt;stroke-linejoin:round">
      <path
   d="m 11.078125,-5.53125 c 0.25,0 0.515625,0 0.515625,-0.28125 C 11.59375,-6.125 11.296875,-6.125 11,-6.125 H 1.375 c -0.296875,0 -0.578125,0 -0.578125,0.3125 0,0.28125 0.25,0.28125 0.515625,0.28125 z M 11,-2.46875 c 0.296875,0 0.59375,0 0.59375,-0.296875 0,-0.296875 -0.265625,-0.296875 -0.515625,-0.296875 H 1.3125 c -0.265625,0 -0.515625,0 -0.515625,0.296875 0,0.296875 0.28125,0.296875 0.578125,0.296875 z m 0,0"
   id="path9375"
   style="fill:#cad3f5;fill-opacity:1;stroke-linecap:butt;stroke-linejoin:round" />
    </g>
  </g>
  <g
   clip-path="url(#clipPath7552-6)"
   id="g9386"
   transform="matrix(0.352778,0,0,0.352778,-0.110243,0.00383637)"
   style="fill:#cad3f5;fill-opacity:1;stroke-linecap:butt;stroke-linejoin:round">
    <g
   fill="#000000"
   fill-opacity="1"
   id="g9384"
   style="fill:#cad3f5;fill-opacity:1;stroke-linecap:butt;stroke-linejoin:round">
      <g
   id="g9382"
   transform="translate(33.672001,12.911)"
   style="fill:#cad3f5;fill-opacity:1;stroke-linecap:butt;stroke-linejoin:round">
        <path
   d="m 4.875,-10.625 c 0,-0.6875 0.453125,-1.796875 2.328125,-1.90625 0.078125,-0.01563 0.15625,-0.09375 0.15625,-0.1875 0,-0.203125 -0.140625,-0.203125 -0.328125,-0.203125 -1.734375,0 -3.296875,0.890625 -3.3125,2.15625 v 3.9375 c 0,0.65625 0,1.21875 -0.6875,1.78125 -0.609375,0.5 -1.25,0.53125 -1.640625,0.546875 -0.078125,0.015625 -0.15625,0.09375 -0.15625,0.1875 0,0.1875 0.109375,0.1875 0.28125,0.203125 1.140625,0.0625 1.96875,0.6875 2.15625,1.53125 0.046875,0.1875 0.046875,0.21875 0.046875,0.84375 v 3.40625 c 0,0.71875 0,1.265625 0.828125,1.921875 0.671875,0.515625 1.8125,0.71875 2.484375,0.71875 0.1875,0 0.328125,0 0.328125,-0.203125 C 7.359375,3.9375 7.25,3.9375 7.078125,3.921875 5.984375,3.859375 5.140625,3.3125 4.921875,2.421875 4.875,2.265625 4.875,2.234375 4.875,1.625 V -2 C 4.875,-2.796875 4.734375,-3.078125 4.1875,-3.640625 3.828125,-4 3.328125,-4.171875 2.84375,-4.3125 4.25,-4.703125 4.875,-5.5 4.875,-6.484375 Z m 0,0"
   id="path142"
   style="fill:#cad3f5;fill-opacity:1;stroke-linecap:butt;stroke-linejoin:round" />
      </g>
    </g>
  </g>
  <g
   fill="#000000"
   fill-opacity="1"
   id="g9391"
   transform="matrix(0.352778,0,0,0.352778,-0.110243,0.00383637)"
   style="fill:#cad3f5;fill-opacity:1;stroke-linecap:butt;stroke-linejoin:round">
    <g
   id="g9389"
   transform="translate(42.279999,12.911)"
   style="fill:#cad3f5;fill-opacity:1;stroke-linecap:butt;stroke-linejoin:round">
      <path
   d="m 8.15625,-7.03125 c -0.546875,0.109375 -0.75,0.515625 -0.75,0.84375 0,0.421875 0.328125,0.5625 0.5625,0.5625 0.515625,0 0.875,-0.453125 0.875,-0.921875 0,-0.71875 -0.8125,-1.046875 -1.546875,-1.046875 -1.046875,0 -1.625,1.03125 -1.78125,1.359375 -0.40625,-1.296875 -1.46875,-1.359375 -1.78125,-1.359375 -1.75,0 -2.6875,2.25 -2.6875,2.640625 0,0.0625 0.078125,0.15625 0.1875,0.15625 0.140625,0 0.171875,-0.109375 0.21875,-0.171875 C 2.03125,-6.890625 3.1875,-7.25 3.6875,-7.25 c 0.765625,0 0.921875,0.71875 0.921875,1.140625 0,0.375 -0.09375,0.765625 -0.296875,1.59375 L 3.71875,-2.15625 c -0.25,1.03125 -0.75,1.984375 -1.671875,1.984375 -0.078125,0 -0.515625,0 -0.875,-0.21875 0.625,-0.125 0.75,-0.640625 0.75,-0.84375 0,-0.34375 -0.25,-0.5625 -0.578125,-0.5625 -0.40625,0 -0.859375,0.375 -0.859375,0.921875 0,0.71875 0.8125,1.046875 1.546875,1.046875 0.828125,0 1.40625,-0.65625 1.78125,-1.359375 0.265625,1.015625 1.125,1.359375 1.765625,1.359375 1.75,0 2.6875,-2.25 2.6875,-2.640625 0,-0.078125 -0.0625,-0.15625 -0.171875,-0.15625 -0.15625,0 -0.171875,0.09375 -0.21875,0.234375 -0.46875,1.515625 -1.46875,2.21875 -2.25,2.21875 -0.59375,0 -0.921875,-0.453125 -0.921875,-1.15625 0,-0.375 0.0625,-0.65625 0.34375,-1.78125 l 0.59375,-2.34375 C 5.90625,-6.484375 6.484375,-7.25 7.28125,-7.25 c 0.03125,0 0.515625,0 0.875,0.21875 z m 0,0"
   id="path146"
   style="fill:#cad3f5;fill-opacity:1;stroke-linecap:butt;stroke-linejoin:round" />
    </g>
  </g>
  <g
   fill="#000000"
   fill-opacity="1"
   id="g9396"
   transform="matrix(0.352778,0,0,0.352778,-0.110243,0.00383637)"
   style="fill:#cad3f5;fill-opacity:1;stroke-linecap:butt;stroke-linejoin:round">
    <g
   id="g9394"
   transform="translate(56.640999,12.911)"
   style="fill:#cad3f5;fill-opacity:1;stroke-linecap:butt;stroke-linejoin:round">
      <path
   d="m 9.4375,-3.953125 c 0.296875,0 0.59375,0 0.59375,-0.359375 0,-0.34375 -0.296875,-0.34375 -0.59375,-0.34375 H 2.140625 C 2.34375,-6.953125 4.328125,-8.609375 6.75,-8.609375 h 2.6875 c 0.296875,0 0.59375,0 0.59375,-0.34375 0,-0.34375 -0.296875,-0.34375 -0.59375,-0.34375 H 6.71875 c -2.953125,0 -5.296875,2.234375 -5.296875,4.984375 0,2.765625 2.34375,5 5.296875,5 H 9.4375 c 0.296875,0 0.59375,0 0.59375,-0.34375 C 10.03125,0 9.734375,0 9.4375,0 H 6.75 C 4.328125,0 2.34375,-1.65625 2.140625,-3.953125 Z m 0,0"
   id="path150"
   style="fill:#cad3f5;fill-opacity:1;stroke-linecap:butt;stroke-linejoin:round" />
    </g>
  </g>
  <g
   fill="#000000"
   fill-opacity="1"
   id="g9401"
   transform="matrix(0.352778,0,0,0.352778,-0.110243,0.00383637)"
   style="fill:#cad3f5;fill-opacity:1;stroke-linecap:butt;stroke-linejoin:round">
    <g
   id="g9399"
   transform="translate(72.900002,12.911)"
   style="fill:#cad3f5;fill-opacity:1;stroke-linecap:butt;stroke-linejoin:round">
      <path
   d="m 7.1875,-10.5 c 0.09375,-0.421875 0.125,-0.578125 0.390625,-0.640625 0.140625,-0.03125 0.703125,-0.03125 1.0625,-0.03125 1.71875,0 2.53125,0.0625 2.53125,1.40625 0,0.265625 -0.0625,0.921875 -0.171875,1.546875 L 10.984375,-8 c 0,0.0625 0.0625,0.171875 0.171875,0.171875 0.171875,0 0.171875,-0.09375 0.21875,-0.375 l 0.5,-3.046875 c 0.04687,-0.15625 0.04687,-0.1875 0.04687,-0.234375 0,-0.1875 -0.109375,-0.1875 -0.453125,-0.1875 h -9.42187 c -0.390625,0 -0.40625,0.01563 -0.515625,0.328125 L 0.484375,-8.25 C 0.46875,-8.21875 0.40625,-8.03125 0.40625,-8 c 0,0.078125 0.078125,0.171875 0.171875,0.171875 0.140625,0 0.171875,-0.078125 0.25,-0.296875 0.71875,-2.078125 1.078125,-3.046875 3.375,-3.046875 h 1.15625 c 0.40625,0 0.578125,0 0.578125,0.1875 0,0.04687 0,0.07813 -0.078125,0.390625 l -2.3125,9.25 C 3.375,-0.671875 3.34375,-0.5 1.515625,-0.5 1.078125,-0.5 0.96875,-0.5 0.96875,-0.171875 0.96875,0 1.15625,0 1.234375,0 1.671875,0 2.125,-0.03125 2.546875,-0.03125 h 2.6875 C 5.671875,-0.03125 6.125,0 6.5625,0 6.75,0 6.921875,0 6.921875,-0.328125 6.921875,-0.5 6.796875,-0.5 6.359375,-0.5 c -1.5625,0 -1.5625,-0.15625 -1.5625,-0.40625 0,-0.03125 0,-0.140625 0.078125,-0.421875 z m 0,0"
   id="path154"
   style="fill:#cad3f5;fill-opacity:1;stroke-linecap:butt;stroke-linejoin:round" />
    </g>
  </g>
  <g
   fill="#000000"
   fill-opacity="1"
   id="g88"
   transform="matrix(0.352778,0,0,0.352778,-0.110243,0.00383637)"
   style="fill:#cad3f5;fill-opacity:1;stroke-linecap:butt;stroke-linejoin:round">
    <g
   id="g9404"
   transform="translate(85.121002,12.911)"
   style="fill:#cad3f5;fill-opacity:1;stroke-linecap:butt;stroke-linejoin:round">
      <path
   d="m 3.84375,-0.484375 c -0.328125,0 -0.515625,0 -0.953125,0.265625 C 2.75,-0.140625 2.34375,0.140625 2.34375,0.34375 c 0,0.125 0.078125,0.125 0.171875,0.125 C 3.671875,0.515625 4.375,0.671875 6.09375,1.28125 7.28125,1.703125 8.5,2.140625 9.859375,2.140625 c 2.015625,0 3.6875,-1.78125 3.6875,-2.484375 0,-0.09375 -0.0625,-0.140625 -0.15625,-0.140625 -0.171875,0 -0.53125,0.140625 -0.796875,0.328125 -0.40625,0.265625 -0.4375,0.375 -0.515625,0.609375 C 11.828125,1.140625 11.46875,1.1875 11,1.1875 9.859375,1.1875 9.09375,0.90625 6.609375,0.0625 9.59375,-0.78125 13.34375,-3.75 13.34375,-7.90625 c 0,-2.34375 -1.265625,-4.234375 -3.796875,-4.234375 -3.515625,0 -7.59375,3.59375 -7.59375,7.1875 0,1.8125 1.078125,3.203125 2.984375,3.203125 1.75,0 3.703125,-1.140625 3.703125,-1.5625 0,-0.09375 -0.125,-0.09375 -0.1875,-0.09375 -0.234375,0 -0.53125,0.171875 -0.78125,0.296875 -0.703125,0.390625 -1.421875,0.40625 -1.59375,0.40625 -1.546875,0 -2.671875,-1.203125 -2.671875,-2.984375 0,-2.140625 1.953125,-5.5 5,-5.5 2.171875,0 3.46875,1.71875 3.46875,4 0,1.71875 -0.703125,3.65625 -2.328125,5.109375 -1.125,1.015625 -2.390625,1.59375 -5.203125,1.59375 z m 0,0"
   id="path158"
   style="fill:#cad3f5;fill-opacity:1;stroke-linecap:butt;stroke-linejoin:round" />
    </g>
  </g>
  <g
   clip-path="url(#clipPath8800-5)"
   id="g94"
   transform="matrix(0.352778,0,0,0.352778,-0.110243,0.00383637)"
   style="fill:#cad3f5;fill-opacity:1;stroke-linecap:butt;stroke-linejoin:round">
    <g
   fill="#000000"
   fill-opacity="1"
   id="g9409"
   style="fill:#cad3f5;fill-opacity:1;stroke-linecap:butt;stroke-linejoin:round">
      <g
   id="use90"
   transform="translate(103.9667,12.911)"
   style="fill:#cad3f5;fill-opacity:1;stroke-linecap:butt;stroke-linejoin:round">
        <path
   d="m 2.734375,-12.296875 c 0,-0.3125 0,-0.625 -0.34375,-0.625 -0.34375,0 -0.34375,0.3125 -0.34375,0.625 V 3.6875 c 0,0.3125 0,0.625 0.34375,0.625 0.34375,0 0.34375,-0.3125 0.34375,-0.625 z m 0,0"
   id="path162"
   style="fill:#cad3f5;fill-opacity:1;stroke-linecap:butt;stroke-linejoin:round" />
      </g>
    </g>
  </g>
  <g
   fill="#000000"
   fill-opacity="1"
   id="g98"
   transform="matrix(0.352778,0,0,0.352778,-0.110243,0.00383637)"
   style="fill:#cad3f5;fill-opacity:1;stroke-linecap:butt;stroke-linejoin:round">
    <g
   id="use96"
   transform="translate(113.527,12.911)"
   style="fill:#cad3f5;fill-opacity:1;stroke-linecap:butt;stroke-linejoin:round">
      <path
   d="M 5.1875,-2.046875 C 5.09375,-1.75 5.09375,-1.71875 4.859375,-1.390625 c -0.375,0.484375 -1.140625,1.21875 -1.953125,1.21875 -0.703125,0 -1.09375,-0.640625 -1.09375,-1.65625 0,-0.9375 0.53125,-2.875 0.859375,-3.59375 C 3.25,-6.625 4.0625,-7.25 4.734375,-7.25 c 1.140625,0 1.359375,1.40625 1.359375,1.546875 0,0.015625 -0.046875,0.25 -0.0625,0.28125 z m 1.09375,-4.40625 C 6.09375,-6.90625 5.625,-7.59375 4.734375,-7.59375 c -1.9375,0 -4.046875,2.515625 -4.046875,5.0625 0,1.703125 1,2.703125 2.171875,2.703125 0.953125,0 1.75,-0.734375 2.234375,-1.3125 0.171875,1.015625 0.984375,1.3125 1.5,1.3125 0.515625,0 0.9375,-0.3125 1.234375,-0.921875 C 8.109375,-1.34375 8.34375,-2.390625 8.34375,-2.46875 8.34375,-2.546875 8.28125,-2.625 8.171875,-2.625 8.03125,-2.625 8,-2.53125 7.9375,-2.265625 7.671875,-1.25 7.359375,-0.171875 6.640625,-0.171875 c -0.5,0 -0.53125,-0.453125 -0.53125,-0.796875 0,-0.390625 0.0625,-0.578125 0.203125,-1.25 0.125,-0.4375 0.21875,-0.8125 0.34375,-1.3125 0.640625,-2.578125 0.796875,-3.203125 0.796875,-3.296875 0,-0.25 -0.1875,-0.4375 -0.4375,-0.4375 -0.5625,0 -0.703125,0.609375 -0.734375,0.8125 z m 0,0"
   id="path166"
   style="fill:#cad3f5;fill-opacity:1;stroke-linecap:butt;stroke-linejoin:round" />
    </g>
  </g>
  <g
   clip-path="url(#clipPath7634-5)"
   id="g104"
   transform="matrix(0.352778,0,0,0.352778,-0.110243,0.00383637)"
   style="fill:#cad3f5;fill-opacity:1;stroke-linecap:butt;stroke-linejoin:round">
    <g
   fill="#000000"
   fill-opacity="1"
   id="g9417"
   style="fill:#cad3f5;fill-opacity:1;stroke-linecap:butt;stroke-linejoin:round">
      <g
   id="use100"
   transform="translate(122.375,12.911)"
   style="fill:#cad3f5;fill-opacity:1;stroke-linecap:butt;stroke-linejoin:round">
        <path
   d="m 5.265625,4.203125 c 0,-0.015625 0,-0.046875 -0.046875,-0.109375 -0.796875,-0.8125 -2.90625,-3.015625 -2.90625,-8.375 0,-5.375 2.078125,-7.5625 2.921875,-8.421875 0,-0.01563 0.03125,-0.0625 0.03125,-0.109375 0,-0.04687 -0.046875,-0.07813 -0.125,-0.07813 -0.1875,0 -1.640625,1.265625 -2.484375,3.15625 -0.859375,1.921875 -1.109375,3.78125 -1.109375,5.421875 0,1.25 0.125,3.34375 1.15625,5.5625 0.828125,1.796875 2.234375,3.0625 2.4375,3.0625 0.09375,0 0.125,-0.046875 0.125,-0.109375 z m 0,0"
   id="path170"
   style="fill:#cad3f5;fill-opacity:1;stroke-linecap:butt;stroke-linejoin:round" />
      </g>
    </g>
  </g>
  <g
   fill="#000000"
   fill-opacity="1"
   id="g108"
   transform="matrix(0.352778,0,0,0.352778,-0.110243,0.00383637)"
   style="fill:#cad3f5;fill-opacity:1;stroke-linecap:butt;stroke-linejoin:round">
    <g
   id="use106"
   transform="translate(128.472,12.911)"
   style="fill:#cad3f5;fill-opacity:1;stroke-linecap:butt;stroke-linejoin:round">
      <path
   d="m 8.15625,-7.03125 c -0.546875,0.109375 -0.75,0.515625 -0.75,0.84375 0,0.421875 0.328125,0.5625 0.5625,0.5625 0.515625,0 0.875,-0.453125 0.875,-0.921875 0,-0.71875 -0.8125,-1.046875 -1.546875,-1.046875 -1.046875,0 -1.625,1.03125 -1.78125,1.359375 -0.40625,-1.296875 -1.46875,-1.359375 -1.78125,-1.359375 -1.75,0 -2.6875,2.25 -2.6875,2.640625 0,0.0625 0.078125,0.15625 0.1875,0.15625 0.140625,0 0.171875,-0.109375 0.21875,-0.171875 C 2.03125,-6.890625 3.1875,-7.25 3.6875,-7.25 c 0.765625,0 0.921875,0.71875 0.921875,1.140625 0,0.375 -0.09375,0.765625 -0.296875,1.59375 L 3.71875,-2.15625 c -0.25,1.03125 -0.75,1.984375 -1.671875,1.984375 -0.078125,0 -0.515625,0 -0.875,-0.21875 0.625,-0.125 0.75,-0.640625 0.75,-0.84375 0,-0.34375 -0.25,-0.5625 -0.578125,-0.5625 -0.40625,0 -0.859375,0.375 -0.859375,0.921875 0,0.71875 0.8125,1.046875 1.546875,1.046875 0.828125,0 1.40625,-0.65625 1.78125,-1.359375 0.265625,1.015625 1.125,1.359375 1.765625,1.359375 1.75,0 2.6875,-2.25 2.6875,-2.640625 0,-0.078125 -0.0625,-0.15625 -0.171875,-0.15625 -0.15625,0 -0.171875,0.09375 -0.21875,0.234375 -0.46875,1.515625 -1.46875,2.21875 -2.25,2.21875 -0.59375,0 -0.921875,-0.453125 -0.921875,-1.15625 0,-0.375 0.0625,-0.65625 0.34375,-1.78125 l 0.59375,-2.34375 C 5.90625,-6.484375 6.484375,-7.25 7.28125,-7.25 c 0.03125,0 0.515625,0 0.875,0.21875 z m 0,0"
   id="path174"
   style="fill:#cad3f5;fill-opacity:1;stroke-linecap:butt;stroke-linejoin:round" />
    </g>
  </g>
  <g
   clip-path="url(#clipPath4272-2)"
   id="g114"
   transform="matrix(0.352778,0,0,0.352778,-0.110243,0.00383637)"
   style="fill:#cad3f5;fill-opacity:1;stroke-linecap:butt;stroke-linejoin:round">
    <g
   fill="#000000"
   fill-opacity="1"
   id="g9425"
   style="fill:#cad3f5;fill-opacity:1;stroke-linecap:butt;stroke-linejoin:round">
      <g
   id="use110"
   transform="translate(138.05099,12.911)"
   style="fill:#cad3f5;fill-opacity:1;stroke-linecap:butt;stroke-linejoin:round">
        <path
   d="m 4.53125,-4.28125 c 0,-1.25 -0.125,-3.34375 -1.15625,-5.5625 -0.828125,-1.796875 -2.234375,-3.046875 -2.4375,-3.046875 -0.0625,0 -0.125,0.01563 -0.125,0.09375 0,0.03125 0.015625,0.0625 0.03125,0.09375 0.828125,0.859375 2.921875,3.046875 2.921875,8.390625 0,5.375 -2.078125,7.5625 -2.921875,8.421875 C 0.828125,4.15625 0.8125,4.171875 0.8125,4.203125 0.8125,4.28125 0.875,4.3125 0.9375,4.3125 1.125,4.3125 2.578125,3.03125 3.421875,1.140625 4.28125,-0.78125 4.53125,-2.640625 4.53125,-4.28125 Z m 0,0"
   id="path178"
   style="fill:#cad3f5;fill-opacity:1;stroke-linecap:butt;stroke-linejoin:round" />
      </g>
    </g>
  </g>
  <g
   fill="#000000"
   fill-opacity="1"
   id="g118"
   transform="matrix(0.352778,0,0,0.352778,-0.110243,0.00383637)"
   style="fill:#cad3f5;fill-opacity:1;stroke-linecap:butt;stroke-linejoin:round">
    <g
   id="use116"
   transform="translate(148.93286,12.911)"
   style="fill:#cad3f5;fill-opacity:1;stroke-linecap:butt;stroke-linejoin:round">
      <path
   d="m 11.078125,-5.53125 c 0.25,0 0.515625,0 0.515625,-0.28125 C 11.59375,-6.125 11.296875,-6.125 11,-6.125 H 1.375 c -0.296875,0 -0.578125,0 -0.578125,0.3125 0,0.28125 0.25,0.28125 0.515625,0.28125 z M 11,-2.46875 c 0.296875,0 0.59375,0 0.59375,-0.296875 0,-0.296875 -0.265625,-0.296875 -0.515625,-0.296875 H 1.3125 c -0.265625,0 -0.515625,0 -0.515625,0.296875 0,0.296875 0.28125,0.296875 0.578125,0.296875 z m 0,0"
   id="path182"
   style="fill:#cad3f5;fill-opacity:1;stroke-linecap:butt;stroke-linejoin:round" />
    </g>
  </g>
  <g
   fill="#000000"
   fill-opacity="1"
   id="g122"
   transform="matrix(0.352778,0,0,0.352778,-0.110243,0.00383637)"
   style="fill:#cad3f5;fill-opacity:1;stroke-linecap:butt;stroke-linejoin:round">
    <g
   id="use120"
   transform="translate(166.11038,12.911)"
   style="fill:#cad3f5;fill-opacity:1;stroke-linecap:butt;stroke-linejoin:round">
      <path
   d="m 7.234375,-5.53125 c 0,-1.046875 -0.015625,-2.84375 -0.75,-4.21875 -0.625,-1.203125 -1.640625,-1.625 -2.546875,-1.625 -0.828125,0 -1.875,0.375 -2.53125,1.609375 -0.6875,1.296875 -0.75,2.890625 -0.75,4.234375 0,0.984375 0.015625,2.484375 0.546875,3.796875 0.75,1.765625 2.0625,2.015625 2.734375,2.015625 0.796875,0 2,-0.328125 2.703125,-1.96875 0.515625,-1.1875 0.59375,-2.578125 0.59375,-3.84375 z M 3.9375,0 C 2.84375,0 2.1875,-0.953125 1.953125,-2.25 1.75,-3.265625 1.75,-4.75 1.75,-5.71875 c 0,-1.328125 0,-2.421875 0.234375,-3.46875 0.328125,-1.46875 1.28125,-1.921875 1.953125,-1.921875 0.71875,0 1.625,0.46875 1.953125,1.875 C 6.109375,-8.25 6.125,-7.09375 6.125,-5.71875 c 0,1.125 0,2.5 -0.203125,3.515625 C 5.5625,-0.328125 4.546875,0 3.9375,0 Z m 0,0"
   id="path186"
   style="fill:#cad3f5;fill-opacity:1;stroke-linecap:butt;stroke-linejoin:round" />
    </g>
  </g>
  <g
   clip-path="url(#clipPath8441-1)"
   id="g128"
   transform="matrix(0.352778,0,0,0.352778,-0.110243,0.00383637)"
   style="fill:#cad3f5;fill-opacity:1;stroke-linecap:butt;stroke-linejoin:round">
    <g
   fill="#000000"
   fill-opacity="1"
   id="g9436"
   style="fill:#cad3f5;fill-opacity:1;stroke-linecap:butt;stroke-linejoin:round">
      <g
   id="use124"
   transform="translate(173.99899,12.911)"
   style="fill:#cad3f5;fill-opacity:1;stroke-linecap:butt;stroke-linejoin:round">
        <path
   d="m 3.71875,2.015625 c 0,0.6875 -0.453125,1.796875 -2.328125,1.90625 -0.078125,0.015625 -0.15625,0.09375 -0.15625,0.1875 0,0.203125 0.1875,0.203125 0.34375,0.203125 C 3.25,4.3125 4.859375,3.46875 4.875,2.15625 v -3.9375 c 0,-0.65625 0,-1.21875 0.6875,-1.78125 0.609375,-0.5 1.25,-0.53125 1.640625,-0.546875 C 7.28125,-4.125 7.359375,-4.203125 7.359375,-4.3125 7.359375,-4.484375 7.25,-4.484375 7.078125,-4.5 5.9375,-4.5625 5.109375,-5.1875 4.921875,-6.03125 4.875,-6.21875 4.875,-6.25 4.875,-6.875 v -3.40625 c 0,-0.71875 0,-1.265625 -0.828125,-1.921875 -0.6875,-0.53125 -1.875,-0.71875 -2.46875,-0.71875 -0.15625,0 -0.34375,0 -0.34375,0.203125 0,0.171875 0.109375,0.171875 0.28125,0.1875 1.078125,0.0625 1.921875,0.609375 2.15625,1.5 0.046875,0.15625 0.046875,0.1875 0.046875,0.796875 v 3.625 c 0,0.796875 0.140625,1.078125 0.6875,1.640625 C 4.765625,-4.609375 5.265625,-4.4375 5.75,-4.3125 4.34375,-3.90625 3.71875,-3.109375 3.71875,-2.125 Z m 0,0"
   id="path190"
   style="fill:#cad3f5;fill-opacity:1;stroke-linecap:butt;stroke-linejoin:round" />
      </g>
    </g>
  </g>
</g></g></g></g></svg>
