<?xml version="1.0" encoding="UTF-8" standalone="no"?>
<!-- Created with Inkscape (http://www.inkscape.org/) -->

<svg
   version="1.1"
   id="svg281"
   width="247.74936"
   height="352.04077"
   viewBox="0 0 247.74936 352.04077"
   sodipodi:docname="poing"
   inkscape:version="1.2.2 (b0a8486541, 2022-12-01)"
   xmlns:inkscape="http://www.inkscape.org/namespaces/inkscape"
   xmlns:sodipodi="http://sodipodi.sourceforge.net/DTD/sodipodi-0.dtd"
   xmlns="http://www.w3.org/2000/svg"
   xmlns:svg="http://www.w3.org/2000/svg">
  <defs
     id="defs285" />
  <sodipodi:namedview
     id="namedview283"
     pagecolor="#505050"
     bordercolor="#eeeeee"
     borderopacity="1"
     inkscape:showpageshadow="0"
     inkscape:pageopacity="0"
     inkscape:pagecheckerboard="0"
     inkscape:deskcolor="#505050"
     showgrid="false"
     inkscape:zoom="0.70530507"
     inkscape:cx="554.37004"
     inkscape:cy="143.90936"
     inkscape:window-width="1920"
     inkscape:window-height="1011"
     inkscape:window-x="0"
     inkscape:window-y="0"
     inkscape:window-maximized="1"
     inkscape:current-layer="g287" />
  <g
     inkscape:groupmode="layer"
     inkscape:label="Image"
     id="g287"
     transform="translate(5.7050168,-1.4796136)">
    <path
       style="fill:#cad3f5;fill-opacity:1"
       d="m 63.99468,353.20943 c -4.76915,-0.34449 -8.97943,-0.93663 -9.35617,-1.31586 -0.82664,-0.8321 -0.24585,-5.38097 7.66551,-60.03801 l 6.18461,-42.72753 -16.75102,-24.77247 c -9.21307,-13.62487 -25.72668,-38.04748 -36.69692,-54.27248 -10.9702395,-16.225 -20.2036895,-30.5125 -20.5187595,-31.75 -0.31508,-1.2375 -0.30023,-3.33629 0.033,-4.66398 0.48999,-1.9523 23.7296395,-35.798223 49.6710395,-72.340247 2.49866,-3.519704 5.45946,-6.527371 6.77176,-6.878954 2.33277,-0.624975 25.35965,8.725994 60.16814,24.433627 19.97724,9.014904 20,9.033037 20,15.935731 0,7.728823 -1.90141,17.937113 -3.60421,19.350313 -1.96133,1.62776 -24.18834,4.81241 -33.97434,4.86779 -7.31378,0.0414 -8.49712,-0.23297 -12.5,-2.89819 -2.4318,-1.61916 -6.88107,-5.44416 -9.88729,-8.5 -3.00621,-3.05585 -5.87759,-5.55609 -6.38084,-5.55609 -1.45159,0 -8.7e-4,6.56109 2.80669,12.69361 3.18417,6.95513 2.65989,8.92408 -2.7704,10.40441 -9.27892,2.52949 -10.7775,3.1383 -10.41342,4.23052 0.20886,0.62659 7.31966,3.88263 15.80178,7.23563 12.30799,4.86539 16.2132,6.88785 19.34019,10.0161 3.44652,3.4479 33.52715,54.30505 45.68703,77.24279 4.60838,8.693 4.38213,9.61088 -3.99369,16.20205 -4.58347,3.60686 -5.13589,4.38174 -3.69755,5.18666 0.93002,0.52047 3.53958,0.63398 5.79902,0.25225 l 4.10811,-0.69406 -0.67449,14.86502 c -0.68829,15.16902 -6.16668,83.28005 -7.16235,89.04713 -0.51934,3.00804 -0.83481,3.21174 -5.76682,3.72361 -8.57178,0.88962 -50.55539,1.39481 -59.88861,0.72063 z m 83.93711,0.16187 c -12.72943,-0.47112 -12.40929,0.11152 -10.83537,-19.72033 1.74748,-22.01871 7.97415,-83.69227 8.67156,-85.88962 0.52554,-1.65583 1.25118,-1.80211 5.99788,-1.20904 2.97001,0.37107 5.40002,0.34902 5.40002,-0.049 0,-0.9495 -5.4389,-10.34793 -28.1291,-48.60714 -19.96378,-33.66202 -27.87091,-47.74666 -27.87091,-49.64528 0,-3.36618 17.1495,0.0752 31.72947,6.36711 18.08215,7.80327 22.84658,10.86586 35.08439,22.55231 7.64682,7.3023 12.17634,10.91277 13.69062,10.91277 2.41702,0 7.99436,-3.60831 26.83242,-17.35946 6.51029,-4.7523 12.31383,-8.64054 12.89674,-8.64054 2.69889,0 -3.53197,36.52344 -9.32085,54.63595 -5.15847,16.14006 -11.39965,27.03959 -22.4075,39.13214 l -5.70583,6.26808 0.21455,38.23192 c 0.30581,54.49379 0.43136,51.60142 -2.26401,52.16055 -3.61514,0.74994 -23.41508,1.25075 -33.98408,0.85958 z m 29.31538,-173.95063 c -5.26939,-4.5104 -14.0813,-14.98055 -14.0813,-16.73115 0,-1.21396 44.23942,-50.84735 50.73899,-56.92543 l 3.01446,-2.81898 5.25068,5.31898 c 6.32889,6.41123 15.94026,18.10793 18.51202,22.52846 1.8294,3.14453 1.82789,3.25327 -0.0745,5.37379 -2.10391,2.34519 -43.8788,37.24165 -51.76827,43.24439 -2.65462,2.01979 -5.38612,3.67235 -6.07,3.67235 -0.68387,0 -3.16882,-1.64808 -5.5221,-3.66241 z m -39.5813,-27.43789 c -7.15,-3.32079 -13.53409,-6.26897 -14.18685,-6.55151 -0.65278,-0.28254 -0.92068,-1.26397 -0.59535,-2.18095 1.00754,-2.83983 10.84183,-16.60664 31.11764,-43.560933 20.87456,-27.75027 24.80313,-32.606314 26.37874,-32.606314 1.62183,0 29.78582,28.208624 29.78582,29.833024 0,2.02975 -3.06809,5.894963 -19.93284,25.111613 -8.01193,9.12925 -18.39216,20.96862 -23.06716,26.30971 -8.10503,9.25983 -8.68586,9.71042 -12.5,9.69712 -2.7688,-0.01 -8.00138,-1.87238 -17,-6.05176 z M 95.76425,136.03426 c -15.02705,-5.74373 -19.85622,-8.01819 -20.33618,-9.57797 -0.55861,-1.81538 2.04233,-2.24799 7.31653,-1.21695 5.68228,1.1108 13.06986,0.48331 26.28135,-2.2323 11.67493,-2.39977 17.13992,-2.51912 17.13992,-0.3743 0,4.63347 -11.60505,18.49736 -15.39506,18.3916 -1.15772,-0.0323 -7.91067,-2.27784 -15.00656,-4.99008 z M 135.52133,109.567 c -0.34673,-0.90357 -0.36848,-5.99459 -0.0483,-11.313393 0.32016,-5.31879 0.22885,-10.557188 -0.20289,-11.640877 -0.4445,-1.115699 -5.73396,-4.637313 -12.19462,-8.118924 -6.27529,-3.38172 -11.5507,-6.859659 -11.72314,-7.728752 -0.34997,-1.76385 14.95679,-26.750721 21.57814,-35.224363 2.4493,-3.134512 5.05838,-5.457618 6.12943,-5.457618 2.14836,0 14.80774,10.928937 27.00598,23.314429 l 8.40003,8.529005 -3.80061,5.328283 c -6.31592,8.854618 -32.52771,42.7277 -33.55501,43.36261 -0.52723,0.32584 -1.24228,-0.14684 -1.58901,-1.0504 z M 89.4142,62.633699 C 73.23507,55.601281 62.49796,50.429408 61.82847,49.346155 61.13077,48.217263 63.93616,44.078265 80.30718,22.083073 93.37272,4.528935 96.83493,0.74209997 99.04373,1.589696 c 2.99223,1.148229 16.97311,11.730593 23.74055,17.969635 l 6.88159,6.344271 -2.84396,5.339735 c -5.65997,10.626978 -23.13429,35.331924 -25.1757,35.593046 -1.08919,0.13932 -6.59359,-1.751888 -12.23201,-4.202684 z"
       id="path399" />
  </g>
</svg>
