<?xml version="1.0" encoding="utf-8" standalone="no"?>
<!DOCTYPE svg PUBLIC "-//W3C//DTD SVG 1.1//EN"
  "http://www.w3.org/Graphics/SVG/1.1/DTD/svg11.dtd">
<svg xmlns:xlink="http://www.w3.org/1999/xlink" width="720pt" height="720pt" viewBox="0 0 720 720" xmlns="http://www.w3.org/2000/svg" version="1.1">
 <metadata>
  <rdf:RDF xmlns:dc="http://purl.org/dc/elements/1.1/" xmlns:cc="http://creativecommons.org/ns#" xmlns:rdf="http://www.w3.org/1999/02/22-rdf-syntax-ns#">
   <cc:Work>
    <dc:type rdf:resource="http://purl.org/dc/dcmitype/StillImage"/>
    <dc:date>2025-06-08T18:29:44.529704</dc:date>
    <dc:format>image/svg+xml</dc:format>
    <dc:creator>
     <cc:Agent>
      <dc:title>Matplotlib v3.9.2, https://matplotlib.org/</dc:title>
     </cc:Agent>
    </dc:creator>
   </cc:Work>
  </rdf:RDF>
 </metadata>
 <defs>
  <style type="text/css">*{stroke-linejoin: round; stroke-linecap: butt}</style>
 </defs>
 <g id="figure_1">
  <g id="patch_1">
   <path d="M 0 720 
L 720 720 
L 720 0 
L 0 0 
z
" style="fill: #24273a"/>
  </g>
  <g id="axes_1">
   <g id="patch_2">
    <path d="M 125.281301 640.8 
L 612.718699 640.8 
L 612.718699 86.4 
L 125.281301 86.4 
z
" style="fill: #24273a"/>
   </g>
   <g id="matplotlib.axis_1">
    <g id="xtick_1">
     <g id="line2d_1">
      <path d="M 157.777128 640.8 
L 157.777128 86.4 
" clip-path="url(#pc845fc2369)" style="fill: none; stroke: #cad3f5; stroke-width: 0.5; stroke-linecap: square"/>
     </g>
     <g id="line2d_2">
      <defs>
       <path id="m8fc00df39d" d="M 0 0 
L 0 3.5 
"/>
      </defs>
      <g>
       <use xlink:href="#m8fc00df39d" x="157.777128" y="640.8"/>
      </g>
     </g>
    </g>
    <g id="xtick_2">
     <g id="line2d_3">
      <path d="M 222.768781 640.8 
L 222.768781 86.4 
" clip-path="url(#pc845fc2369)" style="fill: none; stroke: #cad3f5; stroke-width: 0.5; stroke-linecap: square"/>
     </g>
     <g id="line2d_4">
      <g>
       <use xlink:href="#m8fc00df39d" x="222.768781" y="640.8"/>
      </g>
     </g>
    </g>
    <g id="xtick_3">
     <g id="line2d_5">
      <path d="M 287.760434 640.8 
L 287.760434 86.4 
" clip-path="url(#pc845fc2369)" style="fill: none; stroke: #cad3f5; stroke-width: 0.5; stroke-linecap: square"/>
     </g>
     <g id="line2d_6">
      <g>
       <use xlink:href="#m8fc00df39d" x="287.760434" y="640.8"/>
      </g>
     </g>
    </g>
    <g id="xtick_4">
     <g id="line2d_7">
      <path d="M 352.752087 640.8 
L 352.752087 86.4 
" clip-path="url(#pc845fc2369)" style="fill: none; stroke: #cad3f5; stroke-width: 0.5; stroke-linecap: square"/>
     </g>
     <g id="line2d_8">
      <g>
       <use xlink:href="#m8fc00df39d" x="352.752087" y="640.8"/>
      </g>
     </g>
    </g>
    <g id="xtick_5">
     <g id="line2d_9">
      <path d="M 417.74374 640.8 
L 417.74374 86.4 
" clip-path="url(#pc845fc2369)" style="fill: none; stroke: #cad3f5; stroke-width: 0.5; stroke-linecap: square"/>
     </g>
     <g id="line2d_10">
      <g>
       <use xlink:href="#m8fc00df39d" x="417.74374" y="640.8"/>
      </g>
     </g>
    </g>
    <g id="xtick_6">
     <g id="line2d_11">
      <path d="M 482.735393 640.8 
L 482.735393 86.4 
" clip-path="url(#pc845fc2369)" style="fill: none; stroke: #cad3f5; stroke-width: 0.5; stroke-linecap: square"/>
     </g>
     <g id="line2d_12">
      <g>
       <use xlink:href="#m8fc00df39d" x="482.735393" y="640.8"/>
      </g>
     </g>
    </g>
    <g id="xtick_7">
     <g id="line2d_13">
      <path d="M 547.727046 640.8 
L 547.727046 86.4 
" clip-path="url(#pc845fc2369)" style="fill: none; stroke: #cad3f5; stroke-width: 0.5; stroke-linecap: square"/>
     </g>
     <g id="line2d_14">
      <g>
       <use xlink:href="#m8fc00df39d" x="547.727046" y="640.8"/>
      </g>
     </g>
    </g>
    <g id="xtick_8">
     <g id="line2d_15">
      <path d="M 612.718699 640.8 
L 612.718699 86.4 
" clip-path="url(#pc845fc2369)" style="fill: none; stroke: #cad3f5; stroke-width: 0.5; stroke-linecap: square"/>
     </g>
     <g id="line2d_16">
      <g>
       <use xlink:href="#m8fc00df39d" x="612.718699" y="640.8"/>
      </g>
     </g>
    </g>
    <g id="text_1">
     <!-- y [m] -->
     <g style="fill: #cad3f5" transform="translate(345.023438 665.477188) scale(0.18 -0.18)">
      <defs>
       <path id="DejaVuSans-79" d="M 2059 -325 
Q 1816 -950 1584 -1140 
Q 1353 -1331 966 -1331 
L 506 -1331 
L 506 -850 
L 844 -850 
Q 1081 -850 1212 -737 
Q 1344 -625 1503 -206 
L 1606 56 
L 191 3500 
L 800 3500 
L 1894 763 
L 2988 3500 
L 3597 3500 
L 2059 -325 
z
" transform="scale(0.015625)"/>
       <path id="DejaVuSans-20" transform="scale(0.015625)"/>
       <path id="DejaVuSans-5b" d="M 550 4863 
L 1875 4863 
L 1875 4416 
L 1125 4416 
L 1125 -397 
L 1875 -397 
L 1875 -844 
L 550 -844 
L 550 4863 
z
" transform="scale(0.015625)"/>
       <path id="DejaVuSans-6d" d="M 3328 2828 
Q 3544 3216 3844 3400 
Q 4144 3584 4550 3584 
Q 5097 3584 5394 3201 
Q 5691 2819 5691 2113 
L 5691 0 
L 5113 0 
L 5113 2094 
Q 5113 2597 4934 2840 
Q 4756 3084 4391 3084 
Q 3944 3084 3684 2787 
Q 3425 2491 3425 1978 
L 3425 0 
L 2847 0 
L 2847 2094 
Q 2847 2600 2669 2842 
Q 2491 3084 2119 3084 
Q 1678 3084 1418 2786 
Q 1159 2488 1159 1978 
L 1159 0 
L 581 0 
L 581 3500 
L 1159 3500 
L 1159 2956 
Q 1356 3278 1631 3431 
Q 1906 3584 2284 3584 
Q 2666 3584 2933 3390 
Q 3200 3197 3328 2828 
z
" transform="scale(0.015625)"/>
       <path id="DejaVuSans-5d" d="M 1947 4863 
L 1947 -844 
L 622 -844 
L 622 -397 
L 1369 -397 
L 1369 4416 
L 622 4416 
L 622 4863 
L 1947 4863 
z
" transform="scale(0.015625)"/>
      </defs>
      <use xlink:href="#DejaVuSans-79"/>
      <use xlink:href="#DejaVuSans-20" x="59.179688"/>
      <use xlink:href="#DejaVuSans-5b" x="90.966797"/>
      <use xlink:href="#DejaVuSans-6d" x="129.980469"/>
      <use xlink:href="#DejaVuSans-5d" x="227.392578"/>
     </g>
    </g>
   </g>
   <g id="matplotlib.axis_2">
    <g id="ytick_1">
     <g id="line2d_17">
      <path d="M 125.281301 640.8 
L 612.718699 640.8 
" clip-path="url(#pc845fc2369)" style="fill: none; stroke: #cad3f5; stroke-width: 0.5; stroke-linecap: square"/>
     </g>
     <g id="line2d_18">
      <defs>
       <path id="m8353680631" d="M 0 0 
L -3.5 0 
"/>
      </defs>
      <g>
       <use xlink:href="#m8353680631" x="125.281301" y="640.8"/>
      </g>
     </g>
    </g>
    <g id="ytick_2">
     <g id="line2d_19">
      <path d="M 125.281301 575.808347 
L 612.718699 575.808347 
" clip-path="url(#pc845fc2369)" style="fill: none; stroke: #cad3f5; stroke-width: 0.5; stroke-linecap: square"/>
     </g>
     <g id="line2d_20">
      <g>
       <use xlink:href="#m8353680631" x="125.281301" y="575.808347"/>
      </g>
     </g>
    </g>
    <g id="ytick_3">
     <g id="line2d_21">
      <path d="M 125.281301 510.816694 
L 612.718699 510.816694 
" clip-path="url(#pc845fc2369)" style="fill: none; stroke: #cad3f5; stroke-width: 0.5; stroke-linecap: square"/>
     </g>
     <g id="line2d_22">
      <g>
       <use xlink:href="#m8353680631" x="125.281301" y="510.816694"/>
      </g>
     </g>
    </g>
    <g id="ytick_4">
     <g id="line2d_23">
      <path d="M 125.281301 445.825041 
L 612.718699 445.825041 
" clip-path="url(#pc845fc2369)" style="fill: none; stroke: #cad3f5; stroke-width: 0.5; stroke-linecap: square"/>
     </g>
     <g id="line2d_24">
      <g>
       <use xlink:href="#m8353680631" x="125.281301" y="445.825041"/>
      </g>
     </g>
    </g>
    <g id="ytick_5">
     <g id="line2d_25">
      <path d="M 125.281301 380.833388 
L 612.718699 380.833388 
" clip-path="url(#pc845fc2369)" style="fill: none; stroke: #cad3f5; stroke-width: 0.5; stroke-linecap: square"/>
     </g>
     <g id="line2d_26">
      <g>
       <use xlink:href="#m8353680631" x="125.281301" y="380.833388"/>
      </g>
     </g>
    </g>
    <g id="ytick_6">
     <g id="line2d_27">
      <path d="M 125.281301 315.841735 
L 612.718699 315.841735 
" clip-path="url(#pc845fc2369)" style="fill: none; stroke: #cad3f5; stroke-width: 0.5; stroke-linecap: square"/>
     </g>
     <g id="line2d_28">
      <g>
       <use xlink:href="#m8353680631" x="125.281301" y="315.841735"/>
      </g>
     </g>
    </g>
    <g id="ytick_7">
     <g id="line2d_29">
      <path d="M 125.281301 250.850082 
L 612.718699 250.850082 
" clip-path="url(#pc845fc2369)" style="fill: none; stroke: #cad3f5; stroke-width: 0.5; stroke-linecap: square"/>
     </g>
     <g id="line2d_30">
      <g>
       <use xlink:href="#m8353680631" x="125.281301" y="250.850082"/>
      </g>
     </g>
    </g>
    <g id="ytick_8">
     <g id="line2d_31">
      <path d="M 125.281301 185.858429 
L 612.718699 185.858429 
" clip-path="url(#pc845fc2369)" style="fill: none; stroke: #cad3f5; stroke-width: 0.5; stroke-linecap: square"/>
     </g>
     <g id="line2d_32">
      <g>
       <use xlink:href="#m8353680631" x="125.281301" y="185.858429"/>
      </g>
     </g>
    </g>
    <g id="ytick_9">
     <g id="line2d_33">
      <path d="M 125.281301 120.866776 
L 612.718699 120.866776 
" clip-path="url(#pc845fc2369)" style="fill: none; stroke: #cad3f5; stroke-width: 0.5; stroke-linecap: square"/>
     </g>
     <g id="line2d_34">
      <g>
       <use xlink:href="#m8353680631" x="125.281301" y="120.866776"/>
      </g>
     </g>
    </g>
    <g id="text_2">
     <!-- z [m] -->
     <g style="fill: #cad3f5" transform="translate(110.537864 386.973281) rotate(-90) scale(0.18 -0.18)">
      <defs>
       <path id="DejaVuSans-7a" d="M 353 3500 
L 3084 3500 
L 3084 2975 
L 922 459 
L 3084 459 
L 3084 0 
L 275 0 
L 275 525 
L 2438 3041 
L 353 3041 
L 353 3500 
z
" transform="scale(0.015625)"/>
      </defs>
      <use xlink:href="#DejaVuSans-7a"/>
      <use xlink:href="#DejaVuSans-20" x="52.490234"/>
      <use xlink:href="#DejaVuSans-5b" x="84.277344"/>
      <use xlink:href="#DejaVuSans-6d" x="123.291016"/>
      <use xlink:href="#DejaVuSans-5d" x="220.703125"/>
     </g>
    </g>
   </g>
   <g id="line2d_35">
    <path d="M 265.324459 327.94912 
L 265.940474 329.543934 
L 266.5549 331.143935 
L 267.168028 332.747664 
L 267.780155 334.353661 
L 268.391589 335.960471 
L 269.002648 337.566641 
L 269.613658 339.170727 
L 270.224957 340.771293 
L 270.836892 342.366912 
L 271.449819 343.956171 
L 272.064105 345.537668 
L 272.680126 347.110018 
L 273.298267 348.671854 
L 273.918924 350.221825 
L 274.5425 351.758603 
L 275.169409 353.280881 
L 275.800071 354.787377 
L 276.434917 356.276832 
L 277.074384 357.748016 
L 277.718917 359.199726 
L 278.368968 360.630789 
L 279.024994 362.040065 
L 279.68746 363.426444 
L 280.356835 364.788852 
L 281.033592 366.12625 
L 281.718209 367.437634 
L 282.411167 368.722039 
L 283.112948 369.978539 
L 283.824037 371.206247 
L 284.544918 372.404317 
L 285.276077 373.571945 
L 286.017997 374.708371 
L 286.771158 375.812875 
L 287.536039 376.884786 
L 288.313114 377.923474 
L 289.102851 378.928356 
L 289.905712 379.898895 
L 290.722152 380.834601 
L 291.552616 381.735031 
L 292.39754 382.599787 
L 293.257351 383.428521 
L 294.132461 384.220933 
L 295.02327 384.976769 
L 295.930165 385.695824 
L 296.853516 386.37794 
L 297.793676 387.023008 
L 298.750982 387.630965 
L 299.72575 388.201796 
L 300.718278 388.735533 
L 301.728843 389.232256 
L 302.757697 389.692089 
L 303.805073 390.115202 
L 304.871178 390.501812 
L 305.956192 390.852178 
L 307.060273 391.166605 
L 308.183549 391.44544 
L 309.326122 391.689073 
L 310.488065 391.897933 
L 311.669422 392.072494 
L 312.870207 392.213265 
L 314.090404 392.320797 
L 315.329965 392.395677 
L 316.588812 392.438529 
L 317.866834 392.450012 
L 319.163888 392.430821 
L 320.479799 392.381682 
L 321.814358 392.303354 
L 323.167324 392.196628 
L 324.538423 392.062322 
L 325.927346 391.901284 
L 327.333755 391.71439 
L 328.757274 391.502539 
L 330.197498 391.266656 
L 331.653989 391.007691 
L 333.126276 390.726613 
L 334.613855 390.424412 
L 336.116195 390.1021 
L 337.632729 389.760702 
L 339.162864 389.401265 
L 340.705976 389.024848 
L 342.261413 388.632526 
L 343.828493 388.225383 
L 345.40651 387.80452 
L 346.994731 387.371044 
L 348.592396 386.926073 
L 350.198724 386.470731 
L 351.812909 386.006151 
L 353.434125 385.533469 
L 355.061522 385.053827 
L 356.694235 384.568368 
L 358.331378 384.078237 
L 359.97205 383.584582 
L 361.615332 383.088548 
L 363.260294 382.591279 
L 364.905991 382.093918 
L 366.551468 381.597601 
L 368.195761 381.103462 
L 369.837896 380.612628 
L 371.476893 380.12622 
" clip-path="url(#pc845fc2369)" style="fill: none; stroke: #f4dbd6; stroke-width: 3; stroke-linecap: square"/>
   </g>
   <g id="line2d_36">
    <path d="M 371.476893 380.12622 
L 372.635511 379.785535 
L 373.794129 379.448309 
L 374.952747 379.114541 
L 376.111365 378.784232 
L 377.269984 378.457382 
L 378.428602 378.13399 
L 379.58722 377.814058 
L 380.745838 377.497584 
L 381.904456 377.184569 
L 383.063074 376.875012 
L 384.221692 376.568914 
L 385.38031 376.266275 
L 386.538928 375.967095 
L 387.697546 375.671373 
L 388.856165 375.379111 
L 390.014783 375.090306 
L 391.173401 374.804961 
L 392.332019 374.523074 
L 393.490637 374.244647 
L 394.649255 373.969677 
L 395.807873 373.698167 
L 396.966491 373.430115 
L 398.125109 373.165522 
L 399.283727 372.904388 
L 400.442346 372.646712 
L 401.600964 372.392496 
L 402.759582 372.141738 
L 403.9182 371.894438 
L 405.076818 371.650598 
L 406.235436 371.410216 
L 407.394054 371.173293 
L 408.552672 370.939828 
L 409.71129 370.709823 
L 410.869908 370.483276 
L 412.028527 370.260187 
L 413.187145 370.040558 
L 414.345763 369.824387 
L 415.504381 369.611675 
L 416.662999 369.402422 
L 417.821617 369.196627 
L 418.980235 368.994292 
L 420.138853 368.795415 
L 421.297471 368.599996 
L 422.456089 368.408037 
L 423.614708 368.219536 
L 424.773326 368.034494 
L 425.931944 367.85291 
L 427.090562 367.674785 
L 428.24918 367.500119 
L 429.407798 367.328912 
L 430.566416 367.161164 
L 431.725034 366.996874 
L 432.883652 366.836043 
L 434.04227 366.678671 
L 435.200889 366.524757 
L 436.359507 366.374302 
L 437.518125 366.227306 
L 438.676743 366.083769 
L 439.835361 365.94369 
L 440.993979 365.80707 
L 442.152597 365.673909 
L 443.311215 365.544207 
L 444.469833 365.417963 
L 445.628451 365.295178 
L 446.78707 365.175852 
L 447.945688 365.059984 
L 449.104306 364.947575 
L 450.262924 364.838625 
L 451.421542 364.733134 
L 452.58016 364.631101 
L 453.738778 364.532528 
L 454.897396 364.437412 
L 456.056014 364.345756 
L 457.214632 364.257558 
L 458.373251 364.172819 
L 459.531869 364.091539 
L 460.690487 364.013718 
L 461.849105 363.939355 
L 463.007723 363.868451 
L 464.166341 363.801006 
L 465.324959 363.737019 
L 466.483577 363.676491 
L 467.642195 363.619422 
L 468.800813 363.565812 
L 469.959432 363.51566 
L 471.11805 363.468968 
L 472.276668 363.425733 
L 473.435286 363.385958 
L 474.593904 363.349641 
L 475.752522 363.316783 
L 476.91114 363.287384 
L 478.069758 363.261444 
L 479.228376 363.238962 
L 480.386994 363.219939 
L 481.545613 363.204375 
L 482.704231 363.192269 
L 483.862849 363.183622 
L 485.021467 363.178434 
L 486.180085 363.176705 
" clip-path="url(#pc845fc2369)" style="fill: none; stroke: #f4dbd6; stroke-width: 3; stroke-linecap: square"/>
   </g>
   <g id="line2d_37">
    <path d="M 159.401919 153.402451 
L 162.651502 153.721235 
L 165.901084 154.358803 
L 169.150667 155.315155 
L 172.40025 156.590291 
L 175.649832 158.184212 
L 178.899415 160.096916 
L 182.148998 162.328404 
L 185.39858 164.878677 
L 188.648163 167.747733 
L 191.897746 170.935574 
L 195.147328 174.442199 
L 198.396911 178.267607 
L 201.646494 182.4118 
L 204.896076 186.874777 
L 208.145659 191.656538 
L 211.395242 196.757083 
L 214.644824 202.176412 
L 217.894407 207.914525 
L 221.143989 213.971422 
L 226.018363 223.654487 
L 230.892737 234.054817 
L 235.767111 245.172411 
L 240.641485 257.007269 
L 245.515859 269.559392 
L 250.390233 282.828778 
L 255.264607 296.815429 
L 260.138981 311.519343 
L 265.013355 326.940522 
L 269.935569 342.919649 
L 273.425434 353.308659 
L 275.290006 358.264098 
L 277.260462 362.996235 
L 279.35645 367.461721 
L 281.597309 371.621589 
L 284.001756 375.441776 
L 286.587553 378.893562 
L 289.371158 381.953937 
L 292.367371 384.605881 
L 295.588983 386.838549 
L 299.046427 388.647367 
L 302.747457 390.034031 
L 306.696846 391.00642 
L 310.896125 391.578408 
L 315.343376 391.769606 
L 320.033071 391.605014 
L 324.95598 391.114611 
L 330.099143 390.33288 
L 335.445917 389.298281 
L 340.976089 388.052682 
L 352.489106 385.109369 
L 370.449392 380.286167 
L 382.513278 377.341448 
L 394.565971 374.730279 
L 406.618665 372.437894 
L 418.671358 370.464293 
L 430.724051 368.809476 
L 442.776744 367.473444 
L 454.829438 366.456195 
L 466.882131 365.75773 
L 478.934824 365.37805 
L 490.987517 365.317153 
L 503.040211 365.57504 
L 515.092904 366.151712 
L 527.145597 367.047167 
L 539.19829 368.261407 
L 551.250984 369.794431 
L 563.303677 371.646238 
L 575.35637 373.81683 
L 587.409063 376.306206 
L 599.461757 379.114366 
L 611.51445 382.24131 
L 623.567143 385.687038 
L 635.619837 389.45155 
L 647.67253 393.534846 
L 659.725223 397.936927 
L 671.777916 402.657791 
L 683.83061 407.697439 
L 695.883303 413.055871 
L 707.935996 418.733088 
L 721 425.252259 
L 721 425.252259 
" clip-path="url(#pc845fc2369)" style="fill: none; stroke-dasharray: 11.1,4.8; stroke-dashoffset: 0; stroke: #f4dbd6; stroke-opacity: 0.7; stroke-width: 3"/>
   </g>
   <g id="line2d_38">
    <path d="M 0 0 
" clip-path="url(#pc845fc2369)" style="fill: none; stroke-dasharray: 11.1,4.8; stroke-dashoffset: 0; stroke: #f4dbd6; stroke-opacity: 0.7; stroke-width: 3"/>
   </g>
   <g id="line2d_39">
    <path d="M 262.517382 318.954345 
L 263.098029 320.515215 
L 263.677801 322.081566 
L 264.256826 323.651739 
L 264.83524 325.224075 
L 265.413187 326.796914 
L 265.990821 328.3686 
L 266.568303 329.937481 
L 267.145806 331.50191 
L 267.72351 333.060251 
L 268.301607 334.610876 
L 268.880296 336.152172 
L 269.459788 337.682537 
L 270.040303 339.200388 
L 270.622072 340.704159 
L 271.205334 342.192305 
L 271.79034 343.663301 
L 272.377349 345.115649 
L 272.966631 346.547873 
L 273.558466 347.958528 
L 274.15314 349.346195 
L 274.750951 350.709488 
L 275.352206 352.047054 
L 275.957217 353.357572 
L 276.566309 354.639759 
L 277.179809 355.892368 
L 277.798054 357.114192 
L 278.421388 358.304064 
L 279.05016 359.460858 
L 279.684722 360.583493 
L 280.325434 361.670929 
L 280.972658 362.722175 
L 281.62676 363.736285 
L 282.288107 364.712362 
L 282.957069 365.649557 
L 283.634014 366.547071 
L 284.319314 367.404155 
L 285.013336 368.220114 
L 285.716446 368.994302 
L 286.429008 369.726129 
L 287.15138 370.415057 
L 287.883917 371.060602 
L 288.626965 371.662336 
L 289.380867 372.219884 
L 290.145953 372.732929 
L 290.922548 373.201206 
L 291.710964 373.62451 
L 292.511502 374.002687 
L 293.324452 374.335644 
L 294.150089 374.623339 
L 294.988674 374.865789 
L 295.840453 375.063063 
L 296.705655 375.21529 
L 297.584491 375.322648 
L 298.477156 375.385374 
L 299.383824 375.403757 
L 300.304647 375.378138 
L 301.239759 375.308913 
L 302.189272 375.196528 
L 303.153274 375.041481 
L 304.131829 374.844321 
L 305.12498 374.605645 
L 306.132743 374.3261 
L 307.155109 374.006379 
L 308.192045 373.647223 
L 309.243491 373.249417 
L 310.309358 372.813791 
L 311.389535 372.341219 
L 312.48388 371.832615 
L 313.592225 371.288934 
L 314.714375 370.711172 
L 315.850106 370.10036 
L 316.999169 369.457569 
L 318.161285 368.783901 
L 319.336147 368.080496 
L 320.523425 367.348523 
L 321.722757 366.589182 
L 322.933757 365.803704 
L 324.156013 364.993347 
L 325.389087 364.159394 
L 326.632514 363.303154 
L 327.885805 362.425957 
L 329.148449 361.529156 
L 330.419908 360.614124 
L 331.699625 359.682252 
L 332.987019 358.734945 
L 334.281488 357.773627 
L 335.58241 356.799732 
L 336.889145 355.814707 
L 338.201033 354.820011 
L 339.517399 353.817107 
L 340.83755 352.807469 
L 342.16078 351.792575 
L 343.486368 350.773905 
L 344.813581 349.752943 
L 346.141675 348.731173 
L 347.469895 347.710078 
L 348.797477 346.691138 
L 350.123651 345.67583 
L 351.447641 344.665623 
" clip-path="url(#pc845fc2369)" style="fill: none; stroke: #f0c6c6; stroke-width: 3; stroke-linecap: square"/>
   </g>
   <g id="line2d_40">
    <path d="M 351.447641 344.665623 
L 353.315334 343.250586 
L 355.183026 341.849915 
L 357.050719 340.46361 
L 358.918412 339.091671 
L 360.786105 337.734098 
L 362.653797 336.39089 
L 364.52149 335.062049 
L 366.389183 333.747573 
L 368.256875 332.447463 
L 370.124568 331.161719 
L 371.992261 329.890341 
L 373.859953 328.633329 
L 375.727646 327.390682 
L 377.595339 326.162402 
L 379.463032 324.948487 
L 381.330724 323.748938 
L 383.198417 322.563755 
L 385.06611 321.392938 
L 386.933802 320.236486 
L 388.801495 319.094401 
L 390.669188 317.966681 
L 392.53688 316.853328 
L 394.404573 315.75434 
L 396.272266 314.669718 
L 398.139959 313.599461 
L 400.007651 312.543571 
L 401.875344 311.502047 
L 403.743037 310.474888 
L 405.610729 309.462095 
L 407.478422 308.463668 
L 409.346115 307.479607 
L 411.213807 306.509912 
L 413.0815 305.554583 
L 414.949193 304.613619 
L 416.816886 303.687022 
L 418.684578 302.77479 
L 420.552271 301.876924 
L 422.419964 300.993424 
L 424.287656 300.12429 
L 426.155349 299.269521 
L 428.023042 298.429119 
L 429.890734 297.603082 
L 431.758427 296.791411 
L 433.62612 295.994106 
L 435.493813 295.211167 
L 437.361505 294.442594 
L 439.229198 293.688387 
L 441.096891 292.948545 
L 442.964583 292.223069 
L 444.832276 291.51196 
L 446.699969 290.815216 
L 448.567662 290.132838 
L 450.435354 289.464825 
L 452.303047 288.811179 
L 454.17074 288.171898 
L 456.038432 287.546984 
L 457.906125 286.936435 
L 459.773818 286.340252 
L 461.64151 285.758435 
L 463.509203 285.190983 
L 465.376896 284.637898 
L 467.244589 284.099178 
L 469.112281 283.574825 
L 470.979974 283.064837 
L 472.847667 282.569215 
L 474.715359 282.087959 
L 476.583052 281.621069 
L 478.450745 281.168544 
L 480.318437 280.730386 
L 482.18613 280.306593 
L 484.053823 279.897166 
L 485.921516 279.502105 
L 487.789208 279.12141 
L 489.656901 278.75508 
L 491.524594 278.403117 
L 493.392286 278.065519 
L 495.259979 277.742288 
L 497.127672 277.433422 
L 498.995364 277.138922 
L 500.863057 276.858788 
L 502.73075 276.593019 
L 504.598443 276.341617 
L 506.466135 276.10458 
L 508.333828 275.881909 
L 510.201521 275.673605 
L 512.069213 275.479666 
L 513.936906 275.300092 
L 515.804599 275.134885 
L 517.672291 274.984044 
L 519.539984 274.847568 
L 521.407677 274.725458 
L 523.27537 274.617714 
L 525.143062 274.524336 
L 527.010755 274.445324 
L 528.878448 274.380678 
L 530.74614 274.330397 
L 532.613833 274.294483 
L 534.481526 274.272934 
L 536.349219 274.265751 
" clip-path="url(#pc845fc2369)" style="fill: none; stroke: #f0c6c6; stroke-width: 3; stroke-linecap: square"/>
   </g>
   <g id="line2d_41">
    <path d="M 159.401919 153.402451 
L 162.651502 153.721235 
L 165.901084 154.358803 
L 169.150667 155.315155 
L 172.40025 156.590291 
L 175.649832 158.184212 
L 178.899415 160.096916 
L 182.148998 162.328404 
L 185.39858 164.878677 
L 188.648163 167.747733 
L 191.897746 170.935574 
L 195.147328 174.442199 
L 198.396911 178.267607 
L 201.646494 182.4118 
L 204.896076 186.874777 
L 208.145659 191.656538 
L 211.395242 196.757083 
L 214.644824 202.176412 
L 217.894407 207.914525 
L 221.143989 213.971422 
L 226.018363 223.654487 
L 230.892737 234.054817 
L 235.767111 245.172411 
L 240.641485 257.007269 
L 245.515859 269.559392 
L 250.390233 282.828778 
L 255.264607 296.815429 
L 260.138981 311.519343 
L 270.029392 342.176244 
L 271.778788 346.962742 
L 273.587415 351.507131 
L 275.46788 355.759299 
L 277.432998 359.673324 
L 279.49559 363.20808 
L 281.66826 366.327766 
L 283.963153 369.002366 
L 286.391699 371.20803 
L 288.964345 372.927373 
L 291.690289 374.149675 
L 294.577204 374.870999 
L 297.63099 375.094208 
L 300.855528 374.828898 
L 304.252475 374.091226 
L 307.821084 372.903668 
L 311.558071 371.29468 
L 315.457525 369.298291 
L 319.510873 366.953626 
L 323.706897 364.304365 
L 332.469334 358.285955 
L 360.310137 338.351961 
L 369.666845 332.164102 
L 379.023553 326.295028 
L 388.380261 320.744737 
L 397.736969 315.513231 
L 407.093677 310.600509 
L 416.450385 306.006571 
L 425.807093 301.731416 
L 435.163801 297.775046 
L 444.520509 294.13746 
L 453.877217 290.818658 
L 463.233925 287.81864 
L 472.590633 285.137407 
L 481.947341 282.774957 
L 491.304049 280.731291 
L 500.660757 279.006409 
L 510.017465 277.600312 
L 519.374173 276.512998 
L 528.730881 275.744469 
L 538.087589 275.294723 
L 547.444297 275.163762 
L 556.801005 275.351584 
L 566.157713 275.858191 
L 575.514421 276.683582 
L 584.871129 277.827757 
L 594.227837 279.290716 
L 603.584545 281.072459 
L 612.941253 283.172986 
L 622.297961 285.592297 
L 631.654669 288.330392 
L 641.011377 291.387271 
L 650.368085 294.762934 
L 659.724793 298.457382 
L 669.081501 302.470613 
L 678.438209 306.802628 
L 687.794917 311.453428 
L 697.151625 316.423011 
L 706.508333 321.711379 
L 715.865041 327.318531 
L 721 330.534724 
L 721 330.534724 
" clip-path="url(#pc845fc2369)" style="fill: none; stroke-dasharray: 11.1,4.8; stroke-dashoffset: 0; stroke: #f0c6c6; stroke-opacity: 0.7; stroke-width: 3"/>
   </g>
   <g id="line2d_42">
    <path d="M 0 0 
" clip-path="url(#pc845fc2369)" style="fill: none; stroke-dasharray: 11.1,4.8; stroke-dashoffset: 0; stroke: #f0c6c6; stroke-opacity: 0.7; stroke-width: 3"/>
   </g>
   <g id="line2d_43">
    <path d="M 261.543298 315.888659 
L 262.078987 317.442895 
L 262.614495 319.00273 
L 263.149772 320.566367 
L 263.684775 322.132004 
L 264.219467 323.697839 
L 264.753816 325.262072 
L 265.287801 326.822903 
L 265.821405 328.37854 
L 266.354621 329.927197 
L 266.887452 331.467096 
L 267.419905 332.996472 
L 267.952 334.513574 
L 268.483764 336.016665 
L 269.015234 337.504027 
L 269.546458 338.973962 
L 270.077492 340.424791 
L 270.608401 341.854863 
L 271.139261 343.262549 
L 271.67016 344.646249 
L 272.201192 346.004395 
L 272.732463 347.335446 
L 273.264089 348.637898 
L 273.796196 349.910281 
L 274.328917 351.151161 
L 274.862399 352.359144 
L 275.396792 353.532876 
L 275.932261 354.671044 
L 276.468975 355.772381 
L 277.007113 356.835661 
L 277.546862 357.859709 
L 278.088416 358.843395 
L 278.631975 359.785639 
L 279.177746 360.685413 
L 279.725942 361.541738 
L 280.276782 362.35369 
L 280.830487 363.1204 
L 281.387284 363.841052 
L 281.947403 364.514887 
L 282.511077 365.141203 
L 283.078538 365.719355 
L 283.650024 366.248759 
L 284.225768 366.728888 
L 284.806008 367.159274 
L 285.390975 367.539513 
L 285.980902 367.869257 
L 286.576019 368.148224 
L 287.176549 368.37619 
L 287.782715 368.552993 
L 288.394731 368.678535 
L 289.012806 368.752778 
L 289.637144 368.775747 
L 290.267937 368.747526 
L 290.905371 368.668264 
L 291.549624 368.53817 
L 292.200861 368.357514 
L 292.859236 368.126625 
L 293.524894 367.845895 
L 294.197966 367.515774 
L 294.878569 367.136771 
L 295.566807 366.709452 
L 296.262772 366.234443 
L 296.966536 365.712426 
L 297.67816 365.144136 
L 298.397688 364.530367 
L 299.125146 363.871963 
L 299.860545 363.169822 
L 300.603877 362.424896 
L 301.355118 361.638182 
L 302.114224 360.810731 
L 302.881136 359.943639 
L 303.655775 359.038049 
L 304.438042 358.095148 
L 305.227821 357.116168 
L 306.024979 356.102381 
L 306.829361 355.055102 
L 307.640796 353.975681 
L 308.459095 352.865509 
L 309.284047 351.726008 
L 310.115428 350.558638 
L 310.952993 349.364888 
L 311.79648 348.146278 
L 312.64561 346.904356 
L 313.500089 345.640697 
L 314.359605 344.3569 
L 315.22383 343.054586 
L 316.092422 341.735399 
L 316.965025 340.401 
L 317.841266 339.053067 
L 318.720763 337.693293 
L 319.603118 336.323386 
L 320.487923 334.945062 
L 321.374757 333.560047 
L 322.263191 332.170076 
L 323.152784 330.776887 
L 324.04309 329.382222 
L 324.933652 327.987823 
L 325.824006 326.595433 
L 326.713684 325.206791 
L 327.602211 323.823631 
" clip-path="url(#pc845fc2369)" style="fill: none; stroke: #f5bde6; stroke-width: 3; stroke-linecap: square"/>
   </g>
   <g id="line2d_44">
    <path d="M 327.602211 323.823631 
L 329.276055 321.235219 
L 330.949898 318.673086 
L 332.623741 316.137231 
L 334.297585 313.627655 
L 335.971428 311.144357 
L 337.645271 308.687337 
L 339.319115 306.256595 
L 340.992958 303.852132 
L 342.666801 301.473947 
L 344.340645 299.12204 
L 346.014488 296.796411 
L 347.688331 294.497061 
L 349.362175 292.223989 
L 351.036018 289.977195 
L 352.709862 287.75668 
L 354.383705 285.562443 
L 356.057548 283.394484 
L 357.731392 281.252804 
L 359.405235 279.137401 
L 361.079078 277.048278 
L 362.752922 274.985432 
L 364.426765 272.948865 
L 366.100608 270.938576 
L 367.774452 268.954565 
L 369.448295 266.996832 
L 371.122138 265.065378 
L 372.795982 263.160202 
L 374.469825 261.281305 
L 376.143668 259.428685 
L 377.817512 257.602344 
L 379.491355 255.802281 
L 381.165198 254.028497 
L 382.839042 252.280991 
L 384.512885 250.559763 
L 386.186728 248.864813 
L 387.860572 247.196142 
L 389.534415 245.553749 
L 391.208258 243.937634 
L 392.882102 242.347798 
L 394.555945 240.78424 
L 396.229788 239.24696 
L 397.903632 237.735958 
L 399.577475 236.251235 
L 401.251318 234.79279 
L 402.925162 233.360623 
L 404.599005 231.954735 
L 406.272848 230.575125 
L 407.946692 229.221793 
L 409.620535 227.894739 
L 411.294378 226.593964 
L 412.968222 225.319467 
L 414.642065 224.071248 
L 416.315908 222.849308 
L 417.989752 221.653646 
L 419.663595 220.484262 
L 421.337439 219.341156 
L 423.011282 218.224329 
L 424.685125 217.13378 
L 426.358969 216.069509 
L 428.032812 215.031517 
L 429.706655 214.019803 
L 431.380499 213.034367 
L 433.054342 212.07521 
L 434.728185 211.14233 
L 436.402029 210.235729 
L 438.075872 209.355407 
L 439.749715 208.501362 
L 441.423559 207.673596 
L 443.097402 206.872109 
L 444.771245 206.096899 
L 446.445089 205.347968 
L 448.118932 204.625315 
L 449.792775 203.92894 
L 451.466619 203.258844 
L 453.140462 202.615026 
L 454.814305 201.997486 
L 456.488149 201.406225 
L 458.161992 200.841241 
L 459.835835 200.302536 
L 461.509679 199.79011 
L 463.183522 199.303961 
L 464.857365 198.844091 
L 466.531209 198.4105 
L 468.205052 198.003186 
L 469.878895 197.622151 
L 471.552739 197.267394 
L 473.226582 196.938916 
L 474.900425 196.636715 
L 476.574269 196.360793 
L 478.248112 196.111149 
L 479.921955 195.887784 
L 481.595799 195.690697 
L 483.269642 195.519888 
L 484.943485 195.375357 
L 486.617329 195.257105 
L 488.291172 195.165131 
L 489.965016 195.099435 
L 491.638859 195.060018 
L 493.312702 195.046879 
" clip-path="url(#pc845fc2369)" style="fill: none; stroke: #f5bde6; stroke-width: 3; stroke-linecap: square"/>
   </g>
   <g id="line2d_45">
    <path d="M 159.401919 153.402451 
L 162.651502 153.721235 
L 165.901084 154.358803 
L 169.150667 155.315155 
L 172.40025 156.590291 
L 175.649832 158.184212 
L 178.899415 160.096916 
L 182.148998 162.328404 
L 185.39858 164.878677 
L 188.648163 167.747733 
L 191.897746 170.935574 
L 195.147328 174.442199 
L 198.396911 178.267607 
L 201.646494 182.4118 
L 204.896076 186.874777 
L 208.145659 191.656538 
L 211.395242 196.757083 
L 214.644824 202.176412 
L 217.894407 207.914525 
L 221.143989 213.971422 
L 226.018363 223.654487 
L 230.892737 234.054817 
L 235.767111 245.172411 
L 240.641485 257.007269 
L 245.515859 269.559392 
L 250.390233 282.828778 
L 255.264607 296.815429 
L 260.138981 311.519343 
L 268.283648 336.873296 
L 271.59382 346.191383 
L 273.275788 350.437396 
L 274.98279 354.338029 
L 276.720774 357.84627 
L 278.496053 360.920246 
L 280.315173 363.523756 
L 282.184758 365.626734 
L 284.11135 367.205629 
L 286.101227 368.243705 
L 288.160214 368.731245 
L 290.293498 368.665668 
L 292.505437 368.051554 
L 294.799385 366.90057 
L 297.177532 365.231312 
L 299.640763 363.069049 
L 302.188545 360.44539 
L 304.818842 357.397865 
L 307.528066 353.969434 
L 310.311063 350.207931 
L 316.070075 341.897647 
L 334.161416 314.859182 
L 340.238529 306.265473 
L 346.315641 297.990548 
L 352.392754 290.034407 
L 358.469867 282.397051 
L 364.546979 275.078478 
L 370.624092 268.078689 
L 376.701205 261.397685 
L 382.778317 255.035464 
L 388.85543 248.992028 
L 394.932543 243.267376 
L 401.009655 237.861507 
L 407.086768 232.774423 
L 413.163881 228.006123 
L 419.240993 223.556607 
L 425.318106 219.425874 
L 431.395219 215.613926 
L 437.472331 212.120762 
L 443.549444 208.946382 
L 449.626557 206.090787 
L 455.703669 203.553975 
L 461.780782 201.335947 
L 467.857895 199.436703 
L 473.935007 197.856244 
L 480.01212 196.594568 
L 486.089233 195.651677 
L 492.166345 195.027569 
L 498.243458 194.722246 
L 504.320571 194.735706 
L 510.397683 195.067951 
L 516.474796 195.71898 
L 522.551909 196.688793 
L 528.629021 197.977389 
L 534.706134 199.58477 
L 540.783247 201.510935 
L 546.860359 203.755884 
L 552.937472 206.319618 
L 559.014585 209.202135 
L 565.091697 212.403436 
L 571.16881 215.923521 
L 577.245923 219.762391 
L 583.323035 223.920044 
L 589.400148 228.396481 
L 595.477261 233.191703 
L 601.554374 238.305709 
L 607.631486 243.738498 
L 613.708599 249.490072 
L 619.785712 255.56043 
L 625.862824 261.949571 
L 631.939937 268.657497 
L 638.01705 275.684207 
L 644.094162 283.029701 
L 650.171275 290.693979 
L 650.171275 290.693979 
" clip-path="url(#pc845fc2369)" style="fill: none; stroke-dasharray: 11.1,4.8; stroke-dashoffset: 0; stroke: #f5bde6; stroke-opacity: 0.7; stroke-width: 3"/>
   </g>
   <g id="line2d_46">
    <path d="M 0 0 
" clip-path="url(#pc845fc2369)" style="fill: none; stroke-dasharray: 11.1,4.8; stroke-dashoffset: 0; stroke: #f5bde6; stroke-opacity: 0.7; stroke-width: 3"/>
   </g>
   <g id="line2d_47">
    <path d="M 262.076917 317.564543 
L 262.560409 319.138987 
L 263.044425 320.719005 
L 263.528719 322.302707 
L 264.013049 323.888196 
L 264.497176 325.473573 
L 264.980866 327.056942 
L 265.463889 328.636405 
L 265.94602 330.210072 
L 266.427042 331.776057 
L 266.90674 333.332485 
L 267.38491 334.87749 
L 267.861351 336.409222 
L 268.335872 337.925843 
L 268.808289 339.425537 
L 269.278426 340.906503 
L 269.746116 342.366966 
L 270.2112 343.805172 
L 270.673528 345.219395 
L 271.13296 346.607935 
L 271.589365 347.969126 
L 272.042623 349.301329 
L 272.492623 350.602944 
L 272.939265 351.872403 
L 273.382456 353.108177 
L 273.822119 354.308779 
L 274.258182 355.47276 
L 274.690586 356.598715 
L 275.119283 357.685286 
L 275.544234 358.731159 
L 275.965411 359.735069 
L 276.382796 360.6958 
L 276.79638 361.612189 
L 277.206168 362.483122 
L 277.612169 363.307541 
L 278.014406 364.084444 
L 278.412909 364.812883 
L 278.807719 365.491967 
L 279.198883 366.120867 
L 279.586459 366.698811 
L 279.970511 367.225086 
L 280.351114 367.699044 
L 280.728346 368.120096 
L 281.102295 368.487717 
L 281.473055 368.801446 
L 281.840725 369.060885 
L 282.20541 369.265701 
L 282.567221 369.415627 
L 282.926273 369.510459 
L 283.282686 369.55006 
L 283.636582 369.534359 
L 283.988087 369.463351 
L 284.33733 369.337095 
L 284.684443 369.155717 
L 285.029558 368.91941 
L 285.372808 368.62843 
L 285.714328 368.283101 
L 286.054252 367.883808 
L 286.392715 367.431004 
L 286.72985 366.925203 
L 287.065788 366.366985 
L 287.40066 365.75699 
L 287.734594 365.09592 
L 288.067715 364.38454 
L 288.400144 363.623673 
L 288.732 362.814202 
L 289.063398 361.957068 
L 289.394448 361.053267 
L 289.725255 360.103853 
L 290.055921 359.109934 
L 290.38654 358.07267 
L 290.717201 356.993273 
L 291.047991 355.873007 
L 291.378985 354.713183 
L 291.710256 353.515159 
L 292.041869 352.280339 
L 292.373883 351.010172 
L 292.706349 349.706148 
L 293.039314 348.369796 
L 293.372816 347.002688 
L 293.706885 345.606427 
L 294.041547 344.182656 
L 294.376819 342.733047 
L 294.712712 341.259305 
L 295.049229 339.763163 
L 295.386369 338.246382 
L 295.724122 336.710745 
L 296.062471 335.158059 
L 296.401395 333.590153 
L 296.740864 332.008873 
L 297.080845 330.41608 
L 297.421298 328.813649 
L 297.762176 327.203469 
L 298.103428 325.587436 
L 298.444999 323.967454 
L 298.786828 322.345432 
L 299.128848 320.723282 
L 299.470991 319.102915 
L 299.813184 317.486241 
L 300.155349 315.875167 
" clip-path="url(#pc845fc2369)" style="fill: none; stroke: #c6a0f6; stroke-width: 3; stroke-linecap: square"/>
   </g>
   <g id="line2d_48">
    <path d="M 300.155349 315.875167 
L 300.896068 312.412111 
L 301.636787 308.984213 
L 302.377506 305.591473 
L 303.118225 302.233891 
L 303.858944 298.911467 
L 304.599663 295.624201 
L 305.340382 292.372093 
L 306.081101 289.155143 
L 306.821821 285.973351 
L 307.56254 282.826716 
L 308.303259 279.71524 
L 309.043978 276.638921 
L 309.784697 273.597761 
L 310.525416 270.591758 
L 311.266135 267.620913 
L 312.006854 264.685226 
L 312.747573 261.784698 
L 313.488292 258.919327 
L 314.229011 256.089114 
L 314.969731 253.294058 
L 315.71045 250.534161 
L 316.451169 247.809422 
L 317.191888 245.119841 
L 317.932607 242.465417 
L 318.673326 239.846152 
L 319.414045 237.262044 
L 320.154764 234.713095 
L 320.895483 232.199303 
L 321.636202 229.720669 
L 322.376922 227.277193 
L 323.117641 224.868875 
L 323.85836 222.495715 
L 324.599079 220.157713 
L 325.339798 217.854869 
L 326.080517 215.587183 
L 326.821236 213.354655 
L 327.561955 211.157284 
L 328.302674 208.995072 
L 329.043393 206.868017 
L 329.784112 204.776121 
L 330.524832 202.719382 
L 331.265551 200.697801 
L 332.00627 198.711378 
L 332.746989 196.760114 
L 333.487708 194.844007 
L 334.228427 192.963058 
L 334.969146 191.117266 
L 335.709865 189.306633 
L 336.450584 187.531158 
L 337.191303 185.790841 
L 337.932023 184.085681 
L 338.672742 182.41568 
L 339.413461 180.780836 
L 340.15418 179.181151 
L 340.894899 177.616623 
L 341.635618 176.087253 
L 342.376337 174.593041 
L 343.117056 173.133987 
L 343.857775 171.710091 
L 344.598494 170.321353 
L 345.339213 168.967773 
L 346.079933 167.649351 
L 346.820652 166.366087 
L 347.561371 165.11798 
L 348.30209 163.905032 
L 349.042809 162.727241 
L 349.783528 161.584609 
L 350.524247 160.477134 
L 351.264966 159.404817 
L 352.005685 158.367658 
L 352.746404 157.365658 
L 353.487124 156.398815 
L 354.227843 155.46713 
L 354.968562 154.570602 
L 355.709281 153.709233 
L 356.45 152.883022 
L 357.190719 152.091969 
L 357.931438 151.336073 
L 358.672157 150.615336 
L 359.412876 149.929756 
L 360.153595 149.279335 
L 360.894314 148.664071 
L 361.635034 148.083965 
L 362.375753 147.539017 
L 363.116472 147.029227 
L 363.857191 146.554595 
L 364.59791 146.115121 
L 365.338629 145.710805 
L 366.079348 145.341647 
L 366.820067 145.007647 
L 367.560786 144.708804 
L 368.301505 144.44512 
L 369.042225 144.216593 
L 369.782944 144.023225 
L 370.523663 143.865014 
L 371.264382 143.741961 
L 372.005101 143.654066 
L 372.74582 143.60133 
L 373.486539 143.583751 
" clip-path="url(#pc845fc2369)" style="fill: none; stroke: #c6a0f6; stroke-width: 3; stroke-linecap: square"/>
   </g>
   <g id="line2d_49">
    <path d="M 159.401919 153.402451 
L 162.651502 153.721235 
L 165.901084 154.358803 
L 169.150667 155.315155 
L 172.40025 156.590291 
L 175.649832 158.184212 
L 178.899415 160.096916 
L 182.148998 162.328404 
L 185.39858 164.878677 
L 188.648163 167.747733 
L 191.897746 170.935574 
L 195.147328 174.442199 
L 198.396911 178.267607 
L 201.646494 182.4118 
L 204.896076 186.874777 
L 208.145659 191.656538 
L 211.395242 196.757083 
L 214.644824 202.176412 
L 217.894407 207.914525 
L 221.143989 213.971422 
L 226.018363 223.654487 
L 230.892737 234.054817 
L 235.767111 245.172411 
L 240.641485 257.007269 
L 245.515859 269.559392 
L 250.390233 282.828778 
L 255.264607 296.815429 
L 260.138981 311.519343 
L 266.618401 332.051497 
L 271.313761 346.622692 
L 274.287584 354.998485 
L 275.717515 358.618345 
L 277.106906 361.795871 
L 278.45488 364.490138 
L 279.761353 366.666306 
L 281.026992 368.296056 
L 282.253147 369.357956 
L 283.441775 369.83773 
L 284.59534 369.728442 
L 285.716722 369.030587 
L 286.809101 367.752089 
L 287.875856 365.9082 
L 288.920451 363.521313 
L 289.946341 360.62068 
L 290.956869 357.242045 
L 292.944191 349.223427 
L 294.904122 339.862312 
L 297.825569 324.332768 
L 301.718072 303.428304 
L 305.610649 283.763728 
L 309.503225 265.374289 
L 313.395802 248.259986 
L 317.288379 232.420819 
L 320.207811 221.378252 
L 323.127244 211.05295 
L 326.046677 201.444911 
L 328.966109 192.554136 
L 331.885542 184.380626 
L 334.804974 176.92438 
L 337.724407 170.185398 
L 340.64384 164.16368 
L 342.590128 160.547681 
L 344.536416 157.250467 
L 346.482705 154.272036 
L 348.428993 151.61239 
L 350.375282 149.271527 
L 352.32157 147.249449 
L 354.267858 145.546155 
L 356.214147 144.161645 
L 358.160435 143.095918 
L 360.106723 142.348976 
L 362.053012 141.920818 
L 363.9993 141.811444 
L 365.945589 142.020854 
L 367.891877 142.549049 
L 369.838165 143.396027 
L 371.784454 144.561789 
L 373.730742 146.046335 
L 375.677031 147.849666 
L 377.623319 149.97178 
L 379.569607 152.412679 
L 381.515896 155.172361 
L 383.462184 158.250828 
L 385.408473 161.648079 
L 387.354761 165.364113 
L 390.274194 171.535886 
L 393.193626 178.424922 
L 396.113059 186.031223 
L 399.032491 194.354787 
L 401.951924 203.395616 
L 401.951924 203.395616 
" clip-path="url(#pc845fc2369)" style="fill: none; stroke-dasharray: 11.1,4.8; stroke-dashoffset: 0; stroke: #c6a0f6; stroke-opacity: 0.7; stroke-width: 3"/>
   </g>
   <g id="line2d_50">
    <path d="M 0 0 
" clip-path="url(#pc845fc2369)" style="fill: none; stroke-dasharray: 11.1,4.8; stroke-dashoffset: 0; stroke: #c6a0f6; stroke-opacity: 0.7; stroke-width: 3"/>
   </g>
   <g id="line2d_51">
    <path d="M 157.777128 153.362603 
L 158.830661 153.379356 
L 159.884194 153.429617 
L 160.937728 153.513385 
L 161.991261 153.63066 
L 163.044794 153.781442 
L 164.098327 153.965732 
L 165.15186 154.183529 
L 166.205394 154.434832 
L 167.258927 154.719644 
L 168.31246 155.037962 
L 169.365993 155.389787 
L 170.419527 155.77512 
L 171.47306 156.193959 
L 172.526593 156.646306 
L 173.580126 157.132161 
L 174.633659 157.651522 
L 175.687193 158.20439 
L 176.740726 158.790766 
L 177.794259 159.410649 
L 178.847792 160.064039 
L 179.901326 160.750936 
L 180.954859 161.47134 
L 182.008392 162.225252 
L 183.061925 163.012671 
L 184.115458 163.833597 
L 185.168992 164.68803 
L 186.222525 165.57597 
L 187.276058 166.497418 
L 188.329591 167.452372 
L 189.383125 168.440834 
L 190.436658 169.462803 
L 191.490191 170.518279 
L 192.543724 171.607263 
L 193.597257 172.729753 
L 194.650791 173.885751 
L 195.704324 175.075256 
L 196.757857 176.298268 
L 197.81139 177.554787 
L 198.864924 178.844814 
L 199.918457 180.168347 
L 200.97199 181.525388 
L 202.025523 182.915936 
L 203.079056 184.339991 
L 204.13259 185.797554 
L 205.186123 187.288623 
L 206.239656 188.8132 
L 207.293189 190.371284 
L 208.346723 191.962875 
L 209.400256 193.587973 
L 210.453789 195.246579 
L 211.507322 196.938692 
L 212.560855 198.664311 
L 213.614389 200.423438 
L 214.667922 202.216073 
L 215.721455 204.042214 
L 216.774988 205.901862 
L 217.828522 207.795018 
L 218.882055 209.721681 
L 219.935588 211.681851 
L 220.989121 213.675528 
L 222.042654 215.702713 
L 223.096188 217.763405 
L 224.149721 219.857603 
L 225.203254 221.985309 
L 226.256787 224.146522 
L 227.310321 226.341243 
L 228.363854 228.56947 
L 229.417387 230.831205 
L 230.47092 233.126447 
L 231.524453 235.455196 
L 232.577987 237.817452 
L 233.63152 240.213216 
L 234.685053 242.642486 
L 235.738586 245.105264 
L 236.79212 247.601549 
L 237.845653 250.131341 
L 238.899186 252.694641 
L 239.952719 255.291447 
L 241.006252 257.921761 
L 242.059786 260.585582 
L 243.113319 263.28291 
L 244.166852 266.013745 
L 245.220385 268.778088 
L 246.273919 271.575937 
L 247.327452 274.407294 
L 248.380985 277.272158 
L 249.434518 280.170529 
L 250.488051 283.102407 
L 251.541585 286.067793 
L 252.595118 289.066686 
L 253.648651 292.099085 
L 254.702184 295.164993 
L 255.755718 298.264407 
L 256.809251 301.397328 
L 257.862784 304.563757 
L 258.916317 307.763693 
L 259.96985 310.997136 
L 261.023384 314.264086 
L 262.076917 317.564543 
" clip-path="url(#pc845fc2369)" style="fill: none; stroke-dasharray: 11.1,4.8; stroke-dashoffset: 0; stroke: #cad3f5; stroke-width: 3"/>
   </g>
   <g id="patch_3">
    <path d="M 125.281301 640.8 
L 125.281301 86.4 
" style="fill: none; stroke: #cad3f5; stroke-width: 1.5; stroke-linejoin: miter; stroke-linecap: square"/>
   </g>
   <g id="patch_4">
    <path d="M 612.718699 640.8 
L 612.718699 86.4 
" style="fill: none; stroke: #cad3f5; stroke-width: 1.5; stroke-linejoin: miter; stroke-linecap: square"/>
   </g>
   <g id="patch_5">
    <path d="M 125.281301 640.8 
L 612.718699 640.8 
" style="fill: none; stroke: #cad3f5; stroke-width: 1.5; stroke-linejoin: miter; stroke-linecap: square"/>
   </g>
   <g id="patch_6">
    <path d="M 125.281301 86.4 
L 612.718699 86.4 
" style="fill: none; stroke: #cad3f5; stroke-width: 1.5; stroke-linejoin: miter; stroke-linecap: square"/>
   </g>
   <g id="text_3">
    <!-- integrable approximation of SLIP stance dynamics -->
    <g style="fill: #cad3f5" transform="translate(113.169375 52.68) scale(0.18 -0.18)">
     <defs>
      <path id="DejaVuSans-Bold-69" d="M 538 3500 
L 1656 3500 
L 1656 0 
L 538 0 
L 538 3500 
z
M 538 4863 
L 1656 4863 
L 1656 3950 
L 538 3950 
L 538 4863 
z
" transform="scale(0.015625)"/>
      <path id="DejaVuSans-Bold-6e" d="M 4056 2131 
L 4056 0 
L 2931 0 
L 2931 347 
L 2931 1631 
Q 2931 2084 2911 2256 
Q 2891 2428 2841 2509 
Q 2775 2619 2662 2680 
Q 2550 2741 2406 2741 
Q 2056 2741 1856 2470 
Q 1656 2200 1656 1722 
L 1656 0 
L 538 0 
L 538 3500 
L 1656 3500 
L 1656 2988 
Q 1909 3294 2193 3439 
Q 2478 3584 2822 3584 
Q 3428 3584 3742 3212 
Q 4056 2841 4056 2131 
z
" transform="scale(0.015625)"/>
      <path id="DejaVuSans-Bold-74" d="M 1759 4494 
L 1759 3500 
L 2913 3500 
L 2913 2700 
L 1759 2700 
L 1759 1216 
Q 1759 972 1856 886 
Q 1953 800 2241 800 
L 2816 800 
L 2816 0 
L 1856 0 
Q 1194 0 917 276 
Q 641 553 641 1216 
L 641 2700 
L 84 2700 
L 84 3500 
L 641 3500 
L 641 4494 
L 1759 4494 
z
" transform="scale(0.015625)"/>
      <path id="DejaVuSans-Bold-65" d="M 4031 1759 
L 4031 1441 
L 1416 1441 
Q 1456 1047 1700 850 
Q 1944 653 2381 653 
Q 2734 653 3104 758 
Q 3475 863 3866 1075 
L 3866 213 
Q 3469 63 3072 -14 
Q 2675 -91 2278 -91 
Q 1328 -91 801 392 
Q 275 875 275 1747 
Q 275 2603 792 3093 
Q 1309 3584 2216 3584 
Q 3041 3584 3536 3087 
Q 4031 2591 4031 1759 
z
M 2881 2131 
Q 2881 2450 2695 2645 
Q 2509 2841 2209 2841 
Q 1884 2841 1681 2658 
Q 1478 2475 1428 2131 
L 2881 2131 
z
" transform="scale(0.015625)"/>
      <path id="DejaVuSans-Bold-67" d="M 2919 594 
Q 2688 288 2409 144 
Q 2131 0 1766 0 
Q 1125 0 706 504 
Q 288 1009 288 1791 
Q 288 2575 706 3076 
Q 1125 3578 1766 3578 
Q 2131 3578 2409 3434 
Q 2688 3291 2919 2981 
L 2919 3500 
L 4044 3500 
L 4044 353 
Q 4044 -491 3511 -936 
Q 2978 -1381 1966 -1381 
Q 1638 -1381 1331 -1331 
Q 1025 -1281 716 -1178 
L 716 -306 
Q 1009 -475 1290 -558 
Q 1572 -641 1856 -641 
Q 2406 -641 2662 -400 
Q 2919 -159 2919 353 
L 2919 594 
z
M 2181 2772 
Q 1834 2772 1640 2515 
Q 1447 2259 1447 1791 
Q 1447 1309 1634 1061 
Q 1822 813 2181 813 
Q 2531 813 2725 1069 
Q 2919 1325 2919 1791 
Q 2919 2259 2725 2515 
Q 2531 2772 2181 2772 
z
" transform="scale(0.015625)"/>
      <path id="DejaVuSans-Bold-72" d="M 3138 2547 
Q 2991 2616 2845 2648 
Q 2700 2681 2553 2681 
Q 2122 2681 1889 2404 
Q 1656 2128 1656 1613 
L 1656 0 
L 538 0 
L 538 3500 
L 1656 3500 
L 1656 2925 
Q 1872 3269 2151 3426 
Q 2431 3584 2822 3584 
Q 2878 3584 2943 3579 
Q 3009 3575 3134 3559 
L 3138 2547 
z
" transform="scale(0.015625)"/>
      <path id="DejaVuSans-Bold-61" d="M 2106 1575 
Q 1756 1575 1579 1456 
Q 1403 1338 1403 1106 
Q 1403 894 1545 773 
Q 1688 653 1941 653 
Q 2256 653 2472 879 
Q 2688 1106 2688 1447 
L 2688 1575 
L 2106 1575 
z
M 3816 1997 
L 3816 0 
L 2688 0 
L 2688 519 
Q 2463 200 2181 54 
Q 1900 -91 1497 -91 
Q 953 -91 614 226 
Q 275 544 275 1050 
Q 275 1666 698 1953 
Q 1122 2241 2028 2241 
L 2688 2241 
L 2688 2328 
Q 2688 2594 2478 2717 
Q 2269 2841 1825 2841 
Q 1466 2841 1156 2769 
Q 847 2697 581 2553 
L 581 3406 
Q 941 3494 1303 3539 
Q 1666 3584 2028 3584 
Q 2975 3584 3395 3211 
Q 3816 2838 3816 1997 
z
" transform="scale(0.015625)"/>
      <path id="DejaVuSans-Bold-62" d="M 2400 722 
Q 2759 722 2948 984 
Q 3138 1247 3138 1747 
Q 3138 2247 2948 2509 
Q 2759 2772 2400 2772 
Q 2041 2772 1848 2508 
Q 1656 2244 1656 1747 
Q 1656 1250 1848 986 
Q 2041 722 2400 722 
z
M 1656 2988 
Q 1888 3294 2169 3439 
Q 2450 3584 2816 3584 
Q 3463 3584 3878 3070 
Q 4294 2556 4294 1747 
Q 4294 938 3878 423 
Q 3463 -91 2816 -91 
Q 2450 -91 2169 54 
Q 1888 200 1656 506 
L 1656 0 
L 538 0 
L 538 4863 
L 1656 4863 
L 1656 2988 
z
" transform="scale(0.015625)"/>
      <path id="DejaVuSans-Bold-6c" d="M 538 4863 
L 1656 4863 
L 1656 0 
L 538 0 
L 538 4863 
z
" transform="scale(0.015625)"/>
      <path id="DejaVuSans-Bold-20" transform="scale(0.015625)"/>
      <path id="DejaVuSans-Bold-70" d="M 1656 506 
L 1656 -1331 
L 538 -1331 
L 538 3500 
L 1656 3500 
L 1656 2988 
Q 1888 3294 2169 3439 
Q 2450 3584 2816 3584 
Q 3463 3584 3878 3070 
Q 4294 2556 4294 1747 
Q 4294 938 3878 423 
Q 3463 -91 2816 -91 
Q 2450 -91 2169 54 
Q 1888 200 1656 506 
z
M 2400 2772 
Q 2041 2772 1848 2508 
Q 1656 2244 1656 1747 
Q 1656 1250 1848 986 
Q 2041 722 2400 722 
Q 2759 722 2948 984 
Q 3138 1247 3138 1747 
Q 3138 2247 2948 2509 
Q 2759 2772 2400 2772 
z
" transform="scale(0.015625)"/>
      <path id="DejaVuSans-Bold-6f" d="M 2203 2784 
Q 1831 2784 1636 2517 
Q 1441 2250 1441 1747 
Q 1441 1244 1636 976 
Q 1831 709 2203 709 
Q 2569 709 2762 976 
Q 2956 1244 2956 1747 
Q 2956 2250 2762 2517 
Q 2569 2784 2203 2784 
z
M 2203 3584 
Q 3106 3584 3614 3096 
Q 4122 2609 4122 1747 
Q 4122 884 3614 396 
Q 3106 -91 2203 -91 
Q 1297 -91 786 396 
Q 275 884 275 1747 
Q 275 2609 786 3096 
Q 1297 3584 2203 3584 
z
" transform="scale(0.015625)"/>
      <path id="DejaVuSans-Bold-78" d="M 1422 1791 
L 159 3500 
L 1344 3500 
L 2059 2463 
L 2784 3500 
L 3969 3500 
L 2706 1797 
L 4031 0 
L 2847 0 
L 2059 1106 
L 1281 0 
L 97 0 
L 1422 1791 
z
" transform="scale(0.015625)"/>
      <path id="DejaVuSans-Bold-6d" d="M 3781 2919 
Q 3994 3244 4286 3414 
Q 4578 3584 4928 3584 
Q 5531 3584 5847 3212 
Q 6163 2841 6163 2131 
L 6163 0 
L 5038 0 
L 5038 1825 
Q 5041 1866 5042 1909 
Q 5044 1953 5044 2034 
Q 5044 2406 4934 2573 
Q 4825 2741 4581 2741 
Q 4263 2741 4089 2478 
Q 3916 2216 3909 1719 
L 3909 0 
L 2784 0 
L 2784 1825 
Q 2784 2406 2684 2573 
Q 2584 2741 2328 2741 
Q 2006 2741 1831 2477 
Q 1656 2213 1656 1722 
L 1656 0 
L 531 0 
L 531 3500 
L 1656 3500 
L 1656 2988 
Q 1863 3284 2130 3434 
Q 2397 3584 2719 3584 
Q 3081 3584 3359 3409 
Q 3638 3234 3781 2919 
z
" transform="scale(0.015625)"/>
      <path id="DejaVuSans-Bold-66" d="M 2841 4863 
L 2841 4128 
L 2222 4128 
Q 1984 4128 1890 4042 
Q 1797 3956 1797 3744 
L 1797 3500 
L 2753 3500 
L 2753 2700 
L 1797 2700 
L 1797 0 
L 678 0 
L 678 2700 
L 122 2700 
L 122 3500 
L 678 3500 
L 678 3744 
Q 678 4316 997 4589 
Q 1316 4863 1984 4863 
L 2841 4863 
z
" transform="scale(0.015625)"/>
      <path id="DejaVuSans-Bold-53" d="M 3834 4519 
L 3834 3531 
Q 3450 3703 3084 3790 
Q 2719 3878 2394 3878 
Q 1963 3878 1756 3759 
Q 1550 3641 1550 3391 
Q 1550 3203 1689 3098 
Q 1828 2994 2194 2919 
L 2706 2816 
Q 3484 2659 3812 2340 
Q 4141 2022 4141 1434 
Q 4141 663 3683 286 
Q 3225 -91 2284 -91 
Q 1841 -91 1394 -6 
Q 947 78 500 244 
L 500 1259 
Q 947 1022 1364 901 
Q 1781 781 2169 781 
Q 2563 781 2772 912 
Q 2981 1044 2981 1288 
Q 2981 1506 2839 1625 
Q 2697 1744 2272 1838 
L 1806 1941 
Q 1106 2091 782 2419 
Q 459 2747 459 3303 
Q 459 4000 909 4375 
Q 1359 4750 2203 4750 
Q 2588 4750 2994 4692 
Q 3400 4634 3834 4519 
z
" transform="scale(0.015625)"/>
      <path id="DejaVuSans-Bold-4c" d="M 588 4666 
L 1791 4666 
L 1791 909 
L 3903 909 
L 3903 0 
L 588 0 
L 588 4666 
z
" transform="scale(0.015625)"/>
      <path id="DejaVuSans-Bold-49" d="M 588 4666 
L 1791 4666 
L 1791 0 
L 588 0 
L 588 4666 
z
" transform="scale(0.015625)"/>
      <path id="DejaVuSans-Bold-50" d="M 588 4666 
L 2584 4666 
Q 3475 4666 3951 4270 
Q 4428 3875 4428 3144 
Q 4428 2409 3951 2014 
Q 3475 1619 2584 1619 
L 1791 1619 
L 1791 0 
L 588 0 
L 588 4666 
z
M 1791 3794 
L 1791 2491 
L 2456 2491 
Q 2806 2491 2997 2661 
Q 3188 2831 3188 3144 
Q 3188 3456 2997 3625 
Q 2806 3794 2456 3794 
L 1791 3794 
z
" transform="scale(0.015625)"/>
      <path id="DejaVuSans-Bold-73" d="M 3272 3391 
L 3272 2541 
Q 2913 2691 2578 2766 
Q 2244 2841 1947 2841 
Q 1628 2841 1473 2761 
Q 1319 2681 1319 2516 
Q 1319 2381 1436 2309 
Q 1553 2238 1856 2203 
L 2053 2175 
Q 2913 2066 3209 1816 
Q 3506 1566 3506 1031 
Q 3506 472 3093 190 
Q 2681 -91 1863 -91 
Q 1516 -91 1145 -36 
Q 775 19 384 128 
L 384 978 
Q 719 816 1070 734 
Q 1422 653 1784 653 
Q 2113 653 2278 743 
Q 2444 834 2444 1013 
Q 2444 1163 2330 1236 
Q 2216 1309 1875 1350 
L 1678 1375 
Q 931 1469 631 1722 
Q 331 1975 331 2491 
Q 331 3047 712 3315 
Q 1094 3584 1881 3584 
Q 2191 3584 2531 3537 
Q 2872 3491 3272 3391 
z
" transform="scale(0.015625)"/>
      <path id="DejaVuSans-Bold-63" d="M 3366 3391 
L 3366 2478 
Q 3138 2634 2908 2709 
Q 2678 2784 2431 2784 
Q 1963 2784 1702 2511 
Q 1441 2238 1441 1747 
Q 1441 1256 1702 982 
Q 1963 709 2431 709 
Q 2694 709 2930 787 
Q 3166 866 3366 1019 
L 3366 103 
Q 3103 6 2833 -42 
Q 2563 -91 2291 -91 
Q 1344 -91 809 395 
Q 275 881 275 1747 
Q 275 2613 809 3098 
Q 1344 3584 2291 3584 
Q 2566 3584 2833 3536 
Q 3100 3488 3366 3391 
z
" transform="scale(0.015625)"/>
      <path id="DejaVuSans-Bold-64" d="M 2919 2988 
L 2919 4863 
L 4044 4863 
L 4044 0 
L 2919 0 
L 2919 506 
Q 2688 197 2409 53 
Q 2131 -91 1766 -91 
Q 1119 -91 703 423 
Q 288 938 288 1747 
Q 288 2556 703 3070 
Q 1119 3584 1766 3584 
Q 2128 3584 2408 3439 
Q 2688 3294 2919 2988 
z
M 2181 722 
Q 2541 722 2730 984 
Q 2919 1247 2919 1747 
Q 2919 2247 2730 2509 
Q 2541 2772 2181 2772 
Q 1825 2772 1636 2509 
Q 1447 2247 1447 1747 
Q 1447 1247 1636 984 
Q 1825 722 2181 722 
z
" transform="scale(0.015625)"/>
      <path id="DejaVuSans-Bold-79" d="M 78 3500 
L 1197 3500 
L 2138 1125 
L 2938 3500 
L 4056 3500 
L 2584 -331 
Q 2363 -916 2067 -1148 
Q 1772 -1381 1288 -1381 
L 641 -1381 
L 641 -647 
L 991 -647 
Q 1275 -647 1404 -556 
Q 1534 -466 1606 -231 
L 1638 -134 
L 78 3500 
z
" transform="scale(0.015625)"/>
     </defs>
     <use xlink:href="#DejaVuSans-Bold-69"/>
     <use xlink:href="#DejaVuSans-Bold-6e" x="34.277344"/>
     <use xlink:href="#DejaVuSans-Bold-74" x="105.46875"/>
     <use xlink:href="#DejaVuSans-Bold-65" x="153.271484"/>
     <use xlink:href="#DejaVuSans-Bold-67" x="221.09375"/>
     <use xlink:href="#DejaVuSans-Bold-72" x="292.675781"/>
     <use xlink:href="#DejaVuSans-Bold-61" x="341.992188"/>
     <use xlink:href="#DejaVuSans-Bold-62" x="409.472656"/>
     <use xlink:href="#DejaVuSans-Bold-6c" x="481.054688"/>
     <use xlink:href="#DejaVuSans-Bold-65" x="515.332031"/>
     <use xlink:href="#DejaVuSans-Bold-20" x="583.154297"/>
     <use xlink:href="#DejaVuSans-Bold-61" x="617.96875"/>
     <use xlink:href="#DejaVuSans-Bold-70" x="685.449219"/>
     <use xlink:href="#DejaVuSans-Bold-70" x="757.03125"/>
     <use xlink:href="#DejaVuSans-Bold-72" x="828.613281"/>
     <use xlink:href="#DejaVuSans-Bold-6f" x="877.929688"/>
     <use xlink:href="#DejaVuSans-Bold-78" x="946.630859"/>
     <use xlink:href="#DejaVuSans-Bold-69" x="1011.132812"/>
     <use xlink:href="#DejaVuSans-Bold-6d" x="1045.410156"/>
     <use xlink:href="#DejaVuSans-Bold-61" x="1149.609375"/>
     <use xlink:href="#DejaVuSans-Bold-74" x="1217.089844"/>
     <use xlink:href="#DejaVuSans-Bold-69" x="1264.892578"/>
     <use xlink:href="#DejaVuSans-Bold-6f" x="1299.169922"/>
     <use xlink:href="#DejaVuSans-Bold-6e" x="1367.871094"/>
     <use xlink:href="#DejaVuSans-Bold-20" x="1439.0625"/>
     <use xlink:href="#DejaVuSans-Bold-6f" x="1473.876953"/>
     <use xlink:href="#DejaVuSans-Bold-66" x="1542.578125"/>
     <use xlink:href="#DejaVuSans-Bold-20" x="1586.083984"/>
     <use xlink:href="#DejaVuSans-Bold-53" x="1620.898438"/>
     <use xlink:href="#DejaVuSans-Bold-4c" x="1692.919922"/>
     <use xlink:href="#DejaVuSans-Bold-49" x="1756.640625"/>
     <use xlink:href="#DejaVuSans-Bold-50" x="1793.847656"/>
     <use xlink:href="#DejaVuSans-Bold-20" x="1867.138672"/>
     <use xlink:href="#DejaVuSans-Bold-73" x="1901.953125"/>
     <use xlink:href="#DejaVuSans-Bold-74" x="1961.474609"/>
     <use xlink:href="#DejaVuSans-Bold-61" x="2009.277344"/>
     <use xlink:href="#DejaVuSans-Bold-6e" x="2076.757812"/>
     <use xlink:href="#DejaVuSans-Bold-63" x="2147.949219"/>
     <use xlink:href="#DejaVuSans-Bold-65" x="2207.226562"/>
     <use xlink:href="#DejaVuSans-Bold-20" x="2275.048828"/>
     <use xlink:href="#DejaVuSans-Bold-64" x="2309.863281"/>
     <use xlink:href="#DejaVuSans-Bold-79" x="2381.445312"/>
     <use xlink:href="#DejaVuSans-Bold-6e" x="2446.630859"/>
     <use xlink:href="#DejaVuSans-Bold-61" x="2517.822266"/>
     <use xlink:href="#DejaVuSans-Bold-6d" x="2585.302734"/>
     <use xlink:href="#DejaVuSans-Bold-69" x="2689.501953"/>
     <use xlink:href="#DejaVuSans-Bold-63" x="2723.779297"/>
     <use xlink:href="#DejaVuSans-Bold-73" x="2783.056641"/>
    </g>
   </g>
   <g id="legend_1">
    <g id="patch_7">
     <path d="M 137.881301 631.8 
L 389.830676 631.8 
Q 393.430676 631.8 393.430676 628.2 
L 393.430676 497.896875 
Q 393.430676 494.296875 389.830676 494.296875 
L 137.881301 494.296875 
Q 134.281301 494.296875 134.281301 497.896875 
L 134.281301 628.2 
Q 134.281301 631.8 137.881301 631.8 
z
" style="fill: #24273a; opacity: 0.8; stroke: #24273a; stroke-linejoin: miter"/>
    </g>
    <g id="line2d_52">
     <path d="M 141.481301 508.874062 
L 159.481301 508.874062 
L 177.481301 508.874062 
" style="fill: none; stroke: #f4dbd6; stroke-width: 3; stroke-linecap: square"/>
    </g>
    <g id="text_4">
     <!-- $\theta = $-0.545 rad -->
     <g style="fill: #cad3f5" transform="translate(191.881301 515.174062) scale(0.18 -0.18)">
      <defs>
       <path id="DejaVuSans-Oblique-3b8" d="M 2913 2219 
L 925 2219 
Q 791 1284 928 888 
Q 1100 400 1566 400 
Q 2034 400 2391 891 
Q 2703 1322 2913 2219 
z
M 3009 2750 
Q 3094 3638 2984 3950 
Q 2813 4444 2353 4444 
Q 1875 4444 1525 3956 
Q 1250 3563 1034 2750 
L 3009 2750 
z
M 2444 4913 
Q 3194 4913 3494 4250 
Q 3794 3591 3566 2422 
Q 3341 1256 2781 594 
Q 2225 -72 1475 -72 
Q 722 -72 425 594 
Q 128 1256 353 2422 
Q 581 3591 1134 4250 
Q 1691 4913 2444 4913 
z
" transform="scale(0.015625)"/>
       <path id="DejaVuSans-3d" d="M 678 2906 
L 4684 2906 
L 4684 2381 
L 678 2381 
L 678 2906 
z
M 678 1631 
L 4684 1631 
L 4684 1100 
L 678 1100 
L 678 1631 
z
" transform="scale(0.015625)"/>
       <path id="DejaVuSans-2d" d="M 313 2009 
L 1997 2009 
L 1997 1497 
L 313 1497 
L 313 2009 
z
" transform="scale(0.015625)"/>
       <path id="DejaVuSans-30" d="M 2034 4250 
Q 1547 4250 1301 3770 
Q 1056 3291 1056 2328 
Q 1056 1369 1301 889 
Q 1547 409 2034 409 
Q 2525 409 2770 889 
Q 3016 1369 3016 2328 
Q 3016 3291 2770 3770 
Q 2525 4250 2034 4250 
z
M 2034 4750 
Q 2819 4750 3233 4129 
Q 3647 3509 3647 2328 
Q 3647 1150 3233 529 
Q 2819 -91 2034 -91 
Q 1250 -91 836 529 
Q 422 1150 422 2328 
Q 422 3509 836 4129 
Q 1250 4750 2034 4750 
z
" transform="scale(0.015625)"/>
       <path id="DejaVuSans-2e" d="M 684 794 
L 1344 794 
L 1344 0 
L 684 0 
L 684 794 
z
" transform="scale(0.015625)"/>
       <path id="DejaVuSans-35" d="M 691 4666 
L 3169 4666 
L 3169 4134 
L 1269 4134 
L 1269 2991 
Q 1406 3038 1543 3061 
Q 1681 3084 1819 3084 
Q 2600 3084 3056 2656 
Q 3513 2228 3513 1497 
Q 3513 744 3044 326 
Q 2575 -91 1722 -91 
Q 1428 -91 1123 -41 
Q 819 9 494 109 
L 494 744 
Q 775 591 1075 516 
Q 1375 441 1709 441 
Q 2250 441 2565 725 
Q 2881 1009 2881 1497 
Q 2881 1984 2565 2268 
Q 2250 2553 1709 2553 
Q 1456 2553 1204 2497 
Q 953 2441 691 2322 
L 691 4666 
z
" transform="scale(0.015625)"/>
       <path id="DejaVuSans-34" d="M 2419 4116 
L 825 1625 
L 2419 1625 
L 2419 4116 
z
M 2253 4666 
L 3047 4666 
L 3047 1625 
L 3713 1625 
L 3713 1100 
L 3047 1100 
L 3047 0 
L 2419 0 
L 2419 1100 
L 313 1100 
L 313 1709 
L 2253 4666 
z
" transform="scale(0.015625)"/>
       <path id="DejaVuSans-72" d="M 2631 2963 
Q 2534 3019 2420 3045 
Q 2306 3072 2169 3072 
Q 1681 3072 1420 2755 
Q 1159 2438 1159 1844 
L 1159 0 
L 581 0 
L 581 3500 
L 1159 3500 
L 1159 2956 
Q 1341 3275 1631 3429 
Q 1922 3584 2338 3584 
Q 2397 3584 2469 3576 
Q 2541 3569 2628 3553 
L 2631 2963 
z
" transform="scale(0.015625)"/>
       <path id="DejaVuSans-61" d="M 2194 1759 
Q 1497 1759 1228 1600 
Q 959 1441 959 1056 
Q 959 750 1161 570 
Q 1363 391 1709 391 
Q 2188 391 2477 730 
Q 2766 1069 2766 1631 
L 2766 1759 
L 2194 1759 
z
M 3341 1997 
L 3341 0 
L 2766 0 
L 2766 531 
Q 2569 213 2275 61 
Q 1981 -91 1556 -91 
Q 1019 -91 701 211 
Q 384 513 384 1019 
Q 384 1609 779 1909 
Q 1175 2209 1959 2209 
L 2766 2209 
L 2766 2266 
Q 2766 2663 2505 2880 
Q 2244 3097 1772 3097 
Q 1472 3097 1187 3025 
Q 903 2953 641 2809 
L 641 3341 
Q 956 3463 1253 3523 
Q 1550 3584 1831 3584 
Q 2591 3584 2966 3190 
Q 3341 2797 3341 1997 
z
" transform="scale(0.015625)"/>
       <path id="DejaVuSans-64" d="M 2906 2969 
L 2906 4863 
L 3481 4863 
L 3481 0 
L 2906 0 
L 2906 525 
Q 2725 213 2448 61 
Q 2172 -91 1784 -91 
Q 1150 -91 751 415 
Q 353 922 353 1747 
Q 353 2572 751 3078 
Q 1150 3584 1784 3584 
Q 2172 3584 2448 3432 
Q 2725 3281 2906 2969 
z
M 947 1747 
Q 947 1113 1208 752 
Q 1469 391 1925 391 
Q 2381 391 2643 752 
Q 2906 1113 2906 1747 
Q 2906 2381 2643 2742 
Q 2381 3103 1925 3103 
Q 1469 3103 1208 2742 
Q 947 2381 947 1747 
z
" transform="scale(0.015625)"/>
      </defs>
      <use xlink:href="#DejaVuSans-Oblique-3b8" transform="translate(0 0.234375)"/>
      <use xlink:href="#DejaVuSans-3d" transform="translate(80.664062 0.234375)"/>
      <use xlink:href="#DejaVuSans-2d" transform="translate(183.935547 0.234375)"/>
      <use xlink:href="#DejaVuSans-30" transform="translate(220.019531 0.234375)"/>
      <use xlink:href="#DejaVuSans-2e" transform="translate(283.642578 0.234375)"/>
      <use xlink:href="#DejaVuSans-35" transform="translate(315.429688 0.234375)"/>
      <use xlink:href="#DejaVuSans-34" transform="translate(379.052734 0.234375)"/>
      <use xlink:href="#DejaVuSans-35" transform="translate(442.675781 0.234375)"/>
      <use xlink:href="#DejaVuSans-20" transform="translate(506.298828 0.234375)"/>
      <use xlink:href="#DejaVuSans-72" transform="translate(538.085938 0.234375)"/>
      <use xlink:href="#DejaVuSans-61" transform="translate(579.199219 0.234375)"/>
      <use xlink:href="#DejaVuSans-64" transform="translate(640.478516 0.234375)"/>
     </g>
    </g>
    <g id="line2d_53">
     <path d="M 141.481301 535.294688 
L 159.481301 535.294688 
L 177.481301 535.294688 
" style="fill: none; stroke: #f0c6c6; stroke-width: 3; stroke-linecap: square"/>
    </g>
    <g id="text_5">
     <!-- $\theta = $-0.34 rad -->
     <g style="fill: #cad3f5" transform="translate(191.881301 541.594688) scale(0.18 -0.18)">
      <defs>
       <path id="DejaVuSans-33" d="M 2597 2516 
Q 3050 2419 3304 2112 
Q 3559 1806 3559 1356 
Q 3559 666 3084 287 
Q 2609 -91 1734 -91 
Q 1441 -91 1130 -33 
Q 819 25 488 141 
L 488 750 
Q 750 597 1062 519 
Q 1375 441 1716 441 
Q 2309 441 2620 675 
Q 2931 909 2931 1356 
Q 2931 1769 2642 2001 
Q 2353 2234 1838 2234 
L 1294 2234 
L 1294 2753 
L 1863 2753 
Q 2328 2753 2575 2939 
Q 2822 3125 2822 3475 
Q 2822 3834 2567 4026 
Q 2313 4219 1838 4219 
Q 1578 4219 1281 4162 
Q 984 4106 628 3988 
L 628 4550 
Q 988 4650 1302 4700 
Q 1616 4750 1894 4750 
Q 2613 4750 3031 4423 
Q 3450 4097 3450 3541 
Q 3450 3153 3228 2886 
Q 3006 2619 2597 2516 
z
" transform="scale(0.015625)"/>
      </defs>
      <use xlink:href="#DejaVuSans-Oblique-3b8" transform="translate(0 0.234375)"/>
      <use xlink:href="#DejaVuSans-3d" transform="translate(80.664062 0.234375)"/>
      <use xlink:href="#DejaVuSans-2d" transform="translate(183.935547 0.234375)"/>
      <use xlink:href="#DejaVuSans-30" transform="translate(220.019531 0.234375)"/>
      <use xlink:href="#DejaVuSans-2e" transform="translate(283.642578 0.234375)"/>
      <use xlink:href="#DejaVuSans-33" transform="translate(315.429688 0.234375)"/>
      <use xlink:href="#DejaVuSans-34" transform="translate(379.052734 0.234375)"/>
      <use xlink:href="#DejaVuSans-20" transform="translate(442.675781 0.234375)"/>
      <use xlink:href="#DejaVuSans-72" transform="translate(474.462891 0.234375)"/>
      <use xlink:href="#DejaVuSans-61" transform="translate(515.576172 0.234375)"/>
      <use xlink:href="#DejaVuSans-64" transform="translate(576.855469 0.234375)"/>
     </g>
    </g>
    <g id="line2d_54">
     <path d="M 141.481301 561.715313 
L 159.481301 561.715313 
L 177.481301 561.715313 
" style="fill: none; stroke: #f5bde6; stroke-width: 3; stroke-linecap: square"/>
    </g>
    <g id="text_6">
     <!-- $\theta = $-0.159 rad -->
     <g style="fill: #cad3f5" transform="translate(191.881301 568.015313) scale(0.18 -0.18)">
      <defs>
       <path id="DejaVuSans-31" d="M 794 531 
L 1825 531 
L 1825 4091 
L 703 3866 
L 703 4441 
L 1819 4666 
L 2450 4666 
L 2450 531 
L 3481 531 
L 3481 0 
L 794 0 
L 794 531 
z
" transform="scale(0.015625)"/>
       <path id="DejaVuSans-39" d="M 703 97 
L 703 672 
Q 941 559 1184 500 
Q 1428 441 1663 441 
Q 2288 441 2617 861 
Q 2947 1281 2994 2138 
Q 2813 1869 2534 1725 
Q 2256 1581 1919 1581 
Q 1219 1581 811 2004 
Q 403 2428 403 3163 
Q 403 3881 828 4315 
Q 1253 4750 1959 4750 
Q 2769 4750 3195 4129 
Q 3622 3509 3622 2328 
Q 3622 1225 3098 567 
Q 2575 -91 1691 -91 
Q 1453 -91 1209 -44 
Q 966 3 703 97 
z
M 1959 2075 
Q 2384 2075 2632 2365 
Q 2881 2656 2881 3163 
Q 2881 3666 2632 3958 
Q 2384 4250 1959 4250 
Q 1534 4250 1286 3958 
Q 1038 3666 1038 3163 
Q 1038 2656 1286 2365 
Q 1534 2075 1959 2075 
z
" transform="scale(0.015625)"/>
      </defs>
      <use xlink:href="#DejaVuSans-Oblique-3b8" transform="translate(0 0.234375)"/>
      <use xlink:href="#DejaVuSans-3d" transform="translate(80.664062 0.234375)"/>
      <use xlink:href="#DejaVuSans-2d" transform="translate(183.935547 0.234375)"/>
      <use xlink:href="#DejaVuSans-30" transform="translate(220.019531 0.234375)"/>
      <use xlink:href="#DejaVuSans-2e" transform="translate(283.642578 0.234375)"/>
      <use xlink:href="#DejaVuSans-31" transform="translate(315.429688 0.234375)"/>
      <use xlink:href="#DejaVuSans-35" transform="translate(379.052734 0.234375)"/>
      <use xlink:href="#DejaVuSans-39" transform="translate(437.175781 0.234375)"/>
      <use xlink:href="#DejaVuSans-20" transform="translate(500.798828 0.234375)"/>
      <use xlink:href="#DejaVuSans-72" transform="translate(532.585938 0.234375)"/>
      <use xlink:href="#DejaVuSans-61" transform="translate(573.699219 0.234375)"/>
      <use xlink:href="#DejaVuSans-64" transform="translate(634.978516 0.234375)"/>
     </g>
    </g>
    <g id="line2d_55">
     <path d="M 141.481301 588.135938 
L 159.481301 588.135938 
L 177.481301 588.135938 
" style="fill: none; stroke: #c6a0f6; stroke-width: 3; stroke-linecap: square"/>
    </g>
    <g id="text_7">
     <!-- $\theta = $0.022 rad -->
     <g style="fill: #cad3f5" transform="translate(191.881301 594.435938) scale(0.18 -0.18)">
      <defs>
       <path id="DejaVuSans-32" d="M 1228 531 
L 3431 531 
L 3431 0 
L 469 0 
L 469 531 
Q 828 903 1448 1529 
Q 2069 2156 2228 2338 
Q 2531 2678 2651 2914 
Q 2772 3150 2772 3378 
Q 2772 3750 2511 3984 
Q 2250 4219 1831 4219 
Q 1534 4219 1204 4116 
Q 875 4013 500 3803 
L 500 4441 
Q 881 4594 1212 4672 
Q 1544 4750 1819 4750 
Q 2544 4750 2975 4387 
Q 3406 4025 3406 3419 
Q 3406 3131 3298 2873 
Q 3191 2616 2906 2266 
Q 2828 2175 2409 1742 
Q 1991 1309 1228 531 
z
" transform="scale(0.015625)"/>
      </defs>
      <use xlink:href="#DejaVuSans-Oblique-3b8" transform="translate(0 0.234375)"/>
      <use xlink:href="#DejaVuSans-3d" transform="translate(80.664062 0.234375)"/>
      <use xlink:href="#DejaVuSans-30" transform="translate(183.935547 0.234375)"/>
      <use xlink:href="#DejaVuSans-2e" transform="translate(247.558594 0.234375)"/>
      <use xlink:href="#DejaVuSans-30" transform="translate(279.345703 0.234375)"/>
      <use xlink:href="#DejaVuSans-32" transform="translate(342.96875 0.234375)"/>
      <use xlink:href="#DejaVuSans-32" transform="translate(406.591797 0.234375)"/>
      <use xlink:href="#DejaVuSans-20" transform="translate(470.214844 0.234375)"/>
      <use xlink:href="#DejaVuSans-72" transform="translate(502.001953 0.234375)"/>
      <use xlink:href="#DejaVuSans-61" transform="translate(543.115234 0.234375)"/>
      <use xlink:href="#DejaVuSans-64" transform="translate(604.394531 0.234375)"/>
     </g>
    </g>
    <g id="line2d_56">
     <path d="M 141.481301 614.556563 
L 159.481301 614.556563 
L 177.481301 614.556563 
" style="fill: none; stroke-dasharray: 11.1,4.8; stroke-dashoffset: 0; stroke: #cad3f5; stroke-width: 3"/>
    </g>
    <g id="text_8">
     <!-- numerical integration -->
     <g style="fill: #cad3f5" transform="translate(191.881301 620.856562) scale(0.18 -0.18)">
      <defs>
       <path id="DejaVuSans-6e" d="M 3513 2113 
L 3513 0 
L 2938 0 
L 2938 2094 
Q 2938 2591 2744 2837 
Q 2550 3084 2163 3084 
Q 1697 3084 1428 2787 
Q 1159 2491 1159 1978 
L 1159 0 
L 581 0 
L 581 3500 
L 1159 3500 
L 1159 2956 
Q 1366 3272 1645 3428 
Q 1925 3584 2291 3584 
Q 2894 3584 3203 3211 
Q 3513 2838 3513 2113 
z
" transform="scale(0.015625)"/>
       <path id="DejaVuSans-75" d="M 544 1381 
L 544 3500 
L 1119 3500 
L 1119 1403 
Q 1119 906 1312 657 
Q 1506 409 1894 409 
Q 2359 409 2629 706 
Q 2900 1003 2900 1516 
L 2900 3500 
L 3475 3500 
L 3475 0 
L 2900 0 
L 2900 538 
Q 2691 219 2414 64 
Q 2138 -91 1772 -91 
Q 1169 -91 856 284 
Q 544 659 544 1381 
z
M 1991 3584 
L 1991 3584 
z
" transform="scale(0.015625)"/>
       <path id="DejaVuSans-65" d="M 3597 1894 
L 3597 1613 
L 953 1613 
Q 991 1019 1311 708 
Q 1631 397 2203 397 
Q 2534 397 2845 478 
Q 3156 559 3463 722 
L 3463 178 
Q 3153 47 2828 -22 
Q 2503 -91 2169 -91 
Q 1331 -91 842 396 
Q 353 884 353 1716 
Q 353 2575 817 3079 
Q 1281 3584 2069 3584 
Q 2775 3584 3186 3129 
Q 3597 2675 3597 1894 
z
M 3022 2063 
Q 3016 2534 2758 2815 
Q 2500 3097 2075 3097 
Q 1594 3097 1305 2825 
Q 1016 2553 972 2059 
L 3022 2063 
z
" transform="scale(0.015625)"/>
       <path id="DejaVuSans-69" d="M 603 3500 
L 1178 3500 
L 1178 0 
L 603 0 
L 603 3500 
z
M 603 4863 
L 1178 4863 
L 1178 4134 
L 603 4134 
L 603 4863 
z
" transform="scale(0.015625)"/>
       <path id="DejaVuSans-63" d="M 3122 3366 
L 3122 2828 
Q 2878 2963 2633 3030 
Q 2388 3097 2138 3097 
Q 1578 3097 1268 2742 
Q 959 2388 959 1747 
Q 959 1106 1268 751 
Q 1578 397 2138 397 
Q 2388 397 2633 464 
Q 2878 531 3122 666 
L 3122 134 
Q 2881 22 2623 -34 
Q 2366 -91 2075 -91 
Q 1284 -91 818 406 
Q 353 903 353 1747 
Q 353 2603 823 3093 
Q 1294 3584 2113 3584 
Q 2378 3584 2631 3529 
Q 2884 3475 3122 3366 
z
" transform="scale(0.015625)"/>
       <path id="DejaVuSans-6c" d="M 603 4863 
L 1178 4863 
L 1178 0 
L 603 0 
L 603 4863 
z
" transform="scale(0.015625)"/>
       <path id="DejaVuSans-74" d="M 1172 4494 
L 1172 3500 
L 2356 3500 
L 2356 3053 
L 1172 3053 
L 1172 1153 
Q 1172 725 1289 603 
Q 1406 481 1766 481 
L 2356 481 
L 2356 0 
L 1766 0 
Q 1100 0 847 248 
Q 594 497 594 1153 
L 594 3053 
L 172 3053 
L 172 3500 
L 594 3500 
L 594 4494 
L 1172 4494 
z
" transform="scale(0.015625)"/>
       <path id="DejaVuSans-67" d="M 2906 1791 
Q 2906 2416 2648 2759 
Q 2391 3103 1925 3103 
Q 1463 3103 1205 2759 
Q 947 2416 947 1791 
Q 947 1169 1205 825 
Q 1463 481 1925 481 
Q 2391 481 2648 825 
Q 2906 1169 2906 1791 
z
M 3481 434 
Q 3481 -459 3084 -895 
Q 2688 -1331 1869 -1331 
Q 1566 -1331 1297 -1286 
Q 1028 -1241 775 -1147 
L 775 -588 
Q 1028 -725 1275 -790 
Q 1522 -856 1778 -856 
Q 2344 -856 2625 -561 
Q 2906 -266 2906 331 
L 2906 616 
Q 2728 306 2450 153 
Q 2172 0 1784 0 
Q 1141 0 747 490 
Q 353 981 353 1791 
Q 353 2603 747 3093 
Q 1141 3584 1784 3584 
Q 2172 3584 2450 3431 
Q 2728 3278 2906 2969 
L 2906 3500 
L 3481 3500 
L 3481 434 
z
" transform="scale(0.015625)"/>
       <path id="DejaVuSans-6f" d="M 1959 3097 
Q 1497 3097 1228 2736 
Q 959 2375 959 1747 
Q 959 1119 1226 758 
Q 1494 397 1959 397 
Q 2419 397 2687 759 
Q 2956 1122 2956 1747 
Q 2956 2369 2687 2733 
Q 2419 3097 1959 3097 
z
M 1959 3584 
Q 2709 3584 3137 3096 
Q 3566 2609 3566 1747 
Q 3566 888 3137 398 
Q 2709 -91 1959 -91 
Q 1206 -91 779 398 
Q 353 888 353 1747 
Q 353 2609 779 3096 
Q 1206 3584 1959 3584 
z
" transform="scale(0.015625)"/>
      </defs>
      <use xlink:href="#DejaVuSans-6e"/>
      <use xlink:href="#DejaVuSans-75" x="63.378906"/>
      <use xlink:href="#DejaVuSans-6d" x="126.757812"/>
      <use xlink:href="#DejaVuSans-65" x="224.169922"/>
      <use xlink:href="#DejaVuSans-72" x="285.693359"/>
      <use xlink:href="#DejaVuSans-69" x="326.806641"/>
      <use xlink:href="#DejaVuSans-63" x="354.589844"/>
      <use xlink:href="#DejaVuSans-61" x="409.570312"/>
      <use xlink:href="#DejaVuSans-6c" x="470.849609"/>
      <use xlink:href="#DejaVuSans-20" x="498.632812"/>
      <use xlink:href="#DejaVuSans-69" x="530.419922"/>
      <use xlink:href="#DejaVuSans-6e" x="558.203125"/>
      <use xlink:href="#DejaVuSans-74" x="621.582031"/>
      <use xlink:href="#DejaVuSans-65" x="660.791016"/>
      <use xlink:href="#DejaVuSans-67" x="722.314453"/>
      <use xlink:href="#DejaVuSans-72" x="785.791016"/>
      <use xlink:href="#DejaVuSans-61" x="826.904297"/>
      <use xlink:href="#DejaVuSans-74" x="888.183594"/>
      <use xlink:href="#DejaVuSans-69" x="927.392578"/>
      <use xlink:href="#DejaVuSans-6f" x="955.175781"/>
      <use xlink:href="#DejaVuSans-6e" x="1016.357422"/>
     </g>
    </g>
   </g>
  </g>
 </g>
 <defs>
  <clipPath id="pc845fc2369">
   <rect x="125.281301" y="86.4" width="487.437397" height="554.4"/>
  </clipPath>
 </defs>
</svg>
