<?xml version="1.0" encoding="UTF-8" standalone="no"?>
<!-- Created with Inkscape (http://www.inkscape.org/) -->

<svg
   width="133.52628mm"
   height="129.85091mm"
   viewBox="0 0 133.52627 129.8509"
   version="1.1"
   id="svg5"
   inkscape:version="1.2.2 (b0a8486541, 2022-12-01)"
   sodipodi:docname="special_points.svg"
   xmlns:inkscape="http://www.inkscape.org/namespaces/inkscape"
   xmlns:sodipodi="http://sodipodi.sourceforge.net/DTD/sodipodi-0.dtd"
   xmlns="http://www.w3.org/2000/svg"
   xmlns:svg="http://www.w3.org/2000/svg">
  <sodipodi:namedview
     id="namedview7"
     pagecolor="#24273a"
     bordercolor="#000000"
     borderopacity="0.25"
     inkscape:showpageshadow="2"
     inkscape:pageopacity="0"
     inkscape:pagecheckerboard="0"
     inkscape:deskcolor="#d1d1d1"
     inkscape:document-units="mm"
     showgrid="false"
     inkscape:zoom="1.9057606"
     inkscape:cx="180.76772"
     inkscape:cy="260.00118"
     inkscape:window-width="1920"
     inkscape:window-height="1043"
     inkscape:window-x="0"
     inkscape:window-y="0"
     inkscape:window-maximized="1"
     inkscape:current-layer="layer1" />
  <defs
     id="defs2">
    <marker
       style="overflow:visible"
       id="Arrow1"
       refX="0"
       refY="0"
       orient="auto-start-reverse"
       inkscape:stockid="Arrow1"
       markerWidth="4.0606604"
       markerHeight="6.7071066"
       viewBox="0 0 4.0606602 6.7071068"
       inkscape:isstock="true"
       inkscape:collect="always"
       preserveAspectRatio="xMidYMid">
      <path
         style="fill:none;stroke:context-stroke;stroke-width:1;stroke-linecap:butt"
         d="M 3,-3 0,0 3,3"
         id="path5057"
         transform="rotate(180,0.125,0)"
         sodipodi:nodetypes="ccc" />
    </marker>
    <clipPath
       clipPathUnits="userSpaceOnUse"
       id="clipPath2793">
      <rect
         style="fill:#12d827;fill-opacity:0.498388;stroke:none;stroke-width:1;stroke-linecap:round;stroke-linejoin:round;stroke-dasharray:1, 3;stroke-dashoffset:0;stroke-opacity:1;paint-order:fill markers stroke"
         id="rect2795"
         width="26.791445"
         height="33.155418"
         x="147.03291"
         y="75.818123" />
    </clipPath>
    <clipPath
       clipPathUnits="userSpaceOnUse"
       id="clipPath2803">
      <rect
         style="fill:#12d827;fill-opacity:0.498388;stroke:none;stroke-width:1.53791;stroke-linecap:round;stroke-linejoin:round;stroke-opacity:1;paint-order:fill markers stroke"
         id="rect2805"
         width="41.817879"
         height="37.553497"
         x="67.594994"
         y="76.499031" />
    </clipPath>
    <clipPath
       id="clipPath2265">
      <path
         clip-rule="nonzero"
         d="M 0,0 H 8 V 7.410156 H 0 Z m 0,0"
         id="path687" />
    </clipPath>
    <clipPath
       id="clipPath5092">
      <path
         clip-rule="nonzero"
         d="M 0,0 H 13 V 11.765625 H 0 Z m 0,0"
         id="path2135" />
    </clipPath>
  </defs>
  <g
     inkscape:label="Layer 1"
     inkscape:groupmode="layer"
     id="layer1"
     transform="translate(-38.626111,-36.498499)">
    <path
       style="fill:none;stroke:#cad3f5;stroke-width:1;stroke-linecap:round;stroke-linejoin:round;stroke-opacity:1;marker-end:url(#Arrow1);paint-order:fill markers stroke"
       d="M 50.589664,158.06123 H 171.19528"
       id="path236" />
    <path
       style="fill:none;stroke:#cad3f5;stroke-width:1;stroke-linecap:round;stroke-linejoin:round;stroke-opacity:1;marker-end:url(#Arrow1);paint-order:fill markers stroke"
       d="M 50.589664,158.06123 V 37.455606"
       id="path236-3" />
    <g
       id="g2036"
       transform="matrix(1.1923949,0,0,1.1923949,2.0226622,-21.299734)">
      <path
         style="fill:none;stroke:#ed8796;stroke-width:1;stroke-linecap:round;stroke-linejoin:round;stroke-dasharray:1, 3;stroke-dashoffset:0;stroke-opacity:1;paint-order:fill markers stroke"
         d="m 60.49124,63.385466 c 0,0 20.511992,7.781732 26.332513,24.307176 5.820523,16.525448 13.482267,38.994508 30.192867,41.444978"
         id="path1932" />
      <path
         style="fill:none;stroke:#8bd5ca;stroke-width:1;stroke-linecap:round;stroke-linejoin:round;stroke-dasharray:1, 3;stroke-dashoffset:0;stroke-opacity:1;paint-order:fill markers stroke"
         d="m 65.408738,136.07219 c 0,-2.26532 23.345192,-61.46603 55.197222,-73.186724"
         id="path1934"
         sodipodi:nodetypes="cc" />
      <path
         style="fill:none;fill-opacity:0.498388;stroke:#ed8796;stroke-width:0.999669;stroke-linecap:round;stroke-linejoin:round;stroke-dasharray:none;stroke-dashoffset:0;stroke-opacity:1;paint-order:fill markers stroke"
         d="m 83.8025,81.557521 1.403518,-5.05849"
         id="path6335" />
      <path
         style="fill:none;fill-opacity:0.498388;stroke:#ed8796;stroke-width:0.999669;stroke-linecap:round;stroke-linejoin:round;stroke-dasharray:none;stroke-dashoffset:0;stroke-opacity:1;paint-order:fill markers stroke"
         d="M 83.8025,81.557521 78.764533,81.53325"
         id="path6337" />
      <path
         style="fill:none;fill-opacity:0.498388;stroke:#ed8796;stroke-width:0.999669;stroke-linecap:round;stroke-linejoin:round;stroke-dasharray:none;stroke-dashoffset:0;stroke-opacity:1;paint-order:fill markers stroke"
         d="m 88.75393,107.21611 3.194838,-5.67623 5.532756,1.43123"
         id="path6339" />
      <path
         style="fill:none;fill-opacity:0.498388;stroke:#8bd5ca;stroke-width:0.999669;stroke-linecap:round;stroke-linejoin:round;stroke-dasharray:none;stroke-dashoffset:0;stroke-opacity:1;paint-order:fill markers stroke"
         d="M 97.981358,85.145174 V 79.972393 L 93.007349,79.486524"
         id="path6535" />
      <path
         style="fill:none;fill-opacity:0.498388;stroke:#8bd5ca;stroke-width:0.999669;stroke-linecap:round;stroke-linejoin:round;stroke-dasharray:none;stroke-dashoffset:0;stroke-opacity:1;paint-order:fill markers stroke"
         d="m 78.264698,99.070272 1.534635,6.114848 5.90652,-0.80712"
         id="path6537" />
    </g>
    <g
       id="g2727"
       clip-path="url(#clipPath2803)"
       transform="matrix(1.1923949,0,0,1.1923949,2.0226622,-21.299734)">
      <path
         style="fill:none;stroke:#ed8796;stroke-width:0.999669;stroke-linecap:round;stroke-linejoin:round;stroke-dasharray:none;stroke-opacity:1;paint-order:fill markers stroke"
         d="m 60.49124,63.385466 c 0,0 20.511992,7.781732 26.332513,24.307176 5.820523,16.525448 13.482267,38.994508 30.192867,41.444978"
         id="path2038" />
      <path
         style="fill:none;stroke:#8bd5ca;stroke-width:1;stroke-linecap:round;stroke-linejoin:round;stroke-opacity:1;paint-order:fill markers stroke"
         d="m 65.408738,136.07219 c 0,-2.26532 23.345192,-61.46603 55.197222,-73.186724"
         id="path2040"
         sodipodi:nodetypes="cc" />
    </g>
    <circle
       style="fill:#ffff00;fill-opacity:1;stroke:none;stroke-width:0.999669;stroke-linecap:round;stroke-linejoin:round;stroke-dasharray:none;stroke-dashoffset:0;stroke-opacity:1;paint-order:fill markers stroke"
       id="path7329"
       cx="88.503929"
       cy="91.679123"
       r="2.221611"
       transform="matrix(1.1923949,0,0,1.1923949,2.0226611,-21.299733)" />
    <g
       inkscape:label=""
       transform="matrix(1.879743,0,0,1.879743,161.40653,161.31497)"
       id="g8617"
       style="fill:#cad3f5;fill-opacity:1">
      <g
         clip-path="url(#clipPath2265)"
         id="g16"
         transform="matrix(0.352778,0,0,0.352778,-0.259071,0.0641173)"
         style="fill:#cad3f5;fill-opacity:1">
        <g
           fill="#000000"
           fill-opacity="1"
           id="g14"
           style="fill:#cad3f5;fill-opacity:1">
          <g
             id="use12"
             transform="translate(0,7.4120002)"
             style="fill:#cad3f5;fill-opacity:1">
            <path
               d="m 2.1875,-1.390625 c 0.734375,-0.84375 1.34375,-1.375 2.203125,-2.15625 C 5.421875,-4.4375 5.875,-4.875 6.109375,-5.125 7.3125,-6.3125 7.921875,-7.3125 7.921875,-7.453125 7.921875,-7.59375 7.78125,-7.59375 7.75,-7.59375 c -0.125,0 -0.15625,0.0625 -0.25,0.1875 -0.421875,0.75 -0.84375,1.109375 -1.28125,1.109375 -0.359375,0 -0.546875,-0.15625 -0.875,-0.578125 -0.375,-0.421875 -0.65625,-0.71875 -1.15625,-0.71875 -1.265625,0 -2.015625,1.5625 -2.015625,1.921875 0,0.0625 0.015625,0.15625 0.171875,0.15625 0.140625,0 0.15625,-0.0625 0.203125,-0.1875 0.296875,-0.6875 1.125,-0.8125 1.453125,-0.8125 0.359375,0 0.703125,0.125 1.0625,0.28125 0.65625,0.28125 0.921875,0.28125 1.109375,0.28125 0.109375,0 0.1875,0 0.265625,-0.015625 -0.5625,0.671875 -1.5,1.484375 -2.265625,2.203125 l -1.75,1.59375 c -1.046875,1.0625 -1.6875,2.078125 -1.6875,2.203125 0,0.109375 0.09375,0.140625 0.203125,0.140625 0.09375,0 0.109375,-0.015625 0.234375,-0.21875 C 1.453125,-0.484375 2,-1.125 2.640625,-1.125 3,-1.125 3.171875,-1 3.515625,-0.5625 3.84375,-0.1875 4.125,0.171875 4.6875,0.171875 c 1.6875,0 2.640625,-2.1875 2.640625,-2.578125 0,-0.078125 -0.015625,-0.171875 -0.1875,-0.171875 -0.125,0 -0.15625,0.0625 -0.203125,0.234375 -0.375,1.015625 -1.390625,1.4375 -2.0625,1.4375 -0.359375,0 -0.703125,-0.125 -1.0625,-0.28125 -0.703125,-0.28125 -0.890625,-0.28125 -1.109375,-0.28125 -0.171875,0 -0.359375,0 -0.515625,0.078125 z m 0,0"
               id="path22"
               style="fill:#cad3f5;fill-opacity:1" />
          </g>
        </g>
      </g>
    </g>
    <g
       inkscape:label=""
       transform="matrix(2.0000002,0,0,2.0000002,38.648174,42.257306)"
       id="g8719"
       style="fill:#cad3f5;fill-opacity:1">
      <g
         clip-path="url(#clipPath5092)"
         id="g8717"
         transform="matrix(0.352778,0,0,0.352778,-0.28112,-0.0159632)"
         style="fill:#cad3f5;fill-opacity:1">
        <g
           fill="#000000"
           fill-opacity="1"
           id="g8715"
           style="fill:#cad3f5;fill-opacity:1">
          <g
             id="g8713"
             transform="translate(0,11.764)"
             style="fill:#cad3f5;fill-opacity:1">
            <path
               d="m 11.96875,-4 c 0.01563,-0.046875 0.0625,-0.171875 0.0625,-0.234375 0,-0.09375 -0.0625,-0.171875 -0.171875,-0.171875 -0.0625,0 -0.09375,0.015625 -0.15625,0.0625 -0.03125,0.015625 -0.03125,0.0625 -0.1875,0.40625 -1.015625,2.40625 -1.75,3.4375 -4.5,3.4375 H 4.5 c -0.25,0 -0.28125,0 -0.390625,-0.015625 -0.1875,-0.015625 -0.203125,-0.046875 -0.203125,-0.1875 0,-0.125 0.03125,-0.234375 0.078125,-0.375 l 1.1875,-4.765625 H 6.875 c 1.34375,0 1.4375,0.296875 1.4375,0.8125 0,0.171875 0,0.328125 -0.109375,0.84375 -0.046875,0.078125 -0.0625,0.140625 -0.0625,0.1875 0,0.125 0.09375,0.171875 0.1875,0.171875 0.15625,0 0.171875,-0.109375 0.25,-0.359375 L 9.5625,-8.171875 c 0,-0.09375 -0.078125,-0.171875 -0.171875,-0.171875 -0.15625,0 -0.171875,0.0625 -0.25,0.296875 -0.34375,1.328125 -0.6875,1.703125 -2.21875,1.703125 H 5.28125 l 1.078125,-4.234375 c 0.15625,-0.59375 0.1875,-0.65625 0.890625,-0.65625 h 2.46875 c 2.109375,0 2.546875,0.578125 2.546875,1.890625 0,0.015625 0,0.5 -0.07813,1.0625 -0.01563,0.0625 -0.03125,0.171875 -0.03125,0.203125 0,0.140625 0.09375,0.1875 0.1875,0.1875 0.125,0 0.1875,-0.0625 0.21875,-0.375 l 0.375,-3.015625 c 0,-0.04687 0.03125,-0.21875 0.03125,-0.25 0,-0.1875 -0.15625,-0.1875 -0.46875,-0.1875 H 4.09375 c -0.328125,0 -0.5,0 -0.5,0.296875 0,0.1875 0.125,0.1875 0.421875,0.1875 1.0625,0 1.0625,0.125 1.0625,0.3125 0,0.09375 -0.015625,0.15625 -0.0625,0.34375 L 2.6875,-1.28125 C 2.53125,-0.671875 2.5,-0.5 1.296875,-0.5 c -0.328125,0 -0.5,0 -0.5,0.3125 C 0.796875,0 0.890625,0 1.234375,0 h 8.65625 c 0.375,0 0.390625,-0.015625 0.515625,-0.296875 z m 0,0"
               id="path8711"
               style="fill:#cad3f5;fill-opacity:1" />
          </g>
        </g>
      </g>
    </g>
  </g>
</svg>
