<?xml version="1.0" encoding="UTF-8" standalone="no"?>
<!-- Created with Inkscape (http://www.inkscape.org/) -->

<svg
   inkscape:export-ydpi="300"
   inkscape:export-xdpi="300"
   inkscape:export-filename="../png_img/viability_HZD.png"
   sodipodi:docname="viabilityHZD.svg"
   inkscape:version="1.2.2 (b0a8486541, 2022-12-01)"
   id="svg5"
   version="1.1"
   viewBox="0 0 312.4845 205.76076"
   height="205.76076mm"
   width="312.4845mm"
   xmlns:inkscape="http://www.inkscape.org/namespaces/inkscape"
   xmlns:sodipodi="http://sodipodi.sourceforge.net/DTD/sodipodi-0.dtd"
   xmlns="http://www.w3.org/2000/svg"
   xmlns:svg="http://www.w3.org/2000/svg">
  <sodipodi:namedview
     id="namedview7"
     pagecolor="#24273a"
     bordercolor="#eeeeee"
     borderopacity="1"
     inkscape:showpageshadow="0"
     inkscape:pageopacity="0"
     inkscape:pagecheckerboard="0"
     inkscape:deskcolor="#505050"
     inkscape:document-units="mm"
     showgrid="false"
     inkscape:zoom="0.36814486"
     inkscape:cx="1256.299"
     inkscape:cy="865.14858"
     inkscape:window-width="1920"
     inkscape:window-height="1011"
     inkscape:window-x="0"
     inkscape:window-y="32"
     inkscape:window-maximized="1"
     inkscape:current-layer="layer1" />
  <defs
     id="defs2">
    <inkscape:path-effect
       effect="spiro"
       id="path-effect5158"
       is_visible="true"
       lpeversion="1" />
    <inkscape:path-effect
       effect="spiro"
       id="path-effect3311"
       is_visible="true"
       lpeversion="1" />
    <inkscape:path-effect
       effect="spiro"
       id="path-effect4976"
       is_visible="true"
       lpeversion="1" />
    <inkscape:path-effect
       effect="spiro"
       id="path-effect4972"
       is_visible="true"
       lpeversion="1" />
    <inkscape:path-effect
       effect="spiro"
       id="path-effect4968"
       is_visible="true"
       lpeversion="1" />
    <inkscape:path-effect
       effect="spiro"
       id="path-effect4964"
       is_visible="true"
       lpeversion="1" />
    <inkscape:path-effect
       effect="spiro"
       id="path-effect4960"
       is_visible="true"
       lpeversion="1" />
    <inkscape:path-effect
       effect="spiro"
       id="path-effect4956"
       is_visible="true"
       lpeversion="1" />
    <inkscape:path-effect
       effect="spiro"
       id="path-effect4952"
       is_visible="true"
       lpeversion="1" />
    <inkscape:path-effect
       effect="spiro"
       id="path-effect4948"
       is_visible="true"
       lpeversion="1" />
    <inkscape:path-effect
       effect="spiro"
       id="path-effect4944"
       is_visible="true"
       lpeversion="1" />
    <inkscape:path-effect
       effect="spiro"
       id="path-effect4940"
       is_visible="true"
       lpeversion="1" />
    <inkscape:path-effect
       effect="spiro"
       id="path-effect4904"
       is_visible="true"
       lpeversion="1" />
    <inkscape:path-effect
       effect="spiro"
       id="path-effect1032"
       is_visible="true"
       lpeversion="1" />
    <inkscape:path-effect
       effect="spiro"
       id="path-effect238"
       is_visible="true"
       lpeversion="1" />
    <inkscape:path-effect
       effect="spiro"
       id="path-effect238-3"
       is_visible="true"
       lpeversion="1" />
    <inkscape:path-effect
       effect="spiro"
       id="path-effect1032-7"
       is_visible="true"
       lpeversion="1" />
    <inkscape:path-effect
       effect="spiro"
       id="path-effect4904-3"
       is_visible="true"
       lpeversion="1" />
    <marker
       style="overflow:visible"
       id="Arrow1"
       refX="0"
       refY="0"
       orient="auto-start-reverse"
       inkscape:stockid="Arrow1"
       markerWidth="4.0606599"
       markerHeight="6.7071066"
       viewBox="0 0 4.0606602 6.7071068"
       inkscape:isstock="true"
       inkscape:collect="always"
       preserveAspectRatio="xMidYMid">
      <path
         style="fill:none;stroke:context-stroke;stroke-width:1;stroke-linecap:butt"
         d="M 3,-3 0,0 3,3"
         id="path5057"
         transform="rotate(180,0.125,0)"
         sodipodi:nodetypes="ccc" />
    </marker>
    <inkscape:path-effect
       effect="spiro"
       id="path-effect2472"
       is_visible="true"
       lpeversion="1" />
  </defs>
  <g
     inkscape:label="Layer 1"
     inkscape:groupmode="layer"
     id="layer1"
     transform="translate(3.4497144,38.702786)">
    <path
       style="fill:#8bd5ca;fill-opacity:1;stroke-width:1.41678"
       d="m 943.26585,338.1413 c -22.16946,0.89442 -44.36099,4.03546 -65.66262,10.2763 -4.19966,4.4573 -5.08795,11.20393 -7.64312,16.67441 -13.22393,35.56211 -24.19103,72.70484 -24.15949,110.97536 -0.59999,31.31539 4.26731,62.65235 14.49046,92.26427 2.03911,4.45088 2.44672,11.58457 8.01692,13.0555 7.8693,-1.57904 14.53292,-6.91196 21.35649,-10.93084 19.04983,-13.27921 34.06132,-32.37792 41.52655,-54.44848 6.57618,-19.11687 12.0993,-39.44497 25.91476,-54.87821 2.37866,-3.66763 7.48667,-6.39566 7.60993,-10.85168 -5.59751,-7.76294 -12.69176,-14.76924 -17.14051,-23.46875 -13.78393,-24.65019 -13.87939,-55.77227 -0.9225,-80.75346 1.84346,-2.56558 2.69025,-7.83759 -1.79081,-7.92028 -0.53189,-0.0209 -1.0641,6.4e-4 -1.59606,0.006 z"
       id="path1700"
       transform="matrix(0.26458333,0,0,0.26458333,-3.4497144,5.7216502)" />
    <path
       style="fill:#8bd5ca;fill-opacity:1;stroke:none;stroke-width:2.83355;stroke-dasharray:none;stroke-dashoffset:0;stroke-opacity:1"
       d="m 284.09772,468.64798 c -1.85573,6.56393 -0.55161,13.83328 -1.20834,20.66653 -0.11277,37.19904 -10.75164,73.96298 -27.35093,107.27182 -1.94343,3.13654 -2.83028,9.04982 2.11588,9.7843 14.24339,3.53024 29.21415,3.76178 43.46452,0.13784 28.83482,-6.65731 54.43845,-27.61129 64.8979,-55.50951 -0.0655,-4.94443 -5.91544,-7.09801 -8.65335,-10.63419 -22.38883,-22.23289 -42.0902,-46.98445 -64.01876,-69.63459 -2.36954,-2.48311 -6.02724,-3.80769 -9.24692,-2.0822 z"
       id="path9610"
       transform="matrix(0.26458333,0,0,0.26458333,-3.4497144,5.7216502)" />
    <path
       style="fill:none;stroke:none;stroke-width:0.499999;stroke-opacity:1"
       d="m -3.4497144,132.19057 c 5.7780029,-9.8458 15.4916464,-17.30648 26.4946104,-20.34949 11.002964,-3.04301 23.169732,-1.63365 33.185672,3.84413 8.076372,4.41702 14.566848,11.21052 20.623648,18.14255 6.056801,6.93202 11.883112,14.17332 19.115078,19.86863 8.671976,6.82934 19.286636,11.23993 30.280486,12.22898 10.99386,0.98906 22.32513,-1.49825 31.72187,-7.29 8.47847,-5.22577 15.15444,-12.8864 21.29943,-20.72426 6.145,-7.83786 11.9486,-16.02829 19.24024,-22.81247 16.89562,-15.719764 41.58097,-22.620076 64.17897,-17.939989"
       id="path236"
       inkscape:path-effect="#path-effect238"
       inkscape:original-d="m -3.4497144,132.19057 c 12.684749,-2.1702 46.9960594,-14.33463 59.6802824,-16.50536 12.684223,-2.17073 26.492756,25.34105 39.738726,38.01118 13.245986,12.67014 41.335166,3.29292 62.002356,4.93898 20.66718,1.64606 27.02671,-29.02422 40.53967,-43.53673 13.51296,-14.51251 42.78625,-11.95973 64.17897,-17.939989"
       sodipodi:nodetypes="cssssc" />
    <path
       style="fill:none;stroke:none;stroke-width:0.499999;stroke-opacity:1"
       d="M 49.166304,52.415431 C 56.105156,45.72845 65.30406,41.429532 74.885072,40.396295 c 9.581013,-1.033237 19.484961,1.205588 27.689968,6.259422 8.72187,5.372194 15.2503,13.57609 21.76535,21.480874 6.51505,7.904784 13.4479,15.873446 22.59159,20.491281 9.83589,4.967413 21.5591,5.550428 32.22258,2.773737 10.66348,-2.77669 20.31765,-8.730744 28.51292,-16.096701 11.65708,-10.47745 20.58301,-23.812956 32.82482,-33.600836 18.90601,-15.116207 45.30206,-20.343973 68.54247,-13.574912"
       id="path236-6"
       inkscape:path-effect="#path-effect238-3"
       inkscape:original-d="m 49.166304,52.415431 c 12.684749,-2.1702 40.724514,-3.588984 53.408736,-5.759714 12.68422,-2.17073 31.11097,29.302025 44.35694,41.972155 13.24598,12.670138 69.60686,-32.061726 60.7355,-13.322964 -7.98067,16.857373 19.31186,-19.088326 32.82482,-33.600836 13.51296,-14.512508 47.14975,-7.594653 68.54247,-13.574912"
       sodipodi:nodetypes="cssssc" />
    <path
       style="fill:none;stroke:none;stroke-width:0.499999;stroke-opacity:1"
       d="M 49.448288,52.083768 C 50.07019,58.75976 48.68011,65.610142 45.505163,71.515677 40.159393,81.459033 30.372159,88.079769 21.014187,94.394509 12.863672,99.89446 4.4348949,105.82176 -0.045927,114.57405 c -2.6845411,5.24366 -3.7622693,11.29644 -3.0526529,17.14444"
       id="path1030"
       inkscape:path-effect="#path-effect1032"
       inkscape:original-d="m 49.448288,52.083768 c -7.739763,5.712754 3.885461,13.49948 -3.943125,19.431909 -7.828585,5.932429 -22.759119,14.755127 -24.490976,22.878832 -1.731856,8.123701 -14.0398113,13.453291 -21.060114,20.179541 -7.0203027,6.72626 -2.2258818,11.50682 -3.0526529,17.14444"
       sodipodi:nodetypes="csssc" />
    <path
       style="fill:none;stroke:none;stroke-width:0.499999;stroke-opacity:1"
       d="m 308.79217,27.865678 c -1.13598,6.314745 -2.77628,12.538697 -4.90014,18.593092 -2.47383,7.052053 -5.68683,14.000216 -10.75879,19.488977 -5.18851,5.614893 -12.03103,9.400894 -17.78984,14.42919 -5.27818,4.608631 -9.63041,10.27341 -12.72358,16.560773"
       id="path1030-5"
       inkscape:path-effect="#path-effect1032-7"
       inkscape:original-d="m 308.79217,27.865678 c -7.73976,5.712754 2.92845,12.660663 -4.90014,18.593092 -7.82858,5.932429 -9.02694,11.365274 -10.75879,19.488977 -1.73186,8.1237 -10.76954,7.70294 -17.78984,14.42919 -7.0203,6.72626 -5.53038,9.325915 -12.72358,16.560773"
       sodipodi:nodetypes="csssc" />
    <path
       style="fill:#8aadf4;fill-opacity:0.701006;stroke:#8aadf4;stroke-width:3.77953;stroke-dasharray:none;stroke-opacity:1"
       d="M 492.62604,531.03814 C 459.87788,528.78336 421.25851,515.11267 392.15201,495.47179 367.8029,479.04119 353.75408,465.50337 314.54978,420.69218 276.82247,377.5692 256.71158,358.95722 232.15672,344.43999 173.38312,309.69208 98.806534,313.75193 44.097126,354.67771 33.400654,362.67928 14.806405,381.39829 8.6510067,390.36165 L 3.445088,397.9424 2.9985237,391.89613 c -1.0153231,-13.74701 4.5527314,-37.22184 12.5899633,-53.07909 5.280607,-10.41849 19.130758,-28.20428 28.902246,-37.11506 11.441862,-10.43403 29.822845,-24.23028 58.172887,-43.66296 12.88463,-8.83183 28.68503,-20.27425 35.11199,-25.4276 42.99518,-34.4749 62.4997,-68.51008 64.42336,-112.41806 l 0.7715,-17.61017 8.82713,-7.023952 c 40.76903,-32.440899 93.29023,-44.008573 142.62386,-31.412579 44.45471,11.350293 71.41779,32.286389 126.80612,98.461491 38.23115,45.6766 61.95363,67.11164 88.47196,79.94108 25.4131,12.29473 47.8188,16.58513 80.52096,15.41876 31.23459,-1.11404 52.34492,-6.45507 82.347,-20.83428 37.20626,-17.83195 67.41202,-42.2003 107.75139,-86.92787 C 906.81953,76.471064 920.5713,63.707581 956.27067,42.587049 1018.549,5.7417887 1096.2373,-6.3627514 1166.9615,9.7594957 c 6.1082,1.3924273 10.4184,3.1298773 10.904,4.3954793 1.2076,3.147064 -10.0482,46.854413 -17.1153,66.460084 -12.7758,35.442601 -26.403,59.031251 -44.6355,77.263801 -5.7839,5.78383 -21.4833,18.69343 -34.8877,28.68798 -13.4043,9.99456 -29.0672,22.63234 -34.8064,28.08397 -11.8978,11.30176 -28.0965,32.16652 -35.7315,46.02387 -2.8546,5.18112 -5.3346,9.6179 -5.511,9.85951 -0.1763,0.24159 -3.947,-0.24073 -8.37925,-1.07185 -16.67074,-3.12606 -43.22084,-4.31025 -63.11633,-2.81514 -56.19585,4.22305 -109.29796,24.24353 -153.02558,57.69349 -21.4477,16.40665 -41.8725,38.70067 -77.81443,84.93576 -36.44751,46.88546 -53.79057,65.63616 -77.51861,83.81038 -36.32012,27.81895 -83.57436,41.33357 -132.69786,37.95131 z"
       id="path1153"
       transform="matrix(0.26458333,0,0,0.26458333,-3.665328,24.964515)" />
    <path
       style="fill:#ed8796;fill-opacity:0.541176;stroke:#ed8796;stroke-width:1;stroke-dasharray:none;stroke-dashoffset:0;stroke-opacity:0.701961"
       d="m 61.933928,64.058216 c -0.02285,2.437696 -0.280441,4.886396 -0.96578,7.225881 -0.685339,2.339486 -1.810435,4.571576 -3.43976,6.38491 -2.534274,2.820483 -6.096503,4.458439 -9.568571,5.982384 -3.472069,1.523945 -7.055896,3.074065 -9.71049,5.78161 -1.167058,1.190336 -2.134491,2.600119 -2.671062,4.178414 -0.536571,1.578295 -0.62324,3.332117 -0.09032,4.911648 0.673039,1.994817 2.289417,3.580207 4.163793,4.538847 1.874375,0.95865 3.993766,1.34365 6.094783,1.47786 5.671448,0.36229 11.386409,-1.01507 17.021825,-0.28113 3.860875,0.50283 7.538893,1.98513 10.955817,3.85163 3.416924,1.8665 6.604466,4.11917 9.83734,6.2889 2.787691,1.87094 5.619436,3.68712 8.242721,5.78236 4.748433,3.79261 8.734453,8.43375 13.012183,12.75031 4.27772,4.31655 8.98316,8.39893 14.6122,10.68923 4.80237,1.95395 10.11823,2.51278 15.27137,1.94204 5.15315,-0.57074 10.14933,-2.24559 14.7746,-4.58816 9.25052,-4.68515 16.92353,-11.91891 24.35924,-19.14615 7.66788,-7.4529 15.32553,-15.07918 24.44457,-20.66355 6.70015,-4.103075 14.09255,-7.030137 21.7227,-8.903092 6.18592,-1.518442 12.52659,-2.351686 18.69565,-3.937207 6.16907,-1.585521 12.27939,-4.002775 17.04562,-8.228212 4.06547,-3.604184 7.07259,-8.445521 11.72969,-11.243659 1.50003,-0.901266 3.12951,-1.561866 4.70079,-2.332219 1.57128,-0.770354 3.113,-1.672364 4.30021,-2.958011 1.06708,-1.15555 1.81407,-2.597573 2.17878,-4.127582 0.36472,-1.530009 0.35005,-3.14465 -0.006,-4.676715 -0.71198,-3.06413 -2.78981,-5.731045 -5.44546,-7.417254 -2.12218,-1.34748 -4.58983,-2.100184 -7.08832,-2.377431 -2.4985,-0.277247 -5.0318,-0.09149 -7.50888,0.336787 -10.39362,1.797015 -19.64676,7.783699 -27.39913,14.936128 -7.69285,7.097511 -14.16605,15.396791 -21.35113,23.007915 -9.12528,9.666367 -19.71841,18.403322 -32.28543,22.736842 -6.28351,2.16676 -13.00265,3.1844 -19.62218,2.58509 -6.61953,-0.59931 -13.13238,-2.85173 -18.48925,-6.78635 -5.1025,-3.747786 -9.01168,-8.868327 -12.66718,-14.037348 C 119.95346,78.077283 113.66766,67.889391 105.20106,59.615015 99.22737,53.776951 92.191417,48.9628 84.400434,45.951397 c -3.45211,-1.334324 -7.124577,-2.321619 -10.81703,-2.070074 -1.846227,0.125772 -3.680385,0.566304 -5.338588,1.387727 -1.658202,0.821424 -3.136333,2.031199 -4.186213,3.55505 -1.480122,2.148327 -2.047424,4.805249 -2.194089,7.409968 -0.146664,2.604718 0.09387,5.215419 0.06941,7.824148 z"
       id="path3309"
       inkscape:path-effect="#path-effect3311"
       inkscape:original-d="m 61.933928,64.058216 c -0.708491,5.077775 -2.936762,9.074126 -4.40554,13.610791 -1.468777,4.536667 -12.852443,7.842927 -19.279061,11.763994 -6.426615,3.921066 -1.840653,6.060305 -2.761379,9.090062 -0.920724,3.029757 6.839315,4.011397 10.258576,6.016707 3.419258,2.0053 11.348148,-0.18716 17.021825,-0.28113 5.673678,-0.094 13.86237,6.76061 20.793157,10.14053 6.93079,3.37991 5.495412,3.85517 8.242721,5.78236 2.747309,1.92719 18.416523,15.62663 27.624383,23.43954 9.20787,7.81292 36.27041,-14.52792 54.40521,-21.79227 18.13481,-7.26436 16.29664,-13.77544 24.44457,-20.66355 8.14792,-6.888112 14.48206,-5.935128 21.7227,-8.903092 7.24063,-2.96796 23.82778,-8.110013 35.74127,-12.165419 11.9135,-4.055404 7.82005,-7.495509 11.72969,-11.243659 3.90962,-3.748151 6.00091,-3.526555 9.001,-5.29023 3.00005,-1.763673 -2.18147,-10.814103 -3.27261,-16.221551 -1.09111,-5.407449 -9.73122,-1.360165 -14.5972,-2.040644 -4.86601,-0.68048 -18.26582,9.957683 -27.39913,14.936128 -9.1333,4.978445 -14.23382,15.338875 -21.35113,23.007915 -7.11731,7.669041 -46.93097,12.357317 -70.39686,18.535582 -23.46588,6.17826 -8.44452,-9.357969 -12.66718,-14.037348 C 122.56629,83.063551 112.39729,68.991253 105.20106,59.615015 98.004838,50.23878 91.334242,50.506202 84.400434,45.951397 77.466625,41.396595 70.83948,47.866798 64.058603,48.8241 57.277729,49.781402 62.642418,58.980444 61.933928,64.058216 Z" />
    <path
       style="fill:#8bd5ca;fill-opacity:0.721569;stroke-width:1.41678"
       d="m 990.99252,97.358372 c -15.57887,5.481308 -30.06492,13.828418 -44.163,22.367228 -19.3008,11.8451 -36.72149,26.74938 -52.16589,43.16609 -1.05265,6.10018 1.43381,12.67746 1.77304,18.96276 3.04637,20.85841 5.82024,41.52104 4.93761,62.61386 0.16939,23.81558 -6.02164,47.18444 -12.91294,69.81147 -1.25049,3.6461 -3.44782,10.59487 2.35993,11.40051 3.02948,0.16613 6.15527,-0.71086 8.63631,-2.18616 1.29803,-2.25258 -0.0138,-5.22898 2.53027,-7.09736 3.9921,-0.98919 1.86866,-7.278 6.01526,-8.3332 2.90526,-1.82902 1.27756,-6.51766 4.6974,-8.16482 2.91577,-1.72355 1.18054,-7.16668 5.29044,-7.77824 3.08892,-1.88764 0.64144,-6.31441 3.7749,-8.46792 3.38085,-1.8938 1.81927,-7.23077 5.69019,-8.93796 1.8201,-2.44575 1.127,-6.51759 4.36794,-8.1282 2.21693,-2.18965 0.72456,-6.62848 4.13512,-8.11063 2.60748,-2.08893 0.93619,-7.0073 4.68862,-8.44596 2.49137,-2.10613 0.3537,-7.12707 4.13072,-8.2307 2.34124,-2.14765 0.22349,-5.79868 2.8246,-8.09014 4.2733,-1.44157 1.34633,-7.18104 5.07372,-9.19274 2.3435,-2.44137 0.81681,-6.96878 3.99894,-9.00531 2.02642,-2.48446 0.64999,-6.91319 4.11316,-8.62167 1.52719,-2.73712 0.49938,-7.03384 3.64752,-8.99944 1.4696,-2.61517 0.199,-7.01276 3.86715,-8.22924 1.97424,-2.24938 -0.76437,-6.34751 2.43803,-8.06818 4.05929,-1.30424 0.54765,-5.38587 2.36773,-7.89392 1.17721,-1.94405 3.31665,-3.51087 2.56249,-6.1734 0.0587,-3.41012 4.13523,-5.21391 2.99884,-8.67584 -0.0876,-3.3945 3.16451,-4.22637 4.09413,-6.87918 -1.82796,-3.3069 0.97244,-6.44452 1.93284,-9.63641 0.51223,-2.61727 0.68007,-5.74254 3.42348,-6.81622 1.74887,-2.26371 -1.32678,-4.32645 0.48907,-6.6156 0.95071,-2.13972 3.01835,-3.82483 2.08074,-6.45308 -0.31203,-3.43808 4.41919,-5.42874 2.68109,-8.80616 0.0611,-3.48575 3.45383,-5.83395 2.47902,-9.3787 2.26014,-4.402104 0.92547,-8.835557 -4.85847,-6.905538 z m 3.06912,12.258938 c -0.0894,0.0515 0.0516,-0.0358 0,0 z m -3.13355,2.4878 c 0.081,0.0192 -0.17014,-0.0252 0,0 z m -2.82898,15.64581 c -0.15039,0.0317 0.0725,-0.0249 0,0 z m -88.05728,188.41742 c -0.0425,-0.006 -0.13307,-0.0644 0,0 z"
       id="path1698"
       transform="matrix(0.26458333,0,0,0.26458333,-3.4497144,5.7216502)" />
    <path
       style="fill:none;fill-opacity:1;stroke:#c6a0f6;stroke-width:1;stroke-dasharray:4.00001, 1;stroke-dashoffset:0;stroke-opacity:1"
       d="m 229.84983,96.747018 c 8.34271,-12.00573 15.41866,-24.891146 21.07254,-38.373431 3.69971,-8.822346 6.79166,-17.899496 9.24669,-27.145817"
       id="path4974"
       inkscape:path-effect="#path-effect4976"
       inkscape:original-d="m 229.84983,96.747018 c 6.89099,-12.790879 14.04862,-25.582023 21.07254,-38.373431 7.02391,-12.791406 6.16472,-18.096946 9.24669,-27.145817" />
    <path
       style="fill:#8bd5ca;fill-opacity:1;stroke:none;stroke-width:2.83355;stroke-dasharray:none;stroke-dashoffset:0;stroke-opacity:1"
       d="m 494.94348,27.207746 c -5.25825,3.557715 -7.82565,10.023823 -12.37315,14.440708 -21.89747,25.675725 -56.46867,40.429187 -90.1925,37.698624 -9.75511,-0.109634 -19.15747,-3.061526 -28.62486,-4.755301 -6.93752,2.057476 -11.35582,8.665712 -16.83256,13.028201 -13.09208,12.412672 -25.78223,25.559672 -35.79944,40.606832 -1.24004,4.60557 5.01583,4.27899 7.90271,4.3328 23.13561,0.41546 45.96144,6.4569 66.7491,16.34426 26.76219,12.98488 47.76253,34.96956 68.1431,56.1902 1.47185,2.93334 6.89089,3.33557 6.53654,-0.82145 -2.91221,-8.78363 -6.38625,-17.61173 -6.39661,-27.05164 -0.92105,-14.08488 2.27629,-27.92164 9.13354,-40.30056 11.36399,-21.29291 23.55131,-42.762213 29.16382,-66.563334 2.96412,-13.158466 6.67072,-26.511904 6.37986,-40.08607 -0.18682,-1.837205 -1.81366,-3.611921 -3.78955,-3.06327 z"
       id="path9533"
       transform="matrix(0.26458333,0,0,0.26458333,-3.4497144,5.7216502)" />
    <path
       style="fill:none;fill-opacity:1;stroke:#a6da95;stroke-width:1;stroke-dasharray:none;stroke-opacity:1"
       d="m 92.60578,25.637698 c -17.833627,14.027869 -28.369006,36.86811 -27.463498,59.539665 0.641274,16.055817 6.624256,31.594937 6.74476,47.663097 0.08494,11.32624 -2.82181,22.6616 -8.346691,32.54931"
       id="path4902"
       inkscape:path-effect="#path-effect4904"
       inkscape:original-d="m 92.60578,25.637698 c -9.154234,19.84682 -18.308733,39.693375 -27.463498,59.539665 -9.154764,19.846287 4.496771,31.775657 6.74476,47.663097 2.247988,15.88743 -5.564195,21.6998 -8.346691,32.54931" />
    <path
       style="fill:none;fill-opacity:1;stroke:#a6da95;stroke-width:1;stroke-dasharray:none;stroke-opacity:1"
       d="m 128.86462,10.069777 c -0.2289,8.809764 -2.52429,17.559256 -6.64963,25.346805 -1.87873,3.546553 -4.15067,6.944508 -5.24963,10.804554 -1.554,5.458338 -0.51451,11.595558 2.75027,16.237713"
       id="path4938"
       inkscape:path-effect="#path-effect4940"
       inkscape:original-d="m 128.86462,10.069777 c -4.3162,9.172191 -2.22502,16.400278 -6.64963,25.346805 -4.42461,8.946526 -5.31925,7.278205 -5.24963,10.804554 0.0696,3.526348 0.7915,9.756234 2.75027,16.237713"
       sodipodi:nodetypes="cssc" />
    <path
       style="fill:none;fill-opacity:1;stroke:#c6a0f6;stroke-width:1;stroke-dasharray:4, 1;stroke-dashoffset:0;stroke-opacity:1"
       d="m 72.41923,128.66119 c 13.453425,-7.9729 25.034551,-19.08258 33.55936,-32.193238 6.8309,-10.505521 11.70506,-22.27881 14.29898,-34.538448"
       id="path4942"
       inkscape:path-effect="#path-effect4944"
       inkscape:original-d="M 72.41923,128.66119 C 83.605946,117.93037 94.7924,107.1993 105.97859,96.467952 117.16478,85.736611 114.86586,71.696489 120.27757,61.929504"
       sodipodi:nodetypes="csc" />
    <path
       style="fill:none;fill-opacity:1;stroke:#a6da95;stroke-width:1;stroke-dasharray:none;stroke-opacity:1"
       d="m 92.569373,25.563017 c 5.872868,2.043523 12.398237,2.162045 18.341437,0.333138 8.08107,-2.486795 14.95839,-8.630902 18.33664,-16.3817272"
       id="path4946"
       inkscape:path-effect="#path-effect4948"
       inkscape:original-d="m 92.569373,25.563017 c 3.869111,-1.514492 14.472857,1.800057 18.341437,0.333138 3.86859,-1.46692 9.97973,-12.498588 18.33664,-16.3817272"
       sodipodi:nodetypes="csc" />
    <path
       style="fill:none;fill-opacity:1;stroke:#a6da95;stroke-width:1;stroke-dasharray:none;stroke-opacity:1"
       d="m 64.378509,165.73182 c 3.976374,1.06833 8.226283,1.10093 12.218579,0.0937 3.992295,-1.0072 7.718114,-3.05196 10.71181,-5.87874 2.534034,-2.39274 4.542705,-5.33897 5.844215,-8.57202"
       id="path4950"
       inkscape:path-effect="#path-effect4952"
       inkscape:original-d="m 64.378509,165.73182 c 7.722081,-1.92808 15.287191,-3.85641 22.930389,-5.78501 7.643199,-1.9286 3.896408,-5.71442 5.844215,-8.57202" />
    <path
       style="fill:#8bd5ca;fill-opacity:1;stroke-width:1.41678"
       d="m 992.32941,7.1237119 c -6.84072,0.9709382 -10.91102,7.5999551 -16.75768,10.7243571 -21.24022,14.499476 -46.81885,21.075087 -72.17378,22.382965 -5.24982,1.105415 -4.17034,8.264343 -6.13825,12.201828 -9.47482,30.878989 -8.76494,63.686608 -5.75579,95.500018 0.14362,4.31541 1.23371,10.98942 7.16003,9.81231 7.34745,-2.65251 11.84949,-9.86717 18.08676,-14.3016 23.16124,-19.57873 49.72257,-35.04057 77.49984,-46.600642 4.3025,-3.518488 0.20786,-9.344509 0.25771,-13.847678 -2.16575,-17.366834 -1.78643,-34.858047 -0.63331,-52.26148 0.26205,-7.480992 3.40594,-14.709575 3.41983,-22.0638007 -1.26604,-1.6562941 -3.05777,-1.6961734 -4.96536,-1.5462774 z"
       id="path1696"
       transform="matrix(0.26458333,0,0,0.26458333,-3.4497144,5.7216502)" />
    <path
       style="fill:none;fill-opacity:1;stroke:#a6da95;stroke-width:1;stroke-dasharray:none;stroke-opacity:1"
       d="m 235.20415,16.871922 c -1.90148,5.63199 -2.90468,11.566214 -2.96018,17.510274 -0.11961,12.810354 4.11777,25.451153 3.23658,38.231724 -1.07287,15.560701 -9.56879,29.59427 -13.02596,44.80395 -3.16609,13.92906 -1.95427,28.82015 3.4223,42.05402"
       id="path4954"
       inkscape:path-effect="#path-effect4956"
       inkscape:original-d="m 235.20415,16.871922 c -0.98646,5.837023 -1.97318,11.67378 -2.96018,17.510274 -0.98699,5.836493 2.15799,25.488081 3.23658,38.231724 1.0786,12.743642 -8.6837,29.86957 -13.02596,44.80395 -4.34224,14.93439 2.2818,28.03628 3.4223,42.05402" />
    <path
       style="fill:none;fill-opacity:1;stroke:#a6da95;stroke-width:1;stroke-dasharray:none;stroke-opacity:1"
       d="m 260.77657,5.7934813 c -1.26835,4.2282017 -1.97134,8.6256147 -2.08439,13.0385077 -0.10935,4.268355 0.33304,8.550535 1.31269,12.706387"
       id="path4958"
       inkscape:path-effect="#path-effect4960"
       inkscape:original-d="m 260.77657,5.7934813 c -0.69453,4.3464337 -1.38933,8.6926027 -2.08439,13.0385077 -0.69507,4.345904 0.87539,8.47119 1.31269,12.706387" />
    <path
       style="fill:none;fill-opacity:1;stroke:#a6da95;stroke-width:1;stroke-dasharray:none;stroke-opacity:1"
       d="m 251.96584,125.18054 c -4.93561,-4.36521 -7.9108,-10.86898 -7.98606,-17.45758 -0.0473,-4.14034 1.01629,-8.288206 3.05007,-11.894923"
       id="path4962"
       inkscape:path-effect="#path-effect4964"
       inkscape:original-d="m 251.96584,125.18054 c -2.66176,-5.58833 -5.32378,-11.63812 -7.98606,-17.45758 -2.66228,-5.81946 1.7184,-7.60797 3.05007,-11.894923"
       sodipodi:nodetypes="csc" />
    <path
       style="fill:none;fill-opacity:1;stroke:#a6da95;stroke-width:1;stroke-dasharray:none;stroke-opacity:1"
       d="m 226.15301,159.32131 c 7.28298,-2.8888 13.25724,-8.91839 16.07877,-16.2277 1.02294,-2.64998 1.6457,-5.4419 2.68861,-8.08408 1.51864,-3.84743 3.93112,-7.33883 6.99275,-10.12009"
       id="path4966"
       inkscape:path-effect="#path-effect4968"
       inkscape:original-d="m 226.15301,159.32131 c 5.47092,-5.6311 10.71944,-10.8182 16.07877,-16.2277 5.35932,-5.4095 1.79267,-5.38912 2.68861,-8.08408 0.89595,-2.69495 4.6621,-6.74646 6.99275,-10.12009" />
    <path
       style="fill:none;fill-opacity:1;stroke:#a6da95;stroke-width:1;stroke-dasharray:none;stroke-opacity:1"
       d="m 235.1762,16.698022 c 4.07352,0.06002 8.15677,-0.614187 11.99477,-1.980532 5.02119,-1.787565 9.61389,-4.7663021 13.2937,-8.6220413"
       id="path4970"
       inkscape:path-effect="#path-effect4972"
       inkscape:original-d="m 235.1762,16.698022 c 3.99852,-0.659913 7.99678,-1.32009 11.99477,-1.980532 3.998,-0.660442 8.86273,-5.7477628 13.2937,-8.6220413" />
    <path
       style="fill:#8bd5ca;fill-opacity:0.682353;stroke:none;stroke-width:0.74971;stroke-dasharray:none;stroke-dashoffset:0;stroke-opacity:1"
       d="m 78.345237,40.543184 c -7.721211,11.418498 -12.618935,24.916881 -13.092758,38.748887 -0.264467,6.779774 0.403357,13.556594 1.713127,20.206364 1.638514,9.190555 3.8228,18.307515 4.724857,27.581605 0.41651,0.93587 1.96519,0.67837 2.668961,0.13443 0.404952,-0.88013 1.54813,-0.78917 2.183905,-1.29128 0.209272,-0.99892 1.470387,-0.88065 2.042885,-1.46562 0.24049,-0.80189 1.175954,-1.01743 1.883267,-1.09447 0.41565,-0.46939 0.405609,-1.19059 1.214959,-1.32577 0.682103,0.22768 1.153326,-0.41584 1.16382,-1.00381 0.391072,-0.61865 1.018492,-0.51762 1.588825,-0.64584 0.472787,-0.44069 0.270846,-1.22904 1.065414,-1.46872 0.531664,-0.0131 1.237017,-0.27032 1.11152,-0.96507 0.383701,-0.56268 0.953682,-0.6973 1.553567,-0.68341 0.737346,-0.30375 0.06003,-1.23669 0.875964,-1.45594 0.521345,-0.31739 1.454957,-0.34407 1.349782,-1.19792 0.309663,-0.75038 1.0448,-0.7784 1.585725,-1.15955 0.08174,-0.6304 0.545777,-1.49148 1.311817,-1.33623 0.98828,-0.10285 0.305811,-1.30935 1.134764,-1.65158 0.479015,-0.43199 1.521108,-0.37885 1.247116,-1.33545 0.260583,-0.68239 0.868333,-0.75911 1.417582,-0.97515 0.308258,-0.53495 0.190045,-1.34981 0.956937,-1.59463 0.782418,0.13986 0.847463,-0.69068 0.90192,-1.19753 0.209034,-0.80494 0.973206,-0.66806 1.429977,-1.1181 0.0942,-0.62155 0.18678,-1.31315 0.84071,-1.65159 0.81068,0.13639 0.85736,-0.72265 0.87674,-1.25177 0.0931,-0.9394 1.29053,-0.52847 1.36644,-1.401308 -0.1767,-0.882693 0.77055,-1.408639 1.30097,-1.888305 0.0497,-0.989833 0.90663,-1.618835 1.40635,-2.347786 0.0363,-0.846399 0.80378,-1.321001 1.35792,-1.799582 0.051,-0.833895 0.41996,-1.636514 1.12779,-2.122693 0.17953,-0.856192 0.55964,-1.689614 1.23821,-2.256354 0.1169,-0.769403 0.42241,-1.693976 1.25331,-1.911935 0.59528,-0.511217 -0.23785,-1.228306 0.40641,-1.768975 0.37768,-0.324543 1.11644,-0.652213 0.80894,-1.362569 0.0118,-0.854012 0.78256,-1.276229 0.99878,-1.983222 -0.0877,-0.731372 0.37878,-1.437301 0.93833,-1.826702 0.0495,-0.874066 0.22244,-1.857959 0.95539,-2.448903 0.16496,-0.827538 0.12255,-1.869112 0.99413,-2.279989 0.18245,-0.633963 -0.20925,-1.307441 0.32582,-1.910384 1.09206,-0.431552 -0.0442,-2.123139 1.11656,-2.549248 0.47489,-0.676571 -0.0541,-1.610415 0.41919,-2.35127 0.6921,-0.557762 0.14258,-1.552516 0.67954,-2.257517 0.35894,-0.4411 0.63203,-0.968629 0.35062,-1.516764 0.19699,-1.062267 0.97058,-2.240229 0.0918,-3.227239 -4.11804,-5.005395 -8.74712,-9.641787 -13.91625,-13.567571 -7.528208,-5.71948 -17.11131,-8.419502 -26.509069,-8.204467 -0.154194,0.06031 -0.30839,0.120618 -0.462584,0.180927 z"
       id="path9539" />
    <text
       xml:space="preserve"
       style="font-weight:bold;font-size:7.05556px;font-family:sans-serif;-inkscape-font-specification:'sans-serif Bold';fill:#cad3f5;fill-opacity:1;stroke:none;stroke-width:1;stroke-dasharray:none;stroke-dashoffset:0;stroke-opacity:1"
       x="63.819912"
       y="21.440735"
       id="text10171"><tspan
         sodipodi:role="line"
         id="tspan10169"
         style="font-size:7.05556px;fill:#cad3f5;fill-opacity:1;stroke:none;stroke-width:1"
         x="63.819912"
         y="21.440735">x(t)</tspan></text>
    <text
       xml:space="preserve"
       style="font-weight:bold;font-size:7.05556px;font-family:sans-serif;-inkscape-font-specification:'sans-serif Bold';fill:#8aadf4;fill-opacity:1;stroke:none;stroke-width:1;stroke-dasharray:none;stroke-dashoffset:0;stroke-opacity:1"
       x="180.03069"
       y="148.53877"
       id="text10171-3"><tspan
         sodipodi:role="line"
         id="tspan10169-6"
         style="font-size:7.05556px;fill:#8aadf4;fill-opacity:1;stroke:none;stroke-width:1"
         x="180.03069"
         y="148.53877">Z</tspan></text>
    <text
       xml:space="preserve"
       style="font-weight:bold;font-size:7.05556px;font-family:sans-serif;-inkscape-font-specification:'sans-serif Bold';fill:#ed8796;fill-opacity:1;stroke:none;stroke-width:1;stroke-dasharray:none;stroke-dashoffset:0;stroke-opacity:1"
       x="155.70801"
       y="103.1842"
       id="text10660"><tspan
         sodipodi:role="line"
         id="tspan10658"
         style="fill:#ed8796;fill-opacity:1;stroke-width:1"
         x="155.70801"
         y="103.1842">V</tspan></text>
    <text
       xml:space="preserve"
       style="font-weight:bold;font-size:7.05556px;font-family:sans-serif;-inkscape-font-specification:'sans-serif Bold';fill:#8bd5ca;fill-opacity:1;stroke:none;stroke-width:1;stroke-dasharray:none;stroke-dashoffset:0;stroke-opacity:1"
       x="247.59312"
       y="142.81302"
       id="text10816"><tspan
         sodipodi:role="line"
         id="tspan10814"
         style="fill:#8bd5ca;fill-opacity:1;stroke-width:1"
         x="247.59312"
         y="142.81302">S<tspan
   style="font-size:65%;baseline-shift:sub;fill:#8bd5ca;fill-opacity:1"
   id="tspan10818">LO</tspan></tspan></text>
    <text
       xml:space="preserve"
       style="font-weight:bold;font-size:7.05556px;font-family:sans-serif;-inkscape-font-specification:'sans-serif Bold';fill:#8bd5ca;fill-opacity:1;stroke:none;stroke-width:1;stroke-dasharray:none;stroke-dashoffset:0;stroke-opacity:1"
       x="125.21078"
       y="42.871784"
       id="text10816-7"><tspan
         sodipodi:role="line"
         id="tspan10814-5"
         style="fill:#8bd5ca;fill-opacity:1;stroke-width:1"
         x="125.21078"
         y="42.871784">S<tspan
   style="font-size:65%;baseline-shift:sub;fill:#8bd5ca;fill-opacity:1"
   id="tspan10961">TD</tspan></tspan></text>
    <text
       xml:space="preserve"
       style="font-weight:bold;font-size:7.05556px;font-family:sans-serif;-inkscape-font-specification:'sans-serif Bold';fill:#c6a0f6;fill-opacity:1;stroke:none;stroke-width:1;stroke-dasharray:none;stroke-dashoffset:0;stroke-opacity:1"
       x="121.23042"
       y="59.735603"
       id="text10816-7-5"><tspan
         sodipodi:role="line"
         id="tspan10814-5-6"
         style="fill:#c6a0f6;fill-opacity:1;stroke-width:1"
         x="121.23042"
         y="59.735603">Z∩S<tspan
   style="font-size:65%;baseline-shift:sub;fill:#c6a0f6;fill-opacity:1"
   id="tspan10961-2">TD</tspan></tspan></text>
    <text
       xml:space="preserve"
       style="font-weight:bold;font-size:7.05556px;font-family:sans-serif;-inkscape-font-specification:'sans-serif Bold';fill:#c6a0f6;fill-opacity:1;stroke:none;stroke-width:1;stroke-dasharray:none;stroke-dashoffset:0;stroke-opacity:1"
       x="238.81451"
       y="92.387886"
       id="text10816-7-5-9"><tspan
         sodipodi:role="line"
         id="tspan10814-5-6-1"
         style="fill:#c6a0f6;fill-opacity:1;stroke-width:1"
         x="238.81451"
         y="92.387886">Z∩S<tspan
   style="font-size:65%;baseline-shift:sub;fill:#c6a0f6;fill-opacity:1"
   id="tspan11957">LO</tspan></tspan></text>
    <path
       style="fill:none;stroke:#cad3f5;stroke-width:1;stroke-linecap:round;stroke-linejoin:round;stroke-miterlimit:0;stroke-dasharray:1, 3;stroke-dashoffset:0;stroke-opacity:1;marker-mid:url(#Arrow1)"
       d="m 245.99292,71.990797 c 8.4686,-2.762249 16.0794,-8.096538 21.56513,-15.11466 5.48573,-7.018121 8.8243,-15.69181 9.4598,-24.57682 0.73174,-10.230597 -2.10469,-20.579086 -7.35314,-29.3912548 -5.24846,-8.8121691 -12.83176,-16.1221522 -21.45958,-21.6684342 -17.25564,-11.092565 -38.12035,-15.053281 -58.55881,-16.805864 -15.20663,-1.303957 -30.61454,-1.504523 -45.63912,1.17945 -15.02459,2.683974 -29.71214,8.370063 -41.61643,17.921486 -17.613615,14.1323039 -28.15611,36.673768 -27.711639,59.25172 0.444471,22.577951 11.865958,44.687032 30.022129,58.11517"
       id="path2470"
       inkscape:path-effect="#path-effect2472"
       inkscape:original-d="m 245.99292,71.990797 c 8.61834,-1.97633 22.40711,-37.71462 31.02493,-39.69148 8.6178,-1.97686 -82.38841,-36.6159807 -87.37153,-67.865553 -4.98313,-31.24957 -22.92843,9.302239 -87.25555,19.100936 -64.327105,9.7986973 -11.283651,84.303287 2.31049,117.36689"
       sodipodi:nodetypes="csssc" />
  </g>
</svg>
