<?xml version="1.0" encoding="utf-8" standalone="no"?>
<!DOCTYPE svg PUBLIC "-//W3C//DTD SVG 1.1//EN"
  "http://www.w3.org/Graphics/SVG/1.1/DTD/svg11.dtd">
<svg xmlns:xlink="http://www.w3.org/1999/xlink" width="720pt" height="720pt" viewBox="0 0 720 720" xmlns="http://www.w3.org/2000/svg" version="1.1">
 <metadata>
  <rdf:RDF xmlns:dc="http://purl.org/dc/elements/1.1/" xmlns:cc="http://creativecommons.org/ns#" xmlns:rdf="http://www.w3.org/1999/02/22-rdf-syntax-ns#">
   <cc:Work>
    <dc:type rdf:resource="http://purl.org/dc/dcmitype/StillImage"/>
    <dc:date>2025-06-14T20:44:15.861220</dc:date>
    <dc:format>image/svg+xml</dc:format>
    <dc:creator>
     <cc:Agent>
      <dc:title>Matplotlib v3.9.2, https://matplotlib.org/</dc:title>
     </cc:Agent>
    </dc:creator>
   </cc:Work>
  </rdf:RDF>
 </metadata>
 <defs>
  <style type="text/css">*{stroke-linejoin: round; stroke-linecap: butt}</style>
 </defs>
 <g id="figure_1">
  <g id="patch_1">
   <path d="M 0 720 
L 720 720 
L 720 0 
L 0 0 
z
" style="fill: #24273a"/>
  </g>
  <g id="axes_1">
   <g id="patch_2">
    <path d="M 90 640.8 
L 648 640.8 
L 648 86.4 
L 90 86.4 
z
" style="fill: #24273a"/>
   </g>
   <g id="PolyCollection_1">
    <defs>
     <path id="m95a070dce8" d="M 462 -702.9 
L 462 -533.637915 
L 462.934673 -532.495337 
L 463.869347 -531.349449 
L 464.80402 -530.200254 
L 465.738693 -529.047749 
L 466.673367 -527.891937 
L 467.60804 -526.732815 
L 468.542714 -525.570385 
L 469.477387 -524.404646 
L 470.41206 -523.235599 
L 471.346734 -522.063243 
L 472.281407 -520.887578 
L 473.21608 -519.708605 
L 474.150754 -518.526324 
L 475.085427 -517.340733 
L 476.020101 -516.151834 
L 476.954774 -514.959627 
L 477.889447 -513.764111 
L 478.824121 -512.565286 
L 479.758794 -511.363153 
L 480.693467 -510.157711 
L 481.628141 -508.94896 
L 482.562814 -507.736901 
L 483.497487 -506.521533 
L 484.432161 -505.302857 
L 485.366834 -504.080872 
L 486.301508 -502.855579 
L 487.236181 -501.626976 
L 488.170854 -500.395066 
L 489.105528 -499.159846 
L 490.040201 -497.921318 
L 490.974874 -496.679482 
L 491.909548 -495.434337 
L 492.844221 -494.185883 
L 493.778894 -492.934121 
L 494.713568 -491.67905 
L 495.648241 -490.42067 
L 496.582915 -489.158982 
L 497.517588 -487.893985 
L 498.452261 -486.62568 
L 499.386935 -485.354066 
L 500.321608 -484.079143 
L 501.256281 -482.800912 
L 502.190955 -481.519372 
L 503.125628 -480.234524 
L 504.060302 -478.946367 
L 504.994975 -477.654902 
L 505.929648 -476.360127 
L 506.864322 -475.062045 
L 507.798995 -473.760653 
L 508.733668 -472.455953 
L 509.668342 -471.147945 
L 510.603015 -469.836628 
L 511.537688 -468.522002 
L 512.472362 -467.204067 
L 513.407035 -465.882824 
L 514.341709 -464.558273 
L 515.276382 -463.230413 
L 516.211055 -461.899244 
L 517.145729 -460.564767 
L 518.080402 -459.226981 
L 519.015075 -457.885886 
L 519.949749 -456.541483 
L 520.884422 -455.193771 
L 521.819095 -453.842751 
L 522.753769 -452.488422 
L 523.688442 -451.130784 
L 524.623116 -449.769838 
L 525.557789 -448.405583 
L 526.492462 -447.03802 
L 527.427136 -445.667148 
L 528.361809 -444.292967 
L 529.296482 -442.915478 
L 530.231156 -441.53468 
L 531.165829 -440.150574 
L 532.100503 -438.763159 
L 533.035176 -437.372435 
L 533.969849 -435.978403 
L 534.904523 -434.581062 
L 535.839196 -433.180413 
L 536.773869 -431.776455 
L 537.708543 -430.369188 
L 538.643216 -428.958613 
L 539.577889 -427.544729 
L 540.512563 -426.127537 
L 541.447236 -424.707036 
L 542.38191 -423.283226 
L 543.316583 -421.856108 
L 544.251256 -420.425681 
L 545.18593 -418.991945 
L 546.120603 -417.554901 
L 547.055276 -416.114549 
L 547.98995 -414.670888 
L 548.924623 -413.223918 
L 549.859296 -411.773639 
L 550.79397 -410.320052 
L 551.728643 -408.863157 
L 552.663317 -407.402952 
L 553.59799 -405.93944 
L 554.532663 -404.472618 
L 555.467337 -403.002488 
L 556.40201 -401.529049 
L 557.336683 -400.052302 
L 558.271357 -398.572246 
L 559.20603 -397.088882 
L 560.140704 -395.602209 
L 561.075377 -394.112227 
L 562.01005 -392.618937 
L 562.944724 -391.122338 
L 563.879397 -389.622431 
L 564.81407 -388.119215 
L 565.748744 -386.61269 
L 566.683417 -385.102857 
L 567.61809 -383.589715 
L 568.552764 -382.073264 
L 569.487437 -380.553505 
L 570.422111 -379.030438 
L 571.356784 -377.504061 
L 572.291457 -375.974377 
L 573.226131 -374.441383 
L 574.160804 -372.905081 
L 575.095477 -371.36547 
L 576.030151 -369.822551 
L 576.964824 -368.276323 
L 577.899497 -366.726787 
L 578.834171 -365.173942 
L 579.768844 -363.617788 
L 580.703518 -362.058326 
L 581.638191 -360.495555 
L 582.572864 -358.929475 
L 583.507538 -357.360087 
L 584.442211 -355.787391 
L 585.376884 -354.211385 
L 586.311558 -352.632071 
L 587.246231 -351.049449 
L 588.180905 -349.463518 
L 589.115578 -347.874278 
L 590.050251 -346.28173 
L 590.984925 -344.685873 
L 591.919598 -343.086707 
L 592.854271 -341.484233 
L 593.788945 -339.878451 
L 594.723618 -338.269359 
L 595.658291 -336.656959 
L 596.592965 -335.041251 
L 597.527638 -333.422234 
L 598.462312 -331.799908 
L 599.396985 -330.174274 
L 600.331658 -328.545331 
L 601.266332 -326.913079 
L 602.201005 -325.277519 
L 603.135678 -323.638651 
L 604.070352 -321.996473 
L 605.005025 -320.350987 
L 605.939698 -318.702193 
L 606.874372 -317.05009 
L 607.809045 -315.394678 
L 608.743719 -313.735958 
L 609.678392 -312.073929 
L 610.613065 -310.408591 
L 611.547739 -308.739945 
L 612.482412 -307.06799 
L 613.417085 -305.392727 
L 614.351759 -303.714155 
L 615.286432 -302.032275 
L 616.221106 -300.347085 
L 617.155779 -298.658588 
L 618.090452 -296.966781 
L 619.025126 -295.271666 
L 619.959799 -293.573243 
L 620.894472 -291.871511 
L 621.829146 -290.16647 
L 622.763819 -288.458121 
L 623.698492 -286.746463 
L 624.633166 -285.031496 
L 625.567839 -283.313221 
L 626.502513 -281.591637 
L 627.437186 -279.866745 
L 628.371859 -278.138544 
L 629.306533 -276.407034 
L 630.241206 -274.672216 
L 631.175879 -272.93409 
L 632.110553 -271.192654 
L 633.045226 -269.44791 
L 633.979899 -267.699858 
L 634.914573 -265.948497 
L 635.849246 -264.193827 
L 636.78392 -262.435848 
L 637.718593 -260.674561 
L 638.653266 -258.909966 
L 639.58794 -257.142062 
L 640.522613 -255.370849 
L 641.457286 -253.596328 
L 642.39196 -251.818498 
L 643.326633 -250.037359 
L 644.261307 -248.252912 
L 645.19598 -246.465156 
L 646.130653 -244.674092 
L 647.065327 -242.879719 
L 648 -241.082037 
L 648 -702.9 
L 648 -702.9 
L 647.065327 -702.9 
L 646.130653 -702.9 
L 645.19598 -702.9 
L 644.261307 -702.9 
L 643.326633 -702.9 
L 642.39196 -702.9 
L 641.457286 -702.9 
L 640.522613 -702.9 
L 639.58794 -702.9 
L 638.653266 -702.9 
L 637.718593 -702.9 
L 636.78392 -702.9 
L 635.849246 -702.9 
L 634.914573 -702.9 
L 633.979899 -702.9 
L 633.045226 -702.9 
L 632.110553 -702.9 
L 631.175879 -702.9 
L 630.241206 -702.9 
L 629.306533 -702.9 
L 628.371859 -702.9 
L 627.437186 -702.9 
L 626.502513 -702.9 
L 625.567839 -702.9 
L 624.633166 -702.9 
L 623.698492 -702.9 
L 622.763819 -702.9 
L 621.829146 -702.9 
L 620.894472 -702.9 
L 619.959799 -702.9 
L 619.025126 -702.9 
L 618.090452 -702.9 
L 617.155779 -702.9 
L 616.221106 -702.9 
L 615.286432 -702.9 
L 614.351759 -702.9 
L 613.417085 -702.9 
L 612.482412 -702.9 
L 611.547739 -702.9 
L 610.613065 -702.9 
L 609.678392 -702.9 
L 608.743719 -702.9 
L 607.809045 -702.9 
L 606.874372 -702.9 
L 605.939698 -702.9 
L 605.005025 -702.9 
L 604.070352 -702.9 
L 603.135678 -702.9 
L 602.201005 -702.9 
L 601.266332 -702.9 
L 600.331658 -702.9 
L 599.396985 -702.9 
L 598.462312 -702.9 
L 597.527638 -702.9 
L 596.592965 -702.9 
L 595.658291 -702.9 
L 594.723618 -702.9 
L 593.788945 -702.9 
L 592.854271 -702.9 
L 591.919598 -702.9 
L 590.984925 -702.9 
L 590.050251 -702.9 
L 589.115578 -702.9 
L 588.180905 -702.9 
L 587.246231 -702.9 
L 586.311558 -702.9 
L 585.376884 -702.9 
L 584.442211 -702.9 
L 583.507538 -702.9 
L 582.572864 -702.9 
L 581.638191 -702.9 
L 580.703518 -702.9 
L 579.768844 -702.9 
L 578.834171 -702.9 
L 577.899497 -702.9 
L 576.964824 -702.9 
L 576.030151 -702.9 
L 575.095477 -702.9 
L 574.160804 -702.9 
L 573.226131 -702.9 
L 572.291457 -702.9 
L 571.356784 -702.9 
L 570.422111 -702.9 
L 569.487437 -702.9 
L 568.552764 -702.9 
L 567.61809 -702.9 
L 566.683417 -702.9 
L 565.748744 -702.9 
L 564.81407 -702.9 
L 563.879397 -702.9 
L 562.944724 -702.9 
L 562.01005 -702.9 
L 561.075377 -702.9 
L 560.140704 -702.9 
L 559.20603 -702.9 
L 558.271357 -702.9 
L 557.336683 -702.9 
L 556.40201 -702.9 
L 555.467337 -702.9 
L 554.532663 -702.9 
L 553.59799 -702.9 
L 552.663317 -702.9 
L 551.728643 -702.9 
L 550.79397 -702.9 
L 549.859296 -702.9 
L 548.924623 -702.9 
L 547.98995 -702.9 
L 547.055276 -702.9 
L 546.120603 -702.9 
L 545.18593 -702.9 
L 544.251256 -702.9 
L 543.316583 -702.9 
L 542.38191 -702.9 
L 541.447236 -702.9 
L 540.512563 -702.9 
L 539.577889 -702.9 
L 538.643216 -702.9 
L 537.708543 -702.9 
L 536.773869 -702.9 
L 535.839196 -702.9 
L 534.904523 -702.9 
L 533.969849 -702.9 
L 533.035176 -702.9 
L 532.100503 -702.9 
L 531.165829 -702.9 
L 530.231156 -702.9 
L 529.296482 -702.9 
L 528.361809 -702.9 
L 527.427136 -702.9 
L 526.492462 -702.9 
L 525.557789 -702.9 
L 524.623116 -702.9 
L 523.688442 -702.9 
L 522.753769 -702.9 
L 521.819095 -702.9 
L 520.884422 -702.9 
L 519.949749 -702.9 
L 519.015075 -702.9 
L 518.080402 -702.9 
L 517.145729 -702.9 
L 516.211055 -702.9 
L 515.276382 -702.9 
L 514.341709 -702.9 
L 513.407035 -702.9 
L 512.472362 -702.9 
L 511.537688 -702.9 
L 510.603015 -702.9 
L 509.668342 -702.9 
L 508.733668 -702.9 
L 507.798995 -702.9 
L 506.864322 -702.9 
L 505.929648 -702.9 
L 504.994975 -702.9 
L 504.060302 -702.9 
L 503.125628 -702.9 
L 502.190955 -702.9 
L 501.256281 -702.9 
L 500.321608 -702.9 
L 499.386935 -702.9 
L 498.452261 -702.9 
L 497.517588 -702.9 
L 496.582915 -702.9 
L 495.648241 -702.9 
L 494.713568 -702.9 
L 493.778894 -702.9 
L 492.844221 -702.9 
L 491.909548 -702.9 
L 490.974874 -702.9 
L 490.040201 -702.9 
L 489.105528 -702.9 
L 488.170854 -702.9 
L 487.236181 -702.9 
L 486.301508 -702.9 
L 485.366834 -702.9 
L 484.432161 -702.9 
L 483.497487 -702.9 
L 482.562814 -702.9 
L 481.628141 -702.9 
L 480.693467 -702.9 
L 479.758794 -702.9 
L 478.824121 -702.9 
L 477.889447 -702.9 
L 476.954774 -702.9 
L 476.020101 -702.9 
L 475.085427 -702.9 
L 474.150754 -702.9 
L 473.21608 -702.9 
L 472.281407 -702.9 
L 471.346734 -702.9 
L 470.41206 -702.9 
L 469.477387 -702.9 
L 468.542714 -702.9 
L 467.60804 -702.9 
L 466.673367 -702.9 
L 465.738693 -702.9 
L 464.80402 -702.9 
L 463.869347 -702.9 
L 462.934673 -702.9 
L 462 -702.9 
z
" style="stroke: #8bd5ca; stroke-opacity: 0.5"/>
    </defs>
    <g clip-path="url(#p3819918cc7)">
     <use xlink:href="#m95a070dce8" x="0" y="720" style="fill: #8bd5ca; fill-opacity: 0.5; stroke: #8bd5ca; stroke-opacity: 0.5"/>
    </g>
   </g>
   <g id="matplotlib.axis_1">
    <g id="xtick_1">
     <g id="line2d_1">
      <path d="M 90 640.8 
L 90 86.4 
" clip-path="url(#p3819918cc7)" style="fill: none; stroke: #cad3f5; stroke-width: 0.5; stroke-linecap: square"/>
     </g>
     <g id="line2d_2">
      <defs>
       <path id="m83ac681a42" d="M 0 0 
L 0 3.5 
" style="stroke: #cad3f5; stroke-width: 0.8"/>
      </defs>
      <g>
       <use xlink:href="#m83ac681a42" x="90" y="640.8" style="fill: #cad3f5; stroke: #cad3f5; stroke-width: 0.8"/>
      </g>
     </g>
     <g id="text_1">
      <!-- $-\pi$ -->
      <g style="fill: #cad3f5" transform="translate(82.8 655.398438) scale(0.1 -0.1)">
       <defs>
        <path id="DejaVuSans-2212" d="M 678 2272 
L 4684 2272 
L 4684 1741 
L 678 1741 
L 678 2272 
z
" transform="scale(0.015625)"/>
        <path id="DejaVuSans-Oblique-3c0" d="M 584 3500 
L 3938 3500 
L 3825 2925 
L 3384 2925 
L 2966 775 
Q 2922 550 2981 450 
Q 3038 353 3209 353 
Q 3256 353 3325 363 
Q 3397 369 3419 372 
L 3338 -44 
Q 3222 -84 3103 -103 
Q 2981 -122 2866 -122 
Q 2491 -122 2388 81 
Q 2284 288 2391 838 
L 2797 2925 
L 1506 2925 
L 938 0 
L 350 0 
L 919 2925 
L 472 2925 
L 584 3500 
z
" transform="scale(0.015625)"/>
       </defs>
       <use xlink:href="#DejaVuSans-2212" transform="translate(0 0.3125)"/>
       <use xlink:href="#DejaVuSans-Oblique-3c0" transform="translate(83.789062 0.3125)"/>
      </g>
     </g>
    </g>
    <g id="xtick_2">
     <g id="line2d_3">
      <path d="M 276 640.8 
L 276 86.4 
" clip-path="url(#p3819918cc7)" style="fill: none; stroke: #cad3f5; stroke-width: 0.5; stroke-linecap: square"/>
     </g>
     <g id="line2d_4">
      <g>
       <use xlink:href="#m83ac681a42" x="276" y="640.8" style="fill: #cad3f5; stroke: #cad3f5; stroke-width: 0.8"/>
      </g>
     </g>
     <g id="text_2">
      <!-- $-\pi/2$ -->
      <g style="fill: #cad3f5" transform="translate(264.1 655.398438) scale(0.1 -0.1)">
       <defs>
        <path id="DejaVuSans-2f" d="M 1625 4666 
L 2156 4666 
L 531 -594 
L 0 -594 
L 1625 4666 
z
" transform="scale(0.015625)"/>
        <path id="DejaVuSans-32" d="M 1228 531 
L 3431 531 
L 3431 0 
L 469 0 
L 469 531 
Q 828 903 1448 1529 
Q 2069 2156 2228 2338 
Q 2531 2678 2651 2914 
Q 2772 3150 2772 3378 
Q 2772 3750 2511 3984 
Q 2250 4219 1831 4219 
Q 1534 4219 1204 4116 
Q 875 4013 500 3803 
L 500 4441 
Q 881 4594 1212 4672 
Q 1544 4750 1819 4750 
Q 2544 4750 2975 4387 
Q 3406 4025 3406 3419 
Q 3406 3131 3298 2873 
Q 3191 2616 2906 2266 
Q 2828 2175 2409 1742 
Q 1991 1309 1228 531 
z
" transform="scale(0.015625)"/>
       </defs>
       <use xlink:href="#DejaVuSans-2212" transform="translate(0 0.78125)"/>
       <use xlink:href="#DejaVuSans-Oblique-3c0" transform="translate(83.789062 0.78125)"/>
       <use xlink:href="#DejaVuSans-2f" transform="translate(143.994141 0.78125)"/>
       <use xlink:href="#DejaVuSans-32" transform="translate(174.060547 0.78125)"/>
      </g>
     </g>
    </g>
    <g id="xtick_3">
     <g id="line2d_5">
      <path d="M 462 640.8 
L 462 86.4 
" clip-path="url(#p3819918cc7)" style="fill: none; stroke: #cad3f5; stroke-width: 0.5; stroke-linecap: square"/>
     </g>
     <g id="line2d_6">
      <g>
       <use xlink:href="#m83ac681a42" x="462" y="640.8" style="fill: #cad3f5; stroke: #cad3f5; stroke-width: 0.8"/>
      </g>
     </g>
     <g id="text_3">
      <!-- $0$ -->
      <g style="fill: #cad3f5" transform="translate(458.8 655.398438) scale(0.1 -0.1)">
       <defs>
        <path id="DejaVuSans-30" d="M 2034 4250 
Q 1547 4250 1301 3770 
Q 1056 3291 1056 2328 
Q 1056 1369 1301 889 
Q 1547 409 2034 409 
Q 2525 409 2770 889 
Q 3016 1369 3016 2328 
Q 3016 3291 2770 3770 
Q 2525 4250 2034 4250 
z
M 2034 4750 
Q 2819 4750 3233 4129 
Q 3647 3509 3647 2328 
Q 3647 1150 3233 529 
Q 2819 -91 2034 -91 
Q 1250 -91 836 529 
Q 422 1150 422 2328 
Q 422 3509 836 4129 
Q 1250 4750 2034 4750 
z
" transform="scale(0.015625)"/>
       </defs>
       <use xlink:href="#DejaVuSans-30" transform="translate(0 0.78125)"/>
      </g>
     </g>
    </g>
    <g id="xtick_4">
     <g id="line2d_7">
      <path d="M 648 640.8 
L 648 86.4 
" clip-path="url(#p3819918cc7)" style="fill: none; stroke: #cad3f5; stroke-width: 0.5; stroke-linecap: square"/>
     </g>
     <g id="line2d_8">
      <g>
       <use xlink:href="#m83ac681a42" x="648" y="640.8" style="fill: #cad3f5; stroke: #cad3f5; stroke-width: 0.8"/>
      </g>
     </g>
     <g id="text_4">
      <!-- $\pi/2$ -->
      <g style="fill: #cad3f5" transform="translate(640.3 655.398438) scale(0.1 -0.1)">
       <use xlink:href="#DejaVuSans-Oblique-3c0" transform="translate(0 0.78125)"/>
       <use xlink:href="#DejaVuSans-2f" transform="translate(60.205078 0.78125)"/>
       <use xlink:href="#DejaVuSans-32" transform="translate(90.271484 0.78125)"/>
      </g>
     </g>
    </g>
    <g id="text_5">
     <!-- $\theta$ [rad] -->
     <g style="fill: #cad3f5" transform="translate(338.67 675.155313) scale(0.18 -0.18)">
      <defs>
       <path id="DejaVuSans-Oblique-3b8" d="M 2913 2219 
L 925 2219 
Q 791 1284 928 888 
Q 1100 400 1566 400 
Q 2034 400 2391 891 
Q 2703 1322 2913 2219 
z
M 3009 2750 
Q 3094 3638 2984 3950 
Q 2813 4444 2353 4444 
Q 1875 4444 1525 3956 
Q 1250 3563 1034 2750 
L 3009 2750 
z
M 2444 4913 
Q 3194 4913 3494 4250 
Q 3794 3591 3566 2422 
Q 3341 1256 2781 594 
Q 2225 -72 1475 -72 
Q 722 -72 425 594 
Q 128 1256 353 2422 
Q 581 3591 1134 4250 
Q 1691 4913 2444 4913 
z
" transform="scale(0.015625)"/>
       <path id="DejaVuSans-20" transform="scale(0.015625)"/>
       <path id="DejaVuSans-5b" d="M 550 4863 
L 1875 4863 
L 1875 4416 
L 1125 4416 
L 1125 -397 
L 1875 -397 
L 1875 -844 
L 550 -844 
L 550 4863 
z
" transform="scale(0.015625)"/>
       <path id="DejaVuSans-72" d="M 2631 2963 
Q 2534 3019 2420 3045 
Q 2306 3072 2169 3072 
Q 1681 3072 1420 2755 
Q 1159 2438 1159 1844 
L 1159 0 
L 581 0 
L 581 3500 
L 1159 3500 
L 1159 2956 
Q 1341 3275 1631 3429 
Q 1922 3584 2338 3584 
Q 2397 3584 2469 3576 
Q 2541 3569 2628 3553 
L 2631 2963 
z
" transform="scale(0.015625)"/>
       <path id="DejaVuSans-61" d="M 2194 1759 
Q 1497 1759 1228 1600 
Q 959 1441 959 1056 
Q 959 750 1161 570 
Q 1363 391 1709 391 
Q 2188 391 2477 730 
Q 2766 1069 2766 1631 
L 2766 1759 
L 2194 1759 
z
M 3341 1997 
L 3341 0 
L 2766 0 
L 2766 531 
Q 2569 213 2275 61 
Q 1981 -91 1556 -91 
Q 1019 -91 701 211 
Q 384 513 384 1019 
Q 384 1609 779 1909 
Q 1175 2209 1959 2209 
L 2766 2209 
L 2766 2266 
Q 2766 2663 2505 2880 
Q 2244 3097 1772 3097 
Q 1472 3097 1187 3025 
Q 903 2953 641 2809 
L 641 3341 
Q 956 3463 1253 3523 
Q 1550 3584 1831 3584 
Q 2591 3584 2966 3190 
Q 3341 2797 3341 1997 
z
" transform="scale(0.015625)"/>
       <path id="DejaVuSans-64" d="M 2906 2969 
L 2906 4863 
L 3481 4863 
L 3481 0 
L 2906 0 
L 2906 525 
Q 2725 213 2448 61 
Q 2172 -91 1784 -91 
Q 1150 -91 751 415 
Q 353 922 353 1747 
Q 353 2572 751 3078 
Q 1150 3584 1784 3584 
Q 2172 3584 2448 3432 
Q 2725 3281 2906 2969 
z
M 947 1747 
Q 947 1113 1208 752 
Q 1469 391 1925 391 
Q 2381 391 2643 752 
Q 2906 1113 2906 1747 
Q 2906 2381 2643 2742 
Q 2381 3103 1925 3103 
Q 1469 3103 1208 2742 
Q 947 2381 947 1747 
z
" transform="scale(0.015625)"/>
       <path id="DejaVuSans-5d" d="M 1947 4863 
L 1947 -844 
L 622 -844 
L 622 -397 
L 1369 -397 
L 1369 4416 
L 622 4416 
L 622 4863 
L 1947 4863 
z
" transform="scale(0.015625)"/>
      </defs>
      <use xlink:href="#DejaVuSans-Oblique-3b8" transform="translate(0 0.234375)"/>
      <use xlink:href="#DejaVuSans-20" transform="translate(61.181641 0.234375)"/>
      <use xlink:href="#DejaVuSans-5b" transform="translate(92.96875 0.234375)"/>
      <use xlink:href="#DejaVuSans-72" transform="translate(131.982422 0.234375)"/>
      <use xlink:href="#DejaVuSans-61" transform="translate(173.095703 0.234375)"/>
      <use xlink:href="#DejaVuSans-64" transform="translate(234.375 0.234375)"/>
      <use xlink:href="#DejaVuSans-5d" transform="translate(297.851562 0.234375)"/>
     </g>
    </g>
   </g>
   <g id="matplotlib.axis_2">
    <g id="ytick_1">
     <g id="line2d_9">
      <path d="M 90 640.8 
L 648 640.8 
" clip-path="url(#p3819918cc7)" style="fill: none; stroke: #cad3f5; stroke-width: 0.5; stroke-linecap: square"/>
     </g>
     <g id="line2d_10">
      <defs>
       <path id="mcda4896e52" d="M 0 0 
L -3.5 0 
" style="stroke: #cad3f5; stroke-width: 0.8"/>
      </defs>
      <g>
       <use xlink:href="#mcda4896e52" x="90" y="640.8" style="fill: #cad3f5; stroke: #cad3f5; stroke-width: 0.8"/>
      </g>
     </g>
     <g id="text_6">
      <!-- −4 -->
      <g style="fill: #cad3f5" transform="translate(68.257812 644.599219) scale(0.1 -0.1)">
       <defs>
        <path id="DejaVuSans-34" d="M 2419 4116 
L 825 1625 
L 2419 1625 
L 2419 4116 
z
M 2253 4666 
L 3047 4666 
L 3047 1625 
L 3713 1625 
L 3713 1100 
L 3047 1100 
L 3047 0 
L 2419 0 
L 2419 1100 
L 313 1100 
L 313 1709 
L 2253 4666 
z
" transform="scale(0.015625)"/>
       </defs>
       <use xlink:href="#DejaVuSans-2212"/>
       <use xlink:href="#DejaVuSans-34" x="83.789062"/>
      </g>
     </g>
    </g>
    <g id="ytick_2">
     <g id="line2d_11">
      <path d="M 90 571.5 
L 648 571.5 
" clip-path="url(#p3819918cc7)" style="fill: none; stroke: #cad3f5; stroke-width: 0.5; stroke-linecap: square"/>
     </g>
     <g id="line2d_12">
      <g>
       <use xlink:href="#mcda4896e52" x="90" y="571.5" style="fill: #cad3f5; stroke: #cad3f5; stroke-width: 0.8"/>
      </g>
     </g>
     <g id="text_7">
      <!-- −3 -->
      <g style="fill: #cad3f5" transform="translate(68.257812 575.299219) scale(0.1 -0.1)">
       <defs>
        <path id="DejaVuSans-33" d="M 2597 2516 
Q 3050 2419 3304 2112 
Q 3559 1806 3559 1356 
Q 3559 666 3084 287 
Q 2609 -91 1734 -91 
Q 1441 -91 1130 -33 
Q 819 25 488 141 
L 488 750 
Q 750 597 1062 519 
Q 1375 441 1716 441 
Q 2309 441 2620 675 
Q 2931 909 2931 1356 
Q 2931 1769 2642 2001 
Q 2353 2234 1838 2234 
L 1294 2234 
L 1294 2753 
L 1863 2753 
Q 2328 2753 2575 2939 
Q 2822 3125 2822 3475 
Q 2822 3834 2567 4026 
Q 2313 4219 1838 4219 
Q 1578 4219 1281 4162 
Q 984 4106 628 3988 
L 628 4550 
Q 988 4650 1302 4700 
Q 1616 4750 1894 4750 
Q 2613 4750 3031 4423 
Q 3450 4097 3450 3541 
Q 3450 3153 3228 2886 
Q 3006 2619 2597 2516 
z
" transform="scale(0.015625)"/>
       </defs>
       <use xlink:href="#DejaVuSans-2212"/>
       <use xlink:href="#DejaVuSans-33" x="83.789062"/>
      </g>
     </g>
    </g>
    <g id="ytick_3">
     <g id="line2d_13">
      <path d="M 90 502.2 
L 648 502.2 
" clip-path="url(#p3819918cc7)" style="fill: none; stroke: #cad3f5; stroke-width: 0.5; stroke-linecap: square"/>
     </g>
     <g id="line2d_14">
      <g>
       <use xlink:href="#mcda4896e52" x="90" y="502.2" style="fill: #cad3f5; stroke: #cad3f5; stroke-width: 0.8"/>
      </g>
     </g>
     <g id="text_8">
      <!-- −2 -->
      <g style="fill: #cad3f5" transform="translate(68.257812 505.999219) scale(0.1 -0.1)">
       <use xlink:href="#DejaVuSans-2212"/>
       <use xlink:href="#DejaVuSans-32" x="83.789062"/>
      </g>
     </g>
    </g>
    <g id="ytick_4">
     <g id="line2d_15">
      <path d="M 90 432.9 
L 648 432.9 
" clip-path="url(#p3819918cc7)" style="fill: none; stroke: #cad3f5; stroke-width: 0.5; stroke-linecap: square"/>
     </g>
     <g id="line2d_16">
      <g>
       <use xlink:href="#mcda4896e52" x="90" y="432.9" style="fill: #cad3f5; stroke: #cad3f5; stroke-width: 0.8"/>
      </g>
     </g>
     <g id="text_9">
      <!-- −1 -->
      <g style="fill: #cad3f5" transform="translate(68.257812 436.699219) scale(0.1 -0.1)">
       <defs>
        <path id="DejaVuSans-31" d="M 794 531 
L 1825 531 
L 1825 4091 
L 703 3866 
L 703 4441 
L 1819 4666 
L 2450 4666 
L 2450 531 
L 3481 531 
L 3481 0 
L 794 0 
L 794 531 
z
" transform="scale(0.015625)"/>
       </defs>
       <use xlink:href="#DejaVuSans-2212"/>
       <use xlink:href="#DejaVuSans-31" x="83.789062"/>
      </g>
     </g>
    </g>
    <g id="ytick_5">
     <g id="line2d_17">
      <path d="M 90 363.6 
L 648 363.6 
" clip-path="url(#p3819918cc7)" style="fill: none; stroke: #cad3f5; stroke-width: 0.5; stroke-linecap: square"/>
     </g>
     <g id="line2d_18">
      <g>
       <use xlink:href="#mcda4896e52" x="90" y="363.6" style="fill: #cad3f5; stroke: #cad3f5; stroke-width: 0.8"/>
      </g>
     </g>
     <g id="text_10">
      <!-- 0 -->
      <g style="fill: #cad3f5" transform="translate(76.6375 367.399219) scale(0.1 -0.1)">
       <use xlink:href="#DejaVuSans-30"/>
      </g>
     </g>
    </g>
    <g id="ytick_6">
     <g id="line2d_19">
      <path d="M 90 294.3 
L 648 294.3 
" clip-path="url(#p3819918cc7)" style="fill: none; stroke: #cad3f5; stroke-width: 0.5; stroke-linecap: square"/>
     </g>
     <g id="line2d_20">
      <g>
       <use xlink:href="#mcda4896e52" x="90" y="294.3" style="fill: #cad3f5; stroke: #cad3f5; stroke-width: 0.8"/>
      </g>
     </g>
     <g id="text_11">
      <!-- 1 -->
      <g style="fill: #cad3f5" transform="translate(76.6375 298.099219) scale(0.1 -0.1)">
       <use xlink:href="#DejaVuSans-31"/>
      </g>
     </g>
    </g>
    <g id="ytick_7">
     <g id="line2d_21">
      <path d="M 90 225 
L 648 225 
" clip-path="url(#p3819918cc7)" style="fill: none; stroke: #cad3f5; stroke-width: 0.5; stroke-linecap: square"/>
     </g>
     <g id="line2d_22">
      <g>
       <use xlink:href="#mcda4896e52" x="90" y="225" style="fill: #cad3f5; stroke: #cad3f5; stroke-width: 0.8"/>
      </g>
     </g>
     <g id="text_12">
      <!-- 2 -->
      <g style="fill: #cad3f5" transform="translate(76.6375 228.799219) scale(0.1 -0.1)">
       <use xlink:href="#DejaVuSans-32"/>
      </g>
     </g>
    </g>
    <g id="ytick_8">
     <g id="line2d_23">
      <path d="M 90 155.7 
L 648 155.7 
" clip-path="url(#p3819918cc7)" style="fill: none; stroke: #cad3f5; stroke-width: 0.5; stroke-linecap: square"/>
     </g>
     <g id="line2d_24">
      <g>
       <use xlink:href="#mcda4896e52" x="90" y="155.7" style="fill: #cad3f5; stroke: #cad3f5; stroke-width: 0.8"/>
      </g>
     </g>
     <g id="text_13">
      <!-- 3 -->
      <g style="fill: #cad3f5" transform="translate(76.6375 159.499219) scale(0.1 -0.1)">
       <use xlink:href="#DejaVuSans-33"/>
      </g>
     </g>
    </g>
    <g id="ytick_9">
     <g id="line2d_25">
      <path d="M 90 86.4 
L 648 86.4 
" clip-path="url(#p3819918cc7)" style="fill: none; stroke: #cad3f5; stroke-width: 0.5; stroke-linecap: square"/>
     </g>
     <g id="line2d_26">
      <g>
       <use xlink:href="#mcda4896e52" x="90" y="86.4" style="fill: #cad3f5; stroke: #cad3f5; stroke-width: 0.8"/>
      </g>
     </g>
     <g id="text_14">
      <!-- 4 -->
      <g style="fill: #cad3f5" transform="translate(76.6375 90.199219) scale(0.1 -0.1)">
       <use xlink:href="#DejaVuSans-34"/>
      </g>
     </g>
    </g>
    <g id="text_15">
     <!-- $\dot\theta$ [rad/s] -->
     <g style="fill: #cad3f5" transform="translate(60.514375 401.67) rotate(-90) scale(0.18 -0.18)">
      <defs>
       <path id="DejaVuSans-307" d="M -1894 4863 
L -1319 4863 
L -1319 4134 
L -1894 4134 
L -1894 4863 
z
M -1600 3584 
L -1600 3584 
z
" transform="scale(0.015625)"/>
       <path id="DejaVuSans-73" d="M 2834 3397 
L 2834 2853 
Q 2591 2978 2328 3040 
Q 2066 3103 1784 3103 
Q 1356 3103 1142 2972 
Q 928 2841 928 2578 
Q 928 2378 1081 2264 
Q 1234 2150 1697 2047 
L 1894 2003 
Q 2506 1872 2764 1633 
Q 3022 1394 3022 966 
Q 3022 478 2636 193 
Q 2250 -91 1575 -91 
Q 1294 -91 989 -36 
Q 684 19 347 128 
L 347 722 
Q 666 556 975 473 
Q 1284 391 1588 391 
Q 1994 391 2212 530 
Q 2431 669 2431 922 
Q 2431 1156 2273 1281 
Q 2116 1406 1581 1522 
L 1381 1569 
Q 847 1681 609 1914 
Q 372 2147 372 2553 
Q 372 3047 722 3315 
Q 1072 3584 1716 3584 
Q 2034 3584 2315 3537 
Q 2597 3491 2834 3397 
z
" transform="scale(0.015625)"/>
      </defs>
      <use xlink:href="#DejaVuSans-307" transform="translate(60.910156 34.015625)"/>
      <use xlink:href="#DejaVuSans-Oblique-3b8" transform="translate(0 0.75)"/>
      <use xlink:href="#DejaVuSans-20" transform="translate(61.181641 0.75)"/>
      <use xlink:href="#DejaVuSans-5b" transform="translate(92.96875 0.75)"/>
      <use xlink:href="#DejaVuSans-72" transform="translate(131.982422 0.75)"/>
      <use xlink:href="#DejaVuSans-61" transform="translate(173.095703 0.75)"/>
      <use xlink:href="#DejaVuSans-64" transform="translate(234.375 0.75)"/>
      <use xlink:href="#DejaVuSans-2f" transform="translate(297.851562 0.75)"/>
      <use xlink:href="#DejaVuSans-73" transform="translate(331.542969 0.75)"/>
      <use xlink:href="#DejaVuSans-5d" transform="translate(383.642578 0.75)"/>
     </g>
    </g>
   </g>
   <g id="line2d_27">
    <path d="M 462 186.362085 
L 471.346734 197.936757 
L 480.693467 209.842289 
L 490.040201 222.078682 
L 500.321608 235.920857 
L 510.603015 250.163372 
L 520.884422 264.806229 
L 531.165829 279.849426 
L 541.447236 295.292964 
L 551.728643 311.136843 
L 562.01005 327.381063 
L 572.291457 344.025623 
L 582.572864 361.070525 
L 592.854271 378.515767 
L 604.070352 398.003527 
L 615.286432 417.967725 
L 626.502513 438.408363 
L 637.718593 459.325439 
L 648 478.917963 
L 648 478.917963 
" clip-path="url(#p3819918cc7)" style="fill: none; stroke: #8bd5ca; stroke-linecap: square"/>
   </g>
   <g id="line2d_28">
    <path d="M 462 186.362085 
L 462 17.1 
" clip-path="url(#p3819918cc7)" style="fill: none; stroke: #8bd5ca; stroke-linecap: square"/>
   </g>
   <g id="line2d_29">
    <path d="M 648 478.917963 
L 648 17.1 
" clip-path="url(#p3819918cc7)" style="fill: none; stroke: #8bd5ca; stroke-linecap: square"/>
   </g>
   <g id="patch_3">
    <path d="M 90 640.8 
L 90 86.4 
" style="fill: none; stroke: #cad3f5; stroke-width: 1.5; stroke-linejoin: miter; stroke-linecap: square"/>
   </g>
   <g id="patch_4">
    <path d="M 648 640.8 
L 648 86.4 
" style="fill: none; stroke: #cad3f5; stroke-width: 1.5; stroke-linejoin: miter; stroke-linecap: square"/>
   </g>
   <g id="patch_5">
    <path d="M 90 640.8 
L 648 640.8 
" style="fill: none; stroke: #cad3f5; stroke-width: 1.5; stroke-linejoin: miter; stroke-linecap: square"/>
   </g>
   <g id="patch_6">
    <path d="M 90 86.4 
L 648 86.4 
" style="fill: none; stroke: #cad3f5; stroke-width: 1.5; stroke-linejoin: miter; stroke-linecap: square"/>
   </g>
   <g id="legend_1">
    <g id="patch_7">
     <path d="M 102.6 127.220625 
L 292.159687 127.220625 
Q 295.759687 127.220625 295.759687 123.620625 
L 295.759687 99 
Q 295.759687 95.4 292.159687 95.4 
L 102.6 95.4 
Q 99 95.4 99 99 
L 99 123.620625 
Q 99 127.220625 102.6 127.220625 
z
" style="fill: #24273a; opacity: 0.8; stroke: #24273a; stroke-linejoin: miter"/>
    </g>
    <g id="patch_8">
     <path d="M 106.2 116.277187 
L 142.2 116.277187 
L 142.2 103.677187 
L 106.2 103.677187 
z
" style="fill: #8bd5ca; fill-opacity: 0.5; stroke: #8bd5ca; stroke-opacity: 0.5; stroke-linejoin: miter"/>
    </g>
    <g id="text_16">
     <!-- viability kernel -->
     <g style="fill: #cad3f5" transform="translate(156.6 116.277187) scale(0.18 -0.18)">
      <defs>
       <path id="DejaVuSans-76" d="M 191 3500 
L 800 3500 
L 1894 563 
L 2988 3500 
L 3597 3500 
L 2284 0 
L 1503 0 
L 191 3500 
z
" transform="scale(0.015625)"/>
       <path id="DejaVuSans-69" d="M 603 3500 
L 1178 3500 
L 1178 0 
L 603 0 
L 603 3500 
z
M 603 4863 
L 1178 4863 
L 1178 4134 
L 603 4134 
L 603 4863 
z
" transform="scale(0.015625)"/>
       <path id="DejaVuSans-62" d="M 3116 1747 
Q 3116 2381 2855 2742 
Q 2594 3103 2138 3103 
Q 1681 3103 1420 2742 
Q 1159 2381 1159 1747 
Q 1159 1113 1420 752 
Q 1681 391 2138 391 
Q 2594 391 2855 752 
Q 3116 1113 3116 1747 
z
M 1159 2969 
Q 1341 3281 1617 3432 
Q 1894 3584 2278 3584 
Q 2916 3584 3314 3078 
Q 3713 2572 3713 1747 
Q 3713 922 3314 415 
Q 2916 -91 2278 -91 
Q 1894 -91 1617 61 
Q 1341 213 1159 525 
L 1159 0 
L 581 0 
L 581 4863 
L 1159 4863 
L 1159 2969 
z
" transform="scale(0.015625)"/>
       <path id="DejaVuSans-6c" d="M 603 4863 
L 1178 4863 
L 1178 0 
L 603 0 
L 603 4863 
z
" transform="scale(0.015625)"/>
       <path id="DejaVuSans-74" d="M 1172 4494 
L 1172 3500 
L 2356 3500 
L 2356 3053 
L 1172 3053 
L 1172 1153 
Q 1172 725 1289 603 
Q 1406 481 1766 481 
L 2356 481 
L 2356 0 
L 1766 0 
Q 1100 0 847 248 
Q 594 497 594 1153 
L 594 3053 
L 172 3053 
L 172 3500 
L 594 3500 
L 594 4494 
L 1172 4494 
z
" transform="scale(0.015625)"/>
       <path id="DejaVuSans-79" d="M 2059 -325 
Q 1816 -950 1584 -1140 
Q 1353 -1331 966 -1331 
L 506 -1331 
L 506 -850 
L 844 -850 
Q 1081 -850 1212 -737 
Q 1344 -625 1503 -206 
L 1606 56 
L 191 3500 
L 800 3500 
L 1894 763 
L 2988 3500 
L 3597 3500 
L 2059 -325 
z
" transform="scale(0.015625)"/>
       <path id="DejaVuSans-6b" d="M 581 4863 
L 1159 4863 
L 1159 1991 
L 2875 3500 
L 3609 3500 
L 1753 1863 
L 3688 0 
L 2938 0 
L 1159 1709 
L 1159 0 
L 581 0 
L 581 4863 
z
" transform="scale(0.015625)"/>
       <path id="DejaVuSans-65" d="M 3597 1894 
L 3597 1613 
L 953 1613 
Q 991 1019 1311 708 
Q 1631 397 2203 397 
Q 2534 397 2845 478 
Q 3156 559 3463 722 
L 3463 178 
Q 3153 47 2828 -22 
Q 2503 -91 2169 -91 
Q 1331 -91 842 396 
Q 353 884 353 1716 
Q 353 2575 817 3079 
Q 1281 3584 2069 3584 
Q 2775 3584 3186 3129 
Q 3597 2675 3597 1894 
z
M 3022 2063 
Q 3016 2534 2758 2815 
Q 2500 3097 2075 3097 
Q 1594 3097 1305 2825 
Q 1016 2553 972 2059 
L 3022 2063 
z
" transform="scale(0.015625)"/>
       <path id="DejaVuSans-6e" d="M 3513 2113 
L 3513 0 
L 2938 0 
L 2938 2094 
Q 2938 2591 2744 2837 
Q 2550 3084 2163 3084 
Q 1697 3084 1428 2787 
Q 1159 2491 1159 1978 
L 1159 0 
L 581 0 
L 581 3500 
L 1159 3500 
L 1159 2956 
Q 1366 3272 1645 3428 
Q 1925 3584 2291 3584 
Q 2894 3584 3203 3211 
Q 3513 2838 3513 2113 
z
" transform="scale(0.015625)"/>
      </defs>
      <use xlink:href="#DejaVuSans-76"/>
      <use xlink:href="#DejaVuSans-69" x="59.179688"/>
      <use xlink:href="#DejaVuSans-61" x="86.962891"/>
      <use xlink:href="#DejaVuSans-62" x="148.242188"/>
      <use xlink:href="#DejaVuSans-69" x="211.71875"/>
      <use xlink:href="#DejaVuSans-6c" x="239.501953"/>
      <use xlink:href="#DejaVuSans-69" x="267.285156"/>
      <use xlink:href="#DejaVuSans-74" x="295.068359"/>
      <use xlink:href="#DejaVuSans-79" x="334.277344"/>
      <use xlink:href="#DejaVuSans-20" x="393.457031"/>
      <use xlink:href="#DejaVuSans-6b" x="425.244141"/>
      <use xlink:href="#DejaVuSans-65" x="479.529297"/>
      <use xlink:href="#DejaVuSans-72" x="541.052734"/>
      <use xlink:href="#DejaVuSans-6e" x="580.416016"/>
      <use xlink:href="#DejaVuSans-65" x="643.794922"/>
      <use xlink:href="#DejaVuSans-6c" x="705.318359"/>
     </g>
    </g>
   </g>
  </g>
 </g>
 <defs>
  <clipPath id="p3819918cc7">
   <rect x="90" y="86.4" width="558" height="554.4"/>
  </clipPath>
 </defs>
</svg>
